<?xml version="1.0" encoding="UTF-8" standalone="no"?>
<svg
   xmlns:dc="http://purl.org/dc/elements/1.1/"
   xmlns:cc="http://creativecommons.org/ns#"
   xmlns:rdf="http://www.w3.org/1999/02/22-rdf-syntax-ns#"
   xmlns:svg="http://www.w3.org/2000/svg"
   xmlns="http://www.w3.org/2000/svg"
   xmlns:sodipodi="http://sodipodi.sourceforge.net/DTD/sodipodi-0.dtd"
   xmlns:inkscape="http://www.inkscape.org/namespaces/inkscape"
   id="Layer_1"
   data-name="Layer 1"
   viewBox="0 0 420 305.94"
   version="1.1"
   sodipodi:docname="Foodweb_Step3.svg"
   inkscape:version="0.92.5 (2060ec1f9f, 2020-04-08)">
  <metadata
     id="metadata291">
    <rdf:RDF>
      <cc:Work
         rdf:about="">
        <dc:format>image/svg+xml</dc:format>
        <dc:type
           rdf:resource="http://purl.org/dc/dcmitype/StillImage" />
      </cc:Work>
    </rdf:RDF>
  </metadata>
  <sodipodi:namedview
     pagecolor="#ffffff"
     bordercolor="#666666"
     borderopacity="1"
     objecttolerance="10"
     gridtolerance="10"
     guidetolerance="10"
     inkscape:pageopacity="0"
     inkscape:pageshadow="2"
     inkscape:window-width="1860"
     inkscape:window-height="1165"
     id="namedview289"
     showgrid="false"
     inkscape:zoom="2.4952381"
     inkscape:cx="128.83226"
     inkscape:cy="149.62959"
     inkscape:window-x="0"
     inkscape:window-y="0"
     inkscape:window-maximized="0"
     inkscape:current-layer="Layer_1" />
  <defs
     id="defs4">
    <style
       id="style2">.cls-1{fill:#e7e6e6;opacity:0.78;}.cls-2{font-size:16px;fill:#231f20;font-family:MyriadPro-Regular, Myriad Pro;}.cls-3{letter-spacing:-0.02em;}.cls-4{letter-spacing:0em;}.cls-5{letter-spacing:0.02em;}.cls-6{letter-spacing:-0.01em;}.cls-7{letter-spacing:0em;}.cls-8{letter-spacing:-0.01em;}.cls-9{letter-spacing:-0.07em;}.cls-10{letter-spacing:0.02em;}.cls-11{letter-spacing:0.01em;}.cls-12{letter-spacing:-0.01em;}.cls-13{letter-spacing:0em;}.cls-14{letter-spacing:0em;}.cls-15{fill:#55823b;}.cls-16,.cls-54{fill:none;}.cls-16{stroke:#c9c9c9;stroke-miterlimit:8;stroke-width:2.25px;}.cls-17{fill:#1c9045;}.cls-18{fill:#9dcb3b;}.cls-19{fill:#507837;}.cls-20{fill:#157261;}.cls-21{fill:#22aa4a;}.cls-22{fill:#2d5428;}.cls-23{fill:#1e8a43;}.cls-24{fill:#71c168;}.cls-25{fill:#94c83d;}.cls-26{fill:#16623c;}.cls-27{fill:#2f75b6;}.cls-28{fill:#b4c7e7;}.cls-29{fill:#6dbce9;}.cls-30{fill:#4952a3;}.cls-31{fill:#2b2971;}.cls-32{fill:#1683b0;}.cls-33{fill:#5f76b9;}.cls-34{fill:#26c4f3;}.cls-35{fill:#246ab4;}.cls-36{fill:#69c8c5;}.cls-37{fill:#6f3996;}.cls-38{fill:#ccaad0;}.cls-39{fill:#9a4299;}.cls-40{fill:#965aa4;}.cls-41{fill:#96226e;}.cls-42{fill:#6d297a;}.cls-43{fill:#6651a2;}.cls-44{fill:#a798c9;}.cls-45{fill:#f7921e;}.cls-46{fill:#f3b183;}.cls-47{fill:#ec7d30;}.cls-48{fill:#9f5a25;}.cls-49{fill:#dea427;}.cls-50{fill:#c45c28;}.cls-51{fill:#fee699;}.cls-52{fill:#fec010;}.cls-53{fill:#a7a9ac;}.cls-54{stroke:#a7a9ac;stroke-miterlimit:10;stroke-width:3px;}</style>
  </defs>
  <rect
     class="cls-1"
     y="233.87"
     width="420"
     height="72"
     id="rect6" />
  <rect
     class="cls-1"
     y="16.87"
     width="420"
     height="40"
     id="rect8" />
  <rect
     class="cls-1"
     y="113.87"
     width="420"
     height="57"
     id="rect10" />
  <text
     class="cls-2"
     transform="translate(18.25,277.45)"
     id="text30"
     style="font-size:16px;font-family:MyriadPro-Regular, 'Myriad Pro';fill:#231f20">Primary Producer</text>
  <text
     class="cls-2"
     transform="translate(18.25,93.92)"
     id="text48"
     style="font-size:16px;font-family:MyriadPro-Regular, 'Myriad Pro';fill:#231f20">Tertiary Consumer</text>
  <text
     class="cls-2"
     transform="translate(18.25,207.45)"
     id="text64"
     style="font-size:16px;font-family:MyriadPro-Regular, 'Myriad Pro';fill:#231f20">Primary Consumer</text>
  <text
     class="cls-2"
     transform="translate(18.25,149.07)"
     id="text82"
     style="font-size:16px;font-family:MyriadPro-Regular, 'Myriad Pro';fill:#231f20">Secondary Consumer</text>
  <text
     class="cls-2"
     transform="translate(18.25,41.73)"
     id="text102"
     style="font-size:16px;font-family:MyriadPro-Regular, 'Myriad Pro';fill:#231f20">Apex Predator</text>
  <ellipse
     class="cls-15"
     cx="269.83"
     cy="270.31"
     rx="33.5"
     ry="34.5"
     id="ellipse104" />
  <ellipse
     class="cls-16"
     cx="269.83"
     cy="270.31"
     rx="33.5"
     ry="34.5"
     id="ellipse106" />
  <circle
     class="cls-17"
     cx="244.83"
     cy="276.31"
     r="7.5"
     id="circle108" />
  <circle
     class="cls-16"
     cx="244.83"
     cy="276.31"
     r="7.5"
     id="circle110" />
  <ellipse
     class="cls-18"
     cx="279.33"
     cy="249.31"
     rx="7"
     ry="7.5"
     id="ellipse112" />
  <ellipse
     class="cls-16"
     cx="279.33"
     cy="249.31"
     rx="7"
     ry="7.5"
     id="ellipse114" />
  <ellipse
     class="cls-19"
     cx="277.83"
     cy="271.81"
     rx="7.5"
     ry="7"
     id="ellipse116" />
  <ellipse
     class="cls-16"
     cx="277.83"
     cy="271.81"
     rx="7.5"
     ry="7"
     id="ellipse118" />
  <circle
     class="cls-20"
     cx="247.83"
     cy="258.31"
     r="7.5"
     id="circle120" />
  <circle
     class="cls-16"
     cx="247.83"
     cy="258.31"
     r="7.5"
     id="circle122" />
  <circle
     class="cls-21"
     cx="258.33"
     cy="290.81"
     r="7"
     id="circle124" />
  <circle
     class="cls-16"
     cx="258.33"
     cy="290.81"
     r="7"
     id="circle126" />
  <circle
     class="cls-22"
     cx="290.33"
     cy="282.81"
     r="7"
     id="circle128" />
  <circle
     class="cls-16"
     cx="290.33"
     cy="282.81"
     r="7"
     id="circle130" />
  <circle
     class="cls-23"
     cx="274.83"
     cy="293.31"
     r="7.5"
     id="circle132" />
  <circle
     class="cls-16"
     cx="274.83"
     cy="293.31"
     r="7.5"
     id="circle134" />
  <circle
     class="cls-24"
     cx="260.83"
     cy="270.31"
     r="7.5"
     id="circle136" />
  <circle
     class="cls-16"
     cx="260.83"
     cy="270.31"
     r="7.5"
     id="circle138" />
  <circle
     class="cls-25"
     cx="292.83"
     cy="263.31"
     r="7.5"
     id="circle140" />
  <circle
     class="cls-16"
     cx="292.83"
     cy="263.31"
     r="7.5"
     id="circle142" />
  <circle
     class="cls-26"
     cx="261.83"
     cy="247.31"
     r="7.5"
     id="circle144" />
  <circle
     class="cls-16"
     cx="261.83"
     cy="247.31"
     r="7.5"
     id="circle146" />
  <ellipse
     class="cls-27"
     cx="341.33"
     cy="205.37"
     rx="34"
     ry="34.5"
     id="ellipse148" />
  <ellipse
     class="cls-16"
     cx="341.33"
     cy="205.37"
     rx="34"
     ry="34.5"
     id="ellipse150" />
  <circle
     class="cls-28"
     cx="316.33"
     cy="210.87"
     r="7"
     id="circle152" />
  <circle
     class="cls-16"
     cx="316.33"
     cy="210.87"
     r="7"
     id="circle154" />
  <ellipse
     class="cls-29"
     cx="342.83"
     cy="185.87"
     rx="7.5"
     ry="7"
     id="ellipse156" />
  <ellipse
     class="cls-16"
     cx="342.83"
     cy="185.87"
     rx="7.5"
     ry="7"
     id="ellipse158" />
  <ellipse
     class="cls-30"
     cx="350.33"
     cy="203.37"
     rx="7"
     ry="7.5"
     id="ellipse160" />
  <ellipse
     class="cls-16"
     cx="350.33"
     cy="203.37"
     rx="7"
     ry="7.5"
     id="ellipse162" />
  <circle
     class="cls-31"
     cx="350.83"
     cy="222.37"
     r="7.5"
     id="circle164" />
  <circle
     class="cls-16"
     cx="350.83"
     cy="222.37"
     r="7.5"
     id="circle166" />
  <circle
     class="cls-32"
     cx="332.83"
     cy="204.37"
     r="7.5"
     id="circle168" />
  <circle
     class="cls-16"
     cx="332.83"
     cy="204.37"
     r="7.5"
     id="circle170" />
  <circle
     class="cls-33"
     cx="320.33"
     cy="189.87"
     r="7"
     id="circle172" />
  <circle
     class="cls-16"
     cx="320.33"
     cy="189.87"
     r="7"
     id="circle174" />
  <ellipse
     class="cls-34"
     cx="329.33"
     cy="225.37"
     rx="7"
     ry="7.5"
     id="ellipse176" />
  <ellipse
     class="cls-16"
     cx="329.33"
     cy="225.37"
     rx="7"
     ry="7.5"
     id="ellipse178" />
  <ellipse
     class="cls-35"
     cx="364.33"
     cy="211.37"
     rx="7"
     ry="7.5"
     id="ellipse180" />
  <ellipse
     class="cls-16"
     cx="364.33"
     cy="211.37"
     rx="7"
     ry="7.5"
     id="ellipse182" />
  <ellipse
     class="cls-36"
     cx="358.83"
     cy="188.87"
     rx="7.5"
     ry="7"
     id="ellipse184" />
  <ellipse
     class="cls-16"
     cx="358.83"
     cy="188.87"
     rx="7.5"
     ry="7"
     id="ellipse186" />
  <ellipse
     class="cls-37"
     cx="242.83"
     cy="140.37"
     rx="34"
     ry="34.5"
     id="ellipse188" />
  <ellipse
     class="cls-16"
     cx="242.83"
     cy="140.37"
     rx="34"
     ry="34.5"
     id="ellipse190" />
  <circle
     class="cls-38"
     cx="244.33"
     cy="121.37"
     r="7.5"
     id="circle192" />
  <circle
     class="cls-16"
     cx="244.33"
     cy="121.37"
     r="7.5"
     id="circle194" />
  <ellipse
     class="cls-39"
     cx="252.33"
     cy="157.87"
     rx="7.5"
     ry="7"
     id="ellipse196" />
  <ellipse
     class="cls-16"
     cx="252.33"
     cy="157.87"
     rx="7.5"
     ry="7"
     id="ellipse198" />
  <circle
     class="cls-40"
     cx="234.83"
     cy="139.87"
     r="7"
     id="circle200" />
  <circle
     class="cls-16"
     cx="234.83"
     cy="139.87"
     r="7"
     id="circle202" />
  <circle
     class="cls-41"
     cx="222.33"
     cy="125.37"
     r="7.5"
     id="circle204" />
  <circle
     class="cls-16"
     cx="222.33"
     cy="125.37"
     r="7.5"
     id="circle206" />
  <ellipse
     class="cls-42"
     cx="230.83"
     cy="161.37"
     rx="7"
     ry="7.5"
     id="ellipse208" />
  <ellipse
     class="cls-16"
     cx="230.83"
     cy="161.37"
     rx="7"
     ry="7.5"
     id="ellipse210" />
  <circle
     class="cls-43"
     cx="265.83"
     cy="146.87"
     r="7"
     id="circle212" />
  <circle
     class="cls-16"
     cx="265.83"
     cy="146.87"
     r="7"
     id="circle214" />
  <circle
     class="cls-44"
     cx="260.33"
     cy="124.37"
     r="7.5"
     id="circle216" />
  <circle
     class="cls-16"
     cx="260.33"
     cy="124.37"
     r="7.5"
     id="circle218" />
  <ellipse
     class="cls-45"
     cx="322.33"
     cy="83.12"
     rx="34"
     ry="34.5"
     id="ellipse220" />
  <ellipse
     class="cls-16"
     cx="322.33"
     cy="83.12"
     rx="34"
     ry="34.5"
     id="ellipse222" />
  <ellipse
     class="cls-46"
     cx="322.33"
     cy="72.12"
     rx="7"
     ry="7.5"
     id="ellipse224" />
  <ellipse
     class="cls-16"
     cx="322.33"
     cy="72.12"
     rx="7"
     ry="7.5"
     id="ellipse226" />
  <circle
     class="cls-47"
     cx="301.83"
     cy="68.12"
     r="7.5"
     id="circle228" />
  <circle
     class="cls-16"
     cx="301.83"
     cy="68.12"
     r="7.5"
     id="circle230" />
  <circle
     class="cls-48"
     cx="310.33"
     cy="103.62"
     r="7"
     id="circle232" />
  <circle
     class="cls-16"
     cx="310.33"
     cy="103.62"
     r="7"
     id="circle234" />
  <ellipse
     class="cls-49"
     cx="345.33"
     cy="89.12"
     rx="7"
     ry="7.5"
     id="ellipse236" />
  <ellipse
     class="cls-16"
     cx="345.33"
     cy="89.12"
     rx="7"
     ry="7.5"
     id="ellipse238" />
  <ellipse
     class="cls-50"
     cx="339.83"
     cy="66.62"
     rx="7.5"
     ry="7"
     id="ellipse240" />
  <ellipse
     class="cls-16"
     cx="339.83"
     cy="66.62"
     rx="7.5"
     ry="7"
     id="ellipse242" />
  <ellipse
     class="cls-51"
     cx="241.83"
     cy="35.63"
     rx="34"
     ry="34.5"
     id="ellipse244" />
  <ellipse
     class="cls-16"
     cx="241.83"
     cy="35.63"
     rx="34"
     ry="34.5"
     id="ellipse246" />
  <circle
     class="cls-52"
     cx="226.33"
     cy="26.63"
     r="7.5"
     id="circle248" />
  <circle
     class="cls-16"
     cx="226.33"
     cy="26.63"
     r="7.5"
     id="circle250" />
  <line
     class="cls-53"
     x1="290.83"
     y1="244.62"
     x2="313.22"
     y2="225.37"
     id="line252" />
  <line
     class="cls-54"
     x1="290.83"
     y1="244.62"
     x2="304.71"
     y2="232.69"
     id="line254" />
  <path
     class="cls-53"
     d="M322.88,234.5c-2.72,4.93-5.51,11.74-6.28,17.07l-3.34-8.79-8.2-4.62C310.45,238.2,317.6,236.46,322.88,234.5Z"
     transform="translate(-9.67 -9.13)"
     id="path256" />
  <line
     class="cls-53"
     x1="309.33"
     y1="192.87"
     x2="267.33"
     y2="164.28"
     id="line258" />
  <line
     class="cls-54"
     x1="309.33"
     y1="192.87"
     x2="276.61"
     y2="170.6"
     id="line260" />
  <path
     class="cls-53"
     d="M277,173.41c5.47,1.35,12.77,2.27,18.12,1.63l-7.62,5.51-2.34,9.11C283.8,184.45,280.26,178,277,173.41Z"
     transform="translate(-9.67 -9.13)"
     id="path262" />
  <line
     class="cls-53"
     x1="260.33"
     y1="237.23"
     x2="247.49"
     y2="174.87"
     id="line264" />
  <line
     class="cls-54"
     x1="260.33"
     y1="237.23"
     x2="249.75"
     y2="185.87"
     id="line266" />
  <path
     class="cls-53"
     d="M257.16,184c3,4.78,7.58,10.52,11.87,13.79l-9.31-1.35-8,4.92C254.35,196.66,256.3,189.57,257.16,184Z"
     transform="translate(-9.67 -9.13)"
     id="path268" />
  <line
     class="cls-53"
     x1="336.33"
     y1="168.87"
     x2="327.33"
     y2="119.34"
     id="line270" />
  <line
     class="cls-54"
     x1="336.33"
     y1="168.87"
     x2="329.34"
     y2="130.39"
     id="line272" />
  <path
     class="cls-53"
     d="M337,128.47c2.87,4.85,7.33,10.7,11.55,14.06L339.27,141l-8.13,4.73C333.9,141.06,336,134,337,128.47Z"
     transform="translate(-9.67 -9.13)"
     id="path274" />
  <line
     class="cls-53"
     x1="290.33"
     y1="68.12"
     x2="270.33"
     y2="54.86"
     id="line276" />
  <line
     class="cls-54"
     x1="290.33"
     y1="68.12"
     x2="279.69"
     y2="61.06"
     id="line278" />
  <path
     class="cls-53"
     d="M280,64c5.49,1.29,12.79,2.12,18.14,1.42L290.58,71l-2.22,9.14C286.93,74.94,283.32,68.53,280,64Z"
     transform="translate(-9.67 -9.13)"
     id="path280" />
  <line
     class="cls-53"
     x1="242.83"
     y1="106.25"
     x2="242.83"
     y2="70.12"
     id="line282" />
  <line
     class="cls-54"
     x1="242.83"
     y1="106.25"
     x2="242.83"
     y2="81.35"
     id="line284" />
  <path
     class="cls-53"
     d="M252.5,79.25c2,5.28,5.3,11.84,8.85,15.9L252.5,92l-8.84,3.2C247.2,91.09,250.54,84.53,252.5,79.25Z"
     transform="translate(-9.67 -9.13)"
     id="path286" />
</svg>
