<?xml version="1.0" encoding="UTF-8" standalone="no"?>
<svg
   xmlns:dc="http://purl.org/dc/elements/1.1/"
   xmlns:cc="http://creativecommons.org/ns#"
   xmlns:rdf="http://www.w3.org/1999/02/22-rdf-syntax-ns#"
   xmlns:svg="http://www.w3.org/2000/svg"
   xmlns="http://www.w3.org/2000/svg"
   xmlns:sodipodi="http://sodipodi.sourceforge.net/DTD/sodipodi-0.dtd"
   xmlns:inkscape="http://www.inkscape.org/namespaces/inkscape"
   id="Layer_1"
   data-name="Layer 1"
   viewBox="0 0 420 289"
   version="1.1"
   sodipodi:docname="Foodweb_Step5.svg"
   inkscape:version="0.92.5 (2060ec1f9f, 2020-04-08)">
  <metadata
     id="metadata309">
    <rdf:RDF>
      <cc:Work
         rdf:about="">
        <dc:format>image/svg+xml</dc:format>
        <dc:type
           rdf:resource="http://purl.org/dc/dcmitype/StillImage" />
      </cc:Work>
    </rdf:RDF>
  </metadata>
  <sodipodi:namedview
     pagecolor="#ffffff"
     bordercolor="#666666"
     borderopacity="1"
     objecttolerance="10"
     gridtolerance="10"
     guidetolerance="10"
     inkscape:pageopacity="0"
     inkscape:pageshadow="2"
     inkscape:window-width="1720"
     inkscape:window-height="1082"
     id="namedview307"
     showgrid="false"
     inkscape:zoom="2.4952381"
     inkscape:cx="122.6902"
     inkscape:cy="133.89995"
     inkscape:window-x="0"
     inkscape:window-y="0"
     inkscape:window-maximized="0"
     inkscape:current-layer="Layer_1" />
  <defs
     id="defs4">
    <style
       id="style2">.cls-1{fill:#e7e6e6;opacity:0.78;}.cls-2{font-size:16px;fill:#231f20;font-family:MyriadPro-Regular, Myriad Pro;}.cls-3{letter-spacing:-0.02em;}.cls-4{letter-spacing:0em;}.cls-5{letter-spacing:0.02em;}.cls-6{letter-spacing:-0.01em;}.cls-7{letter-spacing:0em;}.cls-8{letter-spacing:-0.01em;}.cls-9{letter-spacing:-0.07em;}.cls-10{letter-spacing:0.02em;}.cls-11{letter-spacing:0.01em;}.cls-12{letter-spacing:-0.01em;}.cls-13{letter-spacing:0em;}.cls-14{letter-spacing:0em;}.cls-15{fill:#1c9045;}.cls-16,.cls-33{fill:none;}.cls-16{stroke:#c9c9c9;stroke-miterlimit:8;stroke-width:2.25px;}.cls-17{fill:#507837;}.cls-18{fill:#157261;}.cls-19{fill:#2d5428;}.cls-20{fill:#1e8a43;}.cls-21{fill:#71c168;}.cls-22{fill:#b4c7e7;}.cls-23{fill:#6dbce9;}.cls-24{fill:#2b2971;}.cls-25{fill:#5f76b9;}.cls-26{fill:#26c4f3;}.cls-27{fill:#69c8c5;}.cls-28{fill:#965aa4;}.cls-29{fill:#9f5a25;}.cls-30{fill:#dea427;}.cls-31{fill:#fec010;}.cls-32{fill:#a7a9ac;}.cls-33{stroke:#a7a9ac;stroke-miterlimit:10;stroke-width:1.5px;}</style>
  </defs>
  <rect
     class="cls-1"
     y="217"
     width="420"
     height="72"
     id="rect6" />
  <rect
     class="cls-1"
     width="420"
     height="40"
     id="rect8" />
  <rect
     class="cls-1"
     y="97"
     width="420"
     height="57"
     id="rect10" />
  <text
     class="cls-2"
     transform="translate(18.25,260.58)"
     id="text30"
     style="font-size:16px;font-family:MyriadPro-Regular, 'Myriad Pro';fill:#231f20">Primary Producer</text>
  <text
     class="cls-2"
     transform="translate(18.25,77.05)"
     id="text48"
     style="font-size:16px;font-family:MyriadPro-Regular, 'Myriad Pro';fill:#231f20">Tertiary Consumer</text>
  <text
     class="cls-2"
     transform="translate(18.25,190.58)"
     id="text64"
     style="font-size:16px;font-family:MyriadPro-Regular, 'Myriad Pro';fill:#231f20">Primary Consumer</text>
  <text
     class="cls-2"
     transform="translate(18.25,132.2)"
     id="text82"
     style="font-size:16px;font-family:MyriadPro-Regular, 'Myriad Pro';fill:#231f20">Secondary Consumer</text>
  <text
     class="cls-2"
     transform="translate(18.25,24.86)"
     id="text102"
     style="font-size:16px;font-family:MyriadPro-Regular, 'Myriad Pro';fill:#231f20">Apex Predator</text>
  <circle
     class="cls-15"
     cx="233.83"
     cy="263.78"
     r="7.5"
     id="circle104" />
  <circle
     class="cls-16"
     cx="233.83"
     cy="263.78"
     r="7.5"
     id="circle106" />
  <ellipse
     class="cls-17"
     cx="307.08"
     cy="267.78"
     rx="7.5"
     ry="7"
     id="ellipse108" />
  <ellipse
     class="cls-16"
     cx="307.08"
     cy="267.78"
     rx="7.5"
     ry="7"
     id="ellipse110" />
  <circle
     class="cls-18"
     cx="212.76"
     cy="241.25"
     r="7.5"
     id="circle112" />
  <circle
     class="cls-16"
     cx="212.76"
     cy="241.25"
     r="7.5"
     id="circle114" />
  <circle
     class="cls-19"
     cx="396.13"
     cy="240.75"
     r="7"
     id="circle116" />
  <circle
     class="cls-16"
     cx="396.13"
     cy="240.75"
     r="7"
     id="circle118" />
  <circle
     class="cls-20"
     cx="346.66"
     cy="252.83"
     r="7.5"
     id="circle120" />
  <circle
     class="cls-16"
     cx="346.66"
     cy="252.83"
     r="7.5"
     id="circle122" />
  <circle
     class="cls-21"
     cx="275.33"
     cy="241.25"
     r="7.5"
     id="circle124" />
  <circle
     class="cls-16"
     cx="275.33"
     cy="241.25"
     r="7.5"
     id="circle126" />
  <circle
     class="cls-22"
     cx="295.83"
     cy="167.84"
     r="7"
     id="circle128" />
  <circle
     class="cls-16"
     cx="295.83"
     cy="167.84"
     r="7"
     id="circle130" />
  <ellipse
     class="cls-23"
     cx="342.83"
     cy="169"
     rx="7.5"
     ry="7"
     id="ellipse132" />
  <ellipse
     class="cls-16"
     cx="342.83"
     cy="169"
     rx="7.5"
     ry="7"
     id="ellipse134" />
  <circle
     class="cls-24"
     cx="314.58"
     cy="201.61"
     r="7.5"
     id="circle136" />
  <circle
     class="cls-16"
     cx="314.58"
     cy="201.61"
     r="7.5"
     id="circle138" />
  <circle
     class="cls-25"
     cx="248.83"
     cy="188.5"
     r="7"
     id="circle140" />
  <circle
     class="cls-16"
     cx="248.83"
     cy="188.5"
     r="7"
     id="circle142" />
  <ellipse
     class="cls-26"
     cx="277.75"
     cy="201.61"
     rx="7"
     ry="7.5"
     id="ellipse144" />
  <ellipse
     class="cls-16"
     cx="277.75"
     cy="201.61"
     rx="7"
     ry="7.5"
     id="ellipse146" />
  <ellipse
     class="cls-27"
     cx="380.55"
     cy="198"
     rx="7"
     ry="7.5"
     transform="translate(158.96 544.97) rotate(-87.88)"
     id="ellipse148" />
  <ellipse
     class="cls-16"
     cx="370.88"
     cy="172"
     rx="7.5"
     ry="7"
     id="ellipse150" />
  <circle
     class="cls-28"
     cx="234.83"
     cy="123"
     r="7"
     id="circle152" />
  <circle
     class="cls-16"
     cx="234.83"
     cy="123"
     r="7"
     id="circle154" />
  <circle
     class="cls-29"
     cx="343.33"
     cy="90"
     r="7"
     id="circle156" />
  <circle
     class="cls-16"
     cx="343.33"
     cy="90"
     r="7"
     id="circle158" />
  <ellipse
     class="cls-30"
     cx="327.33"
     cy="52.54"
     rx="7"
     ry="7.5"
     id="ellipse160" />
  <ellipse
     class="cls-16"
     cx="327.33"
     cy="52.54"
     rx="7"
     ry="7.5"
     id="ellipse162" />
  <circle
     class="cls-31"
     cx="226.33"
     cy="9.75"
     r="7.5"
     id="circle164" />
  <circle
     class="cls-16"
     cx="226.33"
     cy="9.75"
     r="7.5"
     id="circle166" />
  <line
     class="cls-32"
     x1="248.83"
     y1="181.5"
     x2="237.23"
     y2="130"
     id="line168" />
  <line
     class="cls-33"
     x1="248.83"
     y1="181.5"
     x2="238.46"
     y2="135.48"
     id="line170" />
  <path
     class="cls-32"
     d="M246.9,156a27.81,27.81,0,0,0,6.06,6.78l-4.67-.59-4,2.54A28.29,28.29,0,0,0,246.9,156Z"
     transform="translate(-9.67 -26)"
     id="path172" />
  <line
     class="cls-32"
     x1="335.33"
     y1="87.96"
     x2="230.86"
     y2="17.12"
     id="line174" />
  <line
     class="cls-33"
     x1="335.33"
     y1="87.96"
     x2="235.5"
     y2="20.27"
     id="line176" />
  <path
     class="cls-32"
     d="M240.52,43.12a28.32,28.32,0,0,0,9.06.8l-3.8,2.76-1.16,4.56A28,28,0,0,0,240.52,43.12Z"
     transform="translate(-9.67 -26)"
     id="path178" />
  <line
     class="cls-32"
     x1="234.83"
     y1="116"
     x2="226.33"
     y2="17.25"
     id="line180" />
  <line
     class="cls-33"
     x1="234.83"
     y1="116"
     x2="226.81"
     y2="22.84"
     id="line182" />
  <path
     class="cls-32"
     d="M236,43.25a27.94,27.94,0,0,0,5.09,7.54l-4.55-1.21-4.26,2A28.11,28.11,0,0,0,236,43.25Z"
     transform="translate(-9.67 -26)"
     id="path184" />
  <line
     class="cls-32"
     x1="240.33"
     y1="118.68"
     x2="336.33"
     y2="93.59"
     id="line186" />
  <line
     class="cls-33"
     x1="240.33"
     y1="118.68"
     x2="330.9"
     y2="95.01"
     id="line188" />
  <path
     class="cls-32"
     d="M346,119.59a28.13,28.13,0,0,0-6.57,6.29l.43-4.68-2.67-3.87A28.09,28.09,0,0,0,346,119.59Z"
     transform="translate(-9.67 -26)"
     id="path190" />
  <line
     class="cls-32"
     x1="240.33"
     y1="118.68"
     x2="320.67"
     y2="57.77"
     id="line192" />
  <line
     class="cls-33"
     x1="240.33"
     y1="118.68"
     x2="316.2"
     y2="61.16"
     id="line194" />
  <path
     class="cls-32"
     d="M330.34,83.77a28.24,28.24,0,0,0-3.66,8.33l-1.4-4.49-3.95-2.56A28.1,28.1,0,0,0,330.34,83.77Z"
     transform="translate(-9.67 -26)"
     id="path196" />
  <line
     class="cls-32"
     x1="295.83"
     y1="160.84"
     x2="325.08"
     y2="59.63"
     id="line198" />
  <line
     class="cls-33"
     x1="295.83"
     y1="160.84"
     x2="323.52"
     y2="65.03"
     id="line200" />
  <path
     class="cls-32"
     d="M334.74,85.63a28.17,28.17,0,0,0,2.05,8.87L333,91.73l-4.69.31A28,28,0,0,0,334.74,85.63Z"
     transform="translate(-9.67 -26)"
     id="path202" />
  <line
     class="cls-32"
     x1="337.88"
     y1="163.75"
     x2="328.8"
     y2="60.04"
     id="line204" />
  <line
     class="cls-33"
     x1="337.88"
     y1="163.75"
     x2="329.29"
     y2="65.63"
     id="line206" />
  <path
     class="cls-32"
     d="M338.47,86a27.85,27.85,0,0,0,5.1,7.53L339,92.36l-4.27,2A28,28,0,0,0,338.47,86Z"
     transform="translate(-9.67 -26)"
     id="path208" />
  <line
     class="cls-32"
     x1="367.29"
     y1="165"
     x2="346.66"
     y2="97"
     id="line210" />
  <line
     class="cls-33"
     x1="367.29"
     y1="165"
     x2="348.29"
     y2="102.37"
     id="line212" />
  <path
     class="cls-32"
     d="M356.33,123a28.16,28.16,0,0,0,6.54,6.32l-4.7-.24-3.76,2.81A28.23,28.23,0,0,0,356.33,123Z"
     transform="translate(-9.67 -26)"
     id="path214" />
  <line
     class="cls-32"
     x1="342.83"
     y1="162"
     x2="343.33"
     y2="97"
     id="line216" />
  <line
     class="cls-33"
     x1="342.83"
     y1="162"
     x2="343.29"
     y2="102.61"
     id="line218" />
  <path
     class="cls-32"
     d="M353,123a28.14,28.14,0,0,0,4.36,8L353,129.35l-4.43,1.56A28.17,28.17,0,0,0,353,123Z"
     transform="translate(-9.67 -26)"
     id="path220" />
  <line
     class="cls-32"
     x1="273.7"
     y1="195.5"
     x2="241.83"
     y2="129.42"
     id="line222" />
  <line
     class="cls-33"
     x1="273.7"
     y1="195.5"
     x2="244.27"
     y2="134.47"
     id="line224" />
  <path
     class="cls-32"
     d="M251.5,155.42a28.16,28.16,0,0,0,7.44,5.24l-4.68.48L251,164.5A28,28,0,0,0,251.5,155.42Z"
     transform="translate(-9.67 -26)"
     id="path226" />
  <line
     class="cls-32"
     x1="307.08"
     y1="197.78"
     x2="241.83"
     y2="127.26"
     id="line228" />
  <line
     class="cls-33"
     x1="307.08"
     y1="197.78"
     x2="245.65"
     y2="131.38"
     id="line230" />
  <path
     class="cls-32"
     d="M251.5,153.26a28.23,28.23,0,0,0,8.65,2.83l-4.34,1.83-2.16,4.18A28,28,0,0,0,251.5,153.26Z"
     transform="translate(-9.67 -26)"
     id="path232" />
  <line
     class="cls-32"
     x1="314.58"
     y1="194.11"
     x2="327.33"
     y2="60.04"
     id="line234" />
  <line
     class="cls-33"
     x1="314.58"
     y1="194.11"
     x2="326.8"
     y2="65.63"
     id="line236" />
  <path
     class="cls-32"
     d="M337,86a28.25,28.25,0,0,0,3.65,8.33l-4.25-2-4.55,1.17A27.93,27.93,0,0,0,337,86Z"
     transform="translate(-9.67 -26)"
     id="path238" />
  <line
     class="cls-32"
     x1="350.33"
     y1="245.33"
     x2="370.62"
     y2="179"
     id="line240" />
  <line
     class="cls-33"
     x1="350.33"
     y1="245.33"
     x2="368.98"
     y2="184.36"
     id="line242" />
  <path
     class="cls-32"
     d="M380.29,205a27.94,27.94,0,0,0,1.9,8.89l-3.76-2.82-4.7.23A28.15,28.15,0,0,0,380.29,205Z"
     transform="translate(-9.67 -26)"
     id="path244" />
  <line
     class="cls-32"
     x1="392.79"
     y1="233.75"
     x2="372.39"
     y2="178.86"
     id="line246" />
  <line
     class="cls-33"
     x1="392.79"
     y1="233.75"
     x2="374.35"
     y2="184.12"
     id="line248" />
  <path
     class="cls-32"
     d="M382.06,204.86a28.41,28.41,0,0,0,6.91,5.91l-4.7,0-3.59,3A28,28,0,0,0,382.06,204.86Z"
     transform="translate(-9.67 -26)"
     id="path250" />
  <line
     class="cls-32"
     x1="345.11"
     y1="245.33"
     x2="342.83"
     y2="176"
     id="line252" />
  <line
     class="cls-33"
     x1="345.11"
     y1="245.33"
     x2="343.02"
     y2="181.61"
     id="line254" />
  <path
     class="cls-32"
     d="M352.5,202a28.05,28.05,0,0,0,4.68,7.8l-4.47-1.45-4.37,1.74A28.17,28.17,0,0,0,352.5,202Z"
     transform="translate(-9.67 -26)"
     id="path256" />
  <line
     class="cls-32"
     x1="310.19"
     y1="260.78"
     x2="314.58"
     y2="209.11"
     id="line258" />
  <line
     class="cls-33"
     x1="310.19"
     y1="260.78"
     x2="314.11"
     y2="214.71"
     id="line260" />
  <path
     class="cls-32"
     d="M324.25,235.11a28,28,0,0,0,3.73,8.3l-4.27-2-4.54,1.22A28,28,0,0,0,324.25,235.11Z"
     transform="translate(-9.67 -26)"
     id="path262" />
  <line
     class="cls-32"
     x1="350.33"
     y1="245.33"
     x2="370.62"
     y2="179"
     id="line264" />
  <line
     class="cls-33"
     x1="350.33"
     y1="245.33"
     x2="368.98"
     y2="184.36"
     id="line266" />
  <path
     class="cls-32"
     d="M380.29,205a27.94,27.94,0,0,0,1.9,8.89l-3.76-2.82-4.7.23A28.15,28.15,0,0,0,380.29,205Z"
     transform="translate(-9.67 -26)"
     id="path268" />
  <line
     class="cls-32"
     x1="280.5"
     y1="235.34"
     x2="308.74"
     y2="206.3"
     id="line270" />
  <line
     class="cls-33"
     x1="280.5"
     y1="235.34"
     x2="304.82"
     y2="210.33"
     id="line272" />
  <path
     class="cls-32"
     d="M318.4,232.3a28.24,28.24,0,0,0-2.37,8.79l-2-4.23-4.29-1.94A28,28,0,0,0,318.4,232.3Z"
     transform="translate(-9.67 -26)"
     id="path274" />
  <line
     class="cls-32"
     x1="303.54"
     y1="261.61"
     x2="295.83"
     y2="174.84"
     id="line276" />
  <line
     class="cls-33"
     x1="303.54"
     y1="261.61"
     x2="296.33"
     y2="180.43"
     id="line278" />
  <path
     class="cls-32"
     d="M305.5,200.84a28.11,28.11,0,0,0,5.11,7.53l-4.55-1.21-4.26,2A28.13,28.13,0,0,0,305.5,200.84Z"
     transform="translate(-9.67 -26)"
     id="path280" />
  <line
     class="cls-32"
     x1="214.79"
     y1="233.75"
     x2="232.25"
     y2="129.5"
     id="line282" />
  <line
     class="cls-33"
     x1="214.79"
     y1="233.75"
     x2="231.32"
     y2="135.04"
     id="line284" />
  <path
     class="cls-32"
     d="M241.91,155.5a28.14,28.14,0,0,0,3.05,8.57l-4.1-2.31-4.62.85A28.12,28.12,0,0,0,241.91,155.5Z"
     transform="translate(-9.67 -26)"
     id="path286" />
  <line
     class="cls-32"
     x1="233.83"
     y1="256.28"
     x2="234.83"
     y2="132.2"
     id="line288" />
  <line
     class="cls-33"
     x1="233.83"
     y1="256.28"
     x2="234.79"
     y2="137.81"
     id="line290" />
  <path
     class="cls-32"
     d="M244.5,158.2a27.9,27.9,0,0,0,4.36,8l-4.41-1.63L240,166.11A28.09,28.09,0,0,0,244.5,158.2Z"
     transform="translate(-9.67 -26)"
     id="path292" />
  <line
     class="cls-32"
     x1="235.36"
     y1="256.21"
     x2="248.83"
     y2="195.5"
     id="line294" />
  <line
     class="cls-33"
     x1="235.36"
     y1="256.21"
     x2="247.62"
     y2="200.98"
     id="line296" />
  <path
     class="cls-32"
     d="M258.5,221.5a28,28,0,0,0,2.6,8.72l-4-2.52-4.66.6A28,28,0,0,0,258.5,221.5Z"
     transform="translate(-9.67 -26)"
     id="path298" />
  <line
     class="cls-32"
     x1="274.62"
     y1="234.78"
     x2="277.75"
     y2="209.11"
     id="line300" />
  <line
     class="cls-33"
     x1="274.62"
     y1="234.78"
     x2="277.07"
     y2="214.69"
     id="line302" />
  <path
     class="cls-32"
     d="M287.41,235.11a28.37,28.37,0,0,0,3.43,8.43l-4.19-2.12-4.59,1.05A27.78,27.78,0,0,0,287.41,235.11Z"
     transform="translate(-9.67 -26)"
     id="path304" />
</svg>
