<svg xmlns="http://www.w3.org/2000/svg" viewBox="0 0 287.4 313.7"><defs><style>.a{fill:#e7e6e6;opacity:0.78;}.b{font-size:10px;fill:#6d6e71;font-family:Helvetica-Light, Helvetica;font-weight:300;}.c{fill:#55823b;}.d{fill:none;stroke:#c9c9c9;stroke-miterlimit:8;stroke-width:2.25px;}.e{fill:#1c9045;}.f{fill:#9dcb3b;}.g{fill:#507837;}.h{fill:#157261;}.i{fill:#22aa4a;}.j{fill:#2d5428;}.k{fill:#1e8a43;}.l{fill:#71c168;}.m{fill:#94c83d;}.n{fill:#16623c;}.o{fill:#2f75b6;}.p{fill:#b4c7e7;}.q{fill:#6dbce9;}.r{fill:#4952a3;}.s{fill:#2b2971;}.t{fill:#1683b0;}.u{fill:#5f76b9;}.v{fill:#26c4f3;}.w{fill:#246ab4;}.x{fill:#69c8c5;}.y{fill:#6f3996;}.z{fill:#ccaad0;}.aa{fill:#9a4299;}.ab{fill:#965aa4;}.ac{fill:#96226e;}.ad{fill:#6d297a;}.ae{fill:#6651a2;}.af{fill:#a798c9;}.ag{fill:#f7921e;}.ah{fill:#f3b183;}.ai{fill:#ec7d30;}.aj{fill:#9f5a25;}.ak{fill:#dea427;}.al{fill:#c45c28;}.am{fill:#fee699;}.an{fill:#fec010;}</style></defs><rect class="a" y="234.5" width="287.4" height="72"/><rect class="a" y="17.5" width="287.4" height="40"/><rect class="a" y="114.5" width="287.4" height="57"/><text class="b" transform="translate(8.1 302.4)">Primary producers</text><text class="b" transform="translate(8.1 109.1)">Tertiary consumers</text><text class="b" transform="translate(8.1 230.2)">Primary consumers</text><text class="b" transform="translate(8.1 167.4)">Secondary consumers</text><text class="b" transform="translate(8.1 53.4)">Apex predators</text><ellipse class="c" cx="174.9" cy="270.3" rx="33.5" ry="34.5"/><ellipse class="d" cx="174.9" cy="270.3" rx="33.5" ry="34.5"/><circle class="e" cx="149.9" cy="276.3" r="7.5"/><circle class="d" cx="149.9" cy="276.3" r="7.5"/><ellipse class="f" cx="184.4" cy="249.3" rx="7" ry="7.5"/><ellipse class="d" cx="184.4" cy="249.3" rx="7" ry="7.5"/><ellipse class="g" cx="182.9" cy="271.8" rx="7.5" ry="7"/><ellipse class="d" cx="182.9" cy="271.8" rx="7.5" ry="7"/><circle class="h" cx="152.9" cy="258.3" r="7.5"/><circle class="d" cx="152.9" cy="258.3" r="7.5"/><circle class="i" cx="163.4" cy="290.8" r="7"/><circle class="d" cx="163.4" cy="290.8" r="7"/><circle class="j" cx="195.4" cy="282.8" r="7"/><circle class="d" cx="195.4" cy="282.8" r="7"/><circle class="k" cx="179.9" cy="293.3" r="7.5"/><circle class="d" cx="179.9" cy="293.3" r="7.5"/><circle class="l" cx="165.9" cy="270.3" r="7.5"/><circle class="d" cx="165.9" cy="270.3" r="7.5"/><circle class="m" cx="197.9" cy="263.3" r="7.5"/><circle class="d" cx="197.9" cy="263.3" r="7.5"/><circle class="n" cx="166.9" cy="247.3" r="7.5"/><circle class="d" cx="166.9" cy="247.3" r="7.5"/><ellipse class="o" cx="246.4" cy="205.4" rx="34" ry="34.5"/><ellipse class="d" cx="246.4" cy="205.4" rx="34" ry="34.5"/><circle class="p" cx="221.4" cy="210.9" r="7"/><circle class="d" cx="221.4" cy="210.9" r="7"/><ellipse class="q" cx="247.9" cy="185.9" rx="7.5" ry="7"/><ellipse class="d" cx="247.9" cy="185.9" rx="7.5" ry="7"/><ellipse class="r" cx="255.4" cy="203.4" rx="7" ry="7.5"/><ellipse class="d" cx="255.4" cy="203.4" rx="7" ry="7.5"/><circle class="s" cx="255.9" cy="222.4" r="7.5"/><circle class="d" cx="255.9" cy="222.4" r="7.5"/><circle class="t" cx="237.9" cy="204.4" r="7.5"/><circle class="d" cx="237.9" cy="204.4" r="7.5"/><circle class="u" cx="225.4" cy="189.9" r="7"/><circle class="d" cx="225.4" cy="189.9" r="7"/><ellipse class="v" cx="234.4" cy="225.4" rx="7" ry="7.5"/><ellipse class="d" cx="234.4" cy="225.4" rx="7" ry="7.5"/><ellipse class="w" cx="269.4" cy="211.4" rx="7" ry="7.5"/><ellipse class="d" cx="269.4" cy="211.4" rx="7" ry="7.5"/><ellipse class="x" cx="263.9" cy="188.9" rx="7.5" ry="7"/><ellipse class="d" cx="263.9" cy="188.9" rx="7.5" ry="7"/><ellipse class="y" cx="147.9" cy="140.4" rx="34" ry="34.5"/><ellipse class="d" cx="147.9" cy="140.4" rx="34" ry="34.5"/><circle class="z" cx="149.4" cy="121.4" r="7.5"/><circle class="d" cx="149.4" cy="121.4" r="7.5"/><ellipse class="aa" cx="157.4" cy="157.9" rx="7.5" ry="7"/><ellipse class="d" cx="157.4" cy="157.9" rx="7.5" ry="7"/><circle class="ab" cx="139.9" cy="139.9" r="7"/><circle class="d" cx="139.9" cy="139.9" r="7"/><circle class="ac" cx="127.4" cy="125.4" r="7.5"/><circle class="d" cx="127.4" cy="125.4" r="7.5"/><ellipse class="ad" cx="135.9" cy="161.4" rx="7" ry="7.5"/><ellipse class="d" cx="135.9" cy="161.4" rx="7" ry="7.5"/><circle class="ae" cx="170.9" cy="146.9" r="7"/><circle class="d" cx="170.9" cy="146.9" r="7"/><circle class="af" cx="165.4" cy="124.4" r="7.5"/><circle class="d" cx="165.4" cy="124.4" r="7.5"/><ellipse class="ag" cx="227.4" cy="83.1" rx="34" ry="34.5"/><ellipse class="d" cx="227.4" cy="83.1" rx="34" ry="34.5"/><ellipse class="ah" cx="227.4" cy="72.1" rx="7" ry="7.5"/><ellipse class="d" cx="227.4" cy="72.1" rx="7" ry="7.5"/><circle class="ai" cx="206.9" cy="68.1" r="7.5"/><circle class="d" cx="206.9" cy="68.1" r="7.5"/><circle class="aj" cx="215.4" cy="103.6" r="7"/><circle class="d" cx="215.4" cy="103.6" r="7"/><ellipse class="ak" cx="250.4" cy="89.1" rx="7" ry="7.5"/><ellipse class="d" cx="250.4" cy="89.1" rx="7" ry="7.5"/><ellipse class="al" cx="244.9" cy="66.6" rx="7.5" ry="7"/><ellipse class="d" cx="244.9" cy="66.6" rx="7.5" ry="7"/><ellipse class="am" cx="146.9" cy="35.6" rx="34" ry="34.5"/><ellipse class="d" cx="146.9" cy="35.6" rx="34" ry="34.5"/><circle class="an" cx="131.4" cy="26.6" r="7.5"/><circle class="d" cx="131.4" cy="26.6" r="7.5"/></svg>