<svg xmlns="http://www.w3.org/2000/svg" viewBox="0 0 315.1 311"><defs><style>.a{fill:#e7e6e6;opacity:0.78;}.b{font-size:14px;fill:#808285;font-family:Helvetica;}.c{letter-spacing:-0.11em;}.d{fill:#55823b;}.e{fill:none;stroke:#c9c9c9;stroke-miterlimit:8;stroke-width:2.25px;}.f{fill:#1c9045;}.g{fill:#9dcb3b;}.h{fill:#507837;}.i{fill:#157261;}.j{fill:#22aa4a;}.k{fill:#2d5428;}.l{fill:#1e8a43;}.m{fill:#71c168;}.n{fill:#94c83d;}.o{fill:#16623c;}.p{fill:#2f75b6;}.q{fill:#b4c7e7;}.r{fill:#6dbce9;}.s{fill:#4952a3;}.t{fill:#2b2971;}.u{fill:#1683b0;}.v{fill:#5f76b9;}.w{fill:#26c4f3;}.x{fill:#246ab4;}.y{fill:#69c8c5;}.z{fill:#6f3996;}.aa{fill:#ccaad0;}.ab{fill:#9a4299;}.ac{fill:#965aa4;}.ad{fill:#96226e;}.ae{fill:#6d297a;}.af{fill:#6651a2;}.ag{fill:#a798c9;}.ah{fill:#f7921e;}.ai{fill:#f3b183;}.aj{fill:#ec7d30;}.ak{fill:#9f5a25;}.al{fill:#dea427;}.am{fill:#c45c28;}.an{fill:#fee699;}.ao{fill:#fec010;}</style></defs><rect class="a" y="235.7" width="315.1" height="72"/><rect class="a" y="18.7" width="315.1" height="40"/><rect class="a" y="115.7" width="315.1" height="57"/><text class="b" transform="translate(6.8 302.5)">Primary producer</text><text class="b" transform="translate(6.8 111.2)"><tspan class="c">T</tspan><tspan x="7" y="0">ertiary consumer</tspan></text><text class="b" transform="translate(6.8 231.3)">Primary consumer</text><text class="b" transform="translate(6.8 168.5)">Secondary consumer</text><text class="b" transform="translate(6.8 52.6)">Apex predator</text><ellipse class="d" cx="202.1" cy="270.3" rx="33.5" ry="34.5"/><ellipse class="e" cx="202.1" cy="270.3" rx="33.5" ry="34.5"/><circle class="f" cx="177.1" cy="276.3" r="7.5"/><circle class="e" cx="177.1" cy="276.3" r="7.5"/><ellipse class="g" cx="211.6" cy="249.3" rx="7" ry="7.5"/><ellipse class="e" cx="211.6" cy="249.3" rx="7" ry="7.5"/><ellipse class="h" cx="210.1" cy="271.8" rx="7.5" ry="7"/><ellipse class="e" cx="210.1" cy="271.8" rx="7.5" ry="7"/><circle class="i" cx="180.1" cy="258.3" r="7.5"/><circle class="e" cx="180.1" cy="258.3" r="7.5"/><circle class="j" cx="190.6" cy="290.8" r="7"/><circle class="e" cx="190.6" cy="290.8" r="7"/><circle class="k" cx="222.6" cy="282.8" r="7"/><circle class="e" cx="222.6" cy="282.8" r="7"/><circle class="l" cx="207.1" cy="293.3" r="7.5"/><circle class="e" cx="207.1" cy="293.3" r="7.5"/><circle class="m" cx="193.1" cy="270.3" r="7.5"/><circle class="e" cx="193.1" cy="270.3" r="7.5"/><circle class="n" cx="225.1" cy="263.3" r="7.5"/><circle class="e" cx="225.1" cy="263.3" r="7.5"/><circle class="o" cx="194.1" cy="247.3" r="7.5"/><circle class="e" cx="194.1" cy="247.3" r="7.5"/><ellipse class="p" cx="273.6" cy="205.4" rx="34" ry="34.5"/><ellipse class="e" cx="273.6" cy="205.4" rx="34" ry="34.5"/><circle class="q" cx="248.6" cy="210.9" r="7"/><circle class="e" cx="248.6" cy="210.9" r="7"/><ellipse class="r" cx="275.1" cy="185.9" rx="7.5" ry="7"/><ellipse class="e" cx="275.1" cy="185.9" rx="7.5" ry="7"/><ellipse class="s" cx="282.6" cy="203.4" rx="7" ry="7.5"/><ellipse class="e" cx="282.6" cy="203.4" rx="7" ry="7.5"/><circle class="t" cx="283.1" cy="222.4" r="7.5"/><circle class="e" cx="283.1" cy="222.4" r="7.5"/><circle class="u" cx="265.1" cy="204.4" r="7.5"/><circle class="e" cx="265.1" cy="204.4" r="7.5"/><circle class="v" cx="252.6" cy="189.9" r="7"/><circle class="e" cx="252.6" cy="189.9" r="7"/><ellipse class="w" cx="261.6" cy="225.4" rx="7" ry="7.5"/><ellipse class="e" cx="261.6" cy="225.4" rx="7" ry="7.5"/><ellipse class="x" cx="296.6" cy="211.4" rx="7" ry="7.5"/><ellipse class="e" cx="296.6" cy="211.4" rx="7" ry="7.5"/><ellipse class="y" cx="291.1" cy="188.9" rx="7.5" ry="7"/><ellipse class="e" cx="291.1" cy="188.9" rx="7.5" ry="7"/><ellipse class="z" cx="175.1" cy="140.4" rx="34" ry="34.5"/><ellipse class="e" cx="175.1" cy="140.4" rx="34" ry="34.5"/><circle class="aa" cx="176.6" cy="121.4" r="7.5"/><circle class="e" cx="176.6" cy="121.4" r="7.5"/><ellipse class="ab" cx="184.6" cy="157.9" rx="7.5" ry="7"/><ellipse class="e" cx="184.6" cy="157.9" rx="7.5" ry="7"/><circle class="ac" cx="167.1" cy="139.9" r="7"/><circle class="e" cx="167.1" cy="139.9" r="7"/><circle class="ad" cx="154.6" cy="125.4" r="7.5"/><circle class="e" cx="154.6" cy="125.4" r="7.5"/><ellipse class="ae" cx="163.1" cy="161.4" rx="7" ry="7.5"/><ellipse class="e" cx="163.1" cy="161.4" rx="7" ry="7.5"/><circle class="af" cx="198.1" cy="146.9" r="7"/><circle class="e" cx="198.1" cy="146.9" r="7"/><circle class="ag" cx="192.6" cy="124.4" r="7.5"/><circle class="e" cx="192.6" cy="124.4" r="7.5"/><ellipse class="ah" cx="254.6" cy="83.1" rx="34" ry="34.5"/><ellipse class="e" cx="254.6" cy="83.1" rx="34" ry="34.5"/><ellipse class="ai" cx="254.6" cy="72.1" rx="7" ry="7.5"/><ellipse class="e" cx="254.6" cy="72.1" rx="7" ry="7.5"/><circle class="aj" cx="234.1" cy="68.1" r="7.5"/><circle class="e" cx="234.1" cy="68.1" r="7.5"/><circle class="ak" cx="242.6" cy="103.6" r="7"/><circle class="e" cx="242.6" cy="103.6" r="7"/><ellipse class="al" cx="277.6" cy="89.1" rx="7" ry="7.5"/><ellipse class="e" cx="277.6" cy="89.1" rx="7" ry="7.5"/><ellipse class="am" cx="272.1" cy="66.6" rx="7.5" ry="7"/><ellipse class="e" cx="272.1" cy="66.6" rx="7.5" ry="7"/><ellipse class="an" cx="174.1" cy="35.6" rx="34" ry="34.5"/><ellipse class="e" cx="174.1" cy="35.6" rx="34" ry="34.5"/><circle class="ao" cx="158.6" cy="26.6" r="7.5"/><circle class="e" cx="158.6" cy="26.6" r="7.5"/></svg>