<svg xmlns="http://www.w3.org/2000/svg" viewBox="0 0 287.4 296.3"><defs><style>.a{fill:#e7e6e6;opacity:0.78;}.b{fill:#f3b183;}.c{fill:none;stroke:#c9c9c9;stroke-miterlimit:8;stroke-width:2.25px;}.d{fill:#ec7d30;}.e{fill:#9f5a25;}.f{fill:#dea427;}.g{fill:#c45c28;}.h{fill:#ccaad0;}.i{fill:#9a4299;}.j{fill:#965aa4;}.k{fill:#96226e;}.l{fill:#6d297a;}.m{fill:#6651a2;}.n{fill:#a798c9;}.o{fill:#b4c7e7;}.p{fill:#6dbce9;}.q{fill:#4952a3;}.r{fill:#2b2971;}.s{fill:#1683b0;}.t{fill:#5f76b9;}.u{fill:#26c4f3;}.v{fill:#246ab4;}.w{fill:#69c8c5;}.x{fill:#1c9045;}.y{fill:#9dcb3b;}.z{fill:#507837;}.aa{fill:#157261;}.ab{fill:#22aa4a;}.ac{fill:#2d5428;}.ad{fill:#1e8a43;}.ae{fill:#71c168;}.af{fill:#94c83d;}.ag{fill:#16623c;}.ah{fill:#fec010;}.ai{font-size:10px;fill:#6d6e71;font-family:Helvetica-Light, Helvetica;font-weight:300;}</style></defs><rect class="a" y="217" width="287.4" height="72"/><rect class="a" width="287.4" height="40"/><rect class="a" y="97" width="287.4" height="57"/><circle class="b" cx="162.4" cy="76.5" r="7.5"/><circle class="c" cx="162.4" cy="76.5" r="7.5"/><circle class="d" cx="121.1" cy="65.5" r="7"/><circle class="c" cx="121.1" cy="65.5" r="7"/><ellipse class="e" cx="204.1" cy="85.5" rx="7.5" ry="7"/><ellipse class="c" cx="204.1" cy="85.5" rx="7.5" ry="7"/><ellipse class="f" cx="218.6" cy="62.5" rx="7" ry="7.5"/><ellipse class="c" cx="218.6" cy="62.5" rx="7" ry="7.5"/><ellipse class="g" cx="182.6" cy="55.5" rx="7.5" ry="7"/><ellipse class="c" cx="182.6" cy="55.5" rx="7.5" ry="7"/><circle class="h" cx="242.6" cy="140.5" r="7.5"/><circle class="c" cx="242.6" cy="140.5" r="7.5"/><circle class="i" cx="107.1" cy="119.5" r="7"/><circle class="c" cx="107.1" cy="119.5" r="7"/><circle class="j" cx="138.3" cy="112.5" r="7.5"/><circle class="c" cx="138.3" cy="112.5" r="7.5"/><circle class="k" cx="169.9" cy="120.5" r="7.5"/><circle class="c" cx="169.9" cy="120.5" r="7.5"/><circle class="l" cx="135.6" cy="140.5" r="7.5"/><circle class="c" cx="135.6" cy="140.5" r="7.5"/><circle class="m" cx="182.6" cy="140.5" r="7.5"/><circle class="c" cx="182.6" cy="140.5" r="7.5"/><circle class="n" cx="211.6" cy="119.5" r="7"/><circle class="c" cx="211.6" cy="119.5" r="7"/><circle class="o" cx="196.6" cy="171.8" r="7"/><circle class="c" cx="196.6" cy="171.8" r="7"/><ellipse class="p" cx="225.6" cy="186" rx="7" ry="7.5"/><ellipse class="c" cx="225.6" cy="186" rx="7" ry="7.5"/><ellipse class="q" cx="135.6" cy="201.5" rx="7.5" ry="7"/><ellipse class="c" cx="135.6" cy="201.5" rx="7.5" ry="7"/><circle class="r" cx="250.1" cy="174.3" r="7.5"/><circle class="c" cx="250.1" cy="174.3" r="7.5"/><ellipse class="s" cx="155.1" cy="178.5" rx="7" ry="7.5"/><ellipse class="c" cx="155.1" cy="178.5" rx="7" ry="7.5"/><ellipse class="t" cx="99.3" cy="188.5" rx="7" ry="7.5"/><ellipse class="c" cx="99.3" cy="188.5" rx="7" ry="7.5"/><ellipse class="u" cx="182.6" cy="196" rx="7" ry="7.5"/><ellipse class="c" cx="182.6" cy="196" rx="7" ry="7.5"/><ellipse class="v" cx="250.1" cy="201.5" rx="7.5" ry="7"/><ellipse class="c" cx="250.1" cy="201.5" rx="7.5" ry="7"/><ellipse class="w" cx="121.1" cy="174.5" rx="7" ry="7.5"/><ellipse class="c" cx="121.1" cy="174.5" rx="7" ry="7.5"/><ellipse class="x" cx="123.8" cy="245.5" rx="7" ry="7.5"/><ellipse class="c" cx="123.8" cy="245.5" rx="7" ry="7.5"/><ellipse class="y" cx="232.6" cy="238.5" rx="7.5" ry="7"/><ellipse class="c" cx="232.6" cy="238.5" rx="7.5" ry="7"/><circle class="z" cx="143.1" cy="231.5" r="7.5"/><circle class="c" cx="143.1" cy="231.5" r="7.5"/><circle class="aa" cx="162.1" cy="245.5" r="7"/><circle class="c" cx="162.1" cy="245.5" r="7"/><circle class="ab" cx="204.6" cy="258.5" r="7.5"/><circle class="c" cx="204.6" cy="258.5" r="7.5"/><circle class="ac" cx="235.1" cy="271.5" r="7.5"/><circle class="c" cx="235.1" cy="271.5" r="7.5"/><circle class="ad" cx="135.6" cy="271.5" r="7.5"/><circle class="c" cx="135.6" cy="271.5" r="7.5"/><ellipse class="ae" cx="169.9" cy="271.5" rx="7" ry="7.5"/><ellipse class="c" cx="169.9" cy="271.5" rx="7" ry="7.5"/><circle class="af" cx="100.1" cy="231.5" r="7.5"/><circle class="c" cx="100.1" cy="231.5" r="7.5"/><circle class="ag" cx="196.6" cy="231.5" r="7"/><circle class="c" cx="196.6" cy="231.5" r="7"/><circle class="ah" cx="155.1" cy="13.5" r="7"/><circle class="c" cx="155.1" cy="13.5" r="7"/><text class="ai" transform="translate(8.1 284.9)">Primary producers</text><text class="ai" transform="translate(8.1 91.6)">Tertiary consumers</text><text class="ai" transform="translate(8.1 212.7)">Primary consumers</text><text class="ai" transform="translate(8.1 149.9)">Secondary consumers</text><text class="ai" transform="translate(8.1 36)">Apex predators</text></svg>