<svg id="Layer_1" data-name="Layer 1" xmlns="http://www.w3.org/2000/svg" viewBox="0 0 420 289"><defs><style>.cls-1{fill:#e7e6e6;opacity:0.78;}.cls-2{font-size:16px;fill:#231f20;font-family:MyriadPro-Regular, Myriad Pro;}.cls-3{letter-spacing:-0.02em;}.cls-4{letter-spacing:0em;}.cls-5{letter-spacing:0.02em;}.cls-6{letter-spacing:-0.01em;}.cls-7{letter-spacing:0em;}.cls-8{letter-spacing:-0.01em;}.cls-9{letter-spacing:-0.07em;}.cls-10{letter-spacing:0.02em;}.cls-11{letter-spacing:0.01em;}.cls-12{letter-spacing:-0.01em;}.cls-13{letter-spacing:0em;}.cls-14{letter-spacing:0em;}.cls-15{fill:#1c9045;}.cls-16,.cls-33{fill:none;}.cls-16{stroke:#c9c9c9;stroke-miterlimit:8;stroke-width:2.25px;}.cls-17{fill:#507837;}.cls-18{fill:#157261;}.cls-19{fill:#2d5428;}.cls-20{fill:#1e8a43;}.cls-21{fill:#71c168;}.cls-22{fill:#b4c7e7;}.cls-23{fill:#6dbce9;}.cls-24{fill:#2b2971;}.cls-25{fill:#5f76b9;}.cls-26{fill:#26c4f3;}.cls-27{fill:#69c8c5;}.cls-28{fill:#965aa4;}.cls-29{fill:#9f5a25;}.cls-30{fill:#dea427;}.cls-31{fill:#fec010;}.cls-32{fill:#a7a9ac;}.cls-33{stroke:#a7a9ac;stroke-miterlimit:10;stroke-width:1.5px;}</style></defs><rect class="cls-1" y="217" width="420" height="72"/><rect class="cls-1" width="420" height="40"/><rect class="cls-1" y="97" width="420" height="57"/><text class="cls-2" transform="translate(18.25 260.58)"><tspan class="cls-3">P</tspan><tspan class="cls-4" x="8.26" y="0">r</tspan><tspan x="13.55" y="0">ima</tspan><tspan class="cls-5" x="38.35" y="0">r</tspan><tspan x="43.98" y="0">y p</tspan><tspan class="cls-6" x="64.01" y="0">r</tspan><tspan class="cls-7" x="69.09" y="0">odu</tspan><tspan class="cls-8" x="95.71" y="0">c</tspan><tspan x="102.78" y="0">er</tspan></text><text class="cls-2" transform="translate(18.25 77.05)"><tspan class="cls-9">T</tspan><tspan x="6.82" y="0">e</tspan><tspan class="cls-10" x="14.83" y="0">r</tspan><tspan x="20.45" y="0">tia</tspan><tspan class="cls-5" x="37.2" y="0">r</tspan><tspan class="cls-7" x="42.83" y="0">y </tspan><tspan class="cls-8" x="53.76" y="0">c</tspan><tspan x="60.83" y="0">onsumer</tspan></text><text class="cls-2" transform="translate(18.25 190.58)"><tspan class="cls-3">P</tspan><tspan class="cls-4" x="8.26" y="0">r</tspan><tspan x="13.55" y="0">ima</tspan><tspan class="cls-5" x="38.35" y="0">r</tspan><tspan x="43.98" y="0">y </tspan><tspan class="cls-8" x="54.91" y="0">c</tspan><tspan x="61.98" y="0">onsumer</tspan></text><text class="cls-2" transform="translate(18.25 132.2)"><tspan class="cls-11">S</tspan><tspan x="7.98" y="0">e</tspan><tspan class="cls-8" x="16" y="0">c</tspan><tspan x="23.07" y="0">onda</tspan><tspan class="cls-5" x="57.47" y="0">r</tspan><tspan x="63.1" y="0">y </tspan><tspan class="cls-12" x="74.03" y="0">c</tspan><tspan x="81.1" y="0">onsumer</tspan></text><text class="cls-2" transform="translate(18.25 24.86)"><tspan class="cls-13">A</tspan><tspan x="9.74" y="0">p</tspan><tspan class="cls-13" x="18.85" y="0">e</tspan><tspan x="26.82" y="0">x p</tspan><tspan class="cls-6" x="46.72" y="0">r</tspan><tspan class="cls-7" x="51.79" y="0">ed</tspan><tspan class="cls-14" x="68.83" y="0">a</tspan><tspan class="cls-8" x="76.48" y="0">t</tspan><tspan x="81.68" y="0">or</tspan></text><circle class="cls-15" cx="233.83" cy="263.78" r="7.5"/><circle class="cls-16" cx="233.83" cy="263.78" r="7.5"/><ellipse class="cls-17" cx="307.08" cy="267.78" rx="7.5" ry="7"/><ellipse class="cls-16" cx="307.08" cy="267.78" rx="7.5" ry="7"/><circle class="cls-18" cx="212.76" cy="241.25" r="7.5"/><circle class="cls-16" cx="212.76" cy="241.25" r="7.5"/><circle class="cls-19" cx="396.13" cy="240.75" r="7"/><circle class="cls-16" cx="396.13" cy="240.75" r="7"/><circle class="cls-20" cx="346.66" cy="252.83" r="7.5"/><circle class="cls-16" cx="346.66" cy="252.83" r="7.5"/><circle class="cls-21" cx="275.33" cy="241.25" r="7.5"/><circle class="cls-16" cx="275.33" cy="241.25" r="7.5"/><circle class="cls-22" cx="295.83" cy="167.84" r="7"/><circle class="cls-16" cx="295.83" cy="167.84" r="7"/><ellipse class="cls-23" cx="342.83" cy="169" rx="7.5" ry="7"/><ellipse class="cls-16" cx="342.83" cy="169" rx="7.5" ry="7"/><circle class="cls-24" cx="314.58" cy="201.61" r="7.5"/><circle class="cls-16" cx="314.58" cy="201.61" r="7.5"/><circle class="cls-25" cx="248.83" cy="188.5" r="7"/><circle class="cls-16" cx="248.83" cy="188.5" r="7"/><ellipse class="cls-26" cx="277.75" cy="201.61" rx="7" ry="7.5"/><ellipse class="cls-16" cx="277.75" cy="201.61" rx="7" ry="7.5"/><ellipse class="cls-27" cx="380.55" cy="198" rx="7" ry="7.5" transform="translate(158.96 544.97) rotate(-87.88)"/><ellipse class="cls-16" cx="370.88" cy="172" rx="7.5" ry="7"/><circle class="cls-28" cx="234.83" cy="123" r="7"/><circle class="cls-16" cx="234.83" cy="123" r="7"/><circle class="cls-29" cx="343.33" cy="90" r="7"/><circle class="cls-16" cx="343.33" cy="90" r="7"/><ellipse class="cls-30" cx="327.33" cy="52.54" rx="7" ry="7.5"/><ellipse class="cls-16" cx="327.33" cy="52.54" rx="7" ry="7.5"/><circle class="cls-31" cx="226.33" cy="9.75" r="7.5"/><circle class="cls-16" cx="226.33" cy="9.75" r="7.5"/><line class="cls-32" x1="248.83" y1="181.5" x2="237.23" y2="130"/><line class="cls-33" x1="248.83" y1="181.5" x2="238.46" y2="135.48"/><path class="cls-32" d="M246.9,156a27.81,27.81,0,0,0,6.06,6.78l-4.67-.59-4,2.54A28.29,28.29,0,0,0,246.9,156Z" transform="translate(-9.67 -26)"/><line class="cls-32" x1="335.33" y1="87.96" x2="230.86" y2="17.12"/><line class="cls-33" x1="335.33" y1="87.96" x2="235.5" y2="20.27"/><path class="cls-32" d="M240.52,43.12a28.32,28.32,0,0,0,9.06.8l-3.8,2.76-1.16,4.56A28,28,0,0,0,240.52,43.12Z" transform="translate(-9.67 -26)"/><line class="cls-32" x1="234.83" y1="116" x2="226.33" y2="17.25"/><line class="cls-33" x1="234.83" y1="116" x2="226.81" y2="22.84"/><path class="cls-32" d="M236,43.25a27.94,27.94,0,0,0,5.09,7.54l-4.55-1.21-4.26,2A28.11,28.11,0,0,0,236,43.25Z" transform="translate(-9.67 -26)"/><line class="cls-32" x1="240.33" y1="118.68" x2="336.33" y2="93.59"/><line class="cls-33" x1="240.33" y1="118.68" x2="330.9" y2="95.01"/><path class="cls-32" d="M346,119.59a28.13,28.13,0,0,0-6.57,6.29l.43-4.68-2.67-3.87A28.09,28.09,0,0,0,346,119.59Z" transform="translate(-9.67 -26)"/><line class="cls-32" x1="240.33" y1="118.68" x2="320.67" y2="57.77"/><line class="cls-33" x1="240.33" y1="118.68" x2="316.2" y2="61.16"/><path class="cls-32" d="M330.34,83.77a28.24,28.24,0,0,0-3.66,8.33l-1.4-4.49-3.95-2.56A28.1,28.1,0,0,0,330.34,83.77Z" transform="translate(-9.67 -26)"/><line class="cls-32" x1="295.83" y1="160.84" x2="325.08" y2="59.63"/><line class="cls-33" x1="295.83" y1="160.84" x2="323.52" y2="65.03"/><path class="cls-32" d="M334.74,85.63a28.17,28.17,0,0,0,2.05,8.87L333,91.73l-4.69.31A28,28,0,0,0,334.74,85.63Z" transform="translate(-9.67 -26)"/><line class="cls-32" x1="337.88" y1="163.75" x2="328.8" y2="60.04"/><line class="cls-33" x1="337.88" y1="163.75" x2="329.29" y2="65.63"/><path class="cls-32" d="M338.47,86a27.85,27.85,0,0,0,5.1,7.53L339,92.36l-4.27,2A28,28,0,0,0,338.47,86Z" transform="translate(-9.67 -26)"/><line class="cls-32" x1="367.29" y1="165" x2="346.66" y2="97"/><line class="cls-33" x1="367.29" y1="165" x2="348.29" y2="102.37"/><path class="cls-32" d="M356.33,123a28.16,28.16,0,0,0,6.54,6.32l-4.7-.24-3.76,2.81A28.23,28.23,0,0,0,356.33,123Z" transform="translate(-9.67 -26)"/><line class="cls-32" x1="342.83" y1="162" x2="343.33" y2="97"/><line class="cls-33" x1="342.83" y1="162" x2="343.29" y2="102.61"/><path class="cls-32" d="M353,123a28.14,28.14,0,0,0,4.36,8L353,129.35l-4.43,1.56A28.17,28.17,0,0,0,353,123Z" transform="translate(-9.67 -26)"/><line class="cls-32" x1="273.7" y1="195.5" x2="241.83" y2="129.42"/><line class="cls-33" x1="273.7" y1="195.5" x2="244.27" y2="134.47"/><path class="cls-32" d="M251.5,155.42a28.16,28.16,0,0,0,7.44,5.24l-4.68.48L251,164.5A28,28,0,0,0,251.5,155.42Z" transform="translate(-9.67 -26)"/><line class="cls-32" x1="307.08" y1="197.78" x2="241.83" y2="127.26"/><line class="cls-33" x1="307.08" y1="197.78" x2="245.65" y2="131.38"/><path class="cls-32" d="M251.5,153.26a28.23,28.23,0,0,0,8.65,2.83l-4.34,1.83-2.16,4.18A28,28,0,0,0,251.5,153.26Z" transform="translate(-9.67 -26)"/><line class="cls-32" x1="314.58" y1="194.11" x2="327.33" y2="60.04"/><line class="cls-33" x1="314.58" y1="194.11" x2="326.8" y2="65.63"/><path class="cls-32" d="M337,86a28.25,28.25,0,0,0,3.65,8.33l-4.25-2-4.55,1.17A27.93,27.93,0,0,0,337,86Z" transform="translate(-9.67 -26)"/><line class="cls-32" x1="350.33" y1="245.33" x2="370.62" y2="179"/><line class="cls-33" x1="350.33" y1="245.33" x2="368.98" y2="184.36"/><path class="cls-32" d="M380.29,205a27.94,27.94,0,0,0,1.9,8.89l-3.76-2.82-4.7.23A28.15,28.15,0,0,0,380.29,205Z" transform="translate(-9.67 -26)"/><line class="cls-32" x1="392.79" y1="233.75" x2="372.39" y2="178.86"/><line class="cls-33" x1="392.79" y1="233.75" x2="374.35" y2="184.12"/><path class="cls-32" d="M382.06,204.86a28.41,28.41,0,0,0,6.91,5.91l-4.7,0-3.59,3A28,28,0,0,0,382.06,204.86Z" transform="translate(-9.67 -26)"/><line class="cls-32" x1="345.11" y1="245.33" x2="342.83" y2="176"/><line class="cls-33" x1="345.11" y1="245.33" x2="343.02" y2="181.61"/><path class="cls-32" d="M352.5,202a28.05,28.05,0,0,0,4.68,7.8l-4.47-1.45-4.37,1.74A28.17,28.17,0,0,0,352.5,202Z" transform="translate(-9.67 -26)"/><line class="cls-32" x1="310.19" y1="260.78" x2="314.58" y2="209.11"/><line class="cls-33" x1="310.19" y1="260.78" x2="314.11" y2="214.71"/><path class="cls-32" d="M324.25,235.11a28,28,0,0,0,3.73,8.3l-4.27-2-4.54,1.22A28,28,0,0,0,324.25,235.11Z" transform="translate(-9.67 -26)"/><line class="cls-32" x1="350.33" y1="245.33" x2="370.62" y2="179"/><line class="cls-33" x1="350.33" y1="245.33" x2="368.98" y2="184.36"/><path class="cls-32" d="M380.29,205a27.94,27.94,0,0,0,1.9,8.89l-3.76-2.82-4.7.23A28.15,28.15,0,0,0,380.29,205Z" transform="translate(-9.67 -26)"/><line class="cls-32" x1="280.5" y1="235.34" x2="308.74" y2="206.3"/><line class="cls-33" x1="280.5" y1="235.34" x2="304.82" y2="210.33"/><path class="cls-32" d="M318.4,232.3a28.24,28.24,0,0,0-2.37,8.79l-2-4.23-4.29-1.94A28,28,0,0,0,318.4,232.3Z" transform="translate(-9.67 -26)"/><line class="cls-32" x1="303.54" y1="261.61" x2="295.83" y2="174.84"/><line class="cls-33" x1="303.54" y1="261.61" x2="296.33" y2="180.43"/><path class="cls-32" d="M305.5,200.84a28.11,28.11,0,0,0,5.11,7.53l-4.55-1.21-4.26,2A28.13,28.13,0,0,0,305.5,200.84Z" transform="translate(-9.67 -26)"/><line class="cls-32" x1="214.79" y1="233.75" x2="232.25" y2="129.5"/><line class="cls-33" x1="214.79" y1="233.75" x2="231.32" y2="135.04"/><path class="cls-32" d="M241.91,155.5a28.14,28.14,0,0,0,3.05,8.57l-4.1-2.31-4.62.85A28.12,28.12,0,0,0,241.91,155.5Z" transform="translate(-9.67 -26)"/><line class="cls-32" x1="233.83" y1="256.28" x2="234.83" y2="132.2"/><line class="cls-33" x1="233.83" y1="256.28" x2="234.79" y2="137.81"/><path class="cls-32" d="M244.5,158.2a27.9,27.9,0,0,0,4.36,8l-4.41-1.63L240,166.11A28.09,28.09,0,0,0,244.5,158.2Z" transform="translate(-9.67 -26)"/><line class="cls-32" x1="235.36" y1="256.21" x2="248.83" y2="195.5"/><line class="cls-33" x1="235.36" y1="256.21" x2="247.62" y2="200.98"/><path class="cls-32" d="M258.5,221.5a28,28,0,0,0,2.6,8.72l-4-2.52-4.66.6A28,28,0,0,0,258.5,221.5Z" transform="translate(-9.67 -26)"/><line class="cls-32" x1="274.62" y1="234.78" x2="277.75" y2="209.11"/><line class="cls-33" x1="274.62" y1="234.78" x2="277.07" y2="214.69"/><path class="cls-32" d="M287.41,235.11a28.37,28.37,0,0,0,3.43,8.43l-4.19-2.12-4.59,1.05A27.78,27.78,0,0,0,287.41,235.11Z" transform="translate(-9.67 -26)"/></svg>