<svg xmlns="http://www.w3.org/2000/svg" xmlns:xlink="http://www.w3.org/1999/xlink" viewBox="0 0 361.1 363.7"><defs><style>.a,.d,.g,.i,.j,.k,.l,.n{fill:none;}.b{fill:#fff;}.c{clip-path:url(#a);}.d{stroke:#fff;}.d,.g,.i{stroke-linecap:round;}.d,.g,.i,.j,.k,.l,.n{stroke-linejoin:round;}.d,.l,.n{stroke-width:1.07px;}.e{clip-path:url(#b);}.f{fill:#8b3a3a;}.g,.j{stroke:#8b3a3a;}.g,.i{stroke-width:0.71px;}.h{fill:#4682b4;}.i,.k{stroke:#4682b4;}.j,.k{stroke-width:2.13px;}.l{stroke:#000;}.m{font-size:12px;fill:#4d4d4d;}.m,.o{font-family:Helvetica;}.n{stroke:#333;}.o,.q{font-size:14px;}.p{letter-spacing:0.01em;}.q{font-family:Helvetica-Bold, Helvetica;font-weight:700;}.r{clip-path:url(#c);}.s{clip-path:url(#d);}.t{letter-spacing:0.01em;}.u{letter-spacing:-0.08em;}</style><clipPath id="a" transform="translate(0.5 0.5)"><rect class="a" width="180" height="342.75"/></clipPath><clipPath id="b" transform="translate(0.5 0.5)"><rect class="a" x="49.5" y="5.5" width="125" height="315.72"/></clipPath><clipPath id="c" transform="translate(0.5 0.5)"><rect class="a" x="180" width="180" height="342.75"/></clipPath><clipPath id="d" transform="translate(0.5 0.5)"><rect class="a" x="229.5" y="5.5" width="125" height="315.72"/></clipPath></defs><rect class="b" x="0.5" y="0.5" width="360" height="360"/><g class="c"><rect class="b" x="0.5" y="0.5" width="180" height="342.75"/><rect class="d" x="0.5" y="0.5" width="180" height="342.75"/></g><g class="e"><rect class="b" x="50" y="6" width="125" height="315.72"/><path class="f" d="M135.8,178.3a4.7,4.7,0,1,1,4.6,4.6,4.7,4.7,0,0,1-4.6-4.6" transform="translate(0.5 0.5)"/><path class="g" d="M135.8,178.3a4.7,4.7,0,1,1,4.6,4.6,4.7,4.7,0,0,1-4.6-4.6" transform="translate(0.5 0.5)"/><path class="h" d="M79,213a4.6,4.6,0,0,1,9.2,0,4.6,4.6,0,0,1-9.2,0" transform="translate(0.5 0.5)"/><path class="i" d="M79,213a4.6,4.6,0,0,1,9.2,0,4.6,4.6,0,0,1-9.2,0" transform="translate(0.5 0.5)"/><line class="j" x1="133.9" y1="148.9" x2="148.1" y2="148.9"/><line class="j" x1="141" y1="148.9" x2="141" y2="208.6"/><line class="j" x1="133.9" y1="208.6" x2="148.1" y2="208.6"/><line class="k" x1="77" y1="207.2" x2="91.2" y2="207.2"/><line class="k" x1="84.1" y1="207.2" x2="84.1" y2="219.8"/><line class="k" x1="77" y1="219.8" x2="91.2" y2="219.8"/></g><line class="l" x1="50" y1="321.7" x2="50" y2="6"/><text class="m" transform="translate(21.8 311.7)">0.00</text><text class="m" transform="translate(21.8 239.9)">0.25</text><text class="m" transform="translate(21.8 168.2)">0.50</text><text class="m" transform="translate(21.8 96.4)">0.75</text><text class="m" transform="translate(21.8 24.7)">1.00</text><line class="n" x1="47.3" y1="307.4" x2="50" y2="307.4"/><line class="n" x1="47.3" y1="235.6" x2="50" y2="235.6"/><line class="n" x1="47.3" y1="163.9" x2="50" y2="163.9"/><line class="n" x1="47.3" y1="92.1" x2="50" y2="92.1"/><line class="n" x1="47.3" y1="20.4" x2="50" y2="20.4"/><line class="l" x1="50" y1="321.7" x2="175.1" y2="321.7"/><line class="n" x1="84.1" y1="324.5" x2="84.1" y2="321.7"/><line class="n" x1="141" y1="324.5" x2="141" y2="321.7"/><text class="m" transform="translate(70.8 335.3)">SMC</text><text class="m" transform="translate(128.6 335.3)">RFR</text><text class="o" transform="translate(16.1 227) rotate(-90)">Functional similia<tspan class="p" x="107.4" y="0">r</tspan><tspan x="112.2" y="0">ity</tspan></text><text class="q" transform="translate(2.3 15.6)">A</text><g class="r"><rect class="b" x="180.5" y="0.5" width="180" height="342.75"/><rect class="d" x="180.5" y="0.5" width="180" height="342.75"/></g><g class="s"><rect class="b" x="230" y="6" width="125" height="315.72"/><path class="f" d="M315.8,148.4a4.7,4.7,0,0,1,4.6-4.6,4.6,4.6,0,0,1,4.6,4.6,4.5,4.5,0,0,1-4.6,4.6,4.6,4.6,0,0,1-4.6-4.6" transform="translate(0.5 0.5)"/><path class="g" d="M315.8,148.4a4.7,4.7,0,0,1,4.6-4.6,4.6,4.6,0,0,1,4.6,4.6,4.5,4.5,0,0,1-4.6,4.6,4.6,4.6,0,0,1-4.6-4.6" transform="translate(0.5 0.5)"/><path class="h" d="M259,113.7a4.5,4.5,0,0,1,4.6-4.6,4.6,4.6,0,0,1,4.6,4.6,4.7,4.7,0,0,1-4.6,4.6,4.6,4.6,0,0,1-4.6-4.6" transform="translate(0.5 0.5)"/><path class="i" d="M259,113.7a4.5,4.5,0,0,1,4.6-4.6,4.6,4.6,0,0,1,4.6,4.6,4.7,4.7,0,0,1-4.6,4.6,4.6,4.6,0,0,1-4.6-4.6" transform="translate(0.5 0.5)"/><line class="j" x1="313.9" y1="119.1" x2="328.1" y2="119.1"/><line class="j" x1="321" y1="119.1" x2="321" y2="178.8"/><line class="j" x1="313.9" y1="178.8" x2="328.1" y2="178.8"/><line class="k" x1="257" y1="107.9" x2="271.2" y2="107.9"/><line class="k" x1="264.1" y1="107.9" x2="264.1" y2="120.5"/><line class="k" x1="257" y1="120.5" x2="271.2" y2="120.5"/></g><line class="l" x1="230" y1="321.7" x2="230" y2="6"/><text class="m" transform="translate(201.8 311.7)">0.00</text><text class="m" transform="translate(201.8 239.9)">0.25</text><text class="m" transform="translate(201.8 168.2)">0.50</text><text class="m" transform="translate(201.8 96.4)">0.75</text><text class="m" transform="translate(201.8 24.7)">1.00</text><line class="n" x1="227.3" y1="307.4" x2="230" y2="307.4"/><line class="n" x1="227.3" y1="235.6" x2="230" y2="235.6"/><line class="n" x1="227.3" y1="163.9" x2="230" y2="163.9"/><line class="n" x1="227.3" y1="92.1" x2="230" y2="92.1"/><line class="n" x1="227.3" y1="20.4" x2="230" y2="20.4"/><line class="l" x1="230" y1="321.7" x2="355.1" y2="321.7"/><line class="n" x1="264.1" y1="324.5" x2="264.1" y2="321.7"/><line class="n" x1="321" y1="324.5" x2="321" y2="321.7"/><text class="m" transform="translate(250.8 335.3)">SMC</text><text class="m" transform="translate(308.6 335.3)">RFR</text><text class="o" transform="translate(196.1 234.4) rotate(-90)">Functional dissimila<tspan class="t" x="122.2" y="0">r</tspan><tspan x="127" y="0">ity</tspan></text><text class="q" transform="translate(182.3 15.6)">B</text><text class="o" transform="translate(132.5 356.9)"><tspan class="u">V</tspan><tspan x="8.2" y="0">egetation type</tspan></text></svg>