<svg xmlns="http://www.w3.org/2000/svg" viewBox="0 0 291.8 307.8"><defs><style>.a{fill:#e7e6e6;opacity:0.78;}.b{fill:#e75725;stroke:#be1e2d;}.b,.c,.t,.w,.x,.z{stroke-miterlimit:10;}.b,.c,.w,.x{stroke-width:1.5px;}.b,.c{opacity:0.3;}.c,.x{fill:#e8a3c8;stroke:#ec008c;}.d{font-size:10px;fill:#6d6e71;font-family:Helvetica-Light, Helvetica;font-weight:300;}.e{fill:#1c9045;}.f,.w,.y{fill:none;}.f{stroke:#c9c9c9;stroke-miterlimit:8;stroke-width:2.25px;}.g{fill:#507837;}.h{fill:#157261;}.i{fill:#2d5428;}.j{fill:#1e8a43;}.k{fill:#71c168;}.l{fill:#b4c7e7;}.m{fill:#6dbce9;}.n{fill:#2b2971;}.o{fill:#5f76b9;}.p{fill:#26c4f3;}.q{fill:#69c8c5;}.r{fill:#965aa4;}.s{fill:#9f5a25;}.t{fill:#dea427;stroke:#bcbec0;}.u{fill:#fec010;}.v{fill:#a7a9ac;}.w{stroke:#a7a9ac;}.z{fill:#25a2dc;stroke:#00aeef;}</style></defs><rect class="a" y="228.5" width="287.4" height="72"/><rect class="a" y="11.5" width="287.4" height="40"/><rect class="a" y="108.5" width="287.4" height="57"/><path class="b" d="M169.7,139.7c3.6,11.8,7.2,14.7,7.9,25.8s-2.9,17.9.6,28.2a32.6,32.6,0,0,0,9.3,14.4c15.8,13.4,40.6,1.2,45.7,10.4,1.5,2.7-.1,4.5-3.1,14.4-.4,1.5-6.3,21.9-6.2,39.8s8,23.7,3.7,29.1-22,4.5-33.3-1.4c-14.1-7.3-12.8-16.3-22.3-18.6-15.8-3.8-24.8,19.6-44.4,17.5-11.1-1.2-20.5-10.1-24.5-18.4s-.9-9.1-2.6-24.8c-2.3-21.1-7.6-24.2-5.1-33.9,3.1-11.6,11.6-10.5,18.1-22.3,2.9-5.2,4.8-11.7-1.1-53.4C108.3,118.1,163.7,119.8,169.7,139.7Z" transform="translate(-21.5 -14.5)"/><path class="c" d="M244.8,57.9c-8.7-9.3-19.6-20.9-35.9-29.4-35.7-18.7-85.5-16.4-91.2-1.1-4.5,12.3,17.4,39.4,42.7,50,14.3,5.9,28.9,6.3,34.8,18.1,1.8,3.6,2.4,8.8,2.4,19.1a203,203,0,0,1-.2,30.5c-3,31.9-15,39.6-8.8,50.8s21.4,13.3,26,14.2c14.7,2.7,20.9-3.3,25.1.8,7.2,7.1-10.6,25.3-7.3,52.5.7,6,2.5,21,14.1,29.1,13.6,9.5,31.5,3.1,39.2.3,2-.7,23.3-8.8,26.6-22.9.4-1.6.8-4.9-5.9-23.4-8.4-22.9-11.2-23.4-11.8-32.3-.8-12.3,4.3-14.8,1.6-25.3-1.9-7.3-5.1-8.8-10.8-18.4a113.6,113.6,0,0,1-11.5-29.3c-4.3-18.4,2.1-21.2-.3-38.1S259.6,73.6,244.8,57.9Z" transform="translate(-21.5 -14.5)"/><text class="d" transform="translate(8.1 296.5)">Primary producers</text><text class="d" transform="translate(8.1 103.2)">Tertiary consumers</text><text class="d" transform="translate(8.1 224.2)">Primary consumers</text><text class="d" transform="translate(8.1 161.5)">Secondary consumers</text><text class="d" transform="translate(8.1 47.5)">Apex predators</text><circle class="e" cx="118" cy="273.6" r="7.5"/><circle class="f" cx="118" cy="273.6" r="7.5"/><ellipse class="g" cx="191.3" cy="277.6" rx="7.5" ry="7"/><ellipse class="f" cx="191.3" cy="277.6" rx="7.5" ry="7"/><circle class="h" cx="97" cy="251" r="7.5"/><circle class="f" cx="97" cy="251" r="7.5"/><circle class="i" cx="280.3" cy="250.5" r="7"/><circle class="f" cx="280.3" cy="250.5" r="7"/><circle class="j" cx="230.9" cy="262.6" r="7.5"/><circle class="f" cx="230.9" cy="262.6" r="7.5"/><circle class="k" cx="159.5" cy="251" r="7.5"/><circle class="f" cx="159.5" cy="251" r="7.5"/><circle class="l" cx="180" cy="177.6" r="7"/><circle class="f" cx="180" cy="177.6" r="7"/><ellipse class="m" cx="227" cy="178.8" rx="7.5" ry="7"/><ellipse class="f" cx="227" cy="178.8" rx="7.5" ry="7"/><circle class="n" cx="198.8" cy="211.4" r="7.5"/><circle class="f" cx="198.8" cy="211.4" r="7.5"/><circle class="o" cx="133" cy="198.3" r="7"/><circle class="f" cx="133" cy="198.3" r="7"/><ellipse class="p" cx="161.9" cy="211.4" rx="7" ry="7.5"/><ellipse class="f" cx="161.9" cy="211.4" rx="7" ry="7.5"/><ellipse class="q" cx="276.5" cy="196.2" rx="7" ry="7.5" transform="translate(48.8 450.9) rotate(-87.9)"/><ellipse class="f" cx="255.1" cy="181.8" rx="7.5" ry="7"/><circle class="r" cx="119" cy="132.8" r="7"/><circle class="f" cx="119" cy="132.8" r="7"/><circle class="s" cx="227.5" cy="99.8" r="7"/><circle class="f" cx="227.5" cy="99.8" r="7"/><ellipse class="t" cx="211.5" cy="62.3" rx="7" ry="7.5"/><ellipse class="f" cx="211.2" cy="62.1" rx="7" ry="7.5"/><circle class="u" cx="110.5" cy="19.5" r="7.5"/><circle class="f" cx="110.5" cy="19.5" r="7.5"/><line class="v" x1="133" y1="191.3" x2="121.4" y2="139.8"/><line class="w" x1="133" y1="191.3" x2="122.7" y2="145.3"/><path class="v" d="M142.9,154.2a28.2,28.2,0,0,0,6,6.8l-4.6-.6-4,2.6A28.9,28.9,0,0,0,142.9,154.2Z" transform="translate(-21.5 -14.5)"/><line class="v" x1="219.5" y1="97.7" x2="115" y2="26.9"/><line class="w" x1="219.5" y1="97.7" x2="119.7" y2="30"/><path class="v" d="M136.5,41.4a31.2,31.2,0,0,0,9.1.8l-3.8,2.7-1.2,4.6A28.1,28.1,0,0,0,136.5,41.4Z" transform="translate(-21.5 -14.5)"/><line class="v" x1="119" y1="125.8" x2="110.5" y2="27"/><line class="w" x1="119" y1="125.8" x2="111" y2="32.6"/><path class="v" d="M132,41.5a26.2,26.2,0,0,0,5.1,7.5l-4.6-1.2-4.2,2A29.6,29.6,0,0,0,132,41.5Z" transform="translate(-21.5 -14.5)"/><line class="v" x1="124.5" y1="128.5" x2="220.5" y2="103.4"/><line class="w" x1="124.5" y1="128.5" x2="215.1" y2="104.8"/><path class="v" d="M242,117.8a28.3,28.3,0,0,0-6.6,6.3l.4-4.7-2.6-3.8A25.9,25.9,0,0,0,242,117.8Z" transform="translate(-21.5 -14.5)"/><line class="v" x1="124.5" y1="128.5" x2="204.9" y2="67.6"/><line class="w" x1="124.5" y1="128.5" x2="200.4" y2="70.9"/><path class="v" d="M226.3,82a27.5,27.5,0,0,0-3.6,8.3l-1.4-4.5-4-2.5A28,28,0,0,0,226.3,82Z" transform="translate(-21.5 -14.5)"/><line class="v" x1="180" y1="170.6" x2="209.3" y2="69.4"/><line class="w" x1="180" y1="170.6" x2="207.7" y2="74.8"/><path class="v" d="M230.7,83.9a25.8,25.8,0,0,0,2.1,8.8L229,90l-4.7.3A29.9,29.9,0,0,0,230.7,83.9Z" transform="translate(-21.5 -14.5)"/><line class="v" x1="222.1" y1="173.5" x2="213" y2="69.8"/><line class="w" x1="222.1" y1="173.5" x2="213.5" y2="75.4"/><path class="v" d="M234.5,84.3a27.6,27.6,0,0,0,5.1,7.5L235,90.6l-4.3,2A29.9,29.9,0,0,0,234.5,84.3Z" transform="translate(-21.5 -14.5)"/><line class="v" x1="251.5" y1="174.8" x2="230.9" y2="106.8"/><line class="w" x1="251.5" y1="174.8" x2="232.5" y2="112.2"/><path class="v" d="M252.3,121.2a28.6,28.6,0,0,0,6.6,6.4l-4.7-.3-3.8,2.8A28.8,28.8,0,0,0,252.3,121.2Z" transform="translate(-21.5 -14.5)"/><line class="v" x1="227" y1="171.8" x2="227.5" y2="106.8"/><line class="w" x1="227" y1="171.8" x2="227.5" y2="112.4"/><path class="v" d="M249,121.2a26.7,26.7,0,0,0,4.3,8l-4.4-1.6-4.4,1.6A28.5,28.5,0,0,0,249,121.2Z" transform="translate(-21.5 -14.5)"/><line class="v" x1="157.9" y1="205.3" x2="126" y2="139.2"/><line class="w" x1="157.9" y1="205.3" x2="128.5" y2="144.3"/><path class="v" d="M147.5,153.7a29.1,29.1,0,0,0,7.4,5.2l-4.7.5-3.2,3.3A27,27,0,0,0,147.5,153.7Z" transform="translate(-21.5 -14.5)"/><line class="v" x1="191.3" y1="207.6" x2="126" y2="137"/><line class="w" x1="191.3" y1="207.6" x2="129.8" y2="141.2"/><path class="v" d="M147.5,151.5a27.9,27.9,0,0,0,8.6,2.8l-4.3,1.9-2.2,4.1A25.2,25.2,0,0,0,147.5,151.5Z" transform="translate(-21.5 -14.5)"/><line class="v" x1="198.8" y1="203.9" x2="211.5" y2="69.8"/><line class="w" x1="198.8" y1="203.9" x2="211" y2="75.4"/><path class="v" d="M233,84.3a29.4,29.4,0,0,0,3.6,8.3l-4.2-2-4.6,1.2A28,28,0,0,0,233,84.3Z" transform="translate(-21.5 -14.5)"/><line class="v" x1="234.5" y1="255.1" x2="254.8" y2="188.8"/><line class="w" x1="234.5" y1="255.1" x2="253.2" y2="194.1"/><path class="v" d="M276.3,203.2a26.2,26.2,0,0,0,1.9,8.9l-3.8-2.8-4.7.2A26.2,26.2,0,0,0,276.3,203.2Z" transform="translate(-21.5 -14.5)"/><line class="v" x1="277" y1="243.5" x2="256.6" y2="188.6"/><line class="w" x1="277" y1="243.5" x2="258.5" y2="193.9"/><path class="v" d="M278,203.1a30.1,30.1,0,0,0,7,5.9h-4.7l-3.6,3.1A29.7,29.7,0,0,0,278,203.1Z" transform="translate(-21.5 -14.5)"/><line class="v" x1="229.3" y1="255.1" x2="227" y2="185.8"/><line class="w" x1="229.3" y1="255.1" x2="227.2" y2="191.4"/><path class="v" d="M248.5,200.2a26.6,26.6,0,0,0,4.7,7.8l-4.5-1.4-4.4,1.7A28.3,28.3,0,0,0,248.5,200.2Z" transform="translate(-21.5 -14.5)"/><line class="v" x1="194.4" y1="270.6" x2="198.8" y2="218.9"/><line class="w" x1="194.4" y1="270.6" x2="198.3" y2="224.5"/><path class="v" d="M220.2,233.4a28,28,0,0,0,3.8,8.2l-4.3-1.9-4.5,1.2A29.8,29.8,0,0,0,220.2,233.4Z" transform="translate(-21.5 -14.5)"/><line class="v" x1="234.5" y1="255.1" x2="254.8" y2="188.8"/><line class="w" x1="234.5" y1="255.1" x2="253.2" y2="194.1"/><path class="v" d="M276.3,203.2a26.2,26.2,0,0,0,1.9,8.9l-3.8-2.8-4.7.2A26.2,26.2,0,0,0,276.3,203.2Z" transform="translate(-21.5 -14.5)"/><line class="v" x1="164.7" y1="245.1" x2="192.9" y2="216.1"/><line class="w" x1="164.7" y1="245.1" x2="189" y2="220.1"/><path class="v" d="M214.4,230.5a31.2,31.2,0,0,0-2.4,8.8l-2-4.2-4.3-1.9A28.3,28.3,0,0,0,214.4,230.5Z" transform="translate(-21.5 -14.5)"/><line class="v" x1="187.7" y1="271.4" x2="180" y2="184.6"/><line class="w" x1="187.7" y1="271.4" x2="180.5" y2="190.2"/><path class="v" d="M201.5,199.1a30.1,30.1,0,0,0,5.1,7.5l-4.6-1.2-4.2,2A29.6,29.6,0,0,0,201.5,199.1Z" transform="translate(-21.5 -14.5)"/><line class="v" x1="99" y1="243.5" x2="116.4" y2="139.3"/><line class="w" x1="99" y1="243.5" x2="115.5" y2="144.8"/><path class="v" d="M137.9,153.7a27.4,27.4,0,0,0,3,8.6l-4-2.3-4.7.8A26.6,26.6,0,0,0,137.9,153.7Z" transform="translate(-21.5 -14.5)"/><line class="v" x1="118" y1="266.1" x2="119" y2="142"/><line class="w" x1="118" y1="266.1" x2="119" y2="147.6"/><path class="v" d="M140.5,156.4a26.7,26.7,0,0,0,4.3,8l-4.4-1.6-4.4,1.5A26.6,26.6,0,0,0,140.5,156.4Z" transform="translate(-21.5 -14.5)"/><line class="v" x1="119.6" y1="266" x2="133" y2="205.3"/><line class="w" x1="119.6" y1="266" x2="131.8" y2="210.8"/><path class="v" d="M154.5,219.7a28.9,28.9,0,0,0,2.6,8.8l-4-2.6-4.7.6A26.6,26.6,0,0,0,154.5,219.7Z" transform="translate(-21.5 -14.5)"/><line class="v" x1="158.8" y1="244.6" x2="161.9" y2="218.9"/><line class="w" x1="158.8" y1="244.6" x2="161.3" y2="224.5"/><path class="v" d="M183.4,233.4a30.9,30.9,0,0,0,3.4,8.4l-4.2-2.1-4.5,1A27.9,27.9,0,0,0,183.4,233.4Z" transform="translate(-21.5 -14.5)"/><path class="x" d="M362.5,83.9" transform="translate(-21.5 -14.5)"/><path class="y" d="M173.1,194.3" transform="translate(-21.5 -14.5)"/><path class="z" d="M231.2,212.9" transform="translate(-21.5 -14.5)"/></svg>