<svg xmlns="http://www.w3.org/2000/svg" viewBox="0 0 287.4 298.2"><defs><style>.a{fill:#e7e6e6;opacity:0.78;}.b{font-size:10px;fill:#6d6e71;font-family:Helvetica-Light, Helvetica;font-weight:300;}.c{fill:#1c9045;}.d{fill:none;stroke:#c9c9c9;stroke-miterlimit:8;stroke-width:2.25px;}.e{fill:#507837;}.f{fill:#157261;}.g{fill:#2d5428;}.h{fill:#1e8a43;}.i{fill:#71c168;}.j{fill:#b4c7e7;}.k{fill:#6dbce9;}.l{fill:#2b2971;}.m{fill:#5f76b9;}.n{fill:#26c4f3;}.o{fill:#69c8c5;}.p{fill:#965aa4;}.q{fill:#9f5a25;}.r{fill:#dea427;}.s{fill:#fec010;}</style></defs><rect class="a" y="218.9" width="287.4" height="72"/><rect class="a" y="1.9" width="287.4" height="40"/><rect class="a" y="98.9" width="287.4" height="57"/><text class="b" transform="translate(8.1 286.8)">Primary producers</text><text class="b" transform="translate(8.1 93.5)">Tertiary consumers</text><text class="b" transform="translate(8.1 214.6)">Primary consumers</text><text class="b" transform="translate(8.1 151.8)">Secondary consumers</text><text class="b" transform="translate(8.1 37.9)">Apex predators</text><circle class="c" cx="115.4" cy="262.7" r="7.5"/><circle class="d" cx="115.4" cy="262.7" r="7.5"/><ellipse class="e" cx="188.6" cy="266.7" rx="7.5" ry="7"/><ellipse class="d" cx="188.6" cy="266.7" rx="7.5" ry="7"/><circle class="f" cx="94.3" cy="240.1" r="7.5"/><circle class="d" cx="94.3" cy="240.1" r="7.5"/><circle class="g" cx="277.7" cy="239.6" r="7"/><circle class="d" cx="277.7" cy="239.6" r="7"/><circle class="h" cx="228.2" cy="251.7" r="7.5"/><circle class="d" cx="228.2" cy="251.7" r="7.5"/><circle class="i" cx="156.9" cy="240.1" r="7.5"/><circle class="d" cx="156.9" cy="240.1" r="7.5"/><circle class="j" cx="177.4" cy="166.7" r="7"/><circle class="d" cx="177.4" cy="166.7" r="7"/><ellipse class="k" cx="224.4" cy="167.9" rx="7.5" ry="7"/><ellipse class="d" cx="224.4" cy="167.9" rx="7.5" ry="7"/><circle class="l" cx="196.1" cy="200.5" r="7.5"/><circle class="d" cx="196.1" cy="200.5" r="7.5"/><circle class="m" cx="130.4" cy="187.4" r="7"/><circle class="d" cx="130.4" cy="187.4" r="7"/><ellipse class="n" cx="159.3" cy="200.5" rx="7" ry="7.5"/><ellipse class="d" cx="159.3" cy="200.5" rx="7" ry="7.5"/><ellipse class="o" cx="273.9" cy="195" rx="7" ry="7.5" transform="translate(47.4 437.3) rotate(-87.9)"/><ellipse class="d" cx="252.4" cy="170.9" rx="7.5" ry="7"/><circle class="p" cx="116.4" cy="121.9" r="7"/><circle class="d" cx="116.4" cy="121.9" r="7"/><circle class="q" cx="224.9" cy="88.9" r="7"/><circle class="d" cx="224.9" cy="88.9" r="7"/><ellipse class="r" cx="208.9" cy="51.4" rx="7" ry="7.5"/><ellipse class="d" cx="208.9" cy="51.4" rx="7" ry="7.5"/><circle class="s" cx="107.9" cy="8.6" r="7.5"/><circle class="d" cx="107.9" cy="8.6" r="7.5"/></svg>