<svg xmlns="http://www.w3.org/2000/svg" viewBox="0 0 291.6 313"><defs><style>.a{fill:#e7e6e6;opacity:0.78;}.b{fill:#fee699;stroke:#d1d3d4;}.b,.c,.d,.e,.f,.i{stroke-miterlimit:8;stroke-width:2.25px;}.c{fill:#f7941d;opacity:0.81;}.c,.d,.e,.f,.i{stroke:#c9c9c9;}.d{fill:#662d91;opacity:0.75;}.e{fill:#27aae1;opacity:0.79;}.f{fill:#009444;opacity:0.73;}.g{font-size:10px;fill:#6d6e71;font-family:Helvetica-Light, Helvetica;font-weight:300;}.h{fill:#1c9045;}.i{fill:none;}.j{fill:#507837;}.k{fill:#157261;}.l{fill:#2d5428;}.m{fill:#1e8a43;}.n{fill:#71c168;}.o{fill:#b4c7e7;}.p{fill:#6dbce9;}.q{fill:#2b2971;}.r{fill:#5f76b9;}.s{fill:#26c4f3;}.t{fill:#69c8c5;}.u{fill:#965aa4;}.v{fill:#9f5a25;}.w{fill:#dea427;}.x{fill:#fec010;}</style></defs><rect class="a" y="16.7" width="287.4" height="40"/><path class="b" d="M105.5,15.2c5.4-5.7,14.3-5,19.2-4.5s17,1.4,23.8,12.4a26.5,26.5,0,0,1,2.8,19.7c-.3.9-3.9,14.2-15.3,17.6s-24.2-7.2-29.3-15.9S98.3,22.8,105.5,15.2Z" transform="translate(-21.5 -9.3)"/><rect class="a" y="113.7" width="287.4" height="57"/><path class="c" d="M223,55.8c-9.5,4.3-13.1,16.2-13.6,23.8s2.4,12.9,7.9,24.2c7.7,15.7,11.5,23.5,19.8,27.7s19.5,5.8,27.7-.6,8-20.8,7.3-29.3c-.4-4.7-1.9-19.8-14.1-32.2C255.8,67.2,238,49.1,223,55.8Z" transform="translate(-21.5 -9.3)"/><path class="d" d="M171.6,148.4c1-11-14.7-20.6-27.1-22.5-8.2-1.3-23.6-.6-27.7,9s4.2,19,9.6,23.7c1.1.9,10.6,9,23.7,6.8C159,163.9,170.8,157.5,171.6,148.4Z" transform="translate(-21.5 -9.3)"/><path class="e" d="M248.4,225.2c7.4-5,11.9-8,16.9-10.1,12.8-5.5,17.3-.4,24.9-5.1s14.2-18.8,10.2-26.5c-2.2-4.2-6.8-6.3-47.5-9.6-21.6-1.8-29.6-2-38.4-1.7-25,.8-32.3,5-36.1,7.8-7.6,5.5-6.3,9.1-13,12.5-13.7,6.9-25.8-4.7-33.3,1.1s-5.9,22.7,1.1,33.3c9.6,14.6,33.3,13.3,61,12.5,4.2-.2,10.7-.9,23.7-2.3,9.8-1.1,13.8-1.7,18.6-3.9S241,230.2,248.4,225.2Z" transform="translate(-21.5 -9.3)"/><rect class="a" y="233.7" width="287.4" height="72"/><path class="f" d="M223,261.4c10.7-.9,9.7-6,27.1-9.6,10-2.1,9.3-.2,28.8-2.3,16.1-1.7,20.4-3.3,25.4,0s8.5,10.3,7.4,16.4-5.3,8.5-8.5,10.7C288.2,287,273,291.3,267,293c-34.1,9.9-29.1,13.9-41.2,14.1-22.8.4-26.8-14.2-48.5-11.8-14.3,1.5-15.7,8.2-30.5,8.4-17.1.3-29.5-8.3-32.8-10.7-9.6-7.1-25.8-24-20.3-36.1,4-9.1,18.9-12.8,29.9-10.8,12.9,2.4,13.8,11.5,25.4,13,13.8,1.9,16.6-10.3,32.2-11.3C199.5,246.7,203.9,262.9,223,261.4Z" transform="translate(-21.5 -9.3)"/><text class="g" transform="translate(8.1 301.7)">Primary producers</text><text class="g" transform="translate(8.1 108.4)">Tertiary consumers</text><text class="g" transform="translate(8.1 229.4)">Primary consumers</text><text class="g" transform="translate(8.1 166.7)">Secondary consumers</text><text class="g" transform="translate(8.1 52.7)">Apex predators</text><circle class="h" cx="115.4" cy="277.5" r="7.5"/><circle class="i" cx="115.4" cy="277.5" r="7.5"/><ellipse class="j" cx="188.6" cy="281.5" rx="7.5" ry="7"/><ellipse class="i" cx="188.6" cy="281.5" rx="7.5" ry="7"/><circle class="k" cx="94.3" cy="255" r="7.5"/><circle class="i" cx="94.3" cy="255" r="7.5"/><circle class="l" cx="277.7" cy="254.5" r="7"/><circle class="i" cx="277.7" cy="254.5" r="7"/><circle class="m" cx="228.2" cy="266.6" r="7.5"/><circle class="i" cx="228.2" cy="266.6" r="7.5"/><circle class="n" cx="156.9" cy="255" r="7.5"/><circle class="i" cx="156.9" cy="255" r="7.5"/><circle class="o" cx="177.4" cy="181.6" r="7"/><circle class="i" cx="177.4" cy="181.6" r="7"/><ellipse class="p" cx="224.4" cy="182.7" rx="7.5" ry="7"/><ellipse class="i" cx="224.4" cy="182.7" rx="7.5" ry="7"/><circle class="q" cx="196.1" cy="215.3" r="7.5"/><circle class="i" cx="196.1" cy="215.3" r="7.5"/><circle class="r" cx="130.4" cy="202.2" r="7"/><circle class="i" cx="130.4" cy="202.2" r="7"/><ellipse class="s" cx="159.3" cy="215.3" rx="7" ry="7.5"/><ellipse class="i" cx="159.3" cy="215.3" rx="7" ry="7.5"/><ellipse class="t" cx="273.9" cy="195" rx="7" ry="7.5" transform="translate(47.4 452.2) rotate(-87.9)"/><ellipse class="i" cx="252.4" cy="185.7" rx="7.5" ry="7"/><circle class="u" cx="116.4" cy="136.7" r="7"/><circle class="i" cx="116.4" cy="136.7" r="7"/><circle class="v" cx="224.9" cy="103.7" r="7"/><circle class="i" cx="224.9" cy="103.7" r="7"/><ellipse class="w" cx="208.9" cy="66.3" rx="7" ry="7.5"/><ellipse class="i" cx="208.9" cy="66.3" rx="7" ry="7.5"/><circle class="x" cx="107.9" cy="23.5" r="7.5"/><circle class="i" cx="107.9" cy="23.5" r="7.5"/></svg>