<svg id="Layer_1" data-name="Layer 1" xmlns="http://www.w3.org/2000/svg" xmlns:xlink="http://www.w3.org/1999/xlink" viewBox="0 0 253.07 361.07"><defs><style>.cls-1,.cls-10,.cls-11,.cls-13,.cls-3,.cls-6,.cls-8,.cls-9{fill:none;}.cls-2{fill:#fff;}.cls-3{stroke:#fff;}.cls-3,.cls-6,.cls-8{stroke-linecap:round;}.cls-10,.cls-11,.cls-13,.cls-3,.cls-6,.cls-8,.cls-9{stroke-linejoin:round;}.cls-11,.cls-13,.cls-3{stroke-width:1.07px;}.cls-4{clip-path:url(#clip-path);}.cls-5{fill:#8b3a3a;}.cls-6,.cls-9{stroke:#8b3a3a;}.cls-6,.cls-8{stroke-width:0.71px;}.cls-7{fill:#4682b4;}.cls-10,.cls-8{stroke:#4682b4;}.cls-10,.cls-9{stroke-width:2.13px;}.cls-11{stroke:#000;}.cls-12{fill:#4d4d4d;}.cls-13{stroke:#333;}</style><clipPath id="clip-path" transform="translate(0.54 0.54)"><rect class="cls-1" x="39.63" y="5.48" width="206.89" height="316.98"/></clipPath></defs><rect class="cls-2" x="0.54" y="0.54" width="252" height="360"/><rect class="cls-2" x="0.54" y="0.54" width="252" height="360"/><rect class="cls-3" x="0.54" y="0.54" width="252" height="360"/><g class="cls-4"><rect class="cls-2" x="40.17" y="6.01" width="206.89" height="316.98"/><path class="cls-5" d="M185.47,164a4.63,4.63,0,1,1,4.62,4.62,4.63,4.63,0,0,1-4.62-4.62" transform="translate(0.54 0.54)"/><path class="cls-6" d="M185.47,164a4.63,4.63,0,1,1,4.62,4.62,4.63,4.63,0,0,1-4.62-4.62" transform="translate(0.54 0.54)"/><path class="cls-7" d="M91.43,164a4.62,4.62,0,1,1,4.62,4.62A4.63,4.63,0,0,1,91.43,164" transform="translate(0.54 0.54)"/><path class="cls-8" d="M91.43,164a4.62,4.62,0,1,1,4.62,4.62A4.63,4.63,0,0,1,91.43,164" transform="translate(0.54 0.54)"/><line class="cls-9" x1="178.87" y1="82.86" x2="202.39" y2="82.86"/><line class="cls-9" x1="190.62" y1="82.86" x2="190.62" y2="246.16"/><line class="cls-9" x1="178.87" y1="246.16" x2="202.39" y2="246.16"/><line class="cls-10" x1="84.84" y1="97.27" x2="108.34" y2="97.27"/><line class="cls-10" x1="96.59" y1="97.27" x2="96.59" y2="231.75"/><line class="cls-10" x1="84.84" y1="231.75" x2="108.34" y2="231.75"/></g><line class="cls-11" x1="40.17" y1="322.99" x2="40.17" y2="6.02"/><path class="cls-12" d="M29.16,307.45a1.65,1.65,0,0,1-.46-1.22,2.21,2.21,0,0,1,.68-1.61A2.6,2.6,0,0,1,31.3,304a2.66,2.66,0,0,1,1.89.63,2,2,0,0,1,.69,1.49,1.93,1.93,0,0,1-.4,1.27,2.58,2.58,0,0,1-.69.54,2.61,2.61,0,0,1,.82.55,2.08,2.08,0,0,1,.56,1.52,2.62,2.62,0,0,1-.74,1.88,2.82,2.82,0,0,1-2.11.77,3.29,3.29,0,0,1-2.07-.66,2.34,2.34,0,0,1-.84-1.94,2.13,2.13,0,0,1,1.44-2.11A2.28,2.28,0,0,1,29.16,307.45Zm3.4,3.79a1.4,1.4,0,0,0,.49-1.18,1.53,1.53,0,0,0-.5-1.23,1.92,1.92,0,0,0-1.28-.42,1.76,1.76,0,0,0-1.23.43,1.5,1.5,0,0,0-.48,1.19,1.62,1.62,0,0,0,.44,1.13,1.74,1.74,0,0,0,1.35.48A1.8,1.8,0,0,0,32.56,311.24Zm-.19-4.15a1.27,1.27,0,0,0,.39-.93,1.22,1.22,0,0,0-.37-.86,1.51,1.51,0,0,0-1.14-.39,1.37,1.37,0,0,0-1.1.39,1.34,1.34,0,0,0-.34.92,1.08,1.08,0,0,0,.44.93,1.66,1.66,0,0,0,1,.34A1.45,1.45,0,0,0,32.37,307.09Z" transform="translate(0.54 0.54)"/><path class="cls-12" d="M22.5,210.37v-.81a4.28,4.28,0,0,0,1.59-.37,1.88,1.88,0,0,0,.68-1.24h.83v8.36H24.47v-5.94Z" transform="translate(0.54 0.54)"/><path class="cls-12" d="M33.63,209.26a6.06,6.06,0,0,1,.56,2.84,6.82,6.82,0,0,1-.51,2.83,2.5,2.5,0,0,1-2.42,1.61A2.44,2.44,0,0,1,29,215.23a6.05,6.05,0,0,1-.61-2.95,7.14,7.14,0,0,1,.37-2.45,2.52,2.52,0,0,1,2.5-1.91A2.49,2.49,0,0,1,33.63,209.26Zm-1.07,5.59a5.2,5.2,0,0,0,.49-2.71,6.81,6.81,0,0,0-.35-2.35,1.35,1.35,0,0,0-1.37-.92,1.42,1.42,0,0,0-1.36.87,6.06,6.06,0,0,0-.43,2.59,6.46,6.46,0,0,0,.27,2.06,1.5,1.5,0,0,0,2.75.46Z" transform="translate(0.54 0.54)"/><path class="cls-12" d="M22.5,114.31v-.81a4.28,4.28,0,0,0,1.59-.37,1.88,1.88,0,0,0,.68-1.24h.83v8.36H24.47v-5.94Z" transform="translate(0.54 0.54)"/><path class="cls-12" d="M28.85,118.36a3.64,3.64,0,0,1,1.52-1.46l1.12-.65a4.82,4.82,0,0,0,1.06-.75,1.52,1.52,0,0,0,.48-1.11,1.55,1.55,0,0,0-.44-1.17,1.62,1.62,0,0,0-1.17-.43,1.55,1.55,0,0,0-1.5.82,2.88,2.88,0,0,0-.24,1.23H28.6a3.85,3.85,0,0,1,.41-1.79,2.54,2.54,0,0,1,2.42-1.22,2.5,2.5,0,0,1,2.77,2.51,2.38,2.38,0,0,1-.71,1.73,6.9,6.9,0,0,1-1.47,1l-.8.45a5.11,5.11,0,0,0-.91.6,2.19,2.19,0,0,0-.73,1.13h4.58v1H28.4A5,5,0,0,1,28.85,118.36Z" transform="translate(0.54 0.54)"/><path class="cls-12" d="M22.5,18.26v-.81a4.28,4.28,0,0,0,1.59-.37,1.88,1.88,0,0,0,.68-1.24h.83V24.2H24.47V18.26Z" transform="translate(0.54 0.54)"/><path class="cls-12" d="M32,24.2V22.15H28.33v-1l3.84-5.33h.89v5.44H34.3v.92H33.06V24.2Zm0-3V17.42L29.3,21.23Z" transform="translate(0.54 0.54)"/><line class="cls-13" x1="37.42" y1="308.58" x2="40.17" y2="308.58"/><line class="cls-13" x1="37.42" y1="212.54" x2="40.17" y2="212.54"/><line class="cls-13" x1="37.42" y1="116.48" x2="40.17" y2="116.48"/><line class="cls-13" x1="37.42" y1="20.43" x2="40.17" y2="20.43"/><line class="cls-11" x1="40.17" y1="322.99" x2="247.06" y2="322.99"/><line class="cls-13" x1="96.59" y1="325.74" x2="96.59" y2="322.99"/><line class="cls-13" x1="190.62" y1="325.74" x2="190.62" y2="322.99"/><path class="cls-12" d="M84.4,333.23a2.29,2.29,0,0,0,.33,1.19,2.17,2.17,0,0,0,2,.86,3.51,3.51,0,0,0,1.15-.19,1.32,1.32,0,0,0,1-1.3,1.14,1.14,0,0,0-.42-1,4,4,0,0,0-1.35-.51L86,332a5.23,5.23,0,0,1-1.57-.56,1.82,1.82,0,0,1-.79-1.62,2.52,2.52,0,0,1,.78-1.9,3.06,3.06,0,0,1,2.21-.74,3.73,3.73,0,0,1,2.24.65,2.38,2.38,0,0,1,.92,2.09h-1.1a2.07,2.07,0,0,0-.36-1.06,2,2,0,0,0-1.73-.68,2,2,0,0,0-1.42.44,1.37,1.37,0,0,0-.44,1,1,1,0,0,0,.52.93,6.93,6.93,0,0,0,1.51.47l1.17.27a3.66,3.66,0,0,1,1.31.55A2.06,2.06,0,0,1,90,333.6a2.22,2.22,0,0,1-1,2,4.46,4.46,0,0,1-2.36.61,3.46,3.46,0,0,1-2.45-.82,2.81,2.81,0,0,1-.87-2.21Z" transform="translate(0.54 0.54)"/><path class="cls-12" d="M91.61,327.4h1.67l2.47,7.28,2.46-7.28h1.66V336H98.76v-5.08c0-.18,0-.47,0-.87s0-.85,0-1.31L96.32,336H95.17l-2.48-7.26V329c0,.21,0,.54,0,1s0,.75,0,.95V336H91.61Z" transform="translate(0.54 0.54)"/><path class="cls-12" d="M107.72,328a3,3,0,0,1,1,2h-1.13a2.18,2.18,0,0,0-2.35-1.81,2.53,2.53,0,0,0-2,.9,4.13,4.13,0,0,0-.77,2.74,4,4,0,0,0,.7,2.45,2.39,2.39,0,0,0,2.07.94,2.16,2.16,0,0,0,1.92-1,3.7,3.7,0,0,0,.53-1.37h1.13a3.9,3.9,0,0,1-1,2.28,3.54,3.54,0,0,1-2.74,1.11,3.59,3.59,0,0,1-2.49-.91,5.67,5.67,0,0,1-.33-6.84,3.63,3.63,0,0,1,3-1.32A3.47,3.47,0,0,1,107.72,328Z" transform="translate(0.54 0.54)"/><path class="cls-12" d="M178.81,327.4h3.92a3.86,3.86,0,0,1,1.59.29,2,2,0,0,1,1.19,2,2.24,2.24,0,0,1-.32,1.27,2.29,2.29,0,0,1-.89.79,1.86,1.86,0,0,1,.76.54,1.92,1.92,0,0,1,.28,1.08l0,1.16a3.72,3.72,0,0,0,.08.73.77.77,0,0,0,.38.53V336h-1.43a.9.9,0,0,1-.09-.29,3.64,3.64,0,0,1-.06-.68l-.07-1.43a1.21,1.21,0,0,0-.61-1.13,2.4,2.4,0,0,0-1-.16H180V336h-1.17Zm3.79,4a2.14,2.14,0,0,0,1.26-.33,1.37,1.37,0,0,0,.47-1.19,1.28,1.28,0,0,0-.65-1.25,2,2,0,0,0-.93-.18H180v3Z" transform="translate(0.54 0.54)"/><path class="cls-12" d="M187.45,327.4h6v1.06h-4.8v2.61h4.22v1h-4.22V336h-1.17Z" transform="translate(0.54 0.54)"/><path class="cls-12" d="M194.81,327.4h3.91a3.88,3.88,0,0,1,1.6.29,2,2,0,0,1,1.19,2,2.32,2.32,0,0,1-.32,1.27,2.25,2.25,0,0,1-.9.79,1.79,1.79,0,0,1,.76.54,1.91,1.91,0,0,1,.29,1.08l0,1.16a3.72,3.72,0,0,0,.08.73.74.74,0,0,0,.38.53V336h-1.43a1.21,1.21,0,0,1-.1-.29c0-.11,0-.34-.06-.68l-.07-1.43a1.19,1.19,0,0,0-.61-1.13,2.32,2.32,0,0,0-1-.16H196V336h-1.17Zm3.79,4a2.14,2.14,0,0,0,1.26-.33,1.37,1.37,0,0,0,.46-1.19,1.26,1.26,0,0,0-.65-1.25,2,2,0,0,0-.92-.18H196v3Z" transform="translate(0.54 0.54)"/><path d="M96.85,341.4,99.74,350l2.85-8.55h1.52l-3.66,10H99l-3.66-10Z" transform="translate(0.54 0.54)"/><path d="M108.63,344.32a2.68,2.68,0,0,1,1.11.95,3.34,3.34,0,0,1,.49,1.29,8.66,8.66,0,0,1,.11,1.61H105a3.2,3.2,0,0,0,.53,1.8,1.72,1.72,0,0,0,1.51.67,1.91,1.91,0,0,0,1.52-.64,2.11,2.11,0,0,0,.46-.86h1.21a2.72,2.72,0,0,1-.32.9,3.07,3.07,0,0,1-.61.81,2.82,2.82,0,0,1-1.37.74,4.37,4.37,0,0,1-1,.11,3,3,0,0,1-2.3-1,3.91,3.91,0,0,1-1-2.79,4.22,4.22,0,0,1,1-2.86,3.13,3.13,0,0,1,2.49-1.1A3.31,3.31,0,0,1,108.63,344.32Zm.44,2.88a3.21,3.21,0,0,0-.34-1.28,1.77,1.77,0,0,0-1.68-.89,1.84,1.84,0,0,0-1.41.61,2.32,2.32,0,0,0-.6,1.56Z" transform="translate(0.54 0.54)"/><path d="M116,344.41a3.29,3.29,0,0,1,.7.7v-.92h1.14v6.66a5,5,0,0,1-.41,2.2,2.94,2.94,0,0,1-2.88,1.49,3.52,3.52,0,0,1-2-.53,2.07,2.07,0,0,1-.9-1.66h1.25a1.38,1.38,0,0,0,.35.76,1.82,1.82,0,0,0,1.31.41,1.79,1.79,0,0,0,1.84-1,5.76,5.76,0,0,0,.24-2.1,2.45,2.45,0,0,1-.89.84,3,3,0,0,1-1.37.27,2.88,2.88,0,0,1-2.07-.85,3.72,3.72,0,0,1-.89-2.79,4.24,4.24,0,0,1,.9-2.87,2.73,2.73,0,0,1,2.16-1A2.69,2.69,0,0,1,116,344.41Zm.15,1.32a1.77,1.77,0,0,0-1.42-.65,1.74,1.74,0,0,0-1.77,1.21,4.79,4.79,0,0,0-.25,1.71,3,3,0,0,0,.5,1.88,1.6,1.6,0,0,0,1.34.64,1.88,1.88,0,0,0,1.86-1.19,3.88,3.88,0,0,0,.29-1.58A3.08,3.08,0,0,0,116.12,345.73Z" transform="translate(0.54 0.54)"/><path d="M124.2,344.32a2.68,2.68,0,0,1,1.11.95,3.18,3.18,0,0,1,.49,1.29,8.66,8.66,0,0,1,.11,1.61h-5.33a3.2,3.2,0,0,0,.53,1.8,1.73,1.73,0,0,0,1.51.67,1.94,1.94,0,0,0,1.53-.64,2.22,2.22,0,0,0,.45-.86h1.21a2.51,2.51,0,0,1-.32.9,3.28,3.28,0,0,1-.6.81,2.81,2.81,0,0,1-1.38.74,4.31,4.31,0,0,1-1,.11,3.07,3.07,0,0,1-2.3-1,3.91,3.91,0,0,1-.94-2.79,4.17,4.17,0,0,1,1-2.86,3.1,3.1,0,0,1,2.48-1.1A3.31,3.31,0,0,1,124.2,344.32Zm.45,2.88a3.2,3.2,0,0,0-.35-1.28,1.75,1.75,0,0,0-1.67-.89,1.83,1.83,0,0,0-1.41.61,2.33,2.33,0,0,0-.61,1.56Z" transform="translate(0.54 0.54)"/><path d="M127.71,342.08H129v2h1.17v1H129v4.78a.53.53,0,0,0,.26.52,1.27,1.27,0,0,0,.48.07h.19l.24,0v1a3.12,3.12,0,0,1-.44.09,4,4,0,0,1-.5,0,1.36,1.36,0,0,1-1.17-.44,2,2,0,0,1-.31-1.15v-4.85h-1v-1h1Z" transform="translate(0.54 0.54)"/><path d="M135.28,347a.69.69,0,0,0,.57-.35,1.22,1.22,0,0,0,.08-.48,1,1,0,0,0-.45-.91,2.34,2.34,0,0,0-1.27-.29,1.62,1.62,0,0,0-1.37.52,1.71,1.71,0,0,0-.29.86H131.4a2.12,2.12,0,0,1,.88-1.89,3.6,3.6,0,0,1,1.95-.53,4.08,4.08,0,0,1,2.1.49,1.68,1.68,0,0,1,.8,1.53v4.22a.49.49,0,0,0,.08.31q.07.12.33.12h.18l.22,0v.9a3.94,3.94,0,0,1-.44.11l-.41,0a1,1,0,0,1-.92-.45,1.76,1.76,0,0,1-.21-.68,3.07,3.07,0,0,1-1.08.85,3.25,3.25,0,0,1-1.55.37,2.33,2.33,0,0,1-1.67-.62,2.05,2.05,0,0,1-.64-1.55,2,2,0,0,1,.63-1.57,3,3,0,0,1,1.67-.69Zm-2.59,3.32a1.42,1.42,0,0,0,.92.31,2.78,2.78,0,0,0,1.26-.3,1.69,1.69,0,0,0,1-1.63v-1a2,2,0,0,1-.58.24,6.19,6.19,0,0,1-.7.14l-.74.09a2.87,2.87,0,0,0-1,.28,1.1,1.1,0,0,0-.57,1A1,1,0,0,0,132.69,350.33Z" transform="translate(0.54 0.54)"/><path d="M139.39,342.08h1.24v2h1.17v1h-1.17v4.78a.53.53,0,0,0,.26.52,1.35,1.35,0,0,0,.48.07h.19l.24,0v1a2.85,2.85,0,0,1-.44.09,3.79,3.79,0,0,1-.49,0,1.33,1.33,0,0,1-1.17-.44,2,2,0,0,1-.31-1.15v-4.85h-1v-1h1Z" transform="translate(0.54 0.54)"/><path d="M143,341.4h1.26v1.39H143Zm0,2.75h1.26v7.29H143Z" transform="translate(0.54 0.54)"/><path d="M151.45,344.85a3.68,3.68,0,0,1,1,2.77,4.8,4.8,0,0,1-.86,2.93,3.07,3.07,0,0,1-2.65,1.15,3,3,0,0,1-2.38-1,4,4,0,0,1-.88-2.74,4.39,4.39,0,0,1,.93-2.94,3.1,3.1,0,0,1,2.49-1.09A3.28,3.28,0,0,1,151.45,344.85Zm-.76,4.87a4.67,4.67,0,0,0,.44-2.06,3.66,3.66,0,0,0-.32-1.67,1.82,1.82,0,0,0-1.77-1,1.74,1.74,0,0,0-1.62.86,4,4,0,0,0-.51,2.08,3.46,3.46,0,0,0,.51,1.94,1.77,1.77,0,0,0,1.61.78A1.69,1.69,0,0,0,150.69,349.72Z" transform="translate(0.54 0.54)"/><path d="M153.93,344.12h1.17v1a3.18,3.18,0,0,1,1.1-.92,2.9,2.9,0,0,1,1.29-.28A2.14,2.14,0,0,1,159.6,345a3.89,3.89,0,0,1,.3,1.7v4.7h-1.25v-4.61a2.51,2.51,0,0,0-.2-1.08,1.21,1.21,0,0,0-1.19-.69,2.43,2.43,0,0,0-.72.09,1.91,1.91,0,0,0-.89.6,2,2,0,0,0-.4.75,5.23,5.23,0,0,0-.09,1.11v3.83h-1.23Z" transform="translate(0.54 0.54)"/><path d="M165.85,342.08h1.25v2h1.17v1H167.1v4.78a.52.52,0,0,0,.26.52,1.25,1.25,0,0,0,.47.07h.2l.24,0v1a3.43,3.43,0,0,1-.44.09,4,4,0,0,1-.5,0,1.35,1.35,0,0,1-1.17-.44,2,2,0,0,1-.31-1.15v-4.85h-1v-1h1Z" transform="translate(0.54 0.54)"/><path d="M174.07,344.12h1.36l-1.15,3.21c-.45,1.26-.82,2.29-1.12,3.08a19.79,19.79,0,0,1-1.51,3.42,1.71,1.71,0,0,1-1.5.61l-.4,0-.34-.07v-1.13a3.45,3.45,0,0,0,.46.11,1.19,1.19,0,0,0,.25,0,.82.82,0,0,0,.5-.11.87.87,0,0,0,.27-.27,6,6,0,0,0,.25-.56l.31-.75-2.71-7.54h1.39l2,6Z" transform="translate(0.54 0.54)"/><path d="M176.39,344.15h1.21v1a2.8,2.8,0,0,1,.81-.77,2.6,2.6,0,0,1,1.46-.41,2.76,2.76,0,0,1,2.12,1,3.88,3.88,0,0,1,.87,2.72A4.19,4.19,0,0,1,181.6,351a2.84,2.84,0,0,1-1.85.65,2.44,2.44,0,0,1-1.39-.37,3.09,3.09,0,0,1-.74-.7v3.74h-1.23Zm4.63,5.74a3.42,3.42,0,0,0,.58-2.15,4,4,0,0,0-.26-1.51,1.74,1.74,0,0,0-1.75-1.21,1.76,1.76,0,0,0-1.76,1.28,5,5,0,0,0-.25,1.74,3.67,3.67,0,0,0,.25,1.44,1.87,1.87,0,0,0,3.19.41Z" transform="translate(0.54 0.54)"/><path d="M188.8,344.32a2.68,2.68,0,0,1,1.11.95,3.18,3.18,0,0,1,.49,1.29,8.66,8.66,0,0,1,.11,1.61h-5.33a3.2,3.2,0,0,0,.53,1.8,1.73,1.73,0,0,0,1.51.67,1.94,1.94,0,0,0,1.53-.64,2.22,2.22,0,0,0,.45-.86h1.21a2.51,2.51,0,0,1-.32.9,3.28,3.28,0,0,1-.6.81,2.81,2.81,0,0,1-1.38.74,4.31,4.31,0,0,1-1,.11,3.07,3.07,0,0,1-2.3-1,3.91,3.91,0,0,1-.94-2.79,4.17,4.17,0,0,1,.95-2.86,3.1,3.1,0,0,1,2.48-1.1A3.31,3.31,0,0,1,188.8,344.32Zm.45,2.88a3.2,3.2,0,0,0-.35-1.28,1.75,1.75,0,0,0-1.67-.89,1.83,1.83,0,0,0-1.41.61,2.33,2.33,0,0,0-.61,1.56Z" transform="translate(0.54 0.54)"/><path d="M5.49,195.33v-2L14,190.49l-8.49-2.87v-1.93h10V187H9.6l-1,0H7.06l8.47,2.87v1.35l-8.47,2.89h.31l1.12,0,1.11,0h5.93v1.3Z" transform="translate(0.54 0.54)"/><path d="M8.94,178.49a3.68,3.68,0,0,1,2.77-1,4.8,4.8,0,0,1,2.93.86A3.07,3.07,0,0,1,15.79,181a3,3,0,0,1-1,2.38,4,4,0,0,1-2.74.88,4.44,4.44,0,0,1-2.94-.92A3.13,3.13,0,0,1,8,180.87,3.28,3.28,0,0,1,8.94,178.49Zm4.87.76a4.82,4.82,0,0,0-2.06-.44,3.66,3.66,0,0,0-1.67.32,1.82,1.82,0,0,0-1,1.77,1.74,1.74,0,0,0,.86,1.62A4,4,0,0,0,12,183a3.46,3.46,0,0,0,1.94-.51,1.77,1.77,0,0,0,.78-1.61A1.69,1.69,0,0,0,13.81,179.25Z" transform="translate(0.54 0.54)"/><path d="M8.43,172a3.47,3.47,0,0,1,.72-.75H5.45v-1.18H15.53v1.11h-1a2.69,2.69,0,0,1,1,1,2.92,2.92,0,0,1,.3,1.35,2.71,2.71,0,0,1-1,2.11,4,4,0,0,1-2.74.89,4.76,4.76,0,0,1-2.77-.81,2.68,2.68,0,0,1-1.17-2.33A2.62,2.62,0,0,1,8.43,172Zm5.49,2.74a1.74,1.74,0,0,0,.8-1.59,1.7,1.7,0,0,0-.74-1.4,3.52,3.52,0,0,0-2.11-.54,3.1,3.1,0,0,0-2,.56,1.75,1.75,0,0,0-.67,1.4,1.87,1.87,0,0,0,.71,1.5,3.31,3.31,0,0,0,2.1.57A3.61,3.61,0,0,0,13.92,174.73Z" transform="translate(0.54 0.54)"/><path d="M8.21,167h4.86a2.07,2.07,0,0,0,.92-.17,1.2,1.2,0,0,0,.65-1.19,1.69,1.69,0,0,0-1.15-1.71,4.77,4.77,0,0,0-1.69-.24H8.21v-1.23h7.32v1.16H14.45a2.34,2.34,0,0,1,.7.58,2.51,2.51,0,0,1,.58,1.68A2.15,2.15,0,0,1,14.68,168a3.15,3.15,0,0,1-1.49.3h-5Z" transform="translate(0.54 0.54)"/><path d="M5.49,160.4v-1.23h10v1.23Z" transform="translate(0.54 0.54)"/><path d="M11.1,153.4a.66.66,0,0,0-.35-.56,1.05,1.05,0,0,0-.48-.09,1,1,0,0,0-.91.45,2.38,2.38,0,0,0-.29,1.28,1.6,1.6,0,0,0,.52,1.36,1.81,1.81,0,0,0,.86.3v1.15a2.16,2.16,0,0,1-1.89-.88,3.64,3.64,0,0,1-.53-2,4,4,0,0,1,.49-2.09,1.66,1.66,0,0,1,1.53-.8h4.22a.57.57,0,0,0,.31-.08q.12-.07.12-.33c0-.06,0-.12,0-.19l0-.22h.9c.06.2.09.34.11.44s0,.24,0,.41a1,1,0,0,1-.45.92,1.75,1.75,0,0,1-.68.22,3.07,3.07,0,0,1,.85,1.08,3.23,3.23,0,0,1,.37,1.55,2.3,2.3,0,0,1-.62,1.66,2.06,2.06,0,0,1-1.55.65A2,2,0,0,1,12,157a2.92,2.92,0,0,1-.69-1.67ZM14.42,156a1.4,1.4,0,0,0,.31-.92,2.84,2.84,0,0,0-.3-1.26,1.69,1.69,0,0,0-1.63-1h-1a1.84,1.84,0,0,1,.24.58,6,6,0,0,1,.14.69l.09.75a2.81,2.81,0,0,0,.28,1,1.1,1.1,0,0,0,1,.57A1,1,0,0,0,14.42,156Z" transform="translate(0.54 0.54)"/><path d="M8.21,149.51v-1.17H9.47a2.82,2.82,0,0,1-.89-.71A1.79,1.79,0,0,1,8,146.34s0-.06,0-.11,0-.15,0-.29h1.3a1.77,1.77,0,0,0,0,.21c0,.06,0,.13,0,.2a1.77,1.77,0,0,0,.6,1.43,2.11,2.11,0,0,0,1.38.5h4.21v1.23Z" transform="translate(0.54 0.54)"/><path d="M5.49,144.68v-1.25H6.88v1.25Zm2.75,0v-1.25h7.29v1.25Z" transform="translate(0.54 0.54)"/><path d="M6.17,141.33v-1.25h2v-1.17h1v1.17H14a.49.49,0,0,0,.51-.26,1.06,1.06,0,0,0,.08-.48v-.19q0-.1,0-.24h1a3.12,3.12,0,0,1,.09.44,4,4,0,0,1,0,.5,1.36,1.36,0,0,1-.44,1.17,2,2,0,0,1-1.15.31H9.21v1h-1v-1Z" transform="translate(0.54 0.54)"/><path d="M8.21,133.11v-1.36l3.21,1.15c1.26.45,2.29.82,3.08,1.12a21,21,0,0,1,3.42,1.5,1.74,1.74,0,0,1,.61,1.51,3.9,3.9,0,0,1,0,.4c0,.09,0,.2-.07.34H17.31a3.45,3.45,0,0,0,.11-.46,1.23,1.23,0,0,0,0-.26.86.86,0,0,0-.11-.5,1.15,1.15,0,0,0-.27-.27L16.5,136l-.75-.31-7.54,2.71V137l6-2Z" transform="translate(0.54 0.54)"/></svg>