<svg xmlns="http://www.w3.org/2000/svg" viewBox="0 0 937 336.1"><defs><style>.a{fill:#cdba8f;}.b{fill:#564025;}.c{fill:#b9914e;}.d{fill:#d1cdbf;}.e{fill:#8c8374;}.f{fill:#d5c097;}.g{fill:#bbb4a2;}.h,.m{fill:none;}.h{stroke:#a97c50;}.h,.m,.o{stroke-miterlimit:10;}.i{fill:#e9e1db;}.j{fill:#614b29;}.k{fill:#3a1e15;}.l{fill:#a39076;}.m{stroke:#010101;}.n{fill:#fff;}.o{fill:#161616;stroke:#b5b5b5;}.p{fill:#f0f0f0;}.q{fill:#3b3115;}.r{fill:#7d7b76;}.s{fill:#b5894b;}.t{fill:#a89a7f;}.u{fill:#4a444c;}.v{fill:#f6f3f1;}.w{fill:#685849;}.x{fill:#4b4336;}.y{fill:#80775d;}.z{fill:#4a4950;}.aa{fill:#a28e6f;}.ab{fill:#666056;}.ac{fill:#292212;}.ad{fill:#ddd4c9;}.ae{fill:#927258;}.af{fill:#cfbe97;}.ag{fill:#916226;}.ah{fill:#e5dfc5;}.ai{fill:#816436;}.aj{fill:#322c24;}.ak{fill:#8b7450;}.al{fill:#655948;}.am{fill:#9a825d;}.an{fill:#ccc1af;}</style></defs><path class="a" d="M135.7,326.7l15.6-.7,7.2-.7,11.7-4.5,15.1-7.8,13.5-8.1,4.8-5.3,7-11.7,3.2-7.2,1.1-12.7-2.2-6.9-1-4.7,2-8.4-4.1-.4-4.3,9.2L201,274.5l-8.3,10.3-11.4,11.5-4.9,5.9-28.7,7.1-47.5-1.8L75.8,297,56.5,285.4l-20-22.6-8.1-10.2-8.3-14.8-1.7-26.2,3.7-9L16,210.3a72.4,72.4,0,0,0-6,11.6,67,67,0,0,0-3.5,11.7L9,247.3a93.5,93.5,0,0,0,9,18.5,96.5,96.5,0,0,0,8.1,10.9,118.1,118.1,0,0,0,7.9,8.9,97.2,97.2,0,0,0,11.9,10l11.9,8,8.9,6.1,12.9,6.7,14.4,5c5.3,1.2,11,2.2,17.1,3.1C119.9,325.7,128.1,326.4,135.7,326.7Z" transform="translate(-6.5 -8.2)"/><path class="b" d="M157.6,267.5c2.6-.2,5.3-.5,8.2-1s8-1.4,11.6-2.2l-22.8,20.5L135,291.3a81.8,81.8,0,0,1-13.9,1.2,85.2,85.2,0,0,1-20.7-2.3c-4.2-1.3-8.7-2.8-13.3-4.6a169.7,169.7,0,0,1-18-8L46.8,266.9c-4.9-5.2-9.9-10.4-14.9-15.5s-7.9-9.1-11.8-13.6a48.7,48.7,0,0,1-2.4-12.9,53.5,53.5,0,0,1,.7-13.3l3.7-9,5.8-6.6a15.3,15.3,0,0,1,12.8-2.3c7.1,2,9.6,8.5,9.9,9.1a39.8,39.8,0,0,1,5,7.3,34.2,34.2,0,0,1,3.6,10.7,85.8,85.8,0,0,0,7.6,14.6,92.4,92.4,0,0,0,11.8,15.1,77.1,77.1,0,0,0,10,7.1,67.3,67.3,0,0,0,12.1,5.7l20.9,4.4c5.3.5,11.2.8,17.6.8A171.6,171.6,0,0,0,157.6,267.5Z" transform="translate(-6.5 -8.2)"/><path class="c" d="M198.4,253.9c-.2.4-.6.5-1.4.8l-1.4.7-4.1,2.1-10.8,5.1c-3.6,1.6-8.9,4.8-15.8,11.7l-15,10.1a104.7,104.7,0,0,1-18.6,4.7,101.2,101.2,0,0,1-25.9.8l-21.8-5.6a124.3,124.3,0,0,1-22.1-10.8,141.6,141.6,0,0,1-20.9-15.7c-12.9-11.7-18.9-21-20.5-20s1.5,7.7,3.6,12.7A78.2,78.2,0,0,0,31,264.2a76.9,76.9,0,0,0,11.3,13.7,88.6,88.6,0,0,0,14.5,11.6L76.5,301l26.4,9,21.3,2.2,26.9-1.3,25.3-8.7,16.3-17.4a23.2,23.2,0,0,0,8.3-10.3C205.2,263.9,198.5,253.8,198.4,253.9Z" transform="translate(-6.5 -8.2)"/><path class="d" d="M334.5,255.3l13.1,13.9-13.1,27.4-7.2,6.2a20.6,20.6,0,0,1-8.3,3.9,21.9,21.9,0,0,1-8.2,0,46,46,0,0,0-8.2-1.2,53.9,53.9,0,0,0-9,0l-11.1,1.8-2.1,1.4c-1.1.8-1.6,1-1.6,1.3s1.6.7,2.7.9a26,26,0,0,1,6.1,2.1c2.6,1.6,4.3,1.5,5.4,1.2a21.3,21.3,0,0,0,2.7-1.6,34.2,34.2,0,0,1,4-1.7l5.6-2.1,5.5.6c2.2.1,3.2.1,4.2.9s.8.8,1.9,2.8,1.3,2.4,2.1,4.1a22.9,22.9,0,0,0-10.1.6,21.4,21.4,0,0,0-7.5,3.9c-.2.6-.4,1.2-.6,2a9.8,9.8,0,0,0-.6,2.2c0,.9.4,1.1.9,2.4a8.2,8.2,0,0,1,.6,2.5h-3.3a13.9,13.9,0,0,1-3-2.8,18.8,18.8,0,0,0-2.4-2.8,7.7,7.7,0,0,0-3.6-1.4,14.3,14.3,0,0,0-6,.3,8.6,8.6,0,0,0,0,4.8c.9,3.5,3.9,5.5,3.3,6.3s-2.2.2-2.3.2a5.2,5.2,0,0,1-1.6-.7l-1.3-.8a34.2,34.2,0,0,0-4.2-2.5,25.1,25.1,0,0,1-2.7-4.9c-.7-1.6-.8-2.5-1.8-3.3a8,8,0,0,0-3.6-1.1,22.7,22.7,0,0,0-3-.4,10,10,0,0,1-6.3-2.4,9.7,9.7,0,0,1-3.3-5.1,18.5,18.5,0,0,1-2.5-7.2,19.8,19.8,0,0,1,.7-7.3,25,25,0,0,1,1.5-4.8l23.9-1.9,20.7-1.6L319,272.2l12.5-7.7Z" transform="translate(-6.5 -8.2)"/><path class="e" d="M226.4,229.4c15.4-10.8,12-8.8,19.5-13.9,20.9-14.1,34.3-23.2,37.5-20.3s1.2,6.9-10.1,25.1v21.6l8.1,13.1,16.8,2.8,2.9,6.1a17.7,17.7,0,0,1-2.9,9.2,18.9,18.9,0,0,1-12.5,7.7L267.6,300a43.6,43.6,0,0,1-20.6,5.1,44.1,44.1,0,0,1-19.6-4.8,13.2,13.2,0,0,1-5.4-5c-2.5-4.1-.9-7.5-2.7-12.1-.8-2.3-2.6-5.4-6.8-8.3l-14.7,3c2.4-5.8,2.1-9.8,1.2-12.5s-1.9-4.3-2-6.8c-.1-5.2,4.7-9.2,9.2-13C219.8,234.4,226.4,229.4,226.4,229.4Z" transform="translate(-6.5 -8.2)"/><path class="f" d="M301.1,263.9l13.2,14-11.7,27.6-9.6,8.7a117.1,117.1,0,0,1-12.3,1.1c-3.5.2-5.5.6-8.3,0a74.2,74.2,0,0,0-8.1-1.2,67.3,67.3,0,0,0-9,0l-11.2,1.8a14.5,14.5,0,0,1-2,1.5c-1.1.7-1.6.9-1.6,1.2s1.5.7,2.7,1a19.8,19.8,0,0,1,6,2c2.7,1.6,4.4,1.6,5.5,1.3s1-.7,2.7-1.6a43.1,43.1,0,0,1,4-1.8l5.6-2.1,5.4.6c2.3.2,3.2.2,4.2.9s.8.8,1.9,2.9a46.1,46.1,0,0,1,2.2,4.1,22.3,22.3,0,0,0-17.6,4.5l-.7,2a6.3,6.3,0,0,0-.5,2.2c0,.8.4,1.1.8,2.3a9.6,9.6,0,0,1,.7,2.5h-3.3a18.5,18.5,0,0,1-3.1-2.7c-1.2-1.4-1.3-2-2.3-2.9a7.9,7.9,0,0,0-3.7-1.3,14.5,14.5,0,0,0-6,.3,10.9,10.9,0,0,0,0,4.8c1,3.5,4,5.4,3.4,6.3s-2.2.2-2.3.2l-1.7-.8-1.3-.8L239,340a22.5,22.5,0,0,1-2.7-4.8c-.7-1.7-.8-2.6-1.8-3.3s-1.8-.8-3.7-1.2l-2.9-.3a11.7,11.7,0,0,1-6.4-2.4,11.3,11.3,0,0,1-3.3-5.1,19.5,19.5,0,0,1-2.4-7.3c-.3-2.4-.6-4.8.6-7.2s5.5-4.5,6.5-4.8l18.9-1.9,20.4-4.5L280.8,284l12.4-10.9Z" transform="translate(-6.5 -8.2)"/><path class="d" d="M746.6,144,736,155l10.6,21.6,5.8,4.8a16.7,16.7,0,0,0,6.7,3.1,16.3,16.3,0,0,0,6.7,0,39,39,0,0,1,6.6-.9,44.3,44.3,0,0,1,7.3,0l9,1.4,1.6,1.1c.9.6,1.3.8,1.3,1s-1.2.6-2.1.7a21,21,0,0,0-5,1.7c-2.1,1.2-3.5,1.2-4.3.9a10.2,10.2,0,0,1-2.2-1.2l-3.3-1.4-4.5-1.6-4.4.4c-1.8.2-2.6.2-3.4.8s-.7.6-1.5,2.2l-1.8,3.2a18.7,18.7,0,0,1,8.2.5,17.1,17.1,0,0,1,6.1,3.1l.5,1.6a4.6,4.6,0,0,1,.4,1.7c0,.7-.3.9-.7,1.8a14.3,14.3,0,0,0-.5,2h2.7a13.5,13.5,0,0,0,2.4-2.2c1-1,1.1-1.6,2-2.2a6.5,6.5,0,0,1,2.9-1.1,11,11,0,0,1,4.9.3,7.9,7.9,0,0,1,0,3.8c-.8,2.7-3.2,4.2-2.8,4.9s1.8.2,1.9.2l1.3-.6,1.1-.6,3.3-2a20.7,20.7,0,0,0,2.2-3.8c.6-1.4.7-2,1.5-2.6s1.4-.7,2.9-1l2.4-.2a9.3,9.3,0,0,0,5.1-1.9,7.6,7.6,0,0,0,2.7-4.1,14.9,14.9,0,0,0,2-5.7,18.1,18.1,0,0,0-.5-5.6c-.4-1.6-.9-2.9-1.2-3.8l-19.4-1.5-16.7-1.3-14.7-15.2-10.1-6Z" transform="translate(-6.5 -8.2)"/><path class="g" d="M773.6,183.4,763,161.8h-8.7l-9.2-8.9-12.6-2.6-8.4-7.3-9.2,22.7,8.5,5L729,174c3.2,2,4.2,2.8,6.1,3.6a22.7,22.7,0,0,0,6.2,1.6l11.5,2.7,6.2,2c3.6,1.2,4.3,1.5,6.3,2s2.9.3,6.5,1c5.1.8,7.3,1.8,7.6,1.4S778.7,186.8,773.6,183.4Z" transform="translate(-6.5 -8.2)"/><polyline class="h" points="610.3 89.8 606.6 89.8 603.8 93.5 599.1 102.2 597.3 109.7 594.3 114.9 590.3 117"/><path class="i" d="M652.1,78.6l-3,3.7-4,.8-3,4.8-.5,3h5.3l5.2-3,4.4-5.6a22.8,22.8,0,0,0,5.9-1.6,28.5,28.5,0,0,0,4.6-2.1l3.7-3.8,6.1-2.5,3.1-3.7V62.8l-5.4-7.9-2.1,7.3a47.4,47.4,0,0,0-4.3,5,37.2,37.2,0,0,0-4.2,7.6Z" transform="translate(-6.5 -8.2)"/><polygon class="j" points="666 40.1 660.5 46.8 658.6 51.7 654.1 54.1 648.7 54.1 645.2 57.5 642.6 61.4 642.6 64.5 637.1 68.7 632.5 74.2 628.9 79.7 628.1 82.7 635.1 82.7 637.1 77.1 638.5 74.9 642.6 74.2 645.5 70.4 654.5 68.6 657.4 66.6 661.6 59 665.9 54 667.9 46.8 666 40.1"/><path class="k" d="M671,28.5c.1,2.2.1,4.3.2,6.5l1.2,6.9c.1,2.1.1,4.2.1,6.4L667,54.9l-1.9,5-4.5,2.3h-5.3l-3.6,3.4-2.6,4v3.1l-5.4,4.2L639,82.3l-3.5,5.6-.9,3-6.3,7.4-2.6-1.6-4.6,1.6V94.1l2.1-3.2,2.9-3,2.2-3.6,4.6-5.1,2.4-3.4,4.9-4.4c1.1-1.6,2.1-3.3,3.2-5l4-3.7,5.5-5.1,4-4.1c-.8-3.8.6-7.1,2.9-8a4.7,4.7,0,0,1,3.2,0,15.2,15.2,0,0,1,0-3.7,12.9,12.9,0,0,1,1.2-4.9c1-1.9,1.9-2.1,4.2-4.9A34,34,0,0,0,671,28.5Z" transform="translate(-6.5 -8.2)"/><path class="l" d="M920.4,138.5l-8,9.6-3.9,4.2-8.6,5.3-12.3,5.9-11.9,4.6-5.7.6-10.9-1-6.3-1.4-8.7-5.3-3.4-4.7-2.6-2.8-6.4-2.6,1.7-2.8,8,1.6,13.6,5.5,10.7-.3,12.9-1.9,6.2-.2L903.3,138,925,107.1l5-20.4,1.8-17.6-5-23.3-2.7-9.9-5.6-12.2L902.3,10.3l-7.6-1.9,7.9-.2a51.7,51.7,0,0,1,10.5,1.6,50,50,0,0,1,9.2,3.4l7.7,7.9a73.1,73.1,0,0,1,7.6,14.4,66.1,66.1,0,0,1,3.2,10.3,87,87,0,0,1,1.9,9.2,78.8,78.8,0,0,1,.9,12.2L943,78.5l-.3,8.4-1.9,11.3-3.7,11.5q-2.9,5.8-6.3,12.3C927.4,128.1,923.8,133.6,920.4,138.5Z" transform="translate(-6.5 -8.2)"/><path class="m" d="M679.9,72.7c-.9.6-1.1,2-1.2,4.2l7.9-3.1-7.9,3.1C678.8,74.7,679,73.3,679.9,72.7Z" transform="translate(-6.5 -8.2)"/><path class="n" d="M628,48.2a12.1,12.1,0,0,0-1.6,1.6l2.8-3.9,1-.3A16.9,16.9,0,0,1,628,48.2Z" transform="translate(-6.5 -8.2)"/><path class="n" d="M617.5,59.2l3.6-3.5a32,32,0,0,0-4,6.1Z" transform="translate(-6.5 -8.2)"/><path class="n" d="M656.5,179.2c-.1.5-.3.9-.4,1.4l.4-2.6v1.2Z" transform="translate(-6.5 -8.2)"/><path class="n" d="M622.6,107.4l-.8-.9a10.9,10.9,0,0,0,2.7,1.1Z" transform="translate(-6.5 -8.2)"/><path class="n" d="M810.9,191.1l-4.3-.7h-.1A6.8,6.8,0,0,1,810.9,191.1Z" transform="translate(-6.5 -8.2)"/><path class="n" d="M651.4,187.1l.7-.5-.8.5Z" transform="translate(-6.5 -8.2)"/><path class="n" d="M615.7,65.8a14,14,0,0,0-.6,2.8V66.8Z" transform="translate(-6.5 -8.2)"/><path d="M848.9,26.7Z" transform="translate(-6.5 -8.2)"/><path d="M656.5,179.2Z" transform="translate(-6.5 -8.2)"/><path d="M656.5,179.2V178h0v1.2Z" transform="translate(-6.5 -8.2)"/><path d="M664,85.5c-1.2.3-2.5.4-3.8.6l-.3-1c3.8-2.2,7.4-4.7,11.4-6.4,1.4-.6,3.7.9,5.5,1.5a28.8,28.8,0,0,1-4.7,3A74.9,74.9,0,0,1,664,85.5Z" transform="translate(-6.5 -8.2)"/><path d="M895.2,139.4l.8,1.6-9.8,3.9C887.4,138.2,892.6,141.5,895.2,139.4Z" transform="translate(-6.5 -8.2)"/><path d="M679.9,72.7a3.3,3.3,0,0,1,2.7-.2l.9.2,1.9.6,1.2.5-7.9,3.1C678.8,74.7,679,73.3,679.9,72.7Z" transform="translate(-6.5 -8.2)"/><path d="M679.9,72.7a3.3,3.3,0,0,1,2.7-.2A3.3,3.3,0,0,0,679.9,72.7Z" transform="translate(-6.5 -8.2)"/><path d="M884,146.6l-5.7,4.3-1.2-1.7,6.1-3.8Z" transform="translate(-6.5 -8.2)"/><path class="n" d="M656.5,179.2c1.4-4,2.7-8,4.2-12.4C664.9,172.5,663.1,176.8,656.5,179.2Z" transform="translate(-6.5 -8.2)"/><path class="n" d="M656.5,179.2Z" transform="translate(-6.5 -8.2)"/><path class="n" d="M656.5,179.2Z" transform="translate(-6.5 -8.2)"/><path class="n" d="M656.5,179.2Z" transform="translate(-6.5 -8.2)"/><path class="n" d="M659.9,103.7a7.8,7.8,0,0,0,.5-1.4l8.1,4.2C664.6,107.9,662.2,106,659.9,103.7Z" transform="translate(-6.5 -8.2)"/><path class="n" d="M669.2,152.9v7.7h-1C667.7,158.4,665.3,156.2,669.2,152.9Z" transform="translate(-6.5 -8.2)"/><path class="n" d="M915.3,99.7l-4.6,6.9-1.4-1,4.8-6.7Z" transform="translate(-6.5 -8.2)"/><path class="n" d="M874.3,144.6c-1.5,1.7-1.9,5.1-6.6,3l6-3.8Z" transform="translate(-6.5 -8.2)"/><ellipse class="o" cx="658.8" cy="69.6" rx="5.3" ry="4.5" transform="translate(146.9 489.8) rotate(-46.3)"/><ellipse class="p" cx="653.9" cy="59" rx="1.6" ry="1.6"/><ellipse class="p" cx="649.5" cy="61.2" rx="0.8" ry="0.8"/><path class="i" d="M827.3,135.9l-16.9-8.7-14.3-10.7-10-5.4-7.5-4.1-7-4.7-7.2-3.2-6.8-1.6-5-.7-12-.6L732.9,94l-8.4-3.2-8.9-6-4.4-1.7-1.8-3.9,9,1.3,7.5,1.8,9.5,1.4,8.7,2.4,16.1,5.4,14.7,7,11.2,6.1,5.1,1.7,8,1.6,9.5,11.6Z" transform="translate(-6.5 -8.2)"/><path class="q" d="M827.3,135.9c10.1,6.6,12.5,7.7,12.8,7.3s-5.9-5.8-15.6-16.3l-6.9-7.6-7.2-8.1-14.7-12L775.8,88.8l-17.1-6.9-13.9-5.5a84.3,84.3,0,0,0-11.2-2.3,69.7,69.7,0,0,0-11.5-.9l-17.7-.8,5,6.8,9,1.3,12.5,3.1,13.2,2.5,16.1,5.4,14.7,7,13.3,7.5a18.3,18.3,0,0,0,5.1,2l3.2.6a4.8,4.8,0,0,1,2.2.4,3.8,3.8,0,0,1,1.5,1.6,21.2,21.2,0,0,0,3.3,3.4l5.2,5.5Z" transform="translate(-6.5 -8.2)"/><path class="r" d="M858.9,136.2l-16,7.9-15.6-8.2-31.2-19.4v17l-6.6,10.3L776,146l-2.4,4.9a13.2,13.2,0,0,0,2.4,7.2c3.4,4.9,9,5.9,10.1,6.1l14.6,15.1,11.1.9,25,1.9c1.5-1.7,2.6-3.1,3.4-3.9,5.4-6.2,7.5-8.1,8.4-11.6a11.4,11.4,0,0,0,.5-3.2l8-1.6,16.7-21.7a9.9,9.9,0,0,0,2.4-4.9c.4-2.9-.9-4-.9-7.6a18.8,18.8,0,0,1,1-5.6c1.7-5,4.7-8,4.5-8.1s-5.1,6.1-10,11.3A126.1,126.1,0,0,1,858.9,136.2Z" transform="translate(-6.5 -8.2)"/><path class="s" d="M711.2,83.1,720,98.9l7,15.3c1,4.8,2.1,9.6,3.1,14.4l.3,11.1c-.5,2.6-.9,5.1-1.3,7.6l3.4,3,12.6,2.6,9.2,8.9H763l10.6-10.9L776,146l13.5-2.2,6.6-10.3v-17l-24.5-14.2-7.2-3.2-6.8-1.6-5.9-.8a107.8,107.8,0,0,0-11.1-.5l-16.1-5.4-8.9-6Z" transform="translate(-6.5 -8.2)"/><path class="t" d="M693.6,59.7a23.1,23.1,0,0,1-4.5-8.7,30.3,30.3,0,0,0-.8-6.8,38.1,38.1,0,0,0-1.4-4.7c-1,1.1-2,2.3-3.1,3.4l1.7,9.7,1.4,3.4-4.2,3.1,3.9,8.1-1.2,6.1-6.7,3.6-1.9,3.3-4.7,3L664,85.5l-8.9.6-8.2,4.8H634.6L630,95.1l-1.7,3.2,1.7,2.4-1.5,4.8a3.2,3.2,0,0,0,1,2,4.7,4.7,0,0,0,2.4,1.3,5.6,5.6,0,0,0,2.1.4,6.4,6.4,0,0,0,3.5-1.1l12.8-5.8,1.1-2.4L663,98.3h15.7l8.5-7.4,7-12.3,1.2-15.8Z" transform="translate(-6.5 -8.2)"/><polygon class="k" points="667.9 46.8 673.3 54.7 673.3 60.4 670.3 64.2 664.1 66.6 660.5 70.4 656.4 72.1 650 74.2 647.6 77.1 645.5 79.7 657.5 77.3 665.5 75 670.3 72 672.2 68.7 678.9 65.2 680.1 59 676.2 50.9 667.9 46.8"/><path class="u" d="M663,41.8l-7.7,1.8h-6.2l-2.3,1.1H634.6l5.9-2.1,4.2-.9,3.6-2,6.3-2.7,2.2-.4a27.2,27.2,0,0,0,3-.1,7.3,7.3,0,0,0,2-1,37.5,37.5,0,0,1,6.6-3.5,43.3,43.3,0,0,0-4.2,6.9A22.4,22.4,0,0,0,663,41.8Z" transform="translate(-6.5 -8.2)"/><path class="v" d="M619.1,57.7l-2.5,3.6-.9,2.1.7,3.8.2,5.7.8,4v9.6l-1,4.5v3.8l1.6-3.9,1.2-3,1-3.8V74.2l-1-4-.6-3V62.8Z" transform="translate(-6.5 -8.2)"/><path class="w" d="M663,41.8v3.7h-3.2l-2.5,2.8-.6,2.9.2,2.3-4,4.1-5.5,5.1-4,3.7-3.2,5-4.9,4.4-2.4,3.4-4.6,5.1-2.2,3.6-2.9,3-1,1.4-1.1,1.8-2-.9-2.8,1.6,2.8-6.9,1-3.8V74.2l-1-4-.6-3V62.8l.7-5.1,3.3-4.1,3.2-4.2a16.4,16.4,0,0,1,1.6-1.8,18.8,18.8,0,0,1,1.9-1.6h0l1.1-.4c.5-.3,1.6-.6,4.4-.9h7.3l7.2-1.5h6.2Z" transform="translate(-6.5 -8.2)"/><path class="j" d="M615.7,63.4l.7,3.8v5.7l.4,1.9.4,2.1v9.6l-1,4.5V84.1l-.6-3.4-.3-3.1-.3-2.2-.2-2.5-.2-2.7c-.1-1.1-.1-2.2-.1-3.3S615.3,64.6,615.7,63.4Z" transform="translate(-6.5 -8.2)"/><path class="x" d="M621.1,98.3l4.6-1.6,2.6,1.6,1.7,2.4-1.5,4.8-2.6,1.5a2.9,2.9,0,0,1-4.1-.5l-2.3-2.2-2-2.4-1.2-3.1v-4l2.8-1.6,2,.9Z" transform="translate(-6.5 -8.2)"/><path class="y" d="M681.8,19a4.5,4.5,0,0,1,2,.5,5.8,5.8,0,0,1,2.8,2.5l1.2,1.8a18.7,18.7,0,0,1,.4,2.5,23.2,23.2,0,0,1,.1,4.5c0,1.1-.1,2.1-.2,3.2s-.3,1.6-.4,2.2a14.9,14.9,0,0,0-.4,1.8,14.6,14.6,0,0,1-.7,1.9l-.9,1.8a8.3,8.3,0,0,1-.4,1.5c-.3.8-.7,1.5-1,2.3l1.2,7.1c.5,1.2.9,2.3,1.4,3.4l-4.2,3.1a23.5,23.5,0,0,1-8.7-3.8l-1.8-6.2-.6-3.7V39.5L669.9,33l-.6-2.2,3-4.1,2.1-3a11.2,11.2,0,0,1,1.8-2.3l1.9-1.5a4.8,4.8,0,0,1,1.6-.8A5.2,5.2,0,0,1,681.8,19Z" transform="translate(-6.5 -8.2)"/><path class="z" d="M653.6,37.4l-8.3,5-4,.9-5.6,1.8c-4.4,1.5-5.5,1.5-5.7,1.1s.7-1,1.7-3a4.3,4.3,0,0,0,.4-1.1,8.6,8.6,0,0,0,.3-1.7,22.2,22.2,0,0,0-.4-3.3c-.1-.8-.3-1.5-.4-2.2a25.7,25.7,0,0,1-.9-8.9c.2-3,.3-5.7,2.2-6.9a5.5,5.5,0,0,1,4.6-.4l1.1.8.5,1c.6,1.2,1,2.1,1.2,2.6a17.3,17.3,0,0,0,1.7,3.3c.5.7,1,1.4,1.4,2.1s1,1.9,1.4,2.7l1.2,1.2,2.1,2.2.7.9a9.6,9.6,0,0,0,1.9,1.5A4.7,4.7,0,0,0,653.6,37.4Z" transform="translate(-6.5 -8.2)"/><polyline class="h" points="609.8 86.6 605.3 86.6 599.9 88.3 595.3 90.3 588.3 94.5 582.1 98 571.8 101.6"/><polyline class="h" points="610.3 84.5 604 84.3 599.1 84.3 591.7 84.5 586 84.3 577.3 86.5 571.8 88.9"/><polyline class="h" points="610.9 82.8 605.1 82.8 597.5 82.8 591.1 82 584.2 80.1 580.3 77.6 576.7 72.3 574.1 66.4"/><polyline class="h" points="609.8 88.5 607.1 88.5 602.6 90.4 599.8 94.9 596.5 100.5 593.5 103.3 588.2 108.6 582.9 110.9 578.7 110.9"/><path class="aa" d="M773.6,150.9c-3.6,3.6-7.1,7.3-10.6,10.9,3.1,7.3,6.2,14.5,9.4,21.8l7.8,6.8a89.8,89.8,0,0,0,9.9.9c2.8.2,4.5.5,6.7,0a52.8,52.8,0,0,1,6.6-.9,44.3,44.3,0,0,1,7.3,0l9,1.4,1.6,1.2c.9.5,1.3.7,1.3.9s-1.2.6-2.2.8a20.9,20.9,0,0,0-4.9,1.6c-2.1,1.3-3.5,1.2-4.3,1A9.7,9.7,0,0,1,809,196l-3.3-1.4-4.5-1.6-4.4.5c-1.8.1-2.6.1-3.4.7s-.7.6-1.6,2.2l-1.7,3.2a20.4,20.4,0,0,1,8.2.5,18.2,18.2,0,0,1,6,3.1,13.8,13.8,0,0,1,.6,1.6,4.6,4.6,0,0,1,.4,1.7c0,.7-.3.9-.7,1.8a7.2,7.2,0,0,0-.5,2h2.7a19.6,19.6,0,0,0,2.4-2.1,16.5,16.5,0,0,1,2-2.3,5.3,5.3,0,0,1,2.9-1,10.6,10.6,0,0,1,4.8.2,6,6,0,0,1,0,3.8c-.7,2.7-3.1,4.3-2.7,4.9s1.8.2,1.9.2l1.3-.6,1.1-.6,3.3-2A17.8,17.8,0,0,0,826,207c.6-1.3.7-2,1.5-2.6a5.5,5.5,0,0,1,2.9-.9l2.4-.3a8.6,8.6,0,0,0,5.1-1.9,7.8,7.8,0,0,0,2.7-4,13.7,13.7,0,0,0,1.9-5.7c.3-2,.6-3.8-.4-5.7a8.6,8.6,0,0,0-5.3-3.8l-15.3-1.5L805.1,177,790,166.6l-10-8.5Z" transform="translate(-6.5 -8.2)"/><polyline class="h" points="626.8 86.3 634.8 86.3 645.3 86.3 654.1 85.5 663.7 83.7 669.1 81.2 674.2 76.1 677.8 70.4"/><path class="w" d="M871.4,124.5c-1.4,1.6-2.9,3.2-4.6,4.8s-4.8,4.4-7,6.2l24.3-4.7,13.7-9.3a79.7,79.7,0,0,0,7.4-8.3,65.8,65.8,0,0,0,8.5-14.1c1.2-3.3,2.4-6.8,3.5-10.5,1.5-5.4,2.6-10.5,3.5-15.2,1.2-6.4,2.5-12.8,3.7-19.1-.9-5.6-1.9-11.2-2.8-16.8s-2.1-9.2-3.1-13.8a40.7,40.7,0,0,0-7.2-7.6,45.8,45.8,0,0,0-9-5.8l-7.6-1.9-7.1.5A12.6,12.6,0,0,0,880,16a12.1,12.1,0,0,0,1.1,10.5,26.1,26.1,0,0,0,2.3,6.6,26,26,0,0,0,5.2,7.3,70.8,70.8,0,0,1,5.8,11.7,69.2,69.2,0,0,1,4.1,14.5,53.8,53.8,0,0,1-.2,9.7,68.7,68.7,0,0,1-2.1,10.3l-7.3,15.3c-2.3,3.6-4.9,7.5-8,11.5A123.8,123.8,0,0,1,871.4,124.5Z" transform="translate(-6.5 -8.2)"/><path class="ab" d="M839.8,142.5l1.1.6,1.2.6.8.3c.4,0,.6-.2,1.2-.5a3.9,3.9,0,0,1,1.1-.6l3.4-1.6,8.5-4.5c2.8-1.5,7.4-3.3,15.2-4.5l13.8-4.7a58.6,58.6,0,0,0,12-9.5,57.7,57.7,0,0,0,11.2-16.8c2.5-5.4,4.9-10.7,7.3-16.1a110.3,110.3,0,0,0,3.6-16.7,99.8,99.8,0,0,0,1.3-22.4c-.8-13.4-4.5-21.9-3-22.4s4.3,4.6,6.5,8.2A64,64,0,0,1,930.4,43a70.4,70.4,0,0,1,3.4,13.6,67,67,0,0,1,.5,14.6L932.2,89c-2.3,7-4.5,14-6.8,21l-8.9,14.4-13.8,16.5-17.9,11.9-19.1,2.1a21.4,21.4,0,0,1-10.7.3C844.9,152.9,840.4,143.8,839.8,142.5Z" transform="translate(-6.5 -8.2)"/><polygon class="ac" points="823.5 127.7 815 124.1 806.7 119 796 112.3 787.6 107.3 777 101 767.3 95.4 757.8 90.9 745.2 88.6 734.1 88 718 82.6 726.6 89.9 740.6 94.7 751.6 93 760.4 97 774.3 105.8 784.6 109.9 794.2 116.6 807.4 125.3 818.1 130 825.2 132.3 831.4 132.3 823.5 127.7"/><polygon class="ad" points="724.1 67.4 733.3 68.7 746.2 73.2 758.8 78.3 769.7 82.6 781.4 88.5 785.7 91.1 776.2 88.5 770.7 86.3 762.8 82.6 755.1 78.7 750.2 77.2 740.6 74.9 733.5 71 726.8 71 718 68.7 712.1 67.8 707.8 66.2 724.1 67.4"/><path class="ae" d="M715.6,84.8c-2.3-2.7-3.2-3-6-5.8s-2.9-3.9-5.2-6.6-5.2-5.8-9-9.6l-1.2,15.8-7,12.3-8.5,7.4-6.7-.7,13.6,19,6.2,11.7,3.8,16.4,2.9,14.1,4.9,2.9c-.3,2.9-.4,6-.5,9.2v6.9a22.1,22.1,0,0,0,0,2.6,17.7,17.7,0,0,1,0,2.5.4.4,0,0,1-.1.3l-1.5,3.8c-.9,2.2-.6,2-1,2.8a14.8,14.8,0,0,1-1.8,2.5l-1.5,3.4a5.9,5.9,0,0,0-1.5,3.2,5.5,5.5,0,0,1-.6,2.2c-.3.6-.5.8-.8.9s-.8-.1-1.5-.3l-2.1-.2-10.2,6.4,2.3,2.7a10.7,10.7,0,0,0,1.8,1.6,10.6,10.6,0,0,0,3.3.4c1.8,0,2.7.1,3.3-.2a4.4,4.4,0,0,0,2.2-2.3,6.6,6.6,0,0,1,1.4,1.7c.7,1,.8,1.4,1.2,1.6s1-.2,2.8-1.2a16.5,16.5,0,0,0,2.6-1.4,6.9,6.9,0,0,0,1.5-3.1,51.2,51.2,0,0,1,1.9-4.8l.7,3.1,4.7,1.7a18.2,18.2,0,0,0,2.4-4.3,15.4,15.4,0,0,0,1-5.7,62.7,62.7,0,0,1,.8-6.6,21.9,21.9,0,0,1,1.1-4.5,14.8,14.8,0,0,1,2.7-4.5c.9-1.2,2-4.8,2.6-14.8l7.8-17.5a79.7,79.7,0,0,0,2-10.1c.8-5.9.7-10.7.7-19.9-.1-4-.2-7.3-.2-9.4-.7-6.7-3-10.7-5.1-13.1s-3.1-2.9-5.9-6.5S717.7,87.2,715.6,84.8Z" transform="translate(-6.5 -8.2)"/><path class="g" d="M685.4,156.2l-3.6-2.3-1.9,1.4a4.2,4.2,0,0,0-1.5,1.6c-.1.4,0,.4-.1,1.1a7.1,7.1,0,0,1-.4,1.7c-.3,1.2-.4,1.9-.5,2.5a13.2,13.2,0,0,1-2.4,4.6,21.5,21.5,0,0,1-1.7,3.4,29.1,29.1,0,0,1-3,4.1l-1.2,2.4c-.1.3-.6,1.4-1.1,2.9a57.7,57.7,0,0,0-1.8,6.3l.3,6.4a16.3,16.3,0,0,1-3.5,3.5,13.3,13.3,0,0,1-5.1,2.4l-6.6-.2a16.9,16.9,0,0,1-3.8.6c-1.8.2-2.3-.1-3.7.3l-2.6,1.1-2,.8-3.9-.7-2.2.2h-2.8a12.3,12.3,0,0,1-2.5-.6l-2.2-.4,3.4-2.5-5.2-.2,5.1-2.7h4.2a13,13,0,0,0,2.5-.8l2.1-.6,11.7-1.7,1.7-4,2.2-1.3c1.1-.5,1.6-.6,1.9-1.2a9.3,9.3,0,0,0,.4-1.7c.3-1.5.2-1.4.3-1.5a28.6,28.6,0,0,0,.3-3.7,25.4,25.4,0,0,0,.4-2.9c.4-2.8.6-5.6.8-8.3a54.4,54.4,0,0,1-1.2-6.9c-.1-1.7-.2-3.3-.2-4.7v-5a5.8,5.8,0,0,0,.7-2.6,6.9,6.9,0,0,0-1-3l-1.9-3.7-3.4-5.9-3.2-6.9-2.9-5.9-4.6-9.3-2.2-4.2,8.4-4,4.4-1.8,1.1-2.4L663,98.3a9.1,9.1,0,0,1,9-.7c4.5,2.1,5,6.8,5.1,7l8.5,12c2.7,4.6,4.8,8.7,6.2,11.7a74.5,74.5,0,0,1,5.2,13.1,70.7,70.7,0,0,1,1.7,8.7c1.1,7.3.4,8.3-.2,8.7s-1.7.9-5.4-1.6Z" transform="translate(-6.5 -8.2)"/><path class="af" d="M645.9,104.1l9.5,1.6,8.8,4.1,12.6,7.1,9.8,11.5v-6l8.8-3.3-4.2-9.9L697,107c-8.3-2.7-10.4-4.9-10.4-6.6s1.6-2.5,1.4-4.9-.9-3.1-2.1-3.4-2.5,2.3-5.3,4.1-3.6.4-11.8,1.2a107.1,107.1,0,0,0-11.5,1.7,21,21,0,0,1-3.8.6,6.2,6.2,0,0,0-2.1.2c-.6.2-1,.5-2.6,1.9l-1.6,1.4" transform="translate(-6.5 -8.2)"/><polyline class="h" points="624.4 93.5 629.1 93.5 632.7 96.7 638.7 104.2 640.9 110.7 644.7 115.2 649.8 117"/><polyline class="h" points="625.2 92.2 629 92.2 635.4 93.9 639.3 97.5 644 102.3 648.3 104.6 655.8 109 663.5 110.9 669.3 110.9"/><polyline class="h" points="628.1 90.1 633.8 90.1 640.8 91.8 646.7 93.7 655.7 97.9 663.6 101.3 676.9 104.9"/><polyline class="h" points="672.2 90.7 665.5 89.4 655 88.2 648 88.4 639.1 88.2 633.2 88.2 625.5 88.4"/><path class="g" d="M301.1,305.3l13.2-27.4H325l11.4-11.4,15.5-3.3,10.5-9.2,11.4,28.8-10.6,6.3-6.9,4.2c-3.9,2.5-5.2,3.5-7.5,4.6a27.9,27.9,0,0,1-7.7,2.1l-14.3,3.4c-1.9.5-4.5,1.4-7.6,2.5s-5.4,1.9-7.8,2.5-3.6.5-8.1,1.3c-6.3,1.1-9,2.3-9.3,1.7S294.8,309.6,301.1,305.3Z" transform="translate(-6.5 -8.2)"/><polyline class="h" points="488.5 188.7 494.5 188.7 499 192.7 506.6 202 509.3 210.1 514.1 215.7 520.7 218"/><path class="i" d="M451.5,172.2l3.6,4.8,5,.9,3.8,6.1.5,3.8h-6.6l-6.3-3.8-5.5-7a37.8,37.8,0,0,1-7.3-2.1,30.5,30.5,0,0,1-5.7-2.7l-4.5-4.8-7.7-3.1-3.7-4.8v-7.3l6.7-10,2.5,9.2a40.9,40.9,0,0,1,5.3,6.4,46.1,46.1,0,0,1,5.2,9.5Z" transform="translate(-6.5 -8.2)"/><polygon class="j" points="419.6 125.5 426.5 134 428.8 140.3 434.3 143.3 441 143.3 445.4 147.6 448.6 152.6 448.6 156.6 455.3 161.9 461.1 168.8 465.5 175.8 466.5 179.6 457.9 179.6 455.3 172.5 453.6 169.7 448.6 168.8 444.9 164 433.8 161.7 430.2 159.2 425.1 149.6 419.7 143.2 417.2 134 419.6 125.5"/><path class="v" d="M430.9,103.3l-3.1,13.5V126l-1.6,7.7,6.8,8.5,2.3,6.3,5.6,2.9h6.6l4.4,4.4,3.2,5v4l6.7,5.3,5.8,6.9,4.4,7,1.1,3.8,7.8,9.4,3.1-2,5.7,2v-5.4l-2.5-4-3.5-3.8-2.8-4.5-5.7-6.5-2.9-4.3-6.1-5.6-4.1-6.3-4.9-4.7-6.7-6.6-5-5.1c1-4.9-.8-9-3.7-10.2a5.7,5.7,0,0,0-3.8,0,36.6,36.6,0,0,0,0-4.7,22.1,22.1,0,0,0-1.6-6.3Z" transform="translate(-6.5 -8.2)"/><path class="m" d="M417.1,164.8c1,.7,1.3,2.4,1.4,5.3l-9.8-4,9.8,4C418.4,167.2,418.1,165.5,417.1,164.8Z" transform="translate(-6.5 -8.2)"/><path class="n" d="M481.3,133.6l1.9,2-3.5-4.8-1.1-.5A13.1,13.1,0,0,0,481.3,133.6Z" transform="translate(-6.5 -8.2)"/><path class="n" d="M494.2,147.6l-4.5-4.4a30.8,30.8,0,0,1,5,7.7Z" transform="translate(-6.5 -8.2)"/><path class="n" d="M446,299.9c.2.6.3,1.2.5,1.8l-.5-3.3v1.5Z" transform="translate(-6.5 -8.2)"/><path class="n" d="M487.9,208.7l1-1a15.1,15.1,0,0,1-3.4,1.3Z" transform="translate(-6.5 -8.2)"/><path class="n" d="M255,315l5.3-.9h.1A9.4,9.4,0,0,0,255,315Z" transform="translate(-6.5 -8.2)"/><path class="n" d="M452.3,309.9l-.8-.6a1.8,1.8,0,0,0,.9.6Z" transform="translate(-6.5 -8.2)"/><path class="n" d="M496.5,156a19.7,19.7,0,0,1,.7,3.5v-2.2Z" transform="translate(-6.5 -8.2)"/><path d="M446,299.9Z" transform="translate(-6.5 -8.2)"/><path d="M446,299.9v-1.5h0v1.5Z" transform="translate(-6.5 -8.2)"/><path d="M436.6,181a39.7,39.7,0,0,0,4.8.7l.4-1.2c-4.7-2.8-9.2-6-14.2-8.1-1.7-.8-4.5,1.1-6.8,1.8,2,1.3,3.8,3,5.9,3.9A86.2,86.2,0,0,0,436.6,181Z" transform="translate(-6.5 -8.2)"/><path d="M417.1,164.8c-.8-.6-1.9-.7-3.5-.3l-1,.2-2.4.8-1.5.6,9.8,4C418.4,167.2,418.1,165.5,417.1,164.8Z" transform="translate(-6.5 -8.2)"/><path d="M417.1,164.8c-.8-.6-1.9-.7-3.5-.3C415.2,164.1,416.3,164.2,417.1,164.8Z" transform="translate(-6.5 -8.2)"/><path class="n" d="M446,299.9l-5.3-15.7C435.6,291.4,437.8,296.9,446,299.9Z" transform="translate(-6.5 -8.2)"/><path class="n" d="M446,299.9Z" transform="translate(-6.5 -8.2)"/><path class="n" d="M446,299.9Z" transform="translate(-6.5 -8.2)"/><path class="n" d="M446,299.9Z" transform="translate(-6.5 -8.2)"/><path class="n" d="M441.8,204c-.2-.5-.5-1.1-.7-1.7l-10,5.3C436,209.4,439,207,441.8,204Z" transform="translate(-6.5 -8.2)"/><path class="n" d="M430.3,266.5v9.8h1.2C432.2,273.5,435.1,270.7,430.3,266.5Z" transform="translate(-6.5 -8.2)"/><path class="n" d="M125.7,199l5.8,8.7,1.8-1.2-6-8.5Z" transform="translate(-6.5 -8.2)"/><ellipse class="o" cx="443.1" cy="160.8" rx="5.7" ry="6.6" transform="translate(-9.1 306.2) rotate(-39)"/><circle class="p" cx="434.6" cy="149.6" r="2"/><circle class="p" cx="440" cy="152.4" r="1"/><path class="i" d="M234.7,244.9l20.9-11,17.7-13.6,12.4-6.8,9.2-5.3,8.6-5.9,9-4,8.4-2.1,6.2-.8,14.8-.9,9.6-2.8,10.3-4,11-7.6,5.5-2.2,2.3-4.9-11.2,1.6-9.3,2.4-11.8,1.6-10.6,3.1-19.9,6.9-18.3,8.9-13.8,7.8-6.4,2.1-9.9,2.1-11.7,14.7Z" transform="translate(-6.5 -8.2)"/><path class="b" d="M234.7,244.9c-12.5,8.4-15.5,9.8-15.9,9.3s7.3-7.4,19.3-20.6c3.7-4,6.6-7.4,8.5-9.8l9-10.2,18.1-15.2,24.6-13.3,21.3-8.7,17.1-6.9a100.1,100.1,0,0,1,13.9-3.1,107.3,107.3,0,0,1,14.2-1l22-1.1-6.2,8.7-11.2,1.6-15.5,4-16.2,3.1-19.9,6.9-18.3,8.9L283.1,207a29.2,29.2,0,0,1-6.4,2.6,22.5,22.5,0,0,1-4,.7,5.3,5.3,0,0,0-2.6.5,5.1,5.1,0,0,0-1.9,2c-1,1.7-2.7,2.9-4,4.4l-6.5,7Z" transform="translate(-6.5 -8.2)"/><path class="ag" d="M378.3,177.9,367.5,198l-8.7,19.4-3.9,18.3-.3,14.1c.5,3.2,1.1,6.4,1.6,9.7l-4.3,3.7-15.5,3.3L325,277.9H314.3l-13.2-14-2.9-6.1L281.4,255l-8.1-13.1V220.3l30.2-18,9-4,8.4-2.1,7.3-1a132.4,132.4,0,0,1,13.7-.7l19.9-6.8,11-7.6Z" transform="translate(-6.5 -8.2)"/><path class="ah" d="M400.1,148.2a25.5,25.5,0,0,0,5.5-11,51.6,51.6,0,0,1,1-8.7,37.6,37.6,0,0,1,1.8-5.9l3.8,4.3-2.1,12.3-1.7,4.4,5.1,3.9-4.8,10.3,1.5,7.7,8.3,4.6,2.3,4.1,5.9,3.9,9.9,2.9,11.1.7,10.1,6.1h15.3l5.7,5.3,2.1,4.1-2.1,3,1.8,6.1a4.1,4.1,0,0,1-1.1,2.6,4.9,4.9,0,0,1-3.1,1.6,5.9,5.9,0,0,1-2.6.6,7,7,0,0,1-4.3-1.5l-15.8-7.3-1.4-3.1-14.3-2H418.5L408,187.9l-8.6-15.7-1.6-20Z" transform="translate(-6.5 -8.2)"/><polygon class="ai" points="417.2 134 410.5 144 410.5 151.4 414.3 156.1 421.9 159.2 426.5 164 431.4 166.2 439.4 168.8 442.4 172.6 444.9 175.8 430.1 172.8 420.2 169.9 414.3 166 412 161.9 403.6 157.4 402.2 149.6 407 139.3 417.2 134"/><path class="aj" d="M438,125.5l9.5,1.8h7.6l2.8,1.8h15.2l-7.4-3.6-5.1-1.5-4.5-3.5-6.8-5.1a9.4,9.4,0,0,0-3.7-.1,16.8,16.8,0,0,0-2.7.6l-3.7.6-8.3-13.2,5.5,15.9Z" transform="translate(-6.5 -8.2)"/><path class="v" d="M492.2,145.7l3.1,4.6,1.2,2.6-.9,4.9-.3,7.2-.9,5.1v12.1l1.2,5.8v4.8l-2-5-1.5-3.8-1.2-4.8V166.6l1.2-5.1.8-3.7.2-5.6Z" transform="translate(-6.5 -8.2)"/><path class="ak" d="M438,125.5v4.7h3.8l3.2,3.5.8,3.7-.3,3,5,5.1,6.7,6.6,4.9,4.7,4.1,6.3,6.1,5.6,2.9,4.3,5.7,6.5,2.8,4.5,3.5,3.8,1.2,1.9,1.3,2.1,2.5-1,3.5,2-3.5-8.8-1.2-4.8V166.6l1.2-5.1.8-3.7.2-5.6-1-6.5-4-5.2-4-5.3a13.9,13.9,0,0,0-2-2.4c-.9-.9-2.3-2-2.3-2h0l-1.3-.5a22.8,22.8,0,0,0-5.5-1.2h-9l-9-1.8h-7.6Z" transform="translate(-6.5 -8.2)"/><path class="j" d="M496.5,152.9l-.9,4.9-.2,3.7V165l-.4,2.4-.5,2.7v12.1l1.2,5.8v-8.8c.3-1.5.5-2.9.8-4.3s.3-2.6.4-3.9l.3-2.9c.1-1,.1-2.1.2-3.2l.4-3.4v-4.1C497.4,155.9,497,154.4,496.5,152.9Z" transform="translate(-6.5 -8.2)"/><path class="x" d="M489.7,197.2l-5.7-2-3.1,2-2.1,3,1.8,6.1,3.3,2a4,4,0,0,0,1.6.7,4.1,4.1,0,0,0,3.4-1.3l2.9-2.9,2.4-3,1.5-3.9v-5.1l-3.5-2-2.5,1Z" transform="translate(-6.5 -8.2)"/><path class="al" d="M413.4,84.9a9.4,9.4,0,0,0-2.8.7,9,9,0,0,0-4,3.9c-.5,1-1.1,2-1.7,3s-.4,2.4-.6,3.8a55.9,55.9,0,0,0-.1,7c.1,1.7.1,3.3.2,5s.5,2.5.6,3.4.4,1.9.7,2.8a16.7,16.7,0,0,0,.8,3,23.7,23.7,0,0,0,1.4,2.9c.2.7.3,1.5.5,2.2l3.8,4.3-2.7,8.3-1.1,8.4,5.1,3.9,6.4-3,3.9-2.3,2.4-8.5,1.6-7.7v-9.2l2.3-10.1.8-3.4-4.2-6.4-2.9-4.7a26.3,26.3,0,0,0-2.5-3.5,28.3,28.3,0,0,0-2.8-2.5,8.9,8.9,0,0,0-2.2-1.1A7.7,7.7,0,0,0,413.4,84.9Z" transform="translate(-6.5 -8.2)"/><path class="am" d="M448.4,115.3l12.2,8.7,5.1,1.5,7.4,3.6,6.6,1.7a2.9,2.9,0,0,0-.7-1,4.6,4.6,0,0,1-.7-.7l-.4-.8a18.5,18.5,0,0,1-.5-4.3h0c0-1.4,0-2.7.1-4s.2-4.1.4-6.3l.6-4.2c.3-1.1.6-2.6,1-4.3a38.6,38.6,0,0,0,.9-4.5,22.3,22.3,0,0,0,0-4.5c0-1.1,0-2.5-.1-4.1a34.9,34.9,0,0,0-.8-5.8c-.9-3.9-1.3-5.8-2.8-6.9s-2.3-1.7-6-.8l-1.4,1.6c-.2.4-.4,1-.7,1.8-.8,2.4-1.3,4.1-1.5,5a43.4,43.4,0,0,1-2.3,6.4c-.6,1.2-1.2,2.5-1.8,4a41.3,41.3,0,0,0-1.9,5.2l-1.5,2.3a48.4,48.4,0,0,0-2.8,4.2c-.6,1-.5,1-.9,1.6a9.3,9.3,0,0,1-2.5,2.9A9.7,9.7,0,0,1,448.4,115.3Z" transform="translate(-6.5 -8.2)"/><polyline class="h" points="489.2 184.6 496.8 184.6 506.1 186.6 514 189 525.9 194.1 536.4 198.3 554.1 202.6"/><polyline class="h" points="488.5 181.8 498 181.6 505.3 181.6 516.4 181.8 525 181.6 538 183 546.3 184.6"/><polyline class="h" points="487.8 179.8 498.4 179.8 512.3 179.8 524 178.7 536.6 176.3 543.8 173.1 550.5 166.3 555.2 158.8"/><polyline class="h" points="489.2 187 494 187 502 189 507 193.6 512.9 199.5 518.2 202.4 527.7 207.8 537.4 210.3 544.8 210.3"/><polyline class="h" points="468.1 184.2 458.2 184.2 445.2 184.2 434.3 183.1 422.5 180.9 415.7 177.7 409.5 171.2 405.1 164"/><polygon class="b" points="224.7 236.7 235.3 232.2 245.6 225.7 258.8 217.2 269.2 210.9 282.3 202.9 294.3 195.7 306 190.1 321.6 187.1 335.4 186.3 355.3 179.6 344.6 188.8 327.3 194.8 313.7 192.7 302.8 197.8 285.6 209 272.9 214.2 261 222.7 244.7 233.7 231.4 239.6 222.7 242.6 214.9 242.6 224.7 236.7"/><polygon class="ad" points="347.7 160.2 336.3 161.9 320.4 167.6 304.8 174.1 291.3 179.6 276.9 187 271.5 190.3 283.2 187 290.1 184.2 299.9 179.6 309.4 174.5 315.4 172.7 327.3 169.7 336.1 164.8 344.4 164.8 355.3 161.9 362.6 160.7 367.9 158.7 347.7 160.2"/><path class="c" d="M372.8,180.1c2.9-3.5,4.1-3.8,7.4-7.4s3.7-5,6.6-8.4,6.3-7.3,11-12.1c.5,6.7,1.1,13.3,1.6,20l8.6,15.7,10.5,9.3,8.3-.9L410,220.5l-7.7,14.8-4.7,20.9L394,274.1l-6,3.6q.5,5.6.6,11.7v12.1c0,2.1-.2,2.7-.1,3.2l.2.3,1.8,4.8c1.1,2.9.9,2.6,1.3,3.5a14.2,14.2,0,0,0,2.2,3.2l1.8,4.4a7.1,7.1,0,0,1,1.9,4,11.3,11.3,0,0,0,.8,2.8,2,2,0,0,0,.9,1.2c.6.2,1.1-.2,1.9-.4a8.8,8.8,0,0,1,2.6-.3l12.7,8.2-2.9,3.3a9.4,9.4,0,0,1-2.2,2.1c-.4.2-1,.4-4.2.5s-3.3.1-4-.2a6.4,6.4,0,0,1-2.7-3,16.4,16.4,0,0,0-1.8,2.2c-.8,1.2-.9,1.8-1.5,2s-1.2-.2-3.3-1.4-2.7-1.4-3.3-1.9-1.3-2-1.9-4-1.2-3.5-2.3-5.9l-.9,3.9-5.8,2.1a21.6,21.6,0,0,1-3-5.4,23.2,23.2,0,0,1-1.2-7.3c-.2-3.5-.7-6.3-1-8.4a23.2,23.2,0,0,0-1.4-5.7,21.9,21.9,0,0,0-3.3-5.7c-1.2-1.5-2.4-6.1-3.2-18.7-3.2-7.4-6.4-14.8-9.7-22.2a126.1,126.1,0,0,1-2.4-12.9c-1-7.5-.9-13.6-.9-25.3.1-5.1.2-9.2.3-11.9.8-8.5,3.7-13.6,6.2-16.6s3.9-3.7,7.3-8.3S370.3,183.2,372.8,180.1Z" transform="translate(-6.5 -8.2)"/><path class="an" d="M410.2,270.8l4.5-3,2.3,1.8c1.2.9,1.7,1.3,1.9,2.1s0,.4.1,1.3a9.3,9.3,0,0,0,.5,2.1,26.1,26.1,0,0,1,.6,3.2,17.5,17.5,0,0,0,3,5.9c.6,1.4,1.3,2.8,2.1,4.3a28.1,28.1,0,0,0,3.7,5.1l1.5,3.2a30.5,30.5,0,0,1,1.4,3.7,64.4,64.4,0,0,1,2.2,7.9l-.3,8.1a16.8,16.8,0,0,0,4.2,4.5,17.1,17.1,0,0,0,6.3,3.1l8.2-.3a30.5,30.5,0,0,0,4.7.8c2.2.2,2.9-.2,4.6.4s.7.2,3.2,1.3l2.5,1.1,4.8-.9,2.8.2a12.8,12.8,0,0,0,3.4,0,19.8,19.8,0,0,0,3-.7,13.5,13.5,0,0,1,2.9-.5l-4.3-3.2,6.4-.3-6.2-3.4h-5.3a25.2,25.2,0,0,1-3-1l-2.7-.8-14.4-2.1-2.2-5.1a26.6,26.6,0,0,0-2.7-1.7c-1.3-.7-1.9-.8-2.3-1.5a9.3,9.3,0,0,1-.5-2.2c-.3-1.9-.3-1.7-.3-1.8-.3-1.9-.4-3.6-.5-4.8s-.3-2.4-.4-3.6c-.5-3.6-.8-7.1-1.1-10.6a62.6,62.6,0,0,0,1.5-8.7q.3-3.3.3-6v-6.4a6.5,6.5,0,0,1-.9-3.3c0-1,.4-1.8,1.3-3.7l2.3-4.7,4.2-7.5,4-8.8,3.6-7.5,5.7-11.8,2.7-5.4-10.4-5-5.4-2.3-1.4-3.1-14.3-2a11.2,11.2,0,0,0-11.2-.9,11.6,11.6,0,0,0-6.2,9c-3.6,5-7.1,10.1-10.6,15.2s-5.9,11-7.7,14.8a98.2,98.2,0,0,0-6.4,16.6,84.9,84.9,0,0,0-2.1,11.1c-1.3,9.3-.6,10.6.2,11.1s2.1,1.1,6.7-2.1Z" transform="translate(-6.5 -8.2)"/><path class="ak" d="M459.1,204.6l-11.7,2-11,5.2-15.6,9.1-12.1,14.5v-7.5l-10.9-4.2,5.3-12.6-7.2-2.9c10.3-3.3,12.8-6.2,12.8-8.3s-1.9-3.2-1.6-6.2,1-4,2.6-4.4,3,3,6.5,5.3,4.5.4,14.5,1.4c4.9.5,11.4,1.6,14.3,2.2a18.4,18.4,0,0,0,4.7.8,6.5,6.5,0,0,1,2.6.2c.7.3,1.2.7,3.2,2.4l2,1.8" transform="translate(-6.5 -8.2)"/><polyline class="h" points="471.1 193.3 465.2 193.3 460.8 197.4 453.4 206.9 450.7 215.1 446 220.9 439.6 223.2"/><polyline class="h" points="470.1 191.7 465.3 191.7 457.5 193.8 452.6 198.5 446.8 204.5 441.5 207.4 432.2 213 422.8 215.5 415.5 215.5"/><polyline class="h" points="466.5 189 459.4 189 450.8 191.1 443.5 193.6 432.4 198.9 422.6 203.2 406.1 207.8"/><polyline class="h" points="411.9 189.8 420.3 188.1 433.3 186.6 441.8 186.8 452.9 186.6 460.2 186.6 469.7 186.8"/></svg>