<svg xmlns="http://www.w3.org/2000/svg" viewBox="0 0 287.4 313.7"><defs><style>.a{fill:#e7e6e6;opacity:0.78;}.b{fill:#a7a9ac;}.c,.f{fill:none;}.c{stroke:#a7a9ac;stroke-miterlimit:10;stroke-width:3px;}.d{font-size:10px;fill:#6d6e71;font-family:Helvetica-Light, Helvetica;font-weight:300;}.e{fill:#55823b;}.f{stroke:#c9c9c9;stroke-miterlimit:8;stroke-width:2.25px;}.g{fill:#1c9045;}.h{fill:#9dcb3b;}.i{fill:#507837;}.j{fill:#157261;}.k{fill:#22aa4a;}.l{fill:#2d5428;}.m{fill:#1e8a43;}.n{fill:#71c168;}.o{fill:#94c83d;}.p{fill:#16623c;}.q{fill:#2f75b6;}.r{fill:#b4c7e7;}.s{fill:#6dbce9;}.t{fill:#4952a3;}.u{fill:#2b2971;}.v{fill:#1683b0;}.w{fill:#5f76b9;}.x{fill:#26c4f3;}.y{fill:#246ab4;}.z{fill:#69c8c5;}.aa{fill:#6f3996;}.ab{fill:#ccaad0;}.ac{fill:#9a4299;}.ad{fill:#965aa4;}.ae{fill:#96226e;}.af{fill:#6d297a;}.ag{fill:#6651a2;}.ah{fill:#a798c9;}.ai{fill:#f7921e;}.aj{fill:#f3b183;}.ak{fill:#ec7d30;}.al{fill:#9f5a25;}.am{fill:#dea427;}.an{fill:#c45c28;}.ao{fill:#fee699;}.ap{fill:#fec010;}</style></defs><rect class="a" y="234.5" width="287.4" height="72"/><rect class="a" y="17.5" width="287.4" height="40"/><rect class="a" y="114.5" width="287.4" height="57"/><line class="b" x1="194.6" y1="245.6" x2="217" y2="226.3"/><line class="c" x1="194.6" y1="245.6" x2="208.5" y2="233.6"/><path class="b" d="M238.5,234.8c-2.7,5-5.5,11.8-6.3,17.1l-3.3-8.8-8.2-4.6C226.1,238.5,233.2,236.8,238.5,234.8Z" transform="translate(-21.5 -8.5)"/><line class="b" x1="213.1" y1="193.8" x2="171.1" y2="165.2"/><line class="c" x1="213.1" y1="193.8" x2="180.4" y2="171.5"/><path class="b" d="M192.6,173.7c5.5,1.4,12.8,2.3,18.1,1.7l-7.6,5.5-2.3,9.1C199.4,184.8,195.9,178.3,192.6,173.7Z" transform="translate(-21.5 -8.5)"/><line class="b" x1="164.1" y1="238.2" x2="151.3" y2="175.8"/><line class="c" x1="164.1" y1="238.2" x2="153.6" y2="186.8"/><path class="b" d="M172.8,184.3c2.9,4.8,7.5,10.6,11.8,13.8l-9.3-1.3-8,4.9C170,197,171.9,189.9,172.8,184.3Z" transform="translate(-21.5 -8.5)"/><line class="b" x1="240.1" y1="169.8" x2="231.1" y2="120.3"/><line class="c" x1="240.1" y1="169.8" x2="233.2" y2="131.3"/><path class="b" d="M252.6,128.8c2.9,4.8,7.3,10.7,11.6,14.1l-9.3-1.6-8.2,4.7C249.5,141.4,251.6,134.3,252.6,128.8Z" transform="translate(-21.5 -8.5)"/><line class="b" x1="194.1" y1="69" x2="174.1" y2="55.8"/><line class="c" x1="194.1" y1="69" x2="183.5" y2="62"/><path class="b" d="M195.6,64.3c5.5,1.3,12.8,2.1,18.1,1.4l-7.5,5.6L204,80.5C202.5,75.3,198.9,68.9,195.6,64.3Z" transform="translate(-21.5 -8.5)"/><line class="b" x1="146.6" y1="107.2" x2="146.6" y2="71.1"/><line class="c" x1="146.6" y1="107.2" x2="146.6" y2="82.3"/><path class="b" d="M168.1,79.6c2,5.3,5.3,11.8,8.9,15.9l-8.9-3.2-8.8,3.2C162.8,91.4,166.1,84.9,168.1,79.6Z" transform="translate(-21.5 -8.5)"/><text class="d" transform="translate(8.1 302.4)">Primary producers</text><text class="d" transform="translate(8.1 109.1)">Tertiary consumers</text><text class="d" transform="translate(8.1 230.2)">Primary consumers</text><text class="d" transform="translate(8.1 167.4)">Secondary consumers</text><text class="d" transform="translate(8.1 53.4)">Apex predators</text><ellipse class="e" cx="174.9" cy="270.3" rx="33.5" ry="34.5"/><ellipse class="f" cx="174.9" cy="270.3" rx="33.5" ry="34.5"/><circle class="g" cx="149.9" cy="276.3" r="7.5"/><circle class="f" cx="149.9" cy="276.3" r="7.5"/><ellipse class="h" cx="184.4" cy="249.3" rx="7" ry="7.5"/><ellipse class="f" cx="184.4" cy="249.3" rx="7" ry="7.5"/><ellipse class="i" cx="182.9" cy="271.8" rx="7.5" ry="7"/><ellipse class="f" cx="182.9" cy="271.8" rx="7.5" ry="7"/><circle class="j" cx="152.9" cy="258.3" r="7.5"/><circle class="f" cx="152.9" cy="258.3" r="7.5"/><circle class="k" cx="163.4" cy="290.8" r="7"/><circle class="f" cx="163.4" cy="290.8" r="7"/><circle class="l" cx="195.4" cy="282.8" r="7"/><circle class="f" cx="195.4" cy="282.8" r="7"/><circle class="m" cx="179.9" cy="293.3" r="7.5"/><circle class="f" cx="179.9" cy="293.3" r="7.5"/><circle class="n" cx="165.9" cy="270.3" r="7.5"/><circle class="f" cx="165.9" cy="270.3" r="7.5"/><circle class="o" cx="197.9" cy="263.3" r="7.5"/><circle class="f" cx="197.9" cy="263.3" r="7.5"/><circle class="p" cx="166.9" cy="247.3" r="7.5"/><circle class="f" cx="166.9" cy="247.3" r="7.5"/><ellipse class="q" cx="246.4" cy="205.4" rx="34" ry="34.5"/><ellipse class="f" cx="246.4" cy="205.4" rx="34" ry="34.5"/><circle class="r" cx="221.4" cy="210.9" r="7"/><circle class="f" cx="221.4" cy="210.9" r="7"/><ellipse class="s" cx="247.9" cy="185.9" rx="7.5" ry="7"/><ellipse class="f" cx="247.9" cy="185.9" rx="7.5" ry="7"/><ellipse class="t" cx="255.4" cy="203.4" rx="7" ry="7.5"/><ellipse class="f" cx="255.4" cy="203.4" rx="7" ry="7.5"/><circle class="u" cx="255.9" cy="222.4" r="7.5"/><circle class="f" cx="255.9" cy="222.4" r="7.5"/><circle class="v" cx="237.9" cy="204.4" r="7.5"/><circle class="f" cx="237.9" cy="204.4" r="7.5"/><circle class="w" cx="225.4" cy="189.9" r="7"/><circle class="f" cx="225.4" cy="189.9" r="7"/><ellipse class="x" cx="234.4" cy="225.4" rx="7" ry="7.5"/><ellipse class="f" cx="234.4" cy="225.4" rx="7" ry="7.5"/><ellipse class="y" cx="269.4" cy="211.4" rx="7" ry="7.5"/><ellipse class="f" cx="269.4" cy="211.4" rx="7" ry="7.5"/><ellipse class="z" cx="263.9" cy="188.9" rx="7.5" ry="7"/><ellipse class="f" cx="263.9" cy="188.9" rx="7.5" ry="7"/><ellipse class="aa" cx="147.9" cy="140.4" rx="34" ry="34.5"/><ellipse class="f" cx="147.9" cy="140.4" rx="34" ry="34.5"/><circle class="ab" cx="149.4" cy="121.4" r="7.5"/><circle class="f" cx="149.4" cy="121.4" r="7.5"/><ellipse class="ac" cx="157.4" cy="157.9" rx="7.5" ry="7"/><ellipse class="f" cx="157.4" cy="157.9" rx="7.5" ry="7"/><circle class="ad" cx="139.9" cy="139.9" r="7"/><circle class="f" cx="139.9" cy="139.9" r="7"/><circle class="ae" cx="127.4" cy="125.4" r="7.5"/><circle class="f" cx="127.4" cy="125.4" r="7.5"/><ellipse class="af" cx="135.9" cy="161.4" rx="7" ry="7.5"/><ellipse class="f" cx="135.9" cy="161.4" rx="7" ry="7.5"/><circle class="ag" cx="170.9" cy="146.9" r="7"/><circle class="f" cx="170.9" cy="146.9" r="7"/><circle class="ah" cx="165.4" cy="124.4" r="7.5"/><circle class="f" cx="165.4" cy="124.4" r="7.5"/><ellipse class="ai" cx="227.4" cy="83.1" rx="34" ry="34.5"/><ellipse class="f" cx="227.4" cy="83.1" rx="34" ry="34.5"/><ellipse class="aj" cx="227.4" cy="72.1" rx="7" ry="7.5"/><ellipse class="f" cx="227.4" cy="72.1" rx="7" ry="7.5"/><circle class="ak" cx="206.9" cy="68.1" r="7.5"/><circle class="f" cx="206.9" cy="68.1" r="7.5"/><circle class="al" cx="215.4" cy="103.6" r="7"/><circle class="f" cx="215.4" cy="103.6" r="7"/><ellipse class="am" cx="250.4" cy="89.1" rx="7" ry="7.5"/><ellipse class="f" cx="250.4" cy="89.1" rx="7" ry="7.5"/><ellipse class="an" cx="244.9" cy="66.6" rx="7.5" ry="7"/><ellipse class="f" cx="244.9" cy="66.6" rx="7.5" ry="7"/><ellipse class="ao" cx="146.9" cy="35.6" rx="34" ry="34.5"/><ellipse class="f" cx="146.9" cy="35.6" rx="34" ry="34.5"/><circle class="ap" cx="131.4" cy="26.6" r="7.5"/><circle class="f" cx="131.4" cy="26.6" r="7.5"/></svg>