<svg id="Layer_1" data-name="Layer 1" xmlns="http://www.w3.org/2000/svg" viewBox="0 0 420 289"><defs><style>.cls-1{fill:#e7e6e6;opacity:0.78;}.cls-2{fill:#f3b183;}.cls-3{fill:none;stroke:#c9c9c9;stroke-miterlimit:8;stroke-width:2.25px;}.cls-4{fill:#ec7d30;}.cls-5{fill:#9f5a25;}.cls-6{fill:#dea427;}.cls-7{fill:#c45c28;}.cls-8{fill:#ccaad0;}.cls-9{fill:#9a4299;}.cls-10{fill:#965aa4;}.cls-11{fill:#96226e;}.cls-12{fill:#6d297a;}.cls-13{fill:#6651a2;}.cls-14{fill:#a798c9;}.cls-15{fill:#b4c7e7;}.cls-16{fill:#6dbce9;}.cls-17{fill:#4952a3;}.cls-18{fill:#2b2971;}.cls-19{fill:#1683b0;}.cls-20{fill:#5f76b9;}.cls-21{fill:#26c4f3;}.cls-22{fill:#246ab4;}.cls-23{fill:#69c8c5;}.cls-24{fill:#1c9045;}.cls-25{fill:#9dcb3b;}.cls-26{fill:#507837;}.cls-27{fill:#157261;}.cls-28{fill:#22aa4a;}.cls-29{fill:#2d5428;}.cls-30{fill:#1e8a43;}.cls-31{fill:#71c168;}.cls-32{fill:#94c83d;}.cls-33{fill:#16623c;}.cls-34{fill:#fec010;}.cls-35{font-size:16px;fill:#231f20;font-family:MyriadPro-Regular, Myriad Pro;}.cls-36{letter-spacing:-0.02em;}.cls-37{letter-spacing:0em;}.cls-38{letter-spacing:0.02em;}.cls-39{letter-spacing:-0.01em;}.cls-40{letter-spacing:0em;}.cls-41{letter-spacing:-0.01em;}.cls-42{letter-spacing:-0.07em;}.cls-43{letter-spacing:0.02em;}.cls-44{letter-spacing:0.01em;}.cls-45{letter-spacing:-0.01em;}.cls-46{letter-spacing:0em;}.cls-47{letter-spacing:0em;}</style></defs><rect class="cls-1" y="217" width="420" height="72"/><rect class="cls-1" width="420" height="40"/><rect class="cls-1" y="97" width="420" height="57"/><circle class="cls-2" cx="284.58" cy="76.5" r="7.5"/><circle class="cls-3" cx="284.58" cy="76.5" r="7.5"/><circle class="cls-4" cx="243.33" cy="65.5" r="7"/><circle class="cls-3" cx="243.33" cy="65.5" r="7"/><ellipse class="cls-5" cx="326.33" cy="85.5" rx="7.5" ry="7"/><ellipse class="cls-3" cx="326.33" cy="85.5" rx="7.5" ry="7"/><ellipse class="cls-6" cx="340.83" cy="62.5" rx="7" ry="7.5"/><ellipse class="cls-3" cx="340.83" cy="62.5" rx="7" ry="7.5"/><ellipse class="cls-7" cx="304.83" cy="55.5" rx="7.5" ry="7"/><ellipse class="cls-3" cx="304.83" cy="55.5" rx="7.5" ry="7"/><circle class="cls-8" cx="364.83" cy="140.5" r="7.5"/><circle class="cls-3" cx="364.83" cy="140.5" r="7.5"/><circle class="cls-9" cx="229.33" cy="119.5" r="7"/><circle class="cls-3" cx="229.33" cy="119.5" r="7"/><circle class="cls-10" cx="260.46" cy="112.5" r="7.5"/><circle class="cls-3" cx="260.46" cy="112.5" r="7.5"/><circle class="cls-11" cx="292.08" cy="120.5" r="7.5"/><circle class="cls-3" cx="292.08" cy="120.5" r="7.5"/><circle class="cls-12" cx="257.83" cy="140.5" r="7.5"/><circle class="cls-3" cx="257.83" cy="140.5" r="7.5"/><circle class="cls-13" cx="304.83" cy="140.5" r="7.5"/><circle class="cls-3" cx="304.83" cy="140.5" r="7.5"/><circle class="cls-14" cx="333.83" cy="119.5" r="7"/><circle class="cls-3" cx="333.83" cy="119.5" r="7"/><circle class="cls-15" cx="318.83" cy="171.75" r="7"/><circle class="cls-3" cx="318.83" cy="171.75" r="7"/><ellipse class="cls-16" cx="347.83" cy="186" rx="7" ry="7.5"/><ellipse class="cls-3" cx="347.83" cy="186" rx="7" ry="7.5"/><ellipse class="cls-17" cx="257.83" cy="201.5" rx="7.5" ry="7"/><ellipse class="cls-3" cx="257.83" cy="201.5" rx="7.5" ry="7"/><circle class="cls-18" cx="372.33" cy="174.25" r="7.5"/><circle class="cls-3" cx="372.33" cy="174.25" r="7.5"/><ellipse class="cls-19" cx="277.33" cy="178.5" rx="7" ry="7.5"/><ellipse class="cls-3" cx="277.33" cy="178.5" rx="7" ry="7.5"/><ellipse class="cls-20" cx="222.33" cy="196" rx="7" ry="7.5"/><ellipse class="cls-3" cx="222.33" cy="196" rx="7" ry="7.5"/><ellipse class="cls-21" cx="304.83" cy="196" rx="7" ry="7.5"/><ellipse class="cls-3" cx="304.83" cy="196" rx="7" ry="7.5"/><ellipse class="cls-22" cx="372.33" cy="201.5" rx="7.5" ry="7"/><ellipse class="cls-3" cx="372.33" cy="201.5" rx="7.5" ry="7"/><ellipse class="cls-23" cx="243.33" cy="174.5" rx="7" ry="7.5"/><ellipse class="cls-3" cx="243.33" cy="174.5" rx="7" ry="7.5"/><ellipse class="cls-24" cx="245.96" cy="245.5" rx="7" ry="7.5"/><ellipse class="cls-3" cx="245.96" cy="245.5" rx="7" ry="7.5"/><ellipse class="cls-25" cx="354.83" cy="238.5" rx="7.5" ry="7"/><ellipse class="cls-3" cx="354.83" cy="238.5" rx="7.5" ry="7"/><circle class="cls-26" cx="265.33" cy="231.5" r="7.5"/><circle class="cls-3" cx="265.33" cy="231.5" r="7.5"/><circle class="cls-27" cx="284.33" cy="245.5" r="7"/><circle class="cls-3" cx="284.33" cy="245.5" r="7"/><circle class="cls-28" cx="326.83" cy="258.5" r="7.5"/><circle class="cls-3" cx="326.83" cy="258.5" r="7.5"/><circle class="cls-29" cx="357.33" cy="271.5" r="7.5"/><circle class="cls-3" cx="357.33" cy="271.5" r="7.5"/><circle class="cls-30" cx="257.83" cy="271.5" r="7.5"/><circle class="cls-3" cx="257.83" cy="271.5" r="7.5"/><ellipse class="cls-31" cx="292.08" cy="271.5" rx="7" ry="7.5"/><ellipse class="cls-3" cx="292.08" cy="271.5" rx="7" ry="7.5"/><circle class="cls-32" cx="222.33" cy="231.5" r="7.5"/><circle class="cls-3" cx="222.33" cy="231.5" r="7.5"/><circle class="cls-33" cx="318.83" cy="231.5" r="7"/><circle class="cls-3" cx="318.83" cy="231.5" r="7"/><circle class="cls-34" cx="277.33" cy="13.5" r="7"/><circle class="cls-3" cx="277.33" cy="13.5" r="7"/><text class="cls-35" transform="translate(18.25 260.58)"><tspan class="cls-36">P</tspan><tspan class="cls-37" x="8.26" y="0">r</tspan><tspan x="13.55" y="0">ima</tspan><tspan class="cls-38" x="38.35" y="0">r</tspan><tspan x="43.98" y="0">y p</tspan><tspan class="cls-39" x="64.01" y="0">r</tspan><tspan class="cls-40" x="69.09" y="0">odu</tspan><tspan class="cls-41" x="95.71" y="0">c</tspan><tspan x="102.78" y="0">er</tspan></text><text class="cls-35" transform="translate(18.25 77.05)"><tspan class="cls-42">T</tspan><tspan x="6.82" y="0">e</tspan><tspan class="cls-43" x="14.83" y="0">r</tspan><tspan x="20.45" y="0">tia</tspan><tspan class="cls-38" x="37.2" y="0">r</tspan><tspan class="cls-40" x="42.83" y="0">y </tspan><tspan class="cls-41" x="53.76" y="0">c</tspan><tspan x="60.83" y="0">onsumer</tspan></text><text class="cls-35" transform="translate(18.25 190.58)"><tspan class="cls-36">P</tspan><tspan class="cls-37" x="8.26" y="0">r</tspan><tspan x="13.55" y="0">ima</tspan><tspan class="cls-38" x="38.35" y="0">r</tspan><tspan x="43.98" y="0">y </tspan><tspan class="cls-41" x="54.91" y="0">c</tspan><tspan x="61.98" y="0">onsumer</tspan></text><text class="cls-35" transform="translate(18.25 132.2)"><tspan class="cls-44">S</tspan><tspan x="7.98" y="0">e</tspan><tspan class="cls-41" x="16" y="0">c</tspan><tspan x="23.07" y="0">onda</tspan><tspan class="cls-38" x="57.47" y="0">r</tspan><tspan x="63.1" y="0">y </tspan><tspan class="cls-45" x="74.03" y="0">c</tspan><tspan x="81.1" y="0">onsumer</tspan></text><text class="cls-35" transform="translate(18.25 24.86)"><tspan class="cls-46">A</tspan><tspan x="9.74" y="0">p</tspan><tspan class="cls-46" x="18.85" y="0">e</tspan><tspan x="26.82" y="0">x p</tspan><tspan class="cls-39" x="46.72" y="0">r</tspan><tspan class="cls-40" x="51.79" y="0">ed</tspan><tspan class="cls-47" x="68.83" y="0">a</tspan><tspan class="cls-41" x="76.48" y="0">t</tspan><tspan x="81.68" y="0">or</tspan></text></svg>