<svg xmlns="http://www.w3.org/2000/svg" viewBox="0 0 287.5 296.3"><defs><style>.a{fill:#e7e6e6;opacity:0.78;}.b{font-size:10px;fill:#6d6e71;font-family:Helvetica-Light, Helvetica;font-weight:300;}.c{fill:#1c9045;}.d,.u{fill:none;}.d{stroke:#c9c9c9;stroke-miterlimit:8;stroke-width:2.25px;}.e{fill:#507837;}.f{fill:#157261;}.g{fill:#2d5428;}.h{fill:#1e8a43;}.i{fill:#71c168;}.j{fill:#b4c7e7;}.k{fill:#6dbce9;}.l{fill:#2b2971;}.m{fill:#5f76b9;}.n{fill:#26c4f3;}.o{fill:#69c8c5;}.p{fill:#965aa4;}.q{fill:#9f5a25;}.r{fill:#dea427;}.s{fill:#fec010;}.t{fill:#a7a9ac;}.u{stroke:#a7a9ac;stroke-miterlimit:10;stroke-width:1.5px;}</style></defs><rect class="a" y="217" width="287.4" height="72"/><rect class="a" width="287.4" height="40"/><rect class="a" y="97" width="287.4" height="57"/><text class="b" transform="translate(8.1 284.9)">Primary producers</text><text class="b" transform="translate(8.1 91.6)">Tertiary consumers</text><text class="b" transform="translate(8.1 212.7)">Primary consumers</text><text class="b" transform="translate(8.1 149.9)">Secondary consumers</text><text class="b" transform="translate(8.1 36)">Apex predators</text><circle class="c" cx="117" cy="270.1" r="7.5"/><circle class="d" cx="117" cy="270.1" r="7.5"/><ellipse class="e" cx="190.3" cy="274.1" rx="7.5" ry="7"/><ellipse class="d" cx="190.3" cy="274.1" rx="7.5" ry="7"/><circle class="f" cx="96" cy="247.5" r="7.5"/><circle class="d" cx="96" cy="247.5" r="7.5"/><circle class="g" cx="279.3" cy="247" r="7"/><circle class="d" cx="279.3" cy="247" r="7"/><circle class="h" cx="229.9" cy="259.1" r="7.5"/><circle class="d" cx="229.9" cy="259.1" r="7.5"/><circle class="i" cx="158.5" cy="247.5" r="7.5"/><circle class="d" cx="158.5" cy="247.5" r="7.5"/><circle class="j" cx="179" cy="174.1" r="7"/><circle class="d" cx="179" cy="174.1" r="7"/><ellipse class="k" cx="226" cy="175.3" rx="7.5" ry="7"/><ellipse class="d" cx="226" cy="175.3" rx="7.5" ry="7"/><circle class="l" cx="197.8" cy="207.9" r="7.5"/><circle class="d" cx="197.8" cy="207.9" r="7.5"/><circle class="m" cx="132" cy="194.8" r="7"/><circle class="d" cx="132" cy="194.8" r="7"/><ellipse class="n" cx="160.9" cy="207.9" rx="7" ry="7.5"/><ellipse class="d" cx="160.9" cy="207.9" rx="7" ry="7.5"/><ellipse class="o" cx="275.5" cy="204.3" rx="7" ry="7.5" transform="translate(39.7 446.1) rotate(-87.9)"/><ellipse class="d" cx="254.1" cy="178.3" rx="7.5" ry="7"/><circle class="p" cx="118" cy="129.3" r="7"/><circle class="d" cx="118" cy="129.3" r="7"/><circle class="q" cx="226.5" cy="96.3" r="7"/><circle class="d" cx="226.5" cy="96.3" r="7"/><ellipse class="r" cx="210.5" cy="58.8" rx="7" ry="7.5"/><ellipse class="d" cx="210.5" cy="58.8" rx="7" ry="7.5"/><circle class="s" cx="109.5" cy="16" r="7.5"/><circle class="d" cx="109.5" cy="16" r="7.5"/><line class="t" x1="132" y1="187.8" x2="120.4" y2="136.3"/><line class="u" x1="132" y1="187.8" x2="121.7" y2="141.8"/><path class="t" d="M141.9,162.3a28.2,28.2,0,0,0,6,6.8l-4.6-.6-4,2.5A28.3,28.3,0,0,0,141.9,162.3Z" transform="translate(-21.5 -26)"/><line class="t" x1="218.5" y1="94.3" x2="114" y2="23.4"/><line class="u" x1="218.5" y1="94.3" x2="118.7" y2="26.6"/><path class="t" d="M135.5,49.4a28.1,28.1,0,0,0,9.1.8L140.8,53l-1.2,4.5A29.4,29.4,0,0,0,135.5,49.4Z" transform="translate(-21.5 -26)"/><line class="t" x1="118" y1="122.3" x2="109.5" y2="23.5"/><line class="u" x1="118" y1="122.3" x2="110" y2="29.1"/><path class="t" d="M131,49.5a26.7,26.7,0,0,0,5.1,7.6l-4.6-1.2-4.2,1.9A27.3,27.3,0,0,0,131,49.5Z" transform="translate(-21.5 -26)"/><line class="t" x1="123.5" y1="125" x2="219.5" y2="99.9"/><line class="u" x1="123.5" y1="125" x2="214.1" y2="101.3"/><path class="t" d="M241,125.9a26.4,26.4,0,0,0-6.6,6.3l.4-4.7-2.6-3.9A28.6,28.6,0,0,0,241,125.9Z" transform="translate(-21.5 -26)"/><line class="t" x1="123.5" y1="125" x2="203.9" y2="64.1"/><line class="u" x1="123.5" y1="125" x2="199.4" y2="67.5"/><path class="t" d="M225.3,90.1a26.5,26.5,0,0,0-3.6,8.3l-1.4-4.5-4-2.6A27.9,27.9,0,0,0,225.3,90.1Z" transform="translate(-21.5 -26)"/><line class="t" x1="179" y1="167.1" x2="208.3" y2="65.9"/><line class="u" x1="179" y1="167.1" x2="206.7" y2="71.3"/><path class="t" d="M229.7,91.9a26.9,26.9,0,0,0,2.1,8.9L228,98l-4.7.3A25.9,25.9,0,0,0,229.7,91.9Z" transform="translate(-21.5 -26)"/><line class="t" x1="221.1" y1="170" x2="212" y2="66.3"/><line class="u" x1="221.1" y1="170" x2="212.5" y2="71.9"/><path class="t" d="M233.5,92.3a26.7,26.7,0,0,0,5.1,7.6L234,98.7l-4.3,1.9A28.6,28.6,0,0,0,233.5,92.3Z" transform="translate(-21.5 -26)"/><line class="t" x1="250.5" y1="171.3" x2="229.9" y2="103.3"/><line class="u" x1="250.5" y1="171.3" x2="231.5" y2="108.7"/><path class="t" d="M251.3,129.3a28.1,28.1,0,0,0,6.6,6.3l-4.7-.2-3.8,2.8A29.5,29.5,0,0,0,251.3,129.3Z" transform="translate(-21.5 -26)"/><line class="t" x1="226" y1="168.3" x2="226.5" y2="103.3"/><line class="u" x1="226" y1="168.3" x2="226.5" y2="108.9"/><path class="t" d="M248,129.3a29.4,29.4,0,0,0,4.3,8l-4.4-1.7-4.4,1.6A28,28,0,0,0,248,129.3Z" transform="translate(-21.5 -26)"/><line class="t" x1="156.9" y1="201.8" x2="125" y2="135.7"/><line class="u" x1="156.9" y1="201.8" x2="127.5" y2="140.8"/><path class="t" d="M146.5,161.7a27.2,27.2,0,0,0,7.4,5.3l-4.7.4-3.2,3.4A27.6,27.6,0,0,0,146.5,161.7Z" transform="translate(-21.5 -26)"/><line class="t" x1="190.3" y1="204.1" x2="125" y2="133.6"/><line class="u" x1="190.3" y1="204.1" x2="128.8" y2="137.7"/><path class="t" d="M146.5,159.6a30.9,30.9,0,0,0,8.6,2.8l-4.3,1.8-2.2,4.2A25.2,25.2,0,0,0,146.5,159.6Z" transform="translate(-21.5 -26)"/><line class="t" x1="197.8" y1="200.4" x2="210.5" y2="66.3"/><line class="u" x1="197.8" y1="200.4" x2="210" y2="71.9"/><path class="t" d="M232,92.3a28.8,28.8,0,0,0,3.6,8.4l-4.2-2-4.6,1.1A25.1,25.1,0,0,0,232,92.3Z" transform="translate(-21.5 -26)"/><line class="t" x1="233.5" y1="251.6" x2="253.8" y2="185.3"/><line class="u" x1="233.5" y1="251.6" x2="252.2" y2="190.7"/><path class="t" d="M275.3,211.3a26.7,26.7,0,0,0,1.9,8.9l-3.8-2.8-4.7.2A28.1,28.1,0,0,0,275.3,211.3Z" transform="translate(-21.5 -26)"/><line class="t" x1="276" y1="240" x2="255.6" y2="185.2"/><line class="u" x1="276" y1="240" x2="257.5" y2="190.4"/><path class="t" d="M277,211.2a30.1,30.1,0,0,0,7,5.9h-4.7l-3.6,3A29,29,0,0,0,277,211.2Z" transform="translate(-21.5 -26)"/><line class="t" x1="228.3" y1="251.6" x2="226" y2="182.3"/><line class="u" x1="228.3" y1="251.6" x2="226.2" y2="187.9"/><path class="t" d="M247.5,208.3a28,28,0,0,0,4.7,7.8l-4.5-1.5-4.4,1.8A28.3,28.3,0,0,0,247.5,208.3Z" transform="translate(-21.5 -26)"/><line class="t" x1="193.4" y1="267.1" x2="197.8" y2="215.4"/><line class="u" x1="193.4" y1="267.1" x2="197.3" y2="221"/><path class="t" d="M219.2,241.4a29.9,29.9,0,0,0,3.8,8.3l-4.3-2-4.5,1.3A28.6,28.6,0,0,0,219.2,241.4Z" transform="translate(-21.5 -26)"/><line class="t" x1="233.5" y1="251.6" x2="253.8" y2="185.3"/><line class="u" x1="233.5" y1="251.6" x2="252.2" y2="190.7"/><path class="t" d="M275.3,211.3a26.7,26.7,0,0,0,1.9,8.9l-3.8-2.8-4.7.2A28.1,28.1,0,0,0,275.3,211.3Z" transform="translate(-21.5 -26)"/><line class="t" x1="163.7" y1="241.6" x2="191.9" y2="212.6"/><line class="u" x1="163.7" y1="241.6" x2="188" y2="216.6"/><path class="t" d="M213.4,238.6a31.2,31.2,0,0,0-2.4,8.8l-2-4.3-4.3-1.9A28,28,0,0,0,213.4,238.6Z" transform="translate(-21.5 -26)"/><line class="t" x1="186.7" y1="267.9" x2="179" y2="181.1"/><line class="u" x1="186.7" y1="267.9" x2="179.5" y2="186.7"/><path class="t" d="M200.5,207.1a28.9,28.9,0,0,0,5.1,7.6l-4.6-1.2-4.2,1.9A27.3,27.3,0,0,0,200.5,207.1Z" transform="translate(-21.5 -26)"/><line class="t" x1="98" y1="240" x2="115.4" y2="135.8"/><line class="u" x1="98" y1="240" x2="114.5" y2="141.3"/><path class="t" d="M136.9,161.8a27.4,27.4,0,0,0,3,8.6l-4-2.3-4.7.8A28.3,28.3,0,0,0,136.9,161.8Z" transform="translate(-21.5 -26)"/><line class="t" x1="117" y1="262.6" x2="118" y2="138.5"/><line class="u" x1="117" y1="262.6" x2="118" y2="144.1"/><path class="t" d="M139.5,164.5a29.4,29.4,0,0,0,4.3,8l-4.4-1.7-4.4,1.6A28,28,0,0,0,139.5,164.5Z" transform="translate(-21.5 -26)"/><line class="t" x1="118.6" y1="262.5" x2="132" y2="201.8"/><line class="u" x1="118.6" y1="262.5" x2="130.8" y2="207.3"/><path class="t" d="M153.5,227.8a28.3,28.3,0,0,0,2.6,8.7l-4-2.5-4.7.6A26.6,26.6,0,0,0,153.5,227.8Z" transform="translate(-21.5 -26)"/><line class="t" x1="157.8" y1="241.1" x2="160.9" y2="215.4"/><line class="u" x1="157.8" y1="241.1" x2="160.3" y2="221"/><path class="t" d="M182.4,241.4a29.6,29.6,0,0,0,3.4,8.4l-4.2-2.1-4.5,1.1A28.5,28.5,0,0,0,182.4,241.4Z" transform="translate(-21.5 -26)"/></svg>