<svg id="Layer_1" data-name="Layer 1" xmlns="http://www.w3.org/2000/svg" viewBox="0 0 420 305.94"><defs><style>.cls-1{fill:#e7e6e6;opacity:0.78;}.cls-2{font-size:16px;fill:#231f20;font-family:MyriadPro-Regular, Myriad Pro;}.cls-3{letter-spacing:-0.02em;}.cls-4{letter-spacing:0em;}.cls-5{letter-spacing:0.02em;}.cls-6{letter-spacing:-0.01em;}.cls-7{letter-spacing:0em;}.cls-8{letter-spacing:-0.01em;}.cls-9{letter-spacing:-0.07em;}.cls-10{letter-spacing:0.02em;}.cls-11{letter-spacing:0.01em;}.cls-12{letter-spacing:-0.01em;}.cls-13{letter-spacing:0em;}.cls-14{letter-spacing:0em;}.cls-15{fill:#55823b;}.cls-16{fill:none;stroke:#c9c9c9;stroke-miterlimit:8;stroke-width:2.25px;}.cls-17{fill:#1c9045;}.cls-18{fill:#9dcb3b;}.cls-19{fill:#507837;}.cls-20{fill:#157261;}.cls-21{fill:#22aa4a;}.cls-22{fill:#2d5428;}.cls-23{fill:#1e8a43;}.cls-24{fill:#71c168;}.cls-25{fill:#94c83d;}.cls-26{fill:#16623c;}.cls-27{fill:#2f75b6;}.cls-28{fill:#b4c7e7;}.cls-29{fill:#6dbce9;}.cls-30{fill:#4952a3;}.cls-31{fill:#2b2971;}.cls-32{fill:#1683b0;}.cls-33{fill:#5f76b9;}.cls-34{fill:#26c4f3;}.cls-35{fill:#246ab4;}.cls-36{fill:#69c8c5;}.cls-37{fill:#6f3996;}.cls-38{fill:#ccaad0;}.cls-39{fill:#9a4299;}.cls-40{fill:#965aa4;}.cls-41{fill:#96226e;}.cls-42{fill:#6d297a;}.cls-43{fill:#6651a2;}.cls-44{fill:#a798c9;}.cls-45{fill:#f7921e;}.cls-46{fill:#f3b183;}.cls-47{fill:#ec7d30;}.cls-48{fill:#9f5a25;}.cls-49{fill:#dea427;}.cls-50{fill:#c45c28;}.cls-51{fill:#fee699;}.cls-52{fill:#fec010;}</style></defs><rect class="cls-1" y="233.87" width="420" height="72"/><rect class="cls-1" y="16.87" width="420" height="40"/><rect class="cls-1" y="113.87" width="420" height="57"/><text class="cls-2" transform="translate(18.25 277.45)"><tspan class="cls-3">P</tspan><tspan class="cls-4" x="8.26" y="0">r</tspan><tspan x="13.55" y="0">ima</tspan><tspan class="cls-5" x="38.35" y="0">r</tspan><tspan x="43.98" y="0">y p</tspan><tspan class="cls-6" x="64.01" y="0">r</tspan><tspan class="cls-7" x="69.09" y="0">odu</tspan><tspan class="cls-8" x="95.71" y="0">c</tspan><tspan x="102.78" y="0">er</tspan></text><text class="cls-2" transform="translate(18.25 93.92)"><tspan class="cls-9">T</tspan><tspan x="6.82" y="0">e</tspan><tspan class="cls-10" x="14.83" y="0">r</tspan><tspan x="20.45" y="0">tia</tspan><tspan class="cls-5" x="37.2" y="0">r</tspan><tspan class="cls-7" x="42.83" y="0">y </tspan><tspan class="cls-8" x="53.76" y="0">c</tspan><tspan x="60.83" y="0">onsumer</tspan></text><text class="cls-2" transform="translate(18.25 207.45)"><tspan class="cls-3">P</tspan><tspan class="cls-4" x="8.26" y="0">r</tspan><tspan x="13.55" y="0">ima</tspan><tspan class="cls-5" x="38.35" y="0">r</tspan><tspan x="43.98" y="0">y </tspan><tspan class="cls-8" x="54.91" y="0">c</tspan><tspan x="61.98" y="0">onsumer</tspan></text><text class="cls-2" transform="translate(18.25 149.07)"><tspan class="cls-11">S</tspan><tspan x="7.98" y="0">e</tspan><tspan class="cls-8" x="16" y="0">c</tspan><tspan x="23.07" y="0">onda</tspan><tspan class="cls-5" x="57.47" y="0">r</tspan><tspan x="63.1" y="0">y </tspan><tspan class="cls-12" x="74.03" y="0">c</tspan><tspan x="81.1" y="0">onsumer</tspan></text><text class="cls-2" transform="translate(18.25 41.73)"><tspan class="cls-13">A</tspan><tspan x="9.74" y="0">p</tspan><tspan class="cls-13" x="18.85" y="0">e</tspan><tspan x="26.82" y="0">x p</tspan><tspan class="cls-6" x="46.72" y="0">r</tspan><tspan class="cls-7" x="51.79" y="0">ed</tspan><tspan class="cls-14" x="68.83" y="0">a</tspan><tspan class="cls-8" x="76.48" y="0">t</tspan><tspan x="81.68" y="0">or</tspan></text><ellipse class="cls-15" cx="269.83" cy="270.31" rx="33.5" ry="34.5"/><ellipse class="cls-16" cx="269.83" cy="270.31" rx="33.5" ry="34.5"/><circle class="cls-17" cx="244.83" cy="276.31" r="7.5"/><circle class="cls-16" cx="244.83" cy="276.31" r="7.5"/><ellipse class="cls-18" cx="279.33" cy="249.31" rx="7" ry="7.5"/><ellipse class="cls-16" cx="279.33" cy="249.31" rx="7" ry="7.5"/><ellipse class="cls-19" cx="277.83" cy="271.81" rx="7.5" ry="7"/><ellipse class="cls-16" cx="277.83" cy="271.81" rx="7.5" ry="7"/><circle class="cls-20" cx="247.83" cy="258.31" r="7.5"/><circle class="cls-16" cx="247.83" cy="258.31" r="7.5"/><circle class="cls-21" cx="258.33" cy="290.81" r="7"/><circle class="cls-16" cx="258.33" cy="290.81" r="7"/><circle class="cls-22" cx="290.33" cy="282.81" r="7"/><circle class="cls-16" cx="290.33" cy="282.81" r="7"/><circle class="cls-23" cx="274.83" cy="293.31" r="7.5"/><circle class="cls-16" cx="274.83" cy="293.31" r="7.5"/><circle class="cls-24" cx="260.83" cy="270.31" r="7.5"/><circle class="cls-16" cx="260.83" cy="270.31" r="7.5"/><circle class="cls-25" cx="292.83" cy="263.31" r="7.5"/><circle class="cls-16" cx="292.83" cy="263.31" r="7.5"/><circle class="cls-26" cx="261.83" cy="247.31" r="7.5"/><circle class="cls-16" cx="261.83" cy="247.31" r="7.5"/><ellipse class="cls-27" cx="341.33" cy="205.37" rx="34" ry="34.5"/><ellipse class="cls-16" cx="341.33" cy="205.37" rx="34" ry="34.5"/><circle class="cls-28" cx="316.33" cy="210.87" r="7"/><circle class="cls-16" cx="316.33" cy="210.87" r="7"/><ellipse class="cls-29" cx="342.83" cy="185.87" rx="7.5" ry="7"/><ellipse class="cls-16" cx="342.83" cy="185.87" rx="7.5" ry="7"/><ellipse class="cls-30" cx="350.33" cy="203.37" rx="7" ry="7.5"/><ellipse class="cls-16" cx="350.33" cy="203.37" rx="7" ry="7.5"/><circle class="cls-31" cx="350.83" cy="222.37" r="7.5"/><circle class="cls-16" cx="350.83" cy="222.37" r="7.5"/><circle class="cls-32" cx="332.83" cy="204.37" r="7.5"/><circle class="cls-16" cx="332.83" cy="204.37" r="7.5"/><circle class="cls-33" cx="320.33" cy="189.87" r="7"/><circle class="cls-16" cx="320.33" cy="189.87" r="7"/><ellipse class="cls-34" cx="329.33" cy="225.37" rx="7" ry="7.5"/><ellipse class="cls-16" cx="329.33" cy="225.37" rx="7" ry="7.5"/><ellipse class="cls-35" cx="364.33" cy="211.37" rx="7" ry="7.5"/><ellipse class="cls-16" cx="364.33" cy="211.37" rx="7" ry="7.5"/><ellipse class="cls-36" cx="358.83" cy="188.87" rx="7.5" ry="7"/><ellipse class="cls-16" cx="358.83" cy="188.87" rx="7.5" ry="7"/><ellipse class="cls-37" cx="242.83" cy="140.37" rx="34" ry="34.5"/><ellipse class="cls-16" cx="242.83" cy="140.37" rx="34" ry="34.5"/><circle class="cls-38" cx="244.33" cy="121.37" r="7.5"/><circle class="cls-16" cx="244.33" cy="121.37" r="7.5"/><ellipse class="cls-39" cx="252.33" cy="157.87" rx="7.5" ry="7"/><ellipse class="cls-16" cx="252.33" cy="157.87" rx="7.5" ry="7"/><circle class="cls-40" cx="234.83" cy="139.87" r="7"/><circle class="cls-16" cx="234.83" cy="139.87" r="7"/><circle class="cls-41" cx="222.33" cy="125.37" r="7.5"/><circle class="cls-16" cx="222.33" cy="125.37" r="7.5"/><ellipse class="cls-42" cx="230.83" cy="161.37" rx="7" ry="7.5"/><ellipse class="cls-16" cx="230.83" cy="161.37" rx="7" ry="7.5"/><circle class="cls-43" cx="265.83" cy="146.87" r="7"/><circle class="cls-16" cx="265.83" cy="146.87" r="7"/><circle class="cls-44" cx="260.33" cy="124.37" r="7.5"/><circle class="cls-16" cx="260.33" cy="124.37" r="7.5"/><ellipse class="cls-45" cx="322.33" cy="83.12" rx="34" ry="34.5"/><ellipse class="cls-16" cx="322.33" cy="83.12" rx="34" ry="34.5"/><ellipse class="cls-46" cx="322.33" cy="72.12" rx="7" ry="7.5"/><ellipse class="cls-16" cx="322.33" cy="72.12" rx="7" ry="7.5"/><circle class="cls-47" cx="301.83" cy="68.12" r="7.5"/><circle class="cls-16" cx="301.83" cy="68.12" r="7.5"/><circle class="cls-48" cx="310.33" cy="103.62" r="7"/><circle class="cls-16" cx="310.33" cy="103.62" r="7"/><ellipse class="cls-49" cx="345.33" cy="89.12" rx="7" ry="7.5"/><ellipse class="cls-16" cx="345.33" cy="89.12" rx="7" ry="7.5"/><ellipse class="cls-50" cx="339.83" cy="66.62" rx="7.5" ry="7"/><ellipse class="cls-16" cx="339.83" cy="66.62" rx="7.5" ry="7"/><ellipse class="cls-51" cx="241.83" cy="35.63" rx="34" ry="34.5"/><ellipse class="cls-16" cx="241.83" cy="35.63" rx="34" ry="34.5"/><circle class="cls-52" cx="226.33" cy="26.63" r="7.5"/><circle class="cls-16" cx="226.33" cy="26.63" r="7.5"/></svg>