<svg id="Layer_1" data-name="Layer 1" xmlns="http://www.w3.org/2000/svg" xmlns:xlink="http://www.w3.org/1999/xlink" viewBox="0 0 217.07 361.07"><defs><style>.cls-1,.cls-10,.cls-13,.cls-15,.cls-16,.cls-18,.cls-19,.cls-3,.cls-6,.cls-7,.cls-9{fill:none;}.cls-2,.cls-5{fill:#fff;}.cls-3,.cls-6{stroke:#fff;}.cls-13,.cls-15,.cls-16,.cls-19,.cls-3,.cls-6{stroke-linecap:round;}.cls-13,.cls-15,.cls-16,.cls-18,.cls-19,.cls-3,.cls-6,.cls-7{stroke-linejoin:round;}.cls-16,.cls-18,.cls-3,.cls-7,.cls-9{stroke-width:1.07px;}.cls-4{clip-path:url(#clip-path);}.cls-11,.cls-5,.cls-6,.cls-8{opacity:0.7;}.cls-13,.cls-15,.cls-6{stroke-width:0.71px;}.cls-10,.cls-19,.cls-7,.cls-9{stroke:#000;}.cls-14,.cls-8{fill:#4682b4;}.cls-10,.cls-9{stroke-miterlimit:10;}.cls-10{stroke-width:2.13px;}.cls-11,.cls-12{fill:#8b3a3a;}.cls-12,.cls-13,.cls-14,.cls-15{opacity:0.5;}.cls-13{stroke:#8b3a3a;}.cls-15{stroke:#4682b4;}.cls-16,.cls-18{stroke:#333;}.cls-17{fill:#4d4d4d;}.cls-19{stroke-width:0.75px;}</style><clipPath id="clip-path" transform="translate(0.54 0.54)"><rect class="cls-1" x="29.68" y="5.48" width="180.84" height="324.49"/></clipPath></defs><rect class="cls-2" x="0.54" y="0.54" width="216" height="360"/><rect class="cls-2" x="0.54" y="0.54" width="216" height="360"/><rect class="cls-3" x="0.54" y="0.54" width="216" height="360"/><g class="cls-4"><rect class="cls-2" x="30.22" y="6.02" width="180.84" height="324.49"/><path class="cls-5" d="M77,308.29a2,2,0,1,1,2,1.95,2,2,0,0,1-2-1.95" transform="translate(0.54 0.54)"/><path class="cls-6" d="M77,308.29a2,2,0,1,1,2,1.95,2,2,0,0,1-2-1.95" transform="translate(0.54 0.54)"/><line class="cls-7" x1="79.54" y1="120.62" x2="79.54" y2="72.79"/><line class="cls-7" x1="79.54" y1="178.9" x2="79.54" y2="258.37"/><rect class="cls-8" x="48.7" y="120.62" width="61.65" height="58.27"/><rect class="cls-9" x="48.7" y="120.62" width="61.65" height="58.27"/><line class="cls-10" x1="48.7" y1="147.23" x2="110.35" y2="147.23"/><path class="cls-5" d="M159.24,276.56a2,2,0,1,1,2,2,2,2,0,0,1-2-2" transform="translate(0.54 0.54)"/><path class="cls-6" d="M159.24,276.56a2,2,0,1,1,2,2,2,2,0,0,1-2-2" transform="translate(0.54 0.54)"/><line class="cls-7" x1="161.73" y1="143.65" x2="161.73" y2="76.7"/><line class="cls-7" x1="161.73" y1="196.67" x2="161.73" y2="262.2"/><rect class="cls-11" x="130.9" y="143.65" width="61.66" height="53.02"/><rect class="cls-9" x="130.9" y="143.65" width="61.66" height="53.02"/><line class="cls-10" x1="130.9" y1="163.42" x2="192.56" y2="163.42"/><path class="cls-12" d="M160.65,151.2a1.42,1.42,0,1,1,1.42,1.42,1.43,1.43,0,0,1-1.42-1.42" transform="translate(0.54 0.54)"/><path class="cls-13" d="M160.65,151.2a1.42,1.42,0,1,1,1.42,1.42,1.43,1.43,0,0,1-1.42-1.42" transform="translate(0.54 0.54)"/><path class="cls-12" d="M171,155a1.42,1.42,0,1,1,1.42,1.42A1.42,1.42,0,0,1,171,155" transform="translate(0.54 0.54)"/><path class="cls-13" d="M171,155a1.42,1.42,0,1,1,1.42,1.42A1.42,1.42,0,0,1,171,155" transform="translate(0.54 0.54)"/><path class="cls-12" d="M165.14,103.85a1.43,1.43,0,1,1,1.42,1.42,1.43,1.43,0,0,1-1.42-1.42" transform="translate(0.54 0.54)"/><path class="cls-13" d="M165.14,103.85a1.43,1.43,0,1,1,1.42,1.42,1.43,1.43,0,0,1-1.42-1.42" transform="translate(0.54 0.54)"/><path class="cls-12" d="M174.57,163a1.43,1.43,0,1,1,1.42,1.43,1.43,1.43,0,0,1-1.42-1.43" transform="translate(0.54 0.54)"/><path class="cls-13" d="M174.57,163a1.43,1.43,0,1,1,1.42,1.43,1.43,1.43,0,0,1-1.42-1.43" transform="translate(0.54 0.54)"/><path class="cls-12" d="M148.07,258.77a1.42,1.42,0,1,1,1.42,1.42,1.43,1.43,0,0,1-1.42-1.42" transform="translate(0.54 0.54)"/><path class="cls-13" d="M148.07,258.77a1.42,1.42,0,1,1,1.42,1.42,1.43,1.43,0,0,1-1.42-1.42" transform="translate(0.54 0.54)"/><path class="cls-12" d="M165.05,163.91a1.43,1.43,0,1,1,1.42,1.43,1.43,1.43,0,0,1-1.42-1.43" transform="translate(0.54 0.54)"/><path class="cls-13" d="M165.05,163.91a1.43,1.43,0,1,1,1.42,1.43,1.43,1.43,0,0,1-1.42-1.43" transform="translate(0.54 0.54)"/><path class="cls-12" d="M150.3,161a1.43,1.43,0,1,1,1.43,1.42A1.43,1.43,0,0,1,150.3,161" transform="translate(0.54 0.54)"/><path class="cls-13" d="M150.3,161a1.43,1.43,0,1,1,1.43,1.42A1.43,1.43,0,0,1,150.3,161" transform="translate(0.54 0.54)"/><path class="cls-12" d="M141.47,105.51a1.43,1.43,0,1,1,1.43,1.42,1.43,1.43,0,0,1-1.43-1.42" transform="translate(0.54 0.54)"/><path class="cls-13" d="M141.47,105.51a1.43,1.43,0,1,1,1.43,1.42,1.43,1.43,0,0,1-1.43-1.42" transform="translate(0.54 0.54)"/><path class="cls-12" d="M140.14,86a1.42,1.42,0,1,1,1.42,1.42A1.42,1.42,0,0,1,140.14,86" transform="translate(0.54 0.54)"/><path class="cls-13" d="M140.14,86a1.42,1.42,0,1,1,1.42,1.42A1.42,1.42,0,0,1,140.14,86" transform="translate(0.54 0.54)"/><path class="cls-12" d="M160.67,98.71a1.42,1.42,0,1,1,1.42,1.42,1.43,1.43,0,0,1-1.42-1.42" transform="translate(0.54 0.54)"/><path class="cls-13" d="M160.67,98.71a1.42,1.42,0,1,1,1.42,1.42,1.43,1.43,0,0,1-1.42-1.42" transform="translate(0.54 0.54)"/><path class="cls-12" d="M167,85.93a1.42,1.42,0,1,1,1.42,1.42A1.43,1.43,0,0,1,167,85.93" transform="translate(0.54 0.54)"/><path class="cls-13" d="M167,85.93a1.42,1.42,0,1,1,1.42,1.42A1.43,1.43,0,0,1,167,85.93" transform="translate(0.54 0.54)"/><path class="cls-12" d="M145.39,93.16a1.42,1.42,0,1,1,1.42,1.43,1.43,1.43,0,0,1-1.42-1.43" transform="translate(0.54 0.54)"/><path class="cls-13" d="M145.39,93.16a1.42,1.42,0,1,1,1.42,1.43,1.43,1.43,0,0,1-1.42-1.43" transform="translate(0.54 0.54)"/><path class="cls-12" d="M150.29,157a1.42,1.42,0,1,1,1.42,1.42,1.43,1.43,0,0,1-1.42-1.42" transform="translate(0.54 0.54)"/><path class="cls-13" d="M150.29,157a1.42,1.42,0,1,1,1.42,1.42,1.43,1.43,0,0,1-1.42-1.42" transform="translate(0.54 0.54)"/><path class="cls-12" d="M171.45,110.63a1.43,1.43,0,1,1,1.42,1.42,1.43,1.43,0,0,1-1.42-1.42" transform="translate(0.54 0.54)"/><path class="cls-13" d="M171.45,110.63a1.43,1.43,0,1,1,1.42,1.42,1.43,1.43,0,0,1-1.42-1.42" transform="translate(0.54 0.54)"/><path class="cls-12" d="M145.4,163.33a1.43,1.43,0,1,1,1.43,1.42,1.43,1.43,0,0,1-1.43-1.42" transform="translate(0.54 0.54)"/><path class="cls-13" d="M145.4,163.33a1.43,1.43,0,1,1,1.43,1.42,1.43,1.43,0,0,1-1.43-1.42" transform="translate(0.54 0.54)"/><path class="cls-12" d="M154.88,198.05a1.42,1.42,0,1,1,1.42,1.42,1.43,1.43,0,0,1-1.42-1.42" transform="translate(0.54 0.54)"/><path class="cls-13" d="M154.88,198.05a1.42,1.42,0,1,1,1.42,1.42,1.43,1.43,0,0,1-1.42-1.42" transform="translate(0.54 0.54)"/><path class="cls-12" d="M139.36,229.19a1.42,1.42,0,1,1,1.42,1.42,1.43,1.43,0,0,1-1.42-1.42" transform="translate(0.54 0.54)"/><path class="cls-13" d="M139.36,229.19a1.42,1.42,0,1,1,1.42,1.42,1.43,1.43,0,0,1-1.42-1.42" transform="translate(0.54 0.54)"/><path class="cls-12" d="M151,159.52a1.42,1.42,0,1,1,1.42,1.42,1.42,1.42,0,0,1-1.42-1.42" transform="translate(0.54 0.54)"/><path class="cls-13" d="M151,159.52a1.42,1.42,0,1,1,1.42,1.42,1.42,1.42,0,0,1-1.42-1.42" transform="translate(0.54 0.54)"/><path class="cls-12" d="M155.22,198.49a1.42,1.42,0,1,1,1.42,1.43,1.43,1.43,0,0,1-1.42-1.43" transform="translate(0.54 0.54)"/><path class="cls-13" d="M155.22,198.49a1.42,1.42,0,1,1,1.42,1.43,1.43,1.43,0,0,1-1.42-1.43" transform="translate(0.54 0.54)"/><path class="cls-12" d="M144.53,154.31a1.42,1.42,0,1,1,1.42,1.43,1.43,1.43,0,0,1-1.42-1.43" transform="translate(0.54 0.54)"/><path class="cls-13" d="M144.53,154.31a1.42,1.42,0,1,1,1.42,1.43,1.43,1.43,0,0,1-1.42-1.43" transform="translate(0.54 0.54)"/><path class="cls-12" d="M165.41,150.08a1.42,1.42,0,1,1,1.42,1.43,1.43,1.43,0,0,1-1.42-1.43" transform="translate(0.54 0.54)"/><path class="cls-13" d="M165.41,150.08a1.42,1.42,0,1,1,1.42,1.43,1.43,1.43,0,0,1-1.42-1.43" transform="translate(0.54 0.54)"/><path class="cls-12" d="M176.49,144.28a1.43,1.43,0,1,1,1.42,1.42,1.43,1.43,0,0,1-1.42-1.42" transform="translate(0.54 0.54)"/><path class="cls-13" d="M176.49,144.28a1.43,1.43,0,1,1,1.42,1.42,1.43,1.43,0,0,1-1.42-1.42" transform="translate(0.54 0.54)"/><path class="cls-12" d="M172.73,140.14a1.42,1.42,0,1,1,1.42,1.42,1.43,1.43,0,0,1-1.42-1.42" transform="translate(0.54 0.54)"/><path class="cls-13" d="M172.73,140.14a1.42,1.42,0,1,1,1.42,1.42,1.43,1.43,0,0,1-1.42-1.42" transform="translate(0.54 0.54)"/><path class="cls-12" d="M177.06,167.64a1.42,1.42,0,1,1,1.42,1.43,1.43,1.43,0,0,1-1.42-1.43" transform="translate(0.54 0.54)"/><path class="cls-13" d="M177.06,167.64a1.42,1.42,0,1,1,1.42,1.43,1.43,1.43,0,0,1-1.42-1.43" transform="translate(0.54 0.54)"/><path class="cls-12" d="M142.1,192.77a1.42,1.42,0,1,1,1.42,1.42,1.43,1.43,0,0,1-1.42-1.42" transform="translate(0.54 0.54)"/><path class="cls-13" d="M142.1,192.77a1.42,1.42,0,1,1,1.42,1.42,1.43,1.43,0,0,1-1.42-1.42" transform="translate(0.54 0.54)"/><path class="cls-12" d="M147.38,155a1.42,1.42,0,1,1,1.42,1.42,1.43,1.43,0,0,1-1.42-1.42" transform="translate(0.54 0.54)"/><path class="cls-13" d="M147.38,155a1.42,1.42,0,1,1,1.42,1.42,1.43,1.43,0,0,1-1.42-1.42" transform="translate(0.54 0.54)"/><path class="cls-12" d="M146.45,218.81a1.43,1.43,0,1,1,1.42,1.43,1.43,1.43,0,0,1-1.42-1.43" transform="translate(0.54 0.54)"/><path class="cls-13" d="M146.45,218.81a1.43,1.43,0,1,1,1.42,1.43,1.43,1.43,0,0,1-1.42-1.43" transform="translate(0.54 0.54)"/><path class="cls-12" d="M148.27,170.77a1.42,1.42,0,1,1,1.42,1.42,1.42,1.42,0,0,1-1.42-1.42" transform="translate(0.54 0.54)"/><path class="cls-13" d="M148.27,170.77a1.42,1.42,0,1,1,1.42,1.42,1.42,1.42,0,0,1-1.42-1.42" transform="translate(0.54 0.54)"/><path class="cls-12" d="M163.19,112.68a1.42,1.42,0,1,1,1.42,1.42,1.43,1.43,0,0,1-1.42-1.42" transform="translate(0.54 0.54)"/><path class="cls-13" d="M163.19,112.68a1.42,1.42,0,1,1,1.42,1.42,1.43,1.43,0,0,1-1.42-1.42" transform="translate(0.54 0.54)"/><path class="cls-12" d="M162.94,214.75a1.42,1.42,0,1,1,1.42,1.42,1.43,1.43,0,0,1-1.42-1.42" transform="translate(0.54 0.54)"/><path class="cls-13" d="M162.94,214.75a1.42,1.42,0,1,1,1.42,1.42,1.43,1.43,0,0,1-1.42-1.42" transform="translate(0.54 0.54)"/><path class="cls-12" d="M154.61,234.28A1.42,1.42,0,1,1,156,235.7a1.43,1.43,0,0,1-1.42-1.42" transform="translate(0.54 0.54)"/><path class="cls-13" d="M154.61,234.28A1.42,1.42,0,1,1,156,235.7a1.43,1.43,0,0,1-1.42-1.42" transform="translate(0.54 0.54)"/><path class="cls-12" d="M142.24,221.56a1.42,1.42,0,1,1,1.42,1.42,1.43,1.43,0,0,1-1.42-1.42" transform="translate(0.54 0.54)"/><path class="cls-13" d="M142.24,221.56a1.42,1.42,0,1,1,1.42,1.42,1.43,1.43,0,0,1-1.42-1.42" transform="translate(0.54 0.54)"/><path class="cls-12" d="M147.5,166.14a1.42,1.42,0,1,1,1.42,1.43,1.43,1.43,0,0,1-1.42-1.43" transform="translate(0.54 0.54)"/><path class="cls-13" d="M147.5,166.14a1.42,1.42,0,1,1,1.42,1.43,1.43,1.43,0,0,1-1.42-1.43" transform="translate(0.54 0.54)"/><path class="cls-12" d="M154.63,162.83a1.42,1.42,0,1,1,1.42,1.42,1.43,1.43,0,0,1-1.42-1.42" transform="translate(0.54 0.54)"/><path class="cls-13" d="M154.63,162.83a1.42,1.42,0,1,1,1.42,1.42,1.43,1.43,0,0,1-1.42-1.42" transform="translate(0.54 0.54)"/><path class="cls-12" d="M166.78,142.73a1.42,1.42,0,1,1,1.42,1.42,1.43,1.43,0,0,1-1.42-1.42" transform="translate(0.54 0.54)"/><path class="cls-13" d="M166.78,142.73a1.42,1.42,0,1,1,1.42,1.42,1.43,1.43,0,0,1-1.42-1.42" transform="translate(0.54 0.54)"/><path class="cls-12" d="M174.92,160.1a1.42,1.42,0,1,1,1.42,1.43,1.43,1.43,0,0,1-1.42-1.43" transform="translate(0.54 0.54)"/><path class="cls-13" d="M174.92,160.1a1.42,1.42,0,1,1,1.42,1.43,1.43,1.43,0,0,1-1.42-1.43" transform="translate(0.54 0.54)"/><path class="cls-12" d="M168.22,76.16a1.43,1.43,0,1,1,1.42,1.42,1.42,1.42,0,0,1-1.42-1.42" transform="translate(0.54 0.54)"/><path class="cls-13" d="M168.22,76.16a1.43,1.43,0,1,1,1.42,1.42,1.42,1.42,0,0,1-1.42-1.42" transform="translate(0.54 0.54)"/><path class="cls-12" d="M155.51,90.77a1.42,1.42,0,1,1,1.42,1.42,1.43,1.43,0,0,1-1.42-1.42" transform="translate(0.54 0.54)"/><path class="cls-13" d="M155.51,90.77a1.42,1.42,0,1,1,1.42,1.42,1.43,1.43,0,0,1-1.42-1.42" transform="translate(0.54 0.54)"/><path class="cls-12" d="M170.27,101.35a1.42,1.42,0,1,1,1.42,1.42,1.43,1.43,0,0,1-1.42-1.42" transform="translate(0.54 0.54)"/><path class="cls-13" d="M170.27,101.35a1.42,1.42,0,1,1,1.42,1.42,1.43,1.43,0,0,1-1.42-1.42" transform="translate(0.54 0.54)"/><path class="cls-12" d="M154.52,106.07a1.42,1.42,0,1,1,1.42,1.43,1.43,1.43,0,0,1-1.42-1.43" transform="translate(0.54 0.54)"/><path class="cls-13" d="M154.52,106.07a1.42,1.42,0,1,1,1.42,1.43,1.43,1.43,0,0,1-1.42-1.43" transform="translate(0.54 0.54)"/><path class="cls-12" d="M149.05,104.27a1.43,1.43,0,1,1,1.43,1.42,1.43,1.43,0,0,1-1.43-1.42" transform="translate(0.54 0.54)"/><path class="cls-13" d="M149.05,104.27a1.43,1.43,0,1,1,1.43,1.42,1.43,1.43,0,0,1-1.43-1.42" transform="translate(0.54 0.54)"/><path class="cls-12" d="M174.17,141.18a1.42,1.42,0,1,1,1.42,1.42,1.43,1.43,0,0,1-1.42-1.42" transform="translate(0.54 0.54)"/><path class="cls-13" d="M174.17,141.18a1.42,1.42,0,1,1,1.42,1.42,1.43,1.43,0,0,1-1.42-1.42" transform="translate(0.54 0.54)"/><path class="cls-12" d="M144.25,97.81a1.42,1.42,0,1,1,1.42,1.42,1.43,1.43,0,0,1-1.42-1.42" transform="translate(0.54 0.54)"/><path class="cls-13" d="M144.25,97.81a1.42,1.42,0,1,1,1.42,1.42,1.43,1.43,0,0,1-1.42-1.42" transform="translate(0.54 0.54)"/><path class="cls-12" d="M176.43,138.63a1.42,1.42,0,1,1,1.42,1.42,1.43,1.43,0,0,1-1.42-1.42" transform="translate(0.54 0.54)"/><path class="cls-13" d="M176.43,138.63a1.42,1.42,0,1,1,1.42,1.42,1.43,1.43,0,0,1-1.42-1.42" transform="translate(0.54 0.54)"/><path class="cls-12" d="M177.85,227.19a1.43,1.43,0,1,1,1.42,1.42,1.43,1.43,0,0,1-1.42-1.42" transform="translate(0.54 0.54)"/><path class="cls-13" d="M177.85,227.19a1.43,1.43,0,1,1,1.42,1.42,1.43,1.43,0,0,1-1.42-1.42" transform="translate(0.54 0.54)"/><path class="cls-12" d="M148.25,116a1.43,1.43,0,1,1,1.43,1.42,1.43,1.43,0,0,1-1.43-1.42" transform="translate(0.54 0.54)"/><path class="cls-13" d="M148.25,116a1.43,1.43,0,1,1,1.43,1.42,1.43,1.43,0,0,1-1.43-1.42" transform="translate(0.54 0.54)"/><path class="cls-12" d="M142.84,146.7a1.43,1.43,0,1,1,1.42,1.43,1.43,1.43,0,0,1-1.42-1.43" transform="translate(0.54 0.54)"/><path class="cls-13" d="M142.84,146.7a1.43,1.43,0,1,1,1.42,1.43,1.43,1.43,0,0,1-1.42-1.43" transform="translate(0.54 0.54)"/><path class="cls-12" d="M142.22,184a1.42,1.42,0,1,1,1.42,1.42,1.43,1.43,0,0,1-1.42-1.42" transform="translate(0.54 0.54)"/><path class="cls-13" d="M142.22,184a1.42,1.42,0,1,1,1.42,1.42,1.43,1.43,0,0,1-1.42-1.42" transform="translate(0.54 0.54)"/><path class="cls-12" d="M159.25,251a1.43,1.43,0,1,1,1.43,1.42,1.43,1.43,0,0,1-1.43-1.42" transform="translate(0.54 0.54)"/><path class="cls-13" d="M159.25,251a1.43,1.43,0,1,1,1.43,1.42,1.43,1.43,0,0,1-1.43-1.42" transform="translate(0.54 0.54)"/><path class="cls-12" d="M147.78,144.88a1.42,1.42,0,1,1,1.42,1.42,1.43,1.43,0,0,1-1.42-1.42" transform="translate(0.54 0.54)"/><path class="cls-13" d="M147.78,144.88a1.42,1.42,0,1,1,1.42,1.42,1.43,1.43,0,0,1-1.42-1.42" transform="translate(0.54 0.54)"/><path class="cls-12" d="M145.83,194.76a1.42,1.42,0,1,1,1.42,1.42,1.43,1.43,0,0,1-1.42-1.42" transform="translate(0.54 0.54)"/><path class="cls-13" d="M145.83,194.76a1.42,1.42,0,1,1,1.42,1.42,1.43,1.43,0,0,1-1.42-1.42" transform="translate(0.54 0.54)"/><path class="cls-12" d="M163,200.74a1.42,1.42,0,1,1,1.42,1.42,1.42,1.42,0,0,1-1.42-1.42" transform="translate(0.54 0.54)"/><path class="cls-13" d="M163,200.74a1.42,1.42,0,1,1,1.42,1.42,1.42,1.42,0,0,1-1.42-1.42" transform="translate(0.54 0.54)"/><path class="cls-12" d="M154.75,249.74a1.42,1.42,0,1,1,1.42,1.42,1.43,1.43,0,0,1-1.42-1.42" transform="translate(0.54 0.54)"/><path class="cls-13" d="M154.75,249.74a1.42,1.42,0,1,1,1.42,1.42,1.43,1.43,0,0,1-1.42-1.42" transform="translate(0.54 0.54)"/><path class="cls-12" d="M141.61,151a1.42,1.42,0,1,1,1.42,1.42,1.43,1.43,0,0,1-1.42-1.42" transform="translate(0.54 0.54)"/><path class="cls-13" d="M141.61,151a1.42,1.42,0,1,1,1.42,1.42,1.43,1.43,0,0,1-1.42-1.42" transform="translate(0.54 0.54)"/><path class="cls-12" d="M151.06,161.34a1.42,1.42,0,1,1,1.42,1.42,1.43,1.43,0,0,1-1.42-1.42" transform="translate(0.54 0.54)"/><path class="cls-13" d="M151.06,161.34a1.42,1.42,0,1,1,1.42,1.42,1.43,1.43,0,0,1-1.42-1.42" transform="translate(0.54 0.54)"/><path class="cls-12" d="M152.09,188a1.42,1.42,0,1,1,1.42,1.42,1.43,1.43,0,0,1-1.42-1.42" transform="translate(0.54 0.54)"/><path class="cls-13" d="M152.09,188a1.42,1.42,0,1,1,1.42,1.42,1.43,1.43,0,0,1-1.42-1.42" transform="translate(0.54 0.54)"/><path class="cls-12" d="M142.63,222.37a1.42,1.42,0,1,1,1.42,1.42,1.43,1.43,0,0,1-1.42-1.42" transform="translate(0.54 0.54)"/><path class="cls-13" d="M142.63,222.37a1.42,1.42,0,1,1,1.42,1.42,1.43,1.43,0,0,1-1.42-1.42" transform="translate(0.54 0.54)"/><path class="cls-12" d="M163.46,180.74a1.42,1.42,0,1,1,1.42,1.43,1.43,1.43,0,0,1-1.42-1.43" transform="translate(0.54 0.54)"/><path class="cls-13" d="M163.46,180.74a1.42,1.42,0,1,1,1.42,1.43,1.43,1.43,0,0,1-1.42-1.43" transform="translate(0.54 0.54)"/><path class="cls-12" d="M177.79,195a1.42,1.42,0,1,1,1.42,1.43,1.43,1.43,0,0,1-1.42-1.43" transform="translate(0.54 0.54)"/><path class="cls-13" d="M177.79,195a1.42,1.42,0,1,1,1.42,1.43,1.43,1.43,0,0,1-1.42-1.43" transform="translate(0.54 0.54)"/><path class="cls-12" d="M173.52,207.23a1.42,1.42,0,1,1,1.42,1.42,1.43,1.43,0,0,1-1.42-1.42" transform="translate(0.54 0.54)"/><path class="cls-13" d="M173.52,207.23a1.42,1.42,0,1,1,1.42,1.42,1.43,1.43,0,0,1-1.42-1.42" transform="translate(0.54 0.54)"/><path class="cls-12" d="M180.26,256.21a1.43,1.43,0,1,1,1.43,1.42,1.43,1.43,0,0,1-1.43-1.42" transform="translate(0.54 0.54)"/><path class="cls-13" d="M180.26,256.21a1.43,1.43,0,1,1,1.43,1.42,1.43,1.43,0,0,1-1.43-1.42" transform="translate(0.54 0.54)"/><path class="cls-12" d="M160.36,160.35a1.42,1.42,0,1,1,1.42,1.42,1.43,1.43,0,0,1-1.42-1.42" transform="translate(0.54 0.54)"/><path class="cls-13" d="M160.36,160.35a1.42,1.42,0,1,1,1.42,1.42,1.43,1.43,0,0,1-1.42-1.42" transform="translate(0.54 0.54)"/><path class="cls-12" d="M150.57,167.38A1.42,1.42,0,1,1,152,168.8a1.43,1.43,0,0,1-1.42-1.42" transform="translate(0.54 0.54)"/><path class="cls-13" d="M150.57,167.38A1.42,1.42,0,1,1,152,168.8a1.43,1.43,0,0,1-1.42-1.42" transform="translate(0.54 0.54)"/><path class="cls-12" d="M176.54,192.57A1.43,1.43,0,1,1,178,194a1.43,1.43,0,0,1-1.43-1.42" transform="translate(0.54 0.54)"/><path class="cls-13" d="M176.54,192.57A1.43,1.43,0,1,1,178,194a1.43,1.43,0,0,1-1.43-1.42" transform="translate(0.54 0.54)"/><path class="cls-12" d="M150.1,187a1.42,1.42,0,1,1,1.42,1.42A1.43,1.43,0,0,1,150.1,187" transform="translate(0.54 0.54)"/><path class="cls-13" d="M150.1,187a1.42,1.42,0,1,1,1.42,1.42A1.43,1.43,0,0,1,150.1,187" transform="translate(0.54 0.54)"/><path class="cls-12" d="M141.9,196.52a1.42,1.42,0,1,1,1.42,1.42,1.43,1.43,0,0,1-1.42-1.42" transform="translate(0.54 0.54)"/><path class="cls-13" d="M141.9,196.52a1.42,1.42,0,1,1,1.42,1.42,1.43,1.43,0,0,1-1.42-1.42" transform="translate(0.54 0.54)"/><path class="cls-12" d="M152.88,276.56A1.42,1.42,0,1,1,154.3,278a1.43,1.43,0,0,1-1.42-1.42" transform="translate(0.54 0.54)"/><path class="cls-13" d="M152.88,276.56A1.42,1.42,0,1,1,154.3,278a1.43,1.43,0,0,1-1.42-1.42" transform="translate(0.54 0.54)"/><path class="cls-12" d="M168.88,155.88a1.42,1.42,0,1,1,1.42,1.42,1.43,1.43,0,0,1-1.42-1.42" transform="translate(0.54 0.54)"/><path class="cls-13" d="M168.88,155.88a1.42,1.42,0,1,1,1.42,1.42,1.43,1.43,0,0,1-1.42-1.42" transform="translate(0.54 0.54)"/><path class="cls-12" d="M150.11,147.58a1.42,1.42,0,1,1,1.42,1.42,1.43,1.43,0,0,1-1.42-1.42" transform="translate(0.54 0.54)"/><path class="cls-13" d="M150.11,147.58a1.42,1.42,0,1,1,1.42,1.42,1.43,1.43,0,0,1-1.42-1.42" transform="translate(0.54 0.54)"/><path class="cls-12" d="M144.67,189.6a1.42,1.42,0,1,1,1.42,1.42,1.43,1.43,0,0,1-1.42-1.42" transform="translate(0.54 0.54)"/><path class="cls-13" d="M144.67,189.6a1.42,1.42,0,1,1,1.42,1.42,1.43,1.43,0,0,1-1.42-1.42" transform="translate(0.54 0.54)"/><path class="cls-12" d="M164.65,203.62a1.42,1.42,0,1,1,1.42,1.43,1.43,1.43,0,0,1-1.42-1.43" transform="translate(0.54 0.54)"/><path class="cls-13" d="M164.65,203.62a1.42,1.42,0,1,1,1.42,1.43,1.43,1.43,0,0,1-1.42-1.43" transform="translate(0.54 0.54)"/><path class="cls-12" d="M142,261.66a1.42,1.42,0,1,1,1.42,1.42,1.43,1.43,0,0,1-1.42-1.42" transform="translate(0.54 0.54)"/><path class="cls-13" d="M142,261.66a1.42,1.42,0,1,1,1.42,1.42,1.43,1.43,0,0,1-1.42-1.42" transform="translate(0.54 0.54)"/><path class="cls-12" d="M157.43,167.21a1.42,1.42,0,1,1,1.42,1.42,1.43,1.43,0,0,1-1.42-1.42" transform="translate(0.54 0.54)"/><path class="cls-13" d="M157.43,167.21a1.42,1.42,0,1,1,1.42,1.42,1.43,1.43,0,0,1-1.42-1.42" transform="translate(0.54 0.54)"/><path class="cls-12" d="M172.56,190.73a1.42,1.42,0,1,1,1.42,1.42,1.43,1.43,0,0,1-1.42-1.42" transform="translate(0.54 0.54)"/><path class="cls-13" d="M172.56,190.73a1.42,1.42,0,1,1,1.42,1.42,1.43,1.43,0,0,1-1.42-1.42" transform="translate(0.54 0.54)"/><path class="cls-14" d="M85.8,137.8a1.43,1.43,0,1,1,1.42,1.42,1.43,1.43,0,0,1-1.42-1.42" transform="translate(0.54 0.54)"/><path class="cls-15" d="M85.8,137.8a1.43,1.43,0,1,1,1.42,1.42,1.43,1.43,0,0,1-1.42-1.42" transform="translate(0.54 0.54)"/><path class="cls-14" d="M57.22,139a1.42,1.42,0,1,1,1.42,1.42A1.43,1.43,0,0,1,57.22,139" transform="translate(0.54 0.54)"/><path class="cls-15" d="M57.22,139a1.42,1.42,0,1,1,1.42,1.42A1.43,1.43,0,0,1,57.22,139" transform="translate(0.54 0.54)"/><path class="cls-14" d="M57,150.72a1.43,1.43,0,1,1,1.43,1.42A1.43,1.43,0,0,1,57,150.72" transform="translate(0.54 0.54)"/><path class="cls-15" d="M57,150.72a1.43,1.43,0,1,1,1.43,1.42A1.43,1.43,0,0,1,57,150.72" transform="translate(0.54 0.54)"/><path class="cls-14" d="M90,95.23a1.42,1.42,0,1,1,1.42,1.42A1.43,1.43,0,0,1,90,95.23" transform="translate(0.54 0.54)"/><path class="cls-15" d="M90,95.23a1.42,1.42,0,1,1,1.42,1.42A1.43,1.43,0,0,1,90,95.23" transform="translate(0.54 0.54)"/><path class="cls-14" d="M71.36,150.85a1.42,1.42,0,1,1,1.42,1.42,1.43,1.43,0,0,1-1.42-1.42" transform="translate(0.54 0.54)"/><path class="cls-15" d="M71.36,150.85a1.42,1.42,0,1,1,1.42,1.42,1.43,1.43,0,0,1-1.42-1.42" transform="translate(0.54 0.54)"/><path class="cls-14" d="M60.48,244.82a1.43,1.43,0,1,1,1.42,1.42,1.43,1.43,0,0,1-1.42-1.42" transform="translate(0.54 0.54)"/><path class="cls-15" d="M60.48,244.82a1.43,1.43,0,1,1,1.42,1.42,1.43,1.43,0,0,1-1.42-1.42" transform="translate(0.54 0.54)"/><path class="cls-14" d="M96.76,153.24a1.43,1.43,0,1,1,1.43,1.42,1.43,1.43,0,0,1-1.43-1.42" transform="translate(0.54 0.54)"/><path class="cls-15" d="M96.76,153.24a1.43,1.43,0,1,1,1.43,1.42,1.43,1.43,0,0,1-1.43-1.42" transform="translate(0.54 0.54)"/><path class="cls-14" d="M93.6,142.35A1.42,1.42,0,1,1,95,143.77a1.43,1.43,0,0,1-1.42-1.42" transform="translate(0.54 0.54)"/><path class="cls-15" d="M93.6,142.35A1.42,1.42,0,1,1,95,143.77a1.43,1.43,0,0,1-1.42-1.42" transform="translate(0.54 0.54)"/><path class="cls-14" d="M71.8,95.18a1.42,1.42,0,1,1,1.42,1.42,1.43,1.43,0,0,1-1.42-1.42" transform="translate(0.54 0.54)"/><path class="cls-15" d="M71.8,95.18a1.42,1.42,0,1,1,1.42,1.42,1.43,1.43,0,0,1-1.42-1.42" transform="translate(0.54 0.54)"/><path class="cls-14" d="M59.45,75.17a1.42,1.42,0,1,1,1.42,1.42,1.42,1.42,0,0,1-1.42-1.42" transform="translate(0.54 0.54)"/><path class="cls-15" d="M59.45,75.17a1.42,1.42,0,1,1,1.42,1.42,1.42,1.42,0,0,1-1.42-1.42" transform="translate(0.54 0.54)"/><path class="cls-14" d="M97.45,83a1.43,1.43,0,1,1,1.42,1.42A1.43,1.43,0,0,1,97.45,83" transform="translate(0.54 0.54)"/><path class="cls-15" d="M97.45,83a1.43,1.43,0,1,1,1.42,1.42A1.43,1.43,0,0,1,97.45,83" transform="translate(0.54 0.54)"/><path class="cls-14" d="M58.8,102.16a1.43,1.43,0,1,1,1.43,1.42,1.43,1.43,0,0,1-1.43-1.42" transform="translate(0.54 0.54)"/><path class="cls-15" d="M58.8,102.16a1.43,1.43,0,1,1,1.43,1.42,1.43,1.43,0,0,1-1.43-1.42" transform="translate(0.54 0.54)"/><path class="cls-14" d="M73.33,79.56A1.42,1.42,0,1,1,74.75,81a1.43,1.43,0,0,1-1.42-1.42" transform="translate(0.54 0.54)"/><path class="cls-15" d="M73.33,79.56A1.42,1.42,0,1,1,74.75,81a1.43,1.43,0,0,1-1.42-1.42" transform="translate(0.54 0.54)"/><path class="cls-14" d="M88.6,91.32A1.42,1.42,0,1,1,90,92.74a1.43,1.43,0,0,1-1.42-1.42" transform="translate(0.54 0.54)"/><path class="cls-15" d="M88.6,91.32A1.42,1.42,0,1,1,90,92.74a1.43,1.43,0,0,1-1.42-1.42" transform="translate(0.54 0.54)"/><path class="cls-14" d="M77.85,105.41a1.42,1.42,0,1,1,1.42,1.42,1.43,1.43,0,0,1-1.42-1.42" transform="translate(0.54 0.54)"/><path class="cls-15" d="M77.85,105.41a1.42,1.42,0,1,1,1.42,1.42,1.43,1.43,0,0,1-1.42-1.42" transform="translate(0.54 0.54)"/><path class="cls-14" d="M75.63,135.64a1.42,1.42,0,1,1,1.42,1.42,1.43,1.43,0,0,1-1.42-1.42" transform="translate(0.54 0.54)"/><path class="cls-15" d="M75.63,135.64a1.42,1.42,0,1,1,1.42,1.42,1.43,1.43,0,0,1-1.42-1.42" transform="translate(0.54 0.54)"/><path class="cls-14" d="M58.52,103.84a1.42,1.42,0,1,1,1.42,1.42,1.43,1.43,0,0,1-1.42-1.42" transform="translate(0.54 0.54)"/><path class="cls-15" d="M58.52,103.84a1.42,1.42,0,1,1,1.42,1.42,1.43,1.43,0,0,1-1.42-1.42" transform="translate(0.54 0.54)"/><path class="cls-14" d="M80.5,152.68a1.42,1.42,0,1,1,1.42,1.42,1.43,1.43,0,0,1-1.42-1.42" transform="translate(0.54 0.54)"/><path class="cls-15" d="M80.5,152.68a1.42,1.42,0,1,1,1.42,1.42,1.43,1.43,0,0,1-1.42-1.42" transform="translate(0.54 0.54)"/><path class="cls-14" d="M69.26,173.83a1.42,1.42,0,1,1,1.42,1.42,1.43,1.43,0,0,1-1.42-1.42" transform="translate(0.54 0.54)"/><path class="cls-15" d="M69.26,173.83a1.42,1.42,0,1,1,1.42,1.42,1.43,1.43,0,0,1-1.42-1.42" transform="translate(0.54 0.54)"/><path class="cls-14" d="M69.32,204a1.42,1.42,0,1,1,1.42,1.42A1.43,1.43,0,0,1,69.32,204" transform="translate(0.54 0.54)"/><path class="cls-15" d="M69.32,204a1.42,1.42,0,1,1,1.42,1.42A1.43,1.43,0,0,1,69.32,204" transform="translate(0.54 0.54)"/><path class="cls-14" d="M67.86,132.26a1.43,1.43,0,1,1,1.43,1.42,1.43,1.43,0,0,1-1.43-1.42" transform="translate(0.54 0.54)"/><path class="cls-15" d="M67.86,132.26a1.43,1.43,0,1,1,1.43,1.42,1.43,1.43,0,0,1-1.43-1.42" transform="translate(0.54 0.54)"/><path class="cls-14" d="M84.47,178.36a1.43,1.43,0,1,1,1.43,1.42,1.43,1.43,0,0,1-1.43-1.42" transform="translate(0.54 0.54)"/><path class="cls-15" d="M84.47,178.36a1.43,1.43,0,1,1,1.43,1.42,1.43,1.43,0,0,1-1.43-1.42" transform="translate(0.54 0.54)"/><path class="cls-14" d="M94.1,139.79a1.43,1.43,0,1,1,1.42,1.42,1.43,1.43,0,0,1-1.42-1.42" transform="translate(0.54 0.54)"/><path class="cls-15" d="M94.1,139.79a1.43,1.43,0,1,1,1.42,1.42,1.43,1.43,0,0,1-1.42-1.42" transform="translate(0.54 0.54)"/><path class="cls-14" d="M58.24,127.24a1.42,1.42,0,1,1,1.42,1.43,1.43,1.43,0,0,1-1.42-1.43" transform="translate(0.54 0.54)"/><path class="cls-15" d="M58.24,127.24a1.42,1.42,0,1,1,1.42,1.43,1.43,1.43,0,0,1-1.42-1.43" transform="translate(0.54 0.54)"/><path class="cls-14" d="M78.57,123.4A1.42,1.42,0,1,1,80,124.82a1.43,1.43,0,0,1-1.42-1.42" transform="translate(0.54 0.54)"/><path class="cls-15" d="M78.57,123.4A1.42,1.42,0,1,1,80,124.82a1.43,1.43,0,0,1-1.42-1.42" transform="translate(0.54 0.54)"/><path class="cls-14" d="M69,125.17a1.42,1.42,0,1,1,1.42,1.42A1.43,1.43,0,0,1,69,125.17" transform="translate(0.54 0.54)"/><path class="cls-15" d="M69,125.17a1.42,1.42,0,1,1,1.42,1.42A1.43,1.43,0,0,1,69,125.17" transform="translate(0.54 0.54)"/><path class="cls-14" d="M69.36,155.61A1.42,1.42,0,1,1,70.78,157a1.43,1.43,0,0,1-1.42-1.42" transform="translate(0.54 0.54)"/><path class="cls-15" d="M69.36,155.61A1.42,1.42,0,1,1,70.78,157a1.43,1.43,0,0,1-1.42-1.42" transform="translate(0.54 0.54)"/><path class="cls-14" d="M72.14,175.2a1.42,1.42,0,1,1,1.42,1.42,1.43,1.43,0,0,1-1.42-1.42" transform="translate(0.54 0.54)"/><path class="cls-15" d="M72.14,175.2a1.42,1.42,0,1,1,1.42,1.42,1.43,1.43,0,0,1-1.42-1.42" transform="translate(0.54 0.54)"/><path class="cls-14" d="M80.9,140.47a1.42,1.42,0,1,1,1.42,1.42,1.43,1.43,0,0,1-1.42-1.42" transform="translate(0.54 0.54)"/><path class="cls-15" d="M80.9,140.47a1.42,1.42,0,1,1,1.42,1.42,1.43,1.43,0,0,1-1.42-1.42" transform="translate(0.54 0.54)"/><path class="cls-14" d="M74.12,205a1.42,1.42,0,1,1,1.42,1.42A1.43,1.43,0,0,1,74.12,205" transform="translate(0.54 0.54)"/><path class="cls-15" d="M74.12,205a1.42,1.42,0,1,1,1.42,1.42A1.43,1.43,0,0,1,74.12,205" transform="translate(0.54 0.54)"/><path class="cls-14" d="M73.2,158.89a1.43,1.43,0,1,1,1.43,1.42,1.43,1.43,0,0,1-1.43-1.42" transform="translate(0.54 0.54)"/><path class="cls-15" d="M73.2,158.89a1.43,1.43,0,1,1,1.43,1.42,1.43,1.43,0,0,1-1.43-1.42" transform="translate(0.54 0.54)"/><path class="cls-14" d="M98,204.85a1.42,1.42,0,1,1,1.42,1.42A1.43,1.43,0,0,1,98,204.85" transform="translate(0.54 0.54)"/><path class="cls-15" d="M98,204.85a1.42,1.42,0,1,1,1.42,1.42A1.43,1.43,0,0,1,98,204.85" transform="translate(0.54 0.54)"/><path class="cls-14" d="M68.93,216a1.43,1.43,0,1,1,1.42,1.42A1.43,1.43,0,0,1,68.93,216" transform="translate(0.54 0.54)"/><path class="cls-15" d="M68.93,216a1.43,1.43,0,1,1,1.42,1.42A1.43,1.43,0,0,1,68.93,216" transform="translate(0.54 0.54)"/><path class="cls-14" d="M66.79,308.29a1.43,1.43,0,1,1,1.43,1.42,1.43,1.43,0,0,1-1.43-1.42" transform="translate(0.54 0.54)"/><path class="cls-15" d="M66.79,308.29a1.43,1.43,0,1,1,1.43,1.42,1.43,1.43,0,0,1-1.43-1.42" transform="translate(0.54 0.54)"/><path class="cls-14" d="M83.85,209.54A1.42,1.42,0,1,1,85.27,211a1.42,1.42,0,0,1-1.42-1.42" transform="translate(0.54 0.54)"/><path class="cls-15" d="M83.85,209.54A1.42,1.42,0,1,1,85.27,211a1.42,1.42,0,0,1-1.42-1.42" transform="translate(0.54 0.54)"/><path class="cls-14" d="M82.35,146.85a1.43,1.43,0,1,1,1.42,1.42,1.43,1.43,0,0,1-1.42-1.42" transform="translate(0.54 0.54)"/><path class="cls-15" d="M82.35,146.85a1.43,1.43,0,1,1,1.42,1.42,1.43,1.43,0,0,1-1.42-1.42" transform="translate(0.54 0.54)"/><path class="cls-14" d="M65.87,151.36a1.42,1.42,0,1,1,1.42,1.42,1.43,1.43,0,0,1-1.42-1.42" transform="translate(0.54 0.54)"/><path class="cls-15" d="M65.87,151.36a1.42,1.42,0,1,1,1.42,1.42,1.43,1.43,0,0,1-1.42-1.42" transform="translate(0.54 0.54)"/><path class="cls-14" d="M75.51,125.61A1.42,1.42,0,1,1,76.93,127a1.43,1.43,0,0,1-1.42-1.42" transform="translate(0.54 0.54)"/><path class="cls-15" d="M75.51,125.61A1.42,1.42,0,1,1,76.93,127a1.43,1.43,0,0,1-1.42-1.42" transform="translate(0.54 0.54)"/><path class="cls-14" d="M78.82,141.43a1.42,1.42,0,1,1,1.42,1.42,1.42,1.42,0,0,1-1.42-1.42" transform="translate(0.54 0.54)"/><path class="cls-15" d="M78.82,141.43a1.42,1.42,0,1,1,1.42,1.42,1.42,1.42,0,0,1-1.42-1.42" transform="translate(0.54 0.54)"/><path class="cls-14" d="M94.7,74.28a1.42,1.42,0,1,1,1.42,1.43,1.43,1.43,0,0,1-1.42-1.43" transform="translate(0.54 0.54)"/><path class="cls-15" d="M94.7,74.28a1.42,1.42,0,1,1,1.42,1.43,1.43,1.43,0,0,1-1.42-1.43" transform="translate(0.54 0.54)"/><path class="cls-14" d="M96,72.25a1.43,1.43,0,1,1,1.43,1.42A1.42,1.42,0,0,1,96,72.25" transform="translate(0.54 0.54)"/><path class="cls-15" d="M96,72.25a1.43,1.43,0,1,1,1.43,1.42A1.42,1.42,0,0,1,96,72.25" transform="translate(0.54 0.54)"/><path class="cls-14" d="M66.12,141.3a1.42,1.42,0,1,1,1.42,1.42,1.43,1.43,0,0,1-1.42-1.42" transform="translate(0.54 0.54)"/><path class="cls-15" d="M66.12,141.3a1.42,1.42,0,1,1,1.42,1.42,1.43,1.43,0,0,1-1.42-1.42" transform="translate(0.54 0.54)"/><path class="cls-14" d="M73.75,95.39a1.42,1.42,0,1,1,1.42,1.42,1.43,1.43,0,0,1-1.42-1.42" transform="translate(0.54 0.54)"/><path class="cls-15" d="M73.75,95.39a1.42,1.42,0,1,1,1.42,1.42,1.43,1.43,0,0,1-1.42-1.42" transform="translate(0.54 0.54)"/><path class="cls-14" d="M60.2,103.25a1.42,1.42,0,1,1,1.42,1.43,1.43,1.43,0,0,1-1.42-1.43" transform="translate(0.54 0.54)"/><path class="cls-15" d="M60.2,103.25a1.42,1.42,0,1,1,1.42,1.43,1.43,1.43,0,0,1-1.42-1.43" transform="translate(0.54 0.54)"/><path class="cls-14" d="M74.75,91.5a1.42,1.42,0,1,1,1.42,1.42,1.43,1.43,0,0,1-1.42-1.42" transform="translate(0.54 0.54)"/><path class="cls-15" d="M74.75,91.5a1.42,1.42,0,1,1,1.42,1.42,1.43,1.43,0,0,1-1.42-1.42" transform="translate(0.54 0.54)"/><path class="cls-14" d="M95.28,120.09a1.42,1.42,0,1,1,1.42,1.42,1.43,1.43,0,0,1-1.42-1.42" transform="translate(0.54 0.54)"/><path class="cls-15" d="M95.28,120.09a1.42,1.42,0,1,1,1.42,1.42,1.43,1.43,0,0,1-1.42-1.42" transform="translate(0.54 0.54)"/><path class="cls-14" d="M80,89.4a1.43,1.43,0,1,1,1.42,1.43A1.43,1.43,0,0,1,80,89.4" transform="translate(0.54 0.54)"/><path class="cls-15" d="M80,89.4a1.43,1.43,0,1,1,1.42,1.43A1.43,1.43,0,0,1,80,89.4" transform="translate(0.54 0.54)"/><path class="cls-14" d="M85,119.18a1.42,1.42,0,1,1,1.42,1.43A1.43,1.43,0,0,1,85,119.18" transform="translate(0.54 0.54)"/><path class="cls-15" d="M85,119.18a1.42,1.42,0,1,1,1.42,1.43A1.43,1.43,0,0,1,85,119.18" transform="translate(0.54 0.54)"/><path class="cls-14" d="M59.51,209.65a1.42,1.42,0,1,1,1.42,1.42,1.43,1.43,0,0,1-1.42-1.42" transform="translate(0.54 0.54)"/><path class="cls-15" d="M59.51,209.65a1.42,1.42,0,1,1,1.42,1.42,1.43,1.43,0,0,1-1.42-1.42" transform="translate(0.54 0.54)"/><path class="cls-14" d="M75,112.76a1.42,1.42,0,1,1,1.42,1.42A1.43,1.43,0,0,1,75,112.76" transform="translate(0.54 0.54)"/><path class="cls-15" d="M75,112.76a1.42,1.42,0,1,1,1.42,1.42A1.43,1.43,0,0,1,75,112.76" transform="translate(0.54 0.54)"/><path class="cls-14" d="M88.64,150.19a1.42,1.42,0,1,1,1.42,1.43,1.43,1.43,0,0,1-1.42-1.43" transform="translate(0.54 0.54)"/><path class="cls-15" d="M88.64,150.19a1.42,1.42,0,1,1,1.42,1.43,1.43,1.43,0,0,1-1.42-1.43" transform="translate(0.54 0.54)"/><path class="cls-14" d="M85,106.51a1.42,1.42,0,1,1,1.42,1.42A1.43,1.43,0,0,1,85,106.51" transform="translate(0.54 0.54)"/><path class="cls-15" d="M85,106.51a1.42,1.42,0,1,1,1.42,1.42A1.43,1.43,0,0,1,85,106.51" transform="translate(0.54 0.54)"/><path class="cls-14" d="M88.65,126.53A1.43,1.43,0,1,1,90.07,128a1.43,1.43,0,0,1-1.42-1.43" transform="translate(0.54 0.54)"/><path class="cls-15" d="M88.65,126.53A1.43,1.43,0,1,1,90.07,128a1.43,1.43,0,0,1-1.42-1.43" transform="translate(0.54 0.54)"/><path class="cls-14" d="M71.35,156a1.43,1.43,0,1,1,1.42,1.42A1.42,1.42,0,0,1,71.35,156" transform="translate(0.54 0.54)"/><path class="cls-15" d="M71.35,156a1.43,1.43,0,1,1,1.42,1.42A1.42,1.42,0,0,1,71.35,156" transform="translate(0.54 0.54)"/><path class="cls-14" d="M87,243.7a1.42,1.42,0,1,1,1.42,1.42A1.43,1.43,0,0,1,87,243.7" transform="translate(0.54 0.54)"/><path class="cls-15" d="M87,243.7a1.42,1.42,0,1,1,1.42,1.42A1.43,1.43,0,0,1,87,243.7" transform="translate(0.54 0.54)"/><path class="cls-14" d="M92.46,92.88a1.42,1.42,0,1,1,1.42,1.42,1.43,1.43,0,0,1-1.42-1.42" transform="translate(0.54 0.54)"/><path class="cls-15" d="M92.46,92.88a1.42,1.42,0,1,1,1.42,1.42,1.43,1.43,0,0,1-1.42-1.42" transform="translate(0.54 0.54)"/><path class="cls-14" d="M78.38,113.33a1.42,1.42,0,1,1,1.42,1.43,1.43,1.43,0,0,1-1.42-1.43" transform="translate(0.54 0.54)"/><path class="cls-15" d="M78.38,113.33a1.42,1.42,0,1,1,1.42,1.43,1.43,1.43,0,0,1-1.42-1.43" transform="translate(0.54 0.54)"/><path class="cls-14" d="M59.62,165.71A1.43,1.43,0,1,1,61,167.13a1.43,1.43,0,0,1-1.42-1.42" transform="translate(0.54 0.54)"/><path class="cls-15" d="M59.62,165.71A1.43,1.43,0,1,1,61,167.13a1.43,1.43,0,0,1-1.42-1.42" transform="translate(0.54 0.54)"/><path class="cls-14" d="M84.41,191.77a1.42,1.42,0,1,1,1.42,1.42,1.43,1.43,0,0,1-1.42-1.42" transform="translate(0.54 0.54)"/><path class="cls-15" d="M84.41,191.77a1.42,1.42,0,1,1,1.42,1.42,1.43,1.43,0,0,1-1.42-1.42" transform="translate(0.54 0.54)"/><path class="cls-14" d="M96,234.22a1.42,1.42,0,1,1,1.42,1.42A1.42,1.42,0,0,1,96,234.22" transform="translate(0.54 0.54)"/><path class="cls-15" d="M96,234.22a1.42,1.42,0,1,1,1.42,1.42A1.42,1.42,0,0,1,96,234.22" transform="translate(0.54 0.54)"/><path class="cls-14" d="M89.45,143a1.42,1.42,0,1,1,1.42,1.42A1.43,1.43,0,0,1,89.45,143" transform="translate(0.54 0.54)"/><path class="cls-15" d="M89.45,143a1.42,1.42,0,1,1,1.42,1.42A1.43,1.43,0,0,1,89.45,143" transform="translate(0.54 0.54)"/><path class="cls-14" d="M81.53,134.59A1.42,1.42,0,1,1,83,136a1.43,1.43,0,0,1-1.42-1.42" transform="translate(0.54 0.54)"/><path class="cls-15" d="M81.53,134.59A1.42,1.42,0,1,1,83,136a1.43,1.43,0,0,1-1.42-1.42" transform="translate(0.54 0.54)"/><path class="cls-14" d="M79.42,174.43a1.42,1.42,0,1,1,1.42,1.42,1.43,1.43,0,0,1-1.42-1.42" transform="translate(0.54 0.54)"/><path class="cls-15" d="M79.42,174.43a1.42,1.42,0,1,1,1.42,1.42,1.43,1.43,0,0,1-1.42-1.42" transform="translate(0.54 0.54)"/><path class="cls-14" d="M64.68,201.59A1.42,1.42,0,1,1,66.1,203a1.43,1.43,0,0,1-1.42-1.42" transform="translate(0.54 0.54)"/><path class="cls-15" d="M64.68,201.59A1.42,1.42,0,1,1,66.1,203a1.43,1.43,0,0,1-1.42-1.42" transform="translate(0.54 0.54)"/><path class="cls-14" d="M88.07,182.94a1.42,1.42,0,1,1,1.42,1.42,1.43,1.43,0,0,1-1.42-1.42" transform="translate(0.54 0.54)"/><path class="cls-15" d="M88.07,182.94a1.42,1.42,0,1,1,1.42,1.42,1.43,1.43,0,0,1-1.42-1.42" transform="translate(0.54 0.54)"/><path class="cls-14" d="M77.7,186a1.42,1.42,0,1,1,1.42,1.42A1.43,1.43,0,0,1,77.7,186" transform="translate(0.54 0.54)"/><path class="cls-15" d="M77.7,186a1.42,1.42,0,1,1,1.42,1.42A1.43,1.43,0,0,1,77.7,186" transform="translate(0.54 0.54)"/><path class="cls-14" d="M87.77,196.38a1.42,1.42,0,1,1,1.42,1.42,1.43,1.43,0,0,1-1.42-1.42" transform="translate(0.54 0.54)"/><path class="cls-15" d="M87.77,196.38a1.42,1.42,0,1,1,1.42,1.42,1.43,1.43,0,0,1-1.42-1.42" transform="translate(0.54 0.54)"/><path class="cls-14" d="M61.42,241.05a1.42,1.42,0,1,1,1.42,1.43,1.43,1.43,0,0,1-1.42-1.43" transform="translate(0.54 0.54)"/><path class="cls-15" d="M61.42,241.05a1.42,1.42,0,1,1,1.42,1.43,1.43,1.43,0,0,1-1.42-1.43" transform="translate(0.54 0.54)"/><path class="cls-14" d="M75.53,142.62A1.42,1.42,0,1,1,77,144a1.43,1.43,0,0,1-1.42-1.42" transform="translate(0.54 0.54)"/><path class="cls-15" d="M75.53,142.62A1.42,1.42,0,1,1,77,144a1.43,1.43,0,0,1-1.42-1.42" transform="translate(0.54 0.54)"/><path class="cls-14" d="M81.07,146.74a1.42,1.42,0,1,1,1.42,1.42,1.43,1.43,0,0,1-1.42-1.42" transform="translate(0.54 0.54)"/><path class="cls-15" d="M81.07,146.74a1.42,1.42,0,1,1,1.42,1.42,1.43,1.43,0,0,1-1.42-1.42" transform="translate(0.54 0.54)"/><path class="cls-14" d="M97.45,171.53A1.42,1.42,0,1,1,98.87,173a1.43,1.43,0,0,1-1.42-1.42" transform="translate(0.54 0.54)"/><path class="cls-15" d="M97.45,171.53A1.42,1.42,0,1,1,98.87,173a1.43,1.43,0,0,1-1.42-1.42" transform="translate(0.54 0.54)"/><path class="cls-14" d="M67.79,195.66a1.42,1.42,0,1,1,1.42,1.42,1.43,1.43,0,0,1-1.42-1.42" transform="translate(0.54 0.54)"/><path class="cls-15" d="M67.79,195.66a1.42,1.42,0,1,1,1.42,1.42,1.43,1.43,0,0,1-1.42-1.42" transform="translate(0.54 0.54)"/><path class="cls-14" d="M70.65,177.17a1.42,1.42,0,1,1,1.42,1.42,1.43,1.43,0,0,1-1.42-1.42" transform="translate(0.54 0.54)"/><path class="cls-15" d="M70.65,177.17a1.42,1.42,0,1,1,1.42,1.42,1.43,1.43,0,0,1-1.42-1.42" transform="translate(0.54 0.54)"/><path class="cls-14" d="M85.71,257.83a1.43,1.43,0,1,1,1.42,1.42,1.43,1.43,0,0,1-1.42-1.42" transform="translate(0.54 0.54)"/><path class="cls-15" d="M85.71,257.83a1.43,1.43,0,1,1,1.42,1.42,1.43,1.43,0,0,1-1.42-1.42" transform="translate(0.54 0.54)"/><path class="cls-14" d="M84.83,139.57A1.42,1.42,0,1,1,86.25,141a1.43,1.43,0,0,1-1.42-1.42" transform="translate(0.54 0.54)"/><path class="cls-15" d="M84.83,139.57A1.42,1.42,0,1,1,86.25,141a1.43,1.43,0,0,1-1.42-1.42" transform="translate(0.54 0.54)"/><path class="cls-14" d="M58.5,134.47a1.42,1.42,0,1,1,1.42,1.42,1.43,1.43,0,0,1-1.42-1.42" transform="translate(0.54 0.54)"/><path class="cls-15" d="M58.5,134.47a1.42,1.42,0,1,1,1.42,1.42,1.43,1.43,0,0,1-1.42-1.42" transform="translate(0.54 0.54)"/><path class="cls-14" d="M79.86,166.85a1.42,1.42,0,1,1,1.42,1.42,1.43,1.43,0,0,1-1.42-1.42" transform="translate(0.54 0.54)"/><path class="cls-15" d="M79.86,166.85a1.42,1.42,0,1,1,1.42,1.42,1.43,1.43,0,0,1-1.42-1.42" transform="translate(0.54 0.54)"/><path class="cls-14" d="M93,182.47a1.42,1.42,0,1,1,1.42,1.42A1.43,1.43,0,0,1,93,182.47" transform="translate(0.54 0.54)"/><path class="cls-15" d="M93,182.47a1.42,1.42,0,1,1,1.42,1.42A1.43,1.43,0,0,1,93,182.47" transform="translate(0.54 0.54)"/><path class="cls-14" d="M57.86,223.5a1.42,1.42,0,1,1,1.42,1.42,1.43,1.43,0,0,1-1.42-1.42" transform="translate(0.54 0.54)"/><path class="cls-15" d="M57.86,223.5a1.42,1.42,0,1,1,1.42,1.42,1.43,1.43,0,0,1-1.42-1.42" transform="translate(0.54 0.54)"/><path class="cls-14" d="M83,146.69a1.42,1.42,0,1,1,1.42,1.42A1.43,1.43,0,0,1,83,146.69" transform="translate(0.54 0.54)"/><path class="cls-15" d="M83,146.69a1.42,1.42,0,1,1,1.42,1.42A1.43,1.43,0,0,1,83,146.69" transform="translate(0.54 0.54)"/><path class="cls-14" d="M78.13,174.24a1.42,1.42,0,1,1,1.42,1.42,1.43,1.43,0,0,1-1.42-1.42" transform="translate(0.54 0.54)"/><path class="cls-15" d="M78.13,174.24a1.42,1.42,0,1,1,1.42,1.42,1.43,1.43,0,0,1-1.42-1.42" transform="translate(0.54 0.54)"/><rect class="cls-16" x="30.22" y="6.02" width="180.84" height="324.49"/></g><path class="cls-17" d="M20.15,328.61v-.68a3.53,3.53,0,0,0,1.33-.31,1.52,1.52,0,0,0,.56-1h.69v7h-.94v-4.95Z" transform="translate(0.54 0.54)"/><path class="cls-17" d="M19.88,258.24A3,3,0,0,1,21.14,257l.94-.54a4,4,0,0,0,.88-.63,1.27,1.27,0,0,0,.4-.93,1.32,1.32,0,0,0-.36-1,1.35,1.35,0,0,0-1-.36,1.27,1.27,0,0,0-1.25.69,2.45,2.45,0,0,0-.2,1h-.9a3.19,3.19,0,0,1,.34-1.49,2.11,2.11,0,0,1,2-1,2.08,2.08,0,0,1,2.31,2.1,2,2,0,0,1-.59,1.43,6,6,0,0,1-1.23.84l-.67.37a4.37,4.37,0,0,0-.75.51,1.81,1.81,0,0,0-.62.94H24.3v.83H19.5A4.12,4.12,0,0,1,19.88,258.24Z" transform="translate(0.54 0.54)"/><path class="cls-17" d="M20,185.57a2.56,2.56,0,0,1-.56-1.66h.92a2.35,2.35,0,0,0,.25,1,1.34,1.34,0,0,0,1.24.55,1.6,1.6,0,0,0,1.11-.37,1.23,1.23,0,0,0,.42-1,1.12,1.12,0,0,0-.44-1,2.28,2.28,0,0,0-1.23-.29h-.36v-.77l.23,0h.2a1.74,1.74,0,0,0,.81-.16,1,1,0,0,0,.56-1,1,1,0,0,0-.38-.81,1.35,1.35,0,0,0-.86-.28,1.29,1.29,0,0,0-1.22.58,2.15,2.15,0,0,0-.21.92H19.6a2.64,2.64,0,0,1,.32-1.33,2,2,0,0,1,1.89-1,2.59,2.59,0,0,1,1.65.47,1.69,1.69,0,0,1,.59,1.38A1.57,1.57,0,0,1,23.7,182a1.61,1.61,0,0,1-.55.39,1.53,1.53,0,0,1,.86.58,1.82,1.82,0,0,1,.31,1.06,2.15,2.15,0,0,1-.66,1.63,2.61,2.61,0,0,1-1.87.63A2.2,2.2,0,0,1,20,185.57Z" transform="translate(0.54 0.54)"/><path class="cls-17" d="M22.51,112.31V110.6H19.44v-.86l3.21-4.44h.74v4.53h1v.77h-1v1.71Zm0-2.48v-3.17l-2.25,3.17Z" transform="translate(0.54 0.54)"/><path class="cls-17" d="M20.43,36.79a1.21,1.21,0,0,0,.69,1,1.67,1.67,0,0,0,.73.14A1.34,1.34,0,0,0,23,37.48a1.82,1.82,0,0,0,.38-1.11,1.43,1.43,0,0,0-.45-1.13,1.53,1.53,0,0,0-1.07-.4,1.61,1.61,0,0,0-.78.18,1.57,1.57,0,0,0-.55.48l-.76,0,.53-3.77h3.63v.85H21l-.3,2a2,2,0,0,1,.46-.28,2.35,2.35,0,0,1,.91-.16,2.29,2.29,0,0,1,1.63.62,2.07,2.07,0,0,1,.67,1.57A2.71,2.71,0,0,1,23.71,38a2.37,2.37,0,0,1-1.95.76,2.44,2.44,0,0,1-1.51-.49,1.89,1.89,0,0,1-.74-1.47Z" transform="translate(0.54 0.54)"/><line class="cls-18" x1="27.48" y1="330.5" x2="30.22" y2="330.5"/><line class="cls-18" x1="27.48" y1="256.76" x2="30.22" y2="256.76"/><line class="cls-18" x1="27.48" y1="183.01" x2="30.22" y2="183.01"/><line class="cls-18" x1="27.48" y1="109.26" x2="30.22" y2="109.26"/><line class="cls-18" x1="27.48" y1="35.52" x2="30.22" y2="35.52"/><line class="cls-18" x1="79.54" y1="333.24" x2="79.54" y2="330.5"/><line class="cls-18" x1="161.73" y1="333.24" x2="161.73" y2="330.5"/><path class="cls-17" d="M71.23,338.79a1.54,1.54,0,0,0,.22.79,1.45,1.45,0,0,0,1.31.57,2.35,2.35,0,0,0,.77-.12.88.88,0,0,0,.67-.87.78.78,0,0,0-.28-.67,3.08,3.08,0,0,0-.9-.34l-.76-.17a3.65,3.65,0,0,1-1-.38,1.2,1.2,0,0,1-.53-1.08,1.67,1.67,0,0,1,.52-1.27,2.06,2.06,0,0,1,1.47-.49,2.53,2.53,0,0,1,1.5.43,1.61,1.61,0,0,1,.61,1.39h-.73a1.51,1.51,0,0,0-.24-.7,1.36,1.36,0,0,0-1.16-.45,1.33,1.33,0,0,0-1,.29.91.91,0,0,0-.28.67.66.66,0,0,0,.34.62,5.43,5.43,0,0,0,1,.31l.78.18a2.35,2.35,0,0,1,.87.37A1.36,1.36,0,0,1,75,339a1.49,1.49,0,0,1-.68,1.37,3,3,0,0,1-1.57.41,2.31,2.31,0,0,1-1.63-.55,1.83,1.83,0,0,1-.58-1.47Z" transform="translate(0.54 0.54)"/><path class="cls-17" d="M76,334.9h1.11l1.65,4.85,1.64-4.85h1.1v5.74H80.8v-3.39c0-.11,0-.31,0-.58s0-.56,0-.87l-1.64,4.84h-.77l-1.66-4.84V336c0,.14,0,.35,0,.64s0,.5,0,.63v3.39H76Z" transform="translate(0.54 0.54)"/><path class="cls-17" d="M86.78,335.32a2.1,2.1,0,0,1,.66,1.3h-.76a1.52,1.52,0,0,0-.5-.87,1.59,1.59,0,0,0-1.07-.33,1.68,1.68,0,0,0-1.34.6,2.75,2.75,0,0,0-.51,1.82,2.68,2.68,0,0,0,.46,1.64,1.61,1.61,0,0,0,1.38.63,1.47,1.47,0,0,0,1.29-.66,2.53,2.53,0,0,0,.34-.92h.76a2.58,2.58,0,0,1-.66,1.52,2.32,2.32,0,0,1-1.82.74,2.39,2.39,0,0,1-1.66-.6,3.19,3.19,0,0,1-.89-2.48,3.15,3.15,0,0,1,.67-2.08,2.38,2.38,0,0,1,2-.88A2.33,2.33,0,0,1,86.78,335.32Z" transform="translate(0.54 0.54)"/><path class="cls-17" d="M153.68,334.9h2.61a2.48,2.48,0,0,1,1.06.19,1.37,1.37,0,0,1,.8,1.36,1.54,1.54,0,0,1-.21.84,1.62,1.62,0,0,1-.6.53,1.23,1.23,0,0,1,.51.36,1.38,1.38,0,0,1,.19.72l0,.77a2.39,2.39,0,0,0,.06.49.46.46,0,0,0,.25.35v.13h-1a1.45,1.45,0,0,1-.06-.19c0-.08,0-.23,0-.45l0-1a.83.83,0,0,0-.41-.76,1.68,1.68,0,0,0-.68-.1h-1.72v2.46h-.78Zm2.53,2.63a1.42,1.42,0,0,0,.84-.22.89.89,0,0,0,.31-.79.85.85,0,0,0-.43-.83,1.37,1.37,0,0,0-.62-.12h-1.85v2Z" transform="translate(0.54 0.54)"/><path class="cls-17" d="M159.44,334.9h4v.7h-3.2v1.75H163V338h-2.82v2.61h-.78Z" transform="translate(0.54 0.54)"/><path class="cls-17" d="M164.35,334.9H167a2.51,2.51,0,0,1,1.06.19,1.36,1.36,0,0,1,.79,1.36,1.54,1.54,0,0,1-.21.84,1.48,1.48,0,0,1-.6.53,1.11,1.11,0,0,1,.51.36,1.29,1.29,0,0,1,.19.72l0,.77a1.93,1.93,0,0,0,.05.49.48.48,0,0,0,.25.35v.13h-.95a.47.47,0,0,1-.06-.19,2.89,2.89,0,0,1,0-.45l0-1a.81.81,0,0,0-.41-.76,1.64,1.64,0,0,0-.68-.1h-1.72v2.46h-.77Zm2.52,2.63a1.38,1.38,0,0,0,.84-.22.89.89,0,0,0,.31-.79.83.83,0,0,0-.43-.83,1.34,1.34,0,0,0-.62-.12h-1.85v2Z" transform="translate(0.54 0.54)"/><path d="M87.08,345.15l2.06,6.11,2-6.11h1.09l-2.62,7.17h-1L86,345.15Z" transform="translate(0.54 0.54)"/><path d="M95.49,347.23a2.07,2.07,0,0,1,.8.68,2.42,2.42,0,0,1,.35.92,6.54,6.54,0,0,1,.07,1.16h-3.8a2.31,2.31,0,0,0,.37,1.28,1.25,1.25,0,0,0,1.08.48,1.36,1.36,0,0,0,1.09-.46,1.64,1.64,0,0,0,.33-.61h.86a1.72,1.72,0,0,1-.23.64,2.24,2.24,0,0,1-.43.58,2,2,0,0,1-1,.53,3.08,3.08,0,0,1-.71.08,2.18,2.18,0,0,1-1.65-.72,2.75,2.75,0,0,1-.67-2,3,3,0,0,1,.68-2.05,2.24,2.24,0,0,1,1.77-.79A2.38,2.38,0,0,1,95.49,347.23Zm.32,2.06a2.3,2.3,0,0,0-.25-.91,1.25,1.25,0,0,0-1.19-.64,1.33,1.33,0,0,0-1,.44,1.63,1.63,0,0,0-.43,1.11Z" transform="translate(0.54 0.54)"/><path d="M100.73,347.3a2.38,2.38,0,0,1,.51.5v-.66h.81v4.76a3.6,3.6,0,0,1-.29,1.57,2.1,2.1,0,0,1-2.06,1.06,2.49,2.49,0,0,1-1.42-.38,1.48,1.48,0,0,1-.64-1.18h.89a1.05,1.05,0,0,0,.26.54,1.24,1.24,0,0,0,.93.29,1.28,1.28,0,0,0,1.32-.71,4.34,4.34,0,0,0,.17-1.5,1.74,1.74,0,0,1-.64.6,2.07,2.07,0,0,1-1,.19,2.11,2.11,0,0,1-1.49-.6,2.67,2.67,0,0,1-.63-2,3,3,0,0,1,.64-2.05,2,2,0,0,1,1.54-.74A1.89,1.89,0,0,1,100.73,347.3Zm.11.94a1.35,1.35,0,0,0-2.28.4,3.45,3.45,0,0,0-.18,1.22,2.17,2.17,0,0,0,.36,1.35,1.18,1.18,0,0,0,1,.46,1.36,1.36,0,0,0,1.33-.86,2.81,2.81,0,0,0,.21-1.13A2.19,2.19,0,0,0,100.84,348.24Z" transform="translate(0.54 0.54)"/><path d="M106.62,347.23a2,2,0,0,1,.79.68,2.42,2.42,0,0,1,.35.92,6.33,6.33,0,0,1,.08,1.16H104a2.23,2.23,0,0,0,.38,1.28,1.24,1.24,0,0,0,1.08.48,1.39,1.39,0,0,0,1.09-.46,1.62,1.62,0,0,0,.32-.61h.86a1.88,1.88,0,0,1-.22.64,2.5,2.5,0,0,1-.43.58,2.07,2.07,0,0,1-1,.53,3.08,3.08,0,0,1-.71.08,2.18,2.18,0,0,1-1.65-.72,2.75,2.75,0,0,1-.67-2,3,3,0,0,1,.68-2.05,2.24,2.24,0,0,1,1.78-.79A2.44,2.44,0,0,1,106.62,347.23Zm.31,2.06a2.31,2.31,0,0,0-.24-.91,1.26,1.26,0,0,0-1.2-.64,1.33,1.33,0,0,0-1,.44,1.68,1.68,0,0,0-.43,1.11Z" transform="translate(0.54 0.54)"/><path d="M109.12,345.63H110v1.46h.84v.72H110v3.41a.38.38,0,0,0,.19.37.9.9,0,0,0,.34.05h.14l.17,0v.7a1.65,1.65,0,0,1-.32.06,1.94,1.94,0,0,1-.35,0,1,1,0,0,1-.84-.31,1.45,1.45,0,0,1-.22-.82v-3.46h-.7v-.72h.7Z" transform="translate(0.54 0.54)"/><path d="M114.53,349.16a.51.51,0,0,0,.41-.26,1,1,0,0,0,0-.34.69.69,0,0,0-.32-.65,1.64,1.64,0,0,0-.91-.2,1.14,1.14,0,0,0-1,.37,1.18,1.18,0,0,0-.21.61h-.82a1.52,1.52,0,0,1,.62-1.35,2.62,2.62,0,0,1,1.4-.38,2.8,2.8,0,0,1,1.5.36,1.18,1.18,0,0,1,.57,1.09v3a.36.36,0,0,0,.06.22c0,.06.11.08.23.08h.13l.16,0v.64l-.31.08h-.3a.69.69,0,0,1-.65-.32,1.13,1.13,0,0,1-.16-.48,2.34,2.34,0,0,1-.77.61,2.39,2.39,0,0,1-1.11.26,1.65,1.65,0,0,1-1.19-.45,1.48,1.48,0,0,1-.46-1.1,1.42,1.42,0,0,1,.46-1.13,2.19,2.19,0,0,1,1.19-.49Zm-1.85,2.37a1,1,0,0,0,.66.22,1.93,1.93,0,0,0,.9-.22,1.19,1.19,0,0,0,.73-1.16v-.71a1.41,1.41,0,0,1-.41.17,3.16,3.16,0,0,1-.5.1l-.53.07a2,2,0,0,0-.72.2.78.78,0,0,0-.41.73A.72.72,0,0,0,112.68,351.53Z" transform="translate(0.54 0.54)"/><path d="M117.46,345.63h.89v1.46h.84v.72h-.84v3.41a.38.38,0,0,0,.19.37.9.9,0,0,0,.34.05H119l.17,0v.7a1.65,1.65,0,0,1-.32.06,1.94,1.94,0,0,1-.35,0,1,1,0,0,1-.84-.31,1.45,1.45,0,0,1-.22-.82v-3.46h-.7v-.72h.7Z" transform="translate(0.54 0.54)"/><path d="M120.07,345.15H121v1h-.89Zm0,2H121v5.2h-.89Z" transform="translate(0.54 0.54)"/><path d="M126.08,347.61a2.65,2.65,0,0,1,.69,2,3.39,3.39,0,0,1-.61,2.09,2.21,2.21,0,0,1-1.9.83,2.16,2.16,0,0,1-1.7-.73,2.9,2.9,0,0,1-.63-2,3.1,3.1,0,0,1,.67-2.1,2.21,2.21,0,0,1,1.78-.78A2.34,2.34,0,0,1,126.08,347.61Zm-.55,3.48a3.24,3.24,0,0,0,.32-1.47,2.55,2.55,0,0,0-.23-1.19,1.29,1.29,0,0,0-1.26-.72,1.24,1.24,0,0,0-1.16.61,2.87,2.87,0,0,0-.36,1.48,2.5,2.5,0,0,0,.36,1.39,1.27,1.27,0,0,0,1.15.56A1.19,1.19,0,0,0,125.53,351.09Z" transform="translate(0.54 0.54)"/><path d="M127.85,347.09h.84v.74a2.48,2.48,0,0,1,.78-.66,2.17,2.17,0,0,1,.92-.2,1.52,1.52,0,0,1,1.51.78,2.82,2.82,0,0,1,.21,1.22v3.35h-.89V349a1.89,1.89,0,0,0-.14-.77.87.87,0,0,0-.85-.49,1.74,1.74,0,0,0-.51.07,1.24,1.24,0,0,0-.64.43,1.19,1.19,0,0,0-.28.53,3.28,3.28,0,0,0-.07.79v2.74h-.88Z" transform="translate(0.54 0.54)"/><path d="M136.37,345.63h.88v1.46h.84v.72h-.84v3.41a.38.38,0,0,0,.19.37.9.9,0,0,0,.34.05h.14l.17,0v.7a1.65,1.65,0,0,1-.32.06,1.89,1.89,0,0,1-.35,0,.93.93,0,0,1-.83-.31,1.37,1.37,0,0,1-.22-.82v-3.46h-.71v-.72h.71Z" transform="translate(0.54 0.54)"/><path d="M142.24,347.09h1l-.83,2.3c-.31.9-.58,1.63-.8,2.19a13.8,13.8,0,0,1-1.07,2.44,1.21,1.21,0,0,1-1.07.44h-.29l-.24-.05v-.81a1.85,1.85,0,0,0,.33.08l.18,0a.69.69,0,0,0,.36-.08.9.9,0,0,0,.19-.2l.17-.4c.1-.24.18-.42.22-.54l-1.93-5.38h1l1.4,4.26Z" transform="translate(0.54 0.54)"/><path d="M143.9,347.12h.85v.69a2.13,2.13,0,0,1,.58-.55,1.85,1.85,0,0,1,1-.3,2,2,0,0,1,1.51.68,2.79,2.79,0,0,1,.62,1.95,3,3,0,0,1-.89,2.44,2,2,0,0,1-1.33.47,1.82,1.82,0,0,1-1-.26,2.44,2.44,0,0,1-.53-.51v2.68h-.87Zm3.3,4.09a2.44,2.44,0,0,0,.41-1.54,2.89,2.89,0,0,0-.18-1.07,1.33,1.33,0,0,0-2.51,0,3.61,3.61,0,0,0-.18,1.24,2.64,2.64,0,0,0,.18,1,1.26,1.26,0,0,0,1.26.81A1.23,1.23,0,0,0,147.2,351.21Z" transform="translate(0.54 0.54)"/><path d="M152.76,347.23a2,2,0,0,1,.79.68,2.27,2.27,0,0,1,.35.92A6.33,6.33,0,0,1,154,350h-3.81a2.31,2.31,0,0,0,.38,1.28,1.24,1.24,0,0,0,1.08.48,1.38,1.38,0,0,0,1.09-.46,1.49,1.49,0,0,0,.32-.61h.87a1.92,1.92,0,0,1-.23.64,2.24,2.24,0,0,1-.43.58,2,2,0,0,1-1,.53,3,3,0,0,1-.71.08,2.17,2.17,0,0,1-1.64-.72,2.75,2.75,0,0,1-.68-2,3,3,0,0,1,.68-2.05,2.26,2.26,0,0,1,1.78-.79A2.41,2.41,0,0,1,152.76,347.23Zm.32,2.06a2.3,2.3,0,0,0-.25-.91,1.26,1.26,0,0,0-1.2-.64,1.35,1.35,0,0,0-1,.44,1.68,1.68,0,0,0-.43,1.11Z" transform="translate(0.54 0.54)"/><path d="M8.87,174.55v-.87l.74.15a4,4,0,0,1-.56-.68,2,2,0,0,1-.3-1.05,1.31,1.31,0,0,1,.31-.94,1.22,1.22,0,0,1,.52-.28,2.58,2.58,0,0,1-.62-.82,2.11,2.11,0,0,1-.21-.93c0-.71.26-1.13.76-1.28a2.34,2.34,0,0,1,1.11,0l3.48.74v.91l-3.63-.77c-.35-.07-.59,0-.72.11a.89.89,0,0,0-.2.6,1.54,1.54,0,0,0,.35,1,1.88,1.88,0,0,0,1.16.62l3,.65v.89l-3.41-.72a1.66,1.66,0,0,0-.78,0c-.24.08-.37.3-.37.67a1.6,1.6,0,0,0,.39,1,2.36,2.36,0,0,0,1.4.7l2.77.59v.88Z" transform="translate(0.54 0.54)"/><path d="M10.63,161.67v.85a1.27,1.27,0,0,0-.8.19.89.89,0,0,0-.32.82,1.6,1.6,0,0,0,.82,1.38,3.82,3.82,0,0,0,1.31.51,2.15,2.15,0,0,0,1.32,0,.89.89,0,0,0,.54-.93,1.42,1.42,0,0,0-.33-.94,2.42,2.42,0,0,0-.92-.63V162a3,3,0,0,1,1.52,1.06,2.72,2.72,0,0,1,.48,1.6,1.6,1.6,0,0,1-.75,1.48,2.51,2.51,0,0,1-1.87.21,3.91,3.91,0,0,1-2.14-1.13,2.63,2.63,0,0,1-.77-1.86A1.9,1.9,0,0,1,9.15,162,1.68,1.68,0,0,1,10.63,161.67Z" transform="translate(0.54 0.54)"/><path d="M6.93,159.17v-.88l7.17,1.52v.88Z" transform="translate(0.54 0.54)"/><line class="cls-19" x1="6.02" y1="175.76" x2="6.02" y2="158.59"/></svg>