<svg id="Layer_1" data-name="Layer 1" xmlns="http://www.w3.org/2000/svg" viewBox="0 0 420 289"><defs><style>.cls-1{fill:#e7e6e6;opacity:0.78;}.cls-2{fill:#231f20;}.cls-3{fill:#1c9045;}.cls-4{fill:none;stroke:#c9c9c9;stroke-miterlimit:8;stroke-width:2.25px;}.cls-5{fill:#507837;}.cls-6{fill:#157261;}.cls-7{fill:#2d5428;}.cls-8{fill:#1e8a43;}.cls-9{fill:#71c168;}.cls-10{fill:#b4c7e7;}.cls-11{fill:#6dbce9;}.cls-12{fill:#2b2971;}.cls-13{fill:#5f76b9;}.cls-14{fill:#26c4f3;}.cls-15{fill:#69c8c5;}.cls-16{fill:#965aa4;}.cls-17{fill:#9f5a25;}.cls-18{fill:#dea427;}.cls-19{fill:#fec010;}</style></defs><rect class="cls-1" y="217" width="420" height="72"/><rect class="cls-1" width="420" height="40"/><rect class="cls-1" y="97" width="420" height="57"/><path class="cls-2" d="M29.14,275.92a16.27,16.27,0,0,1,2.67-.21,4.42,4.42,0,0,1,3,.9,2.89,2.89,0,0,1,.94,2.25,3.2,3.2,0,0,1-.83,2.31,4.5,4.5,0,0,1-3.3,1.18,4.79,4.79,0,0,1-1.12-.09v4.32H29.14Zm1.39,5.2a4.66,4.66,0,0,0,1.15.11c1.68,0,2.71-.81,2.71-2.3s-1-2.12-2.55-2.12a5.36,5.36,0,0,0-1.31.12Z" transform="translate(-9.67 -26)"/><path class="cls-2" d="M37.35,281.25c0-.91,0-1.7-.07-2.42h1.23l.05,1.52h.07a2.31,2.31,0,0,1,2.14-1.69,1.64,1.64,0,0,1,.4,0V280a2.21,2.21,0,0,0-.48,0,2,2,0,0,0-1.89,1.81,4.25,4.25,0,0,0-.06.66v4.13H37.35Z" transform="translate(-9.67 -26)"/><path class="cls-2" d="M44.21,276.65a.87.87,0,1,1-1.74,0,.86.86,0,0,1,.88-.88A.84.84,0,0,1,44.21,276.65Zm-1.57,9.93v-7.75h1.41v7.75Z" transform="translate(-9.67 -26)"/><path class="cls-2" d="M46.39,280.93c0-.8,0-1.46-.07-2.1h1.23l.07,1.25h.05a2.65,2.65,0,0,1,2.43-1.42,2.28,2.28,0,0,1,2.19,1.55h0a3.23,3.23,0,0,1,.87-1,2.63,2.63,0,0,1,1.71-.54c1,0,2.55.67,2.55,3.36v4.56H56.07v-4.39c0-1.49-.55-2.38-1.68-2.38a1.83,1.83,0,0,0-1.67,1.28,2.45,2.45,0,0,0-.11.7v4.79H51.24v-4.64c0-1.24-.55-2.13-1.62-2.13a1.93,1.93,0,0,0-1.75,1.41,1.87,1.87,0,0,0-.11.68v4.68H46.39Z" transform="translate(-9.67 -26)"/><path class="cls-2" d="M64,286.58l-.11-1h0a2.88,2.88,0,0,1-2.37,1.15,2.2,2.2,0,0,1-2.37-2.22c0-1.87,1.67-2.9,4.66-2.88v-.16A1.6,1.6,0,0,0,62,279.7a3.9,3.9,0,0,0-2,.57l-.32-.93a4.87,4.87,0,0,1,2.55-.68c2.37,0,2.94,1.61,2.94,3.16v2.9a10.57,10.57,0,0,0,.13,1.86Zm-.21-4c-1.54,0-3.28.25-3.28,1.75a1.25,1.25,0,0,0,1.33,1.34,1.92,1.92,0,0,0,1.87-1.29,1.47,1.47,0,0,0,.08-.45Z" transform="translate(-9.67 -26)"/><path class="cls-2" d="M67.44,281.25c0-.91,0-1.7-.06-2.42h1.23l0,1.52h.06a2.32,2.32,0,0,1,2.15-1.69,1.64,1.64,0,0,1,.4,0V280a2.28,2.28,0,0,0-.48,0,2,2,0,0,0-1.89,1.81,4.18,4.18,0,0,0-.07.66v4.13H67.44Z" transform="translate(-9.67 -26)"/><path class="cls-2" d="M73.58,278.83l1.7,4.58c.18.51.37,1.12.5,1.58h0c.14-.46.3-1.05.5-1.61l1.53-4.55h1.49l-2.11,5.52c-1,2.66-1.7,4-2.66,4.85a3.87,3.87,0,0,1-1.73.92l-.35-1.19a3.69,3.69,0,0,0,1.23-.69,4.19,4.19,0,0,0,1.19-1.57,1,1,0,0,0,.11-.33,1.13,1.13,0,0,0-.1-.37l-2.86-7.14Z" transform="translate(-9.67 -26)"/><path class="cls-2" d="M84,281.36c0-1,0-1.79-.06-2.53H85.2l.06,1.33h0a3,3,0,0,1,2.75-1.5c1.87,0,3.28,1.58,3.28,3.93,0,2.79-1.7,4.16-3.52,4.16a2.73,2.73,0,0,1-2.39-1.21h0v4.21H84Zm1.39,2.06a2.56,2.56,0,0,0,.07.58,2.16,2.16,0,0,0,2.11,1.65c1.49,0,2.35-1.22,2.35-3,0-1.56-.81-2.88-2.3-2.88a2.24,2.24,0,0,0-2.13,1.74,2.2,2.2,0,0,0-.1.58Z" transform="translate(-9.67 -26)"/><path class="cls-2" d="M93.1,281.25c0-.91,0-1.7-.06-2.42h1.23l0,1.52h.06a2.33,2.33,0,0,1,2.15-1.69,1.64,1.64,0,0,1,.4,0V280a2.21,2.21,0,0,0-.48,0,2,2,0,0,0-1.89,1.81,4.25,4.25,0,0,0-.06.66v4.13H93.1Z" transform="translate(-9.67 -26)"/><path class="cls-2" d="M105.19,282.64a3.78,3.78,0,0,1-3.86,4.11,3.67,3.67,0,0,1-3.71-4,3.78,3.78,0,0,1,3.84-4.11A3.67,3.67,0,0,1,105.19,282.64Zm-6.15.08c0,1.7,1,3,2.35,3s2.36-1.27,2.36-3c0-1.31-.66-3-2.32-3S99,281.25,99,282.72Z" transform="translate(-9.67 -26)"/><path class="cls-2" d="M113.65,275.21v9.37c0,.69,0,1.47.06,2h-1.26l-.06-1.35h0a2.85,2.85,0,0,1-2.64,1.52c-1.87,0-3.31-1.58-3.31-3.93,0-2.58,1.58-4.16,3.47-4.16a2.59,2.59,0,0,1,2.34,1.18h0v-4.63ZM112.24,282a2.41,2.41,0,0,0-.06-.59,2.08,2.08,0,0,0-2-1.63c-1.45,0-2.32,1.28-2.32,3s.77,2.87,2.29,2.87a2.13,2.13,0,0,0,2.07-1.68,2.38,2.38,0,0,0,.06-.61Z" transform="translate(-9.67 -26)"/><path class="cls-2" d="M122.47,284.47c0,.8,0,1.5.06,2.11h-1.25l-.08-1.27h0a2.91,2.91,0,0,1-2.56,1.44c-1.22,0-2.67-.67-2.67-3.39v-4.53h1.4v4.29c0,1.47.45,2.47,1.73,2.47a2,2,0,0,0,1.86-1.28,2.11,2.11,0,0,0,.13-.73v-4.75h1.41Z" transform="translate(-9.67 -26)"/><path class="cls-2" d="M130.32,286.29a5.2,5.2,0,0,1-2.22.45,3.68,3.68,0,0,1-3.86-3.95,3.94,3.94,0,0,1,4.16-4.12,4.72,4.72,0,0,1,1.95.4l-.32,1.09a3.25,3.25,0,0,0-1.63-.37,2.92,2.92,0,0,0-.05,5.83,3.94,3.94,0,0,0,1.73-.39Z" transform="translate(-9.67 -26)"/><path class="cls-2" d="M132.66,283a2.47,2.47,0,0,0,2.65,2.69,5.19,5.19,0,0,0,2.15-.4l.24,1a6.39,6.39,0,0,1-2.58.48,3.6,3.6,0,0,1-3.81-3.91c0-2.33,1.38-4.17,3.63-4.17,2.53,0,3.21,2.22,3.21,3.64,0,.29,0,.52-.05.66Zm4.13-1a2,2,0,0,0-2-2.29,2.34,2.34,0,0,0-2.16,2.29Z" transform="translate(-9.67 -26)"/><path class="cls-2" d="M139.89,281.25c0-.91,0-1.7-.07-2.42h1.24l0,1.52h.07a2.31,2.31,0,0,1,2.14-1.69,1.64,1.64,0,0,1,.4,0V280a2.21,2.21,0,0,0-.48,0,2,2,0,0,0-1.89,1.81,4.25,4.25,0,0,0-.06.66v4.13h-1.39Z" transform="translate(-9.67 -26)"/><path class="cls-2" d="M31.19,93.44H27.91V92.26h8v1.18H32.6v9.61H31.19Z" transform="translate(-9.67 -26)"/><path class="cls-2" d="M36.69,99.43a2.49,2.49,0,0,0,2.66,2.69,5.13,5.13,0,0,0,2.14-.4l.24,1a6.29,6.29,0,0,1-2.57.48,3.6,3.6,0,0,1-3.81-3.91c0-2.34,1.37-4.18,3.63-4.18,2.53,0,3.2,2.23,3.2,3.65a4.67,4.67,0,0,1,0,.66Zm4.13-1a2,2,0,0,0-2-2.29,2.33,2.33,0,0,0-2.16,2.29Z" transform="translate(-9.67 -26)"/><path class="cls-2" d="M43.92,97.72c0-.92,0-1.7-.06-2.42h1.23l0,1.52h.06a2.33,2.33,0,0,1,2.15-1.7,1.62,1.62,0,0,1,.4,0V96.5a2.28,2.28,0,0,0-.48,0,2,2,0,0,0-1.89,1.81,4.18,4.18,0,0,0-.07.66v4.13H43.92Z" transform="translate(-9.67 -26)"/><path class="cls-2" d="M51.23,93.07V95.3h2v1.07h-2v4.18c0,1,.28,1.5,1.06,1.5a3.15,3.15,0,0,0,.82-.09l.06,1.05a3.24,3.24,0,0,1-1.25.2,2,2,0,0,1-1.52-.6,2.85,2.85,0,0,1-.54-2V96.37h-1.2V95.3h1.2V93.44Z" transform="translate(-9.67 -26)"/><path class="cls-2" d="M56.4,93.12a.83.83,0,0,1-.89.87.84.84,0,0,1-.85-.87.86.86,0,0,1,.88-.88A.83.83,0,0,1,56.4,93.12Zm-1.57,9.93V95.3h1.41v7.75Z" transform="translate(-9.67 -26)"/><path class="cls-2" d="M62.87,103.05l-.12-1h0a2.9,2.9,0,0,1-2.37,1.15A2.2,2.2,0,0,1,58,101c0-1.88,1.66-2.9,4.66-2.88V98a1.6,1.6,0,0,0-1.76-1.8,3.88,3.88,0,0,0-2,.58l-.32-.93a4.86,4.86,0,0,1,2.54-.69c2.37,0,2.95,1.62,2.95,3.17v2.9a10.57,10.57,0,0,0,.13,1.86Zm-.21-4c-1.54,0-3.28.24-3.28,1.75a1.25,1.25,0,0,0,1.33,1.34,1.94,1.94,0,0,0,1.87-1.29,1.47,1.47,0,0,0,.08-.45Z" transform="translate(-9.67 -26)"/><path class="cls-2" d="M66.29,97.72c0-.92,0-1.7-.06-2.42h1.23l.05,1.52h.06a2.32,2.32,0,0,1,2.14-1.7,1.56,1.56,0,0,1,.4,0V96.5a2.14,2.14,0,0,0-.48,0,2,2,0,0,0-1.88,1.81,3.26,3.26,0,0,0-.07.66v4.13H66.29Z" transform="translate(-9.67 -26)"/><path class="cls-2" d="M72.43,95.3l1.7,4.58c.18.51.37,1.12.5,1.58h0c.14-.46.3-1,.49-1.61l1.54-4.55h1.49l-2.11,5.52c-1,2.66-1.7,4-2.66,4.85a3.77,3.77,0,0,1-1.73.91l-.35-1.18a3.69,3.69,0,0,0,1.23-.69,4.19,4.19,0,0,0,1.19-1.57,1,1,0,0,0,.11-.33,1.07,1.07,0,0,0-.1-.37L70.9,95.3Z" transform="translate(-9.67 -26)"/><path class="cls-2" d="M88.37,102.76a5.2,5.2,0,0,1-2.22.45,3.69,3.69,0,0,1-3.86-4,3.93,3.93,0,0,1,4.16-4.11,4.72,4.72,0,0,1,2,.4l-.32,1.09a3.25,3.25,0,0,0-1.63-.37,2.92,2.92,0,0,0,0,5.83,3.94,3.94,0,0,0,1.73-.39Z" transform="translate(-9.67 -26)"/><path class="cls-2" d="M96.93,99.11a3.78,3.78,0,0,1-3.86,4.11,3.68,3.68,0,0,1-3.71-4,3.79,3.79,0,0,1,3.84-4.12A3.67,3.67,0,0,1,96.93,99.11Zm-6.15.08c0,1.7,1,3,2.36,3s2.35-1.27,2.35-3c0-1.32-.66-3-2.32-3S90.78,97.72,90.78,99.19Z" transform="translate(-9.67 -26)"/><path class="cls-2" d="M98.7,97.4c0-.8,0-1.46-.06-2.1h1.25l.08,1.28h0a2.84,2.84,0,0,1,2.56-1.46c1.07,0,2.74.64,2.74,3.3v4.63h-1.41V98.58c0-1.25-.46-2.29-1.79-2.29a2,2,0,0,0-1.89,1.44,1.91,1.91,0,0,0-.1.66v4.66H98.7Z" transform="translate(-9.67 -26)"/><path class="cls-2" d="M107.39,101.61a3.72,3.72,0,0,0,1.86.56c1,0,1.5-.52,1.5-1.16s-.4-1-1.44-1.42c-1.39-.5-2-1.27-2-2.19a2.4,2.4,0,0,1,2.68-2.28,3.92,3.92,0,0,1,1.9.48l-.35,1a3,3,0,0,0-1.59-.45c-.83,0-1.29.48-1.29,1.06s.46.92,1.47,1.31c1.35.51,2,1.18,2,2.34,0,1.36-1,2.32-2.89,2.32a4.42,4.42,0,0,1-2.18-.53Z" transform="translate(-9.67 -26)"/><path class="cls-2" d="M120.4,100.93c0,.8,0,1.51.07,2.12h-1.25l-.08-1.27h0a2.92,2.92,0,0,1-2.57,1.44c-1.21,0-2.67-.67-2.67-3.39V95.3h1.41v4.29c0,1.47.45,2.46,1.73,2.46a2,2,0,0,0,1.86-1.28,2,2,0,0,0,.12-.72V95.3h1.41Z" transform="translate(-9.67 -26)"/><path class="cls-2" d="M122.74,97.4c0-.8,0-1.46-.07-2.1h1.23l.07,1.25h0a2.66,2.66,0,0,1,2.43-1.43,2.27,2.27,0,0,1,2.19,1.56h0a3.13,3.13,0,0,1,.87-1,2.65,2.65,0,0,1,1.71-.55c1,0,2.55.68,2.55,3.36v4.57h-1.38V98.66c0-1.49-.54-2.38-1.68-2.38a1.83,1.83,0,0,0-1.67,1.28,2.39,2.39,0,0,0-.11.7v4.79h-1.37V98.4c0-1.23-.55-2.12-1.62-2.12a1.94,1.94,0,0,0-1.75,1.4,2,2,0,0,0-.11.69v4.68h-1.37Z" transform="translate(-9.67 -26)"/><path class="cls-2" d="M136.86,99.43a2.49,2.49,0,0,0,2.66,2.69,5.19,5.19,0,0,0,2.15-.4l.24,1a6.39,6.39,0,0,1-2.58.48,3.6,3.6,0,0,1-3.81-3.91c0-2.34,1.38-4.18,3.63-4.18,2.53,0,3.2,2.23,3.2,3.65,0,.29,0,.51,0,.66Zm4.13-1a2,2,0,0,0-2-2.29,2.33,2.33,0,0,0-2.16,2.29Z" transform="translate(-9.67 -26)"/><path class="cls-2" d="M144.1,97.72c0-.92,0-1.7-.07-2.42h1.23l.05,1.52h.07a2.32,2.32,0,0,1,2.14-1.7,1.62,1.62,0,0,1,.4,0V96.5a2.21,2.21,0,0,0-.48,0,2,2,0,0,0-1.89,1.81,4.25,4.25,0,0,0-.06.66v4.13H144.1Z" transform="translate(-9.67 -26)"/><path class="cls-2" d="M29.14,205.92a16.27,16.27,0,0,1,2.67-.21,4.42,4.42,0,0,1,3,.9,2.89,2.89,0,0,1,.94,2.25,3.2,3.2,0,0,1-.83,2.31,4.5,4.5,0,0,1-3.3,1.18,4.79,4.79,0,0,1-1.12-.09v4.32H29.14Zm1.39,5.2a4.66,4.66,0,0,0,1.15.11c1.68,0,2.71-.81,2.71-2.3s-1-2.12-2.55-2.12a5.36,5.36,0,0,0-1.31.12Z" transform="translate(-9.67 -26)"/><path class="cls-2" d="M37.35,211.25c0-.91,0-1.7-.07-2.42h1.23l.05,1.52h.07a2.31,2.31,0,0,1,2.14-1.69,1.64,1.64,0,0,1,.4,0V210a2.21,2.21,0,0,0-.48-.05,2,2,0,0,0-1.89,1.81,4.25,4.25,0,0,0-.06.66v4.13H37.35Z" transform="translate(-9.67 -26)"/><path class="cls-2" d="M44.21,206.65a.87.87,0,1,1-1.74,0,.86.86,0,0,1,.88-.88A.84.84,0,0,1,44.21,206.65Zm-1.57,9.93v-7.75h1.41v7.75Z" transform="translate(-9.67 -26)"/><path class="cls-2" d="M46.39,210.93c0-.8,0-1.46-.07-2.1h1.23l.07,1.25h.05a2.65,2.65,0,0,1,2.43-1.42,2.28,2.28,0,0,1,2.19,1.55h0a3.23,3.23,0,0,1,.87-1,2.63,2.63,0,0,1,1.71-.54c1,0,2.55.67,2.55,3.36v4.56H56.07v-4.39c0-1.49-.55-2.38-1.68-2.38a1.83,1.83,0,0,0-1.67,1.28,2.45,2.45,0,0,0-.11.7v4.79H51.24v-4.64c0-1.24-.55-2.13-1.62-2.13a1.93,1.93,0,0,0-1.75,1.41,1.87,1.87,0,0,0-.11.68v4.68H46.39Z" transform="translate(-9.67 -26)"/><path class="cls-2" d="M64,216.58l-.11-1h0a2.88,2.88,0,0,1-2.37,1.15,2.2,2.2,0,0,1-2.37-2.22c0-1.87,1.67-2.9,4.66-2.88v-.16A1.6,1.6,0,0,0,62,209.7a3.9,3.9,0,0,0-2,.57l-.32-.93a4.87,4.87,0,0,1,2.55-.68c2.37,0,2.94,1.61,2.94,3.16v2.9a10.57,10.57,0,0,0,.13,1.86Zm-.21-4c-1.54,0-3.28.25-3.28,1.75a1.25,1.25,0,0,0,1.33,1.34,1.92,1.92,0,0,0,1.87-1.29,1.47,1.47,0,0,0,.08-.45Z" transform="translate(-9.67 -26)"/><path class="cls-2" d="M67.44,211.25c0-.91,0-1.7-.06-2.42h1.23l0,1.52h.06a2.32,2.32,0,0,1,2.15-1.69,1.64,1.64,0,0,1,.4,0V210a2.28,2.28,0,0,0-.48-.05,2,2,0,0,0-1.89,1.81,4.18,4.18,0,0,0-.07.66v4.13H67.44Z" transform="translate(-9.67 -26)"/><path class="cls-2" d="M73.58,208.83l1.7,4.58c.18.51.37,1.12.5,1.58h0c.14-.46.3-1.05.5-1.61l1.53-4.55h1.49l-2.11,5.52c-1,2.66-1.7,4-2.66,4.85a3.87,3.87,0,0,1-1.73.92l-.35-1.19a3.69,3.69,0,0,0,1.23-.69,4.19,4.19,0,0,0,1.19-1.57,1,1,0,0,0,.11-.33,1.13,1.13,0,0,0-.1-.37l-2.86-7.14Z" transform="translate(-9.67 -26)"/><path class="cls-2" d="M89.52,216.29a5.2,5.2,0,0,1-2.22.45,3.68,3.68,0,0,1-3.86-4,3.94,3.94,0,0,1,4.16-4.12,4.72,4.72,0,0,1,2,.4l-.32,1.09a3.25,3.25,0,0,0-1.63-.37,2.92,2.92,0,0,0,0,5.83,3.94,3.94,0,0,0,1.73-.39Z" transform="translate(-9.67 -26)"/><path class="cls-2" d="M98.08,212.64a3.78,3.78,0,0,1-3.85,4.11,3.68,3.68,0,0,1-3.72-4,3.78,3.78,0,0,1,3.84-4.11A3.66,3.66,0,0,1,98.08,212.64Zm-6.14.08c0,1.7,1,3,2.35,3s2.35-1.27,2.35-3c0-1.31-.65-3-2.32-3S91.94,211.25,91.94,212.72Z" transform="translate(-9.67 -26)"/><path class="cls-2" d="M99.86,210.93c0-.8,0-1.46-.07-2.1H101l.08,1.28h0a2.86,2.86,0,0,1,2.56-1.45c1.08,0,2.74.64,2.74,3.29v4.63H105v-4.47c0-1.25-.46-2.29-1.79-2.29a2,2,0,0,0-1.89,1.44,2.19,2.19,0,0,0-.09.66v4.66H99.86Z" transform="translate(-9.67 -26)"/><path class="cls-2" d="M108.54,215.14a3.75,3.75,0,0,0,1.86.56c1,0,1.51-.51,1.51-1.15s-.4-1.05-1.45-1.43c-1.39-.5-2-1.26-2-2.19a2.38,2.38,0,0,1,2.67-2.27,3.81,3.81,0,0,1,1.9.48l-.35,1a3,3,0,0,0-1.58-.45c-.83,0-1.3.48-1.3,1.06s.47.93,1.47,1.31c1.35.51,2,1.18,2,2.34,0,1.36-1.06,2.32-2.9,2.32a4.44,4.44,0,0,1-2.18-.53Z" transform="translate(-9.67 -26)"/><path class="cls-2" d="M121.55,214.47c0,.8,0,1.5.07,2.11h-1.25l-.08-1.27h0a2.91,2.91,0,0,1-2.56,1.44c-1.22,0-2.68-.67-2.68-3.39v-4.53h1.41v4.29c0,1.47.45,2.47,1.73,2.47a2,2,0,0,0,1.86-1.28,2.11,2.11,0,0,0,.13-.73v-4.75h1.4Z" transform="translate(-9.67 -26)"/><path class="cls-2" d="M123.89,210.93c0-.8,0-1.46-.07-2.1h1.24l.06,1.25h0a2.65,2.65,0,0,1,2.43-1.42,2.28,2.28,0,0,1,2.19,1.55h0a3.21,3.21,0,0,1,.86-1,2.65,2.65,0,0,1,1.71-.54c1,0,2.55.67,2.55,3.36v4.56h-1.38v-4.39c0-1.49-.54-2.38-1.68-2.38a1.82,1.82,0,0,0-1.66,1.28,2.13,2.13,0,0,0-.12.7v4.79h-1.37v-4.64c0-1.24-.55-2.13-1.62-2.13a1.91,1.91,0,0,0-1.74,1.41,1.87,1.87,0,0,0-.12.68v4.68h-1.37Z" transform="translate(-9.67 -26)"/><path class="cls-2" d="M138,213a2.48,2.48,0,0,0,2.65,2.69,5.19,5.19,0,0,0,2.15-.4l.24,1a6.39,6.39,0,0,1-2.58.48,3.6,3.6,0,0,1-3.81-3.91c0-2.33,1.38-4.17,3.64-4.17,2.52,0,3.2,2.22,3.2,3.64a4.54,4.54,0,0,1,0,.66Zm4.13-1a2,2,0,0,0-2-2.29A2.35,2.35,0,0,0,138,212Z" transform="translate(-9.67 -26)"/><path class="cls-2" d="M145.25,211.25c0-.91,0-1.7-.07-2.42h1.24l0,1.52h.07a2.31,2.31,0,0,1,2.14-1.69,1.59,1.59,0,0,1,.4,0V210a2.14,2.14,0,0,0-.48-.05,2,2,0,0,0-1.89,1.81,4.25,4.25,0,0,0-.06.66v4.13h-1.39Z" transform="translate(-9.67 -26)"/><path class="cls-2" d="M29,156.5a4.94,4.94,0,0,0,2.49.7c1.43,0,2.26-.75,2.26-1.84s-.58-1.58-2-2.14c-1.76-.63-2.85-1.54-2.85-3.06,0-1.68,1.39-2.93,3.49-2.93a4.91,4.91,0,0,1,2.38.53l-.38,1.14a4.18,4.18,0,0,0-2.05-.52c-1.47,0-2,.88-2,1.62,0,1,.65,1.5,2.14,2.08,1.83.71,2.75,1.59,2.75,3.17s-1.23,3.11-3.77,3.11a5.66,5.66,0,0,1-2.76-.69Z" transform="translate(-9.67 -26)"/><path class="cls-2" d="M37.86,154.58a2.48,2.48,0,0,0,2.65,2.69,5.19,5.19,0,0,0,2.15-.4l.24,1a6.35,6.35,0,0,1-2.58.48,3.6,3.6,0,0,1-3.81-3.91c0-2.34,1.38-4.18,3.64-4.18,2.53,0,3.2,2.23,3.2,3.65a4.67,4.67,0,0,1-.05.66Zm4.13-1a2,2,0,0,0-2-2.29,2.34,2.34,0,0,0-2.16,2.29Z" transform="translate(-9.67 -26)"/><path class="cls-2" d="M50.61,157.91a5.2,5.2,0,0,1-2.22.45,3.69,3.69,0,0,1-3.86-4,3.93,3.93,0,0,1,4.16-4.11,4.72,4.72,0,0,1,2,.4l-.32,1.09a3.15,3.15,0,0,0-1.63-.37,2.92,2.92,0,0,0,0,5.83,3.94,3.94,0,0,0,1.73-.39Z" transform="translate(-9.67 -26)"/><path class="cls-2" d="M59.17,154.26a3.78,3.78,0,0,1-3.86,4.11,3.68,3.68,0,0,1-3.71-4,3.79,3.79,0,0,1,3.84-4.12A3.67,3.67,0,0,1,59.17,154.26Zm-6.14.08c0,1.7,1,3,2.35,3s2.35-1.27,2.35-3c0-1.32-.65-3-2.32-3S53,152.87,53,154.34Z" transform="translate(-9.67 -26)"/><path class="cls-2" d="M61,152.55c0-.8,0-1.46-.07-2.1h1.25l.08,1.28h0a2.85,2.85,0,0,1,2.56-1.46c1.08,0,2.74.64,2.74,3.3v4.63H66.13v-4.47c0-1.25-.46-2.29-1.79-2.29a2,2,0,0,0-1.89,1.44,2.18,2.18,0,0,0-.1.66v4.66H61Z" transform="translate(-9.67 -26)"/><path class="cls-2" d="M76.52,146.83v9.37c0,.68,0,1.47.06,2H75.32l-.07-1.35h0a2.86,2.86,0,0,1-2.64,1.52c-1.87,0-3.31-1.58-3.31-3.94,0-2.57,1.58-4.16,3.47-4.16a2.6,2.6,0,0,1,2.34,1.19h0v-4.63Zm-1.41,6.77A2.44,2.44,0,0,0,75,153a2.05,2.05,0,0,0-2-1.63c-1.46,0-2.32,1.28-2.32,3s.77,2.87,2.29,2.87A2.12,2.12,0,0,0,75,155.55a2.3,2.3,0,0,0,.07-.6Z" transform="translate(-9.67 -26)"/><path class="cls-2" d="M83.14,158.2l-.11-1h0a2.88,2.88,0,0,1-2.37,1.15,2.2,2.2,0,0,1-2.37-2.22c0-1.88,1.67-2.9,4.66-2.88v-.16a1.6,1.6,0,0,0-1.76-1.8,3.91,3.91,0,0,0-2,.58L78.8,151a4.78,4.78,0,0,1,2.55-.69c2.37,0,2.94,1.62,2.94,3.17v2.9a10.57,10.57,0,0,0,.13,1.86Zm-.21-4c-1.54,0-3.28.24-3.28,1.75A1.25,1.25,0,0,0,81,157.33,1.92,1.92,0,0,0,82.85,156a1.47,1.47,0,0,0,.08-.45Z" transform="translate(-9.67 -26)"/><path class="cls-2" d="M86.56,152.87c0-.92,0-1.7-.06-2.42h1.23l0,1.52h.06a2.33,2.33,0,0,1,2.15-1.7,1.62,1.62,0,0,1,.4,0v1.33a2.28,2.28,0,0,0-.48-.05A2,2,0,0,0,88,153.41a4.18,4.18,0,0,0-.07.66v4.13H86.56Z" transform="translate(-9.67 -26)"/><path class="cls-2" d="M92.71,150.45,94.4,155c.18.51.37,1.12.5,1.58h0c.14-.46.3-1.06.5-1.61L97,150.45h1.49L96.34,156c-1,2.66-1.7,4-2.66,4.85a3.72,3.72,0,0,1-1.73.91l-.35-1.18a3.69,3.69,0,0,0,1.23-.69A4.19,4.19,0,0,0,94,158.29a1,1,0,0,0,.11-.33,1.07,1.07,0,0,0-.1-.37l-2.86-7.14Z" transform="translate(-9.67 -26)"/><path class="cls-2" d="M108.64,157.91a5.2,5.2,0,0,1-2.22.45,3.69,3.69,0,0,1-3.86-4,3.93,3.93,0,0,1,4.16-4.11,4.72,4.72,0,0,1,2,.4l-.32,1.09a3.15,3.15,0,0,0-1.63-.37,2.92,2.92,0,0,0,0,5.83,3.94,3.94,0,0,0,1.73-.39Z" transform="translate(-9.67 -26)"/><path class="cls-2" d="M117.2,154.26a3.78,3.78,0,0,1-3.85,4.11,3.68,3.68,0,0,1-3.72-4,3.79,3.79,0,0,1,3.84-4.12A3.67,3.67,0,0,1,117.2,154.26Zm-6.14.08c0,1.7,1,3,2.35,3s2.35-1.27,2.35-3c0-1.32-.65-3-2.32-3S111.06,152.87,111.06,154.34Z" transform="translate(-9.67 -26)"/><path class="cls-2" d="M119,152.55c0-.8,0-1.46-.07-2.1h1.25l.08,1.28h0a2.85,2.85,0,0,1,2.56-1.46c1.08,0,2.74.64,2.74,3.3v4.63h-1.41v-4.47c0-1.25-.46-2.29-1.79-2.29a2,2,0,0,0-1.89,1.44,2.19,2.19,0,0,0-.09.66v4.66H119Z" transform="translate(-9.67 -26)"/><path class="cls-2" d="M127.66,156.76a3.75,3.75,0,0,0,1.86.56c1,0,1.51-.52,1.51-1.16s-.4-1-1.45-1.42c-1.39-.5-2-1.27-2-2.19a2.39,2.39,0,0,1,2.67-2.28,3.92,3.92,0,0,1,1.9.48l-.35,1a2.91,2.91,0,0,0-1.58-.45c-.83,0-1.3.48-1.3,1.06s.47.92,1.47,1.31c1.35.51,2,1.18,2,2.34,0,1.36-1.06,2.32-2.9,2.32a4.44,4.44,0,0,1-2.18-.53Z" transform="translate(-9.67 -26)"/><path class="cls-2" d="M140.67,156.08c0,.8,0,1.51.07,2.12h-1.25l-.08-1.27h0a2.91,2.91,0,0,1-2.56,1.44c-1.22,0-2.68-.67-2.68-3.39v-4.53h1.41v4.29c0,1.47.45,2.46,1.73,2.46a2,2,0,0,0,2-2v-4.75h1.4Z" transform="translate(-9.67 -26)"/><path class="cls-2" d="M143,152.55c0-.8,0-1.46-.07-2.1h1.24l.06,1.25h0a2.66,2.66,0,0,1,2.43-1.43,2.3,2.3,0,0,1,2.2,1.56h0a3.1,3.1,0,0,1,.86-1,2.62,2.62,0,0,1,1.71-.55c1,0,2.55.68,2.55,3.36v4.57h-1.38v-4.39c0-1.49-.54-2.38-1.68-2.38a1.82,1.82,0,0,0-1.66,1.28,2.1,2.1,0,0,0-.11.7v4.79h-1.38v-4.65c0-1.23-.55-2.12-1.62-2.12a1.91,1.91,0,0,0-1.74,1.4,2,2,0,0,0-.11.69v4.68H143Z" transform="translate(-9.67 -26)"/><path class="cls-2" d="M157.14,154.58a2.48,2.48,0,0,0,2.65,2.69,5.19,5.19,0,0,0,2.15-.4l.24,1a6.39,6.39,0,0,1-2.58.48,3.6,3.6,0,0,1-3.81-3.91c0-2.34,1.38-4.18,3.64-4.18,2.52,0,3.2,2.23,3.2,3.65a4.67,4.67,0,0,1,0,.66Zm4.13-1a2,2,0,0,0-2-2.29,2.34,2.34,0,0,0-2.16,2.29Z" transform="translate(-9.67 -26)"/><path class="cls-2" d="M164.37,152.87c0-.92,0-1.7-.07-2.42h1.24l0,1.52h.07a2.32,2.32,0,0,1,2.14-1.7,1.56,1.56,0,0,1,.4,0v1.33a2.14,2.14,0,0,0-.48-.05,2,2,0,0,0-1.89,1.81,4.25,4.25,0,0,0-.06.66v4.13h-1.39Z" transform="translate(-9.67 -26)"/><path class="cls-2" d="M30.88,47.47l-1.12,3.39H28.32L32,40.07h1.68l3.68,10.79H35.86l-1.15-3.39Zm3.54-1.09-1.06-3.11c-.24-.7-.4-1.34-.56-2h0c-.16.64-.33,1.3-.54,2l-1.06,3.12Z" transform="translate(-9.67 -26)"/><path class="cls-2" d="M38.83,45.64c0-1,0-1.79-.06-2.53H40l.07,1.33h0a3.05,3.05,0,0,1,2.75-1.5c1.88,0,3.29,1.58,3.29,3.93,0,2.79-1.7,4.17-3.53,4.17a2.71,2.71,0,0,1-2.38-1.22h0V54h-1.4Zm1.4,2.07a3.32,3.32,0,0,0,.06.57,2.18,2.18,0,0,0,2.11,1.65c1.49,0,2.36-1.22,2.36-3,0-1.55-.82-2.88-2.31-2.88a2.4,2.4,0,0,0-2.22,2.32Z" transform="translate(-9.67 -26)"/><path class="cls-2" d="M48.72,47.24a2.48,2.48,0,0,0,2.66,2.69,5,5,0,0,0,2.14-.4l.24,1a6.29,6.29,0,0,1-2.57.48,3.6,3.6,0,0,1-3.81-3.91c0-2.33,1.37-4.17,3.63-4.17,2.53,0,3.2,2.22,3.2,3.65a4.51,4.51,0,0,1-.05.65Zm4.13-1a2,2,0,0,0-2-2.28,2.32,2.32,0,0,0-2.16,2.28Z" transform="translate(-9.67 -26)"/><path class="cls-2" d="M56.56,43.11l1.11,1.67c.28.43.52.83.78,1.26h0c.25-.46.51-.86.77-1.28l1.08-1.65h1.53l-2.65,3.75,2.73,4H60.35l-1.13-1.74c-.31-.45-.56-.89-.83-1.35h0c-.25.46-.52.88-.81,1.35l-1.12,1.74H54.86l2.76-4L55,43.11Z" transform="translate(-9.67 -26)"/><path class="cls-2" d="M66.71,45.64c0-1,0-1.79-.07-2.53h1.27L68,44.44h0a3.05,3.05,0,0,1,2.75-1.5c1.88,0,3.29,1.58,3.29,3.93,0,2.79-1.7,4.17-3.53,4.17a2.71,2.71,0,0,1-2.38-1.22h0V54H66.71Zm1.39,2.07a3.32,3.32,0,0,0,.06.57,2.18,2.18,0,0,0,2.11,1.65c1.49,0,2.36-1.22,2.36-3,0-1.55-.82-2.88-2.31-2.88a2.26,2.26,0,0,0-2.13,1.74,2.8,2.8,0,0,0-.09.58Z" transform="translate(-9.67 -26)"/><path class="cls-2" d="M75.81,45.53c0-.91,0-1.7-.07-2.42H77l0,1.52h.07a2.31,2.31,0,0,1,2.14-1.69,1.59,1.59,0,0,1,.4,0v1.33a2.21,2.21,0,0,0-.48,0,2,2,0,0,0-1.88,1.8,3.34,3.34,0,0,0-.07.66v4.13H75.81Z" transform="translate(-9.67 -26)"/><path class="cls-2" d="M81.67,47.24a2.47,2.47,0,0,0,2.65,2.69,5,5,0,0,0,2.15-.4l.24,1a6.39,6.39,0,0,1-2.58.48,3.6,3.6,0,0,1-3.81-3.91c0-2.33,1.38-4.17,3.63-4.17,2.53,0,3.21,2.22,3.21,3.65,0,.28,0,.51,0,.65Zm4.12-1a2,2,0,0,0-2-2.28,2.33,2.33,0,0,0-2.16,2.28Z" transform="translate(-9.67 -26)"/><path class="cls-2" d="M95.59,39.5v9.36c0,.69,0,1.47.06,2H94.39l-.07-1.34h0A2.87,2.87,0,0,1,91.65,51c-1.87,0-3.31-1.59-3.31-3.94,0-2.58,1.58-4.16,3.47-4.16a2.62,2.62,0,0,1,2.34,1.18h0V39.5Zm-1.41,6.77a2.46,2.46,0,0,0-.07-.6,2.06,2.06,0,0,0-2-1.63c-1.46,0-2.32,1.28-2.32,3s.77,2.87,2.29,2.87a2.11,2.11,0,0,0,2.06-1.68,2.37,2.37,0,0,0,.07-.61Z" transform="translate(-9.67 -26)"/><path class="cls-2" d="M102.21,50.86l-.11-1h0A2.88,2.88,0,0,1,99.68,51a2.21,2.21,0,0,1-2.37-2.23c0-1.87,1.67-2.9,4.66-2.88v-.16A1.6,1.6,0,0,0,100.21,44a3.9,3.9,0,0,0-2,.57l-.32-.93a4.87,4.87,0,0,1,2.55-.68c2.37,0,2.94,1.61,2.94,3.17V49a11.54,11.54,0,0,0,.13,1.86Zm-.21-4c-1.53,0-3.28.24-3.28,1.74A1.25,1.25,0,0,0,100.05,50a1.92,1.92,0,0,0,1.87-1.3,1.42,1.42,0,0,0,.08-.45Z" transform="translate(-9.67 -26)"/><path class="cls-2" d="M107.27,40.89v2.22h2v1.08h-2v4.17c0,1,.27,1.51,1,1.51a3.06,3.06,0,0,0,.82-.1l.06,1.06A3.48,3.48,0,0,1,108,51a2,2,0,0,1-1.52-.59,2.89,2.89,0,0,1-.54-2V44.19h-1.2V43.11h1.2V41.26Z" transform="translate(-9.67 -26)"/><path class="cls-2" d="M117.78,46.92A3.79,3.79,0,0,1,113.92,51a3.69,3.69,0,0,1-3.71-4,3.78,3.78,0,0,1,3.84-4.11A3.67,3.67,0,0,1,117.78,46.92Zm-6.15.08c0,1.7,1,3,2.36,3s2.35-1.27,2.35-3c0-1.31-.66-3-2.32-3S111.63,45.53,111.63,47Z" transform="translate(-9.67 -26)"/><path class="cls-2" d="M119.55,45.53c0-.91,0-1.7-.06-2.42h1.23l0,1.52h.06A2.33,2.33,0,0,1,123,42.94a1.64,1.64,0,0,1,.4,0v1.33a2.33,2.33,0,0,0-.48,0,2,2,0,0,0-1.89,1.8,4.31,4.31,0,0,0-.07.66v4.13h-1.39Z" transform="translate(-9.67 -26)"/><circle class="cls-3" cx="233.83" cy="263.78" r="7.5"/><circle class="cls-4" cx="233.83" cy="263.78" r="7.5"/><ellipse class="cls-5" cx="307.08" cy="267.78" rx="7.5" ry="7"/><ellipse class="cls-4" cx="307.08" cy="267.78" rx="7.5" ry="7"/><circle class="cls-6" cx="212.76" cy="241.25" r="7.5"/><circle class="cls-4" cx="212.76" cy="241.25" r="7.5"/><circle class="cls-7" cx="396.13" cy="240.75" r="7"/><circle class="cls-4" cx="396.13" cy="240.75" r="7"/><circle class="cls-8" cx="346.66" cy="252.83" r="7.5"/><circle class="cls-4" cx="346.66" cy="252.83" r="7.5"/><circle class="cls-9" cx="275.33" cy="241.25" r="7.5"/><circle class="cls-4" cx="275.33" cy="241.25" r="7.5"/><circle class="cls-10" cx="295.83" cy="167.84" r="7"/><circle class="cls-4" cx="295.83" cy="167.84" r="7"/><ellipse class="cls-11" cx="342.83" cy="169" rx="7.5" ry="7"/><ellipse class="cls-4" cx="342.83" cy="169" rx="7.5" ry="7"/><circle class="cls-12" cx="314.58" cy="201.61" r="7.5"/><circle class="cls-4" cx="314.58" cy="201.61" r="7.5"/><circle class="cls-13" cx="248.83" cy="188.5" r="7"/><circle class="cls-4" cx="248.83" cy="188.5" r="7"/><ellipse class="cls-14" cx="277.75" cy="201.61" rx="7" ry="7.5"/><ellipse class="cls-4" cx="277.75" cy="201.61" rx="7" ry="7.5"/><ellipse class="cls-15" cx="380.55" cy="198" rx="7" ry="7.5" transform="translate(158.96 544.97) rotate(-87.88)"/><ellipse class="cls-4" cx="370.88" cy="172" rx="7.5" ry="7"/><circle class="cls-16" cx="234.83" cy="123" r="7"/><circle class="cls-4" cx="234.83" cy="123" r="7"/><circle class="cls-17" cx="343.33" cy="90" r="7"/><circle class="cls-4" cx="343.33" cy="90" r="7"/><ellipse class="cls-18" cx="327.33" cy="52.54" rx="7" ry="7.5"/><ellipse class="cls-4" cx="327.33" cy="52.54" rx="7" ry="7.5"/><circle class="cls-19" cx="226.33" cy="9.75" r="7.5"/><circle class="cls-4" cx="226.33" cy="9.75" r="7.5"/></svg>