<svg xmlns="http://www.w3.org/2000/svg" viewBox="0 0 316.1 324"><defs><style>.a{fill:#fff;stroke:#231f20;}.a,.aa,.c,.d,.u,.x,.y{stroke-miterlimit:10;}.b{fill:#e7e6e6;opacity:0.78;}.c{fill:#e75725;stroke:#be1e2d;}.c,.d,.x,.y{stroke-width:1.5px;}.c,.d{opacity:0.3;}.d,.y{fill:#e8a3c8;stroke:#ec008c;}.e{font-size:10px;fill:#6d6e71;font-family:Helvetica-Light, Helvetica;font-weight:300;}.f{fill:#1c9045;}.g,.x,.z{fill:none;}.g{stroke:#c9c9c9;stroke-miterlimit:8;stroke-width:2.25px;}.h{fill:#507837;}.i{fill:#157261;}.j{fill:#2d5428;}.k{fill:#1e8a43;}.l{fill:#71c168;}.m{fill:#b4c7e7;}.n{fill:#6dbce9;}.o{fill:#2b2971;}.p{fill:#5f76b9;}.q{fill:#26c4f3;}.r{fill:#69c8c5;}.s{fill:#965aa4;}.t{fill:#9f5a25;}.u{fill:#dea427;stroke:#bcbec0;}.v{fill:#fec010;}.w{fill:#a7a9ac;}.x{stroke:#a7a9ac;}.aa{fill:#25a2dc;stroke:#00aeef;}</style></defs><rect class="a" x="0.5" y="0.5" width="315.1" height="323"/><rect class="b" x="22" y="243.5" width="287.4" height="72"/><rect class="b" x="22" y="26.5" width="287.4" height="40"/><rect class="b" x="22" y="123.5" width="287.4" height="57"/><path class="c" d="M169.7,139.7c3.6,11.8,7.2,14.7,7.9,25.8s-2.9,17.9.6,28.2a32.6,32.6,0,0,0,9.3,14.4c15.8,13.4,40.6,1.2,45.7,10.4,1.5,2.7-.1,4.5-3.1,14.4-.4,1.5-6.3,21.9-6.2,39.8s8,23.7,3.7,29.1-22,4.5-33.3-1.4c-14.1-7.3-12.8-16.3-22.3-18.6-15.8-3.8-24.8,19.6-44.4,17.5-11.1-1.2-20.5-10.1-24.5-18.4s-.9-9.1-2.6-24.8c-2.3-21.1-7.6-24.2-5.1-33.9,3.1-11.6,11.6-10.5,18.1-22.3,2.9-5.2,4.8-11.7-1.1-53.4C108.3,118.1,163.7,119.8,169.7,139.7Z" transform="translate(0.5 0.5)"/><path class="d" d="M244.8,57.9c-8.7-9.3-19.6-20.9-35.9-29.4-35.7-18.7-85.5-16.4-91.2-1.1-4.5,12.3,17.4,39.4,42.7,50,14.3,5.9,28.9,6.3,34.8,18.1,1.8,3.6,2.4,8.8,2.4,19.1a203,203,0,0,1-.2,30.5c-3,31.9-15,39.6-8.8,50.8s21.4,13.3,26,14.2c14.7,2.7,20.9-3.3,25.1.8,7.2,7.1-10.6,25.3-7.3,52.5.7,6,2.5,21,14.1,29.1,13.6,9.5,31.5,3.1,39.2.3,2-.7,23.3-8.8,26.6-22.9.4-1.6.8-4.9-5.9-23.4-8.4-22.9-11.2-23.4-11.8-32.3-.8-12.3,4.3-14.8,1.6-25.3-1.9-7.3-5.1-8.8-10.8-18.4a113.6,113.6,0,0,1-11.5-29.3c-4.3-18.4,2.1-21.2-.3-38.1S259.6,73.6,244.8,57.9Z" transform="translate(0.5 0.5)"/><text class="e" transform="translate(30.1 311.4)">Primary producers</text><text class="e" transform="translate(30.1 118.1)">Tertiary consumers</text><text class="e" transform="translate(30.1 239.2)">Primary consumers</text><text class="e" transform="translate(30.1 176.4)">Secondary consumers</text><text class="e" transform="translate(30.1 62.5)">Apex predators</text><circle class="f" cx="140" cy="288.5" r="7.5"/><circle class="g" cx="140" cy="288.5" r="7.5"/><ellipse class="h" cx="213.2" cy="292.5" rx="7.5" ry="7"/><ellipse class="g" cx="213.2" cy="292.5" rx="7.5" ry="7"/><circle class="i" cx="118.9" cy="266" r="7.5"/><circle class="g" cx="118.9" cy="266" r="7.5"/><circle class="j" cx="302.3" cy="265.5" r="7"/><circle class="g" cx="302.3" cy="265.5" r="7"/><circle class="k" cx="252.8" cy="277.6" r="7.5"/><circle class="g" cx="252.8" cy="277.6" r="7.5"/><circle class="l" cx="181.5" cy="266" r="7.5"/><circle class="g" cx="181.5" cy="266" r="7.5"/><circle class="m" cx="202" cy="192.6" r="7"/><circle class="g" cx="202" cy="192.6" r="7"/><ellipse class="n" cx="249" cy="193.7" rx="7.5" ry="7"/><ellipse class="g" cx="249" cy="193.7" rx="7.5" ry="7"/><circle class="o" cx="220.7" cy="226.4" r="7.5"/><circle class="g" cx="220.7" cy="226.4" r="7.5"/><circle class="p" cx="155" cy="213.2" r="7"/><circle class="g" cx="155" cy="213.2" r="7"/><ellipse class="q" cx="183.9" cy="226.4" rx="7" ry="7.5"/><ellipse class="g" cx="183.9" cy="226.4" rx="7" ry="7.5"/><ellipse class="r" cx="276.5" cy="196.2" rx="7" ry="7.5" transform="translate(70.7 465.8) rotate(-87.9)"/><ellipse class="g" cx="277" cy="196.7" rx="7.5" ry="7"/><circle class="s" cx="141" cy="147.7" r="7"/><circle class="g" cx="141" cy="147.7" r="7"/><circle class="t" cx="249.5" cy="114.7" r="7"/><circle class="g" cx="249.5" cy="114.7" r="7"/><ellipse class="u" cx="233.5" cy="77.3" rx="7" ry="7.5"/><ellipse class="g" cx="233.1" cy="77" rx="7" ry="7.5"/><circle class="v" cx="132.5" cy="34.5" r="7.5"/><circle class="g" cx="132.5" cy="34.5" r="7.5"/><line class="w" x1="155" y1="206.2" x2="143.4" y2="154.7"/><line class="x" x1="155" y1="206.2" x2="144.6" y2="160.2"/><path class="w" d="M142.9,154.2a28.2,28.2,0,0,0,6,6.8l-4.6-.6-4,2.6A28.9,28.9,0,0,0,142.9,154.2Z" transform="translate(0.5 0.5)"/><line class="w" x1="241.5" y1="112.7" x2="137" y2="41.9"/><line class="x" x1="241.5" y1="112.7" x2="141.7" y2="45"/><path class="w" d="M136.5,41.4a31.2,31.2,0,0,0,9.1.8l-3.8,2.7-1.2,4.6A28.1,28.1,0,0,0,136.5,41.4Z" transform="translate(0.5 0.5)"/><line class="w" x1="141" y1="140.7" x2="132.5" y2="42"/><line class="x" x1="141" y1="140.7" x2="133" y2="47.6"/><path class="w" d="M132,41.5a26.2,26.2,0,0,0,5.1,7.5l-4.6-1.2-4.2,2A29.6,29.6,0,0,0,132,41.5Z" transform="translate(0.5 0.5)"/><line class="w" x1="146.5" y1="143.4" x2="242.5" y2="118.3"/><line class="x" x1="146.5" y1="143.4" x2="237.1" y2="119.7"/><path class="w" d="M242,117.8a28.3,28.3,0,0,0-6.6,6.3l.4-4.7-2.6-3.8A25.9,25.9,0,0,0,242,117.8Z" transform="translate(0.5 0.5)"/><line class="w" x1="146.5" y1="143.4" x2="226.8" y2="82.5"/><line class="x" x1="146.5" y1="143.4" x2="222.4" y2="85.9"/><path class="w" d="M226.3,82a27.5,27.5,0,0,0-3.6,8.3l-1.4-4.5-4-2.5A28,28,0,0,0,226.3,82Z" transform="translate(0.5 0.5)"/><line class="w" x1="202" y1="185.6" x2="231.2" y2="84.4"/><line class="x" x1="202" y1="185.6" x2="229.7" y2="89.8"/><path class="w" d="M230.7,83.9a25.8,25.8,0,0,0,2.1,8.8L229,90l-4.7.3A29.9,29.9,0,0,0,230.7,83.9Z" transform="translate(0.5 0.5)"/><line class="w" x1="244" y1="188.5" x2="235" y2="84.8"/><line class="x" x1="244" y1="188.5" x2="235.4" y2="90.4"/><path class="w" d="M234.5,84.3a27.6,27.6,0,0,0,5.1,7.5L235,90.6l-4.3,2A29.9,29.9,0,0,0,234.5,84.3Z" transform="translate(0.5 0.5)"/><line class="w" x1="273.4" y1="189.7" x2="252.8" y2="121.7"/><line class="x" x1="273.4" y1="189.7" x2="254.4" y2="127.1"/><path class="w" d="M252.3,121.2a28.6,28.6,0,0,0,6.6,6.4l-4.7-.3-3.8,2.8A28.8,28.8,0,0,0,252.3,121.2Z" transform="translate(0.5 0.5)"/><line class="w" x1="249" y1="186.7" x2="249.5" y2="121.7"/><line class="x" x1="249" y1="186.7" x2="249.4" y2="127.3"/><path class="w" d="M249,121.2a26.7,26.7,0,0,0,4.3,8l-4.4-1.6-4.4,1.6A28.5,28.5,0,0,0,249,121.2Z" transform="translate(0.5 0.5)"/><line class="w" x1="179.9" y1="220.2" x2="148" y2="154.2"/><line class="x" x1="179.9" y1="220.2" x2="150.4" y2="159.2"/><path class="w" d="M147.5,153.7a29.1,29.1,0,0,0,7.4,5.2l-4.7.5-3.2,3.3A27,27,0,0,0,147.5,153.7Z" transform="translate(0.5 0.5)"/><line class="w" x1="213.2" y1="222.5" x2="148" y2="152"/><line class="x" x1="213.2" y1="222.5" x2="151.8" y2="156.1"/><path class="w" d="M147.5,151.5a27.9,27.9,0,0,0,8.6,2.8l-4.3,1.9-2.2,4.1A25.2,25.2,0,0,0,147.5,151.5Z" transform="translate(0.5 0.5)"/><line class="w" x1="220.7" y1="218.9" x2="233.5" y2="84.8"/><line class="x" x1="220.7" y1="218.9" x2="233" y2="90.4"/><path class="w" d="M233,84.3a29.4,29.4,0,0,0,3.6,8.3l-4.2-2-4.6,1.2A28,28,0,0,0,233,84.3Z" transform="translate(0.5 0.5)"/><line class="w" x1="256.5" y1="270.1" x2="276.8" y2="203.7"/><line class="x" x1="256.5" y1="270.1" x2="275.1" y2="209.1"/><path class="w" d="M276.3,203.2a26.2,26.2,0,0,0,1.9,8.9l-3.8-2.8-4.7.2A26.2,26.2,0,0,0,276.3,203.2Z" transform="translate(0.5 0.5)"/><line class="w" x1="298.9" y1="258.5" x2="278.5" y2="203.6"/><line class="x" x1="298.9" y1="258.5" x2="280.5" y2="208.9"/><path class="w" d="M278,203.1a30.1,30.1,0,0,0,7,5.9h-4.7l-3.6,3.1A29.7,29.7,0,0,0,278,203.1Z" transform="translate(0.5 0.5)"/><line class="w" x1="251.3" y1="270.1" x2="249" y2="200.7"/><line class="x" x1="251.3" y1="270.1" x2="249.2" y2="206.3"/><path class="w" d="M248.5,200.2a26.6,26.6,0,0,0,4.7,7.8l-4.5-1.4-4.4,1.7A28.3,28.3,0,0,0,248.5,200.2Z" transform="translate(0.5 0.5)"/><line class="w" x1="216.3" y1="285.5" x2="220.7" y2="233.9"/><line class="x" x1="216.3" y1="285.5" x2="220.3" y2="239.4"/><path class="w" d="M220.2,233.4a28,28,0,0,0,3.8,8.2l-4.3-1.9-4.5,1.2A29.8,29.8,0,0,0,220.2,233.4Z" transform="translate(0.5 0.5)"/><line class="w" x1="256.5" y1="270.1" x2="276.8" y2="203.7"/><line class="x" x1="256.5" y1="270.1" x2="275.1" y2="209.1"/><path class="w" d="M276.3,203.2a26.2,26.2,0,0,0,1.9,8.9l-3.8-2.8-4.7.2A26.2,26.2,0,0,0,276.3,203.2Z" transform="translate(0.5 0.5)"/><line class="w" x1="186.7" y1="260.1" x2="214.9" y2="231"/><line class="x" x1="186.7" y1="260.1" x2="211" y2="235.1"/><path class="w" d="M214.4,230.5a31.2,31.2,0,0,0-2.4,8.8l-2-4.2-4.3-1.9A28.3,28.3,0,0,0,214.4,230.5Z" transform="translate(0.5 0.5)"/><line class="w" x1="209.7" y1="286.4" x2="202" y2="199.6"/><line class="x" x1="209.7" y1="286.4" x2="202.5" y2="205.2"/><path class="w" d="M201.5,199.1a30.1,30.1,0,0,0,5.1,7.5l-4.6-1.2-4.2,2A29.6,29.6,0,0,0,201.5,199.1Z" transform="translate(0.5 0.5)"/><line class="w" x1="120.9" y1="258.5" x2="138.4" y2="154.2"/><line class="x" x1="120.9" y1="258.5" x2="137.5" y2="159.8"/><path class="w" d="M137.9,153.7a27.4,27.4,0,0,0,3,8.6l-4-2.3-4.7.8A26.6,26.6,0,0,0,137.9,153.7Z" transform="translate(0.5 0.5)"/><line class="w" x1="140" y1="281" x2="141" y2="156.9"/><line class="x" x1="140" y1="281" x2="140.9" y2="162.5"/><path class="w" d="M140.5,156.4a26.7,26.7,0,0,0,4.3,8l-4.4-1.6-4.4,1.5A26.6,26.6,0,0,0,140.5,156.4Z" transform="translate(0.5 0.5)"/><line class="w" x1="141.5" y1="280.9" x2="155" y2="220.2"/><line class="x" x1="141.5" y1="280.9" x2="153.8" y2="225.7"/><path class="w" d="M154.5,219.7a28.9,28.9,0,0,0,2.6,8.8l-4-2.6-4.7.6A26.6,26.6,0,0,0,154.5,219.7Z" transform="translate(0.5 0.5)"/><line class="w" x1="180.8" y1="259.5" x2="183.9" y2="233.9"/><line class="x" x1="180.8" y1="259.5" x2="183.2" y2="239.4"/><path class="w" d="M183.4,233.4a30.9,30.9,0,0,0,3.4,8.4l-4.2-2.1-4.5,1A27.9,27.9,0,0,0,183.4,233.4Z" transform="translate(0.5 0.5)"/><path class="y" d="M362.5,83.9" transform="translate(0.5 0.5)"/><path class="z" d="M173.1,194.3" transform="translate(0.5 0.5)"/><path class="aa" d="M231.2,212.9" transform="translate(0.5 0.5)"/></svg>