<svg id="Layer_1" data-name="Layer 1" xmlns="http://www.w3.org/2000/svg" xmlns:xlink="http://www.w3.org/1999/xlink" viewBox="0 0 361.07 360.54"><defs><style>.cls-1,.cls-10,.cls-11,.cls-12,.cls-14,.cls-4,.cls-7,.cls-9{fill:none;}.cls-2{fill:#fff;}.cls-3{clip-path:url(#clip-path);}.cls-4{stroke:#fff;}.cls-4,.cls-7,.cls-9{stroke-linecap:round;}.cls-10,.cls-11,.cls-12,.cls-14,.cls-4,.cls-7,.cls-9{stroke-linejoin:round;}.cls-12,.cls-14,.cls-4{stroke-width:1.07px;}.cls-5{clip-path:url(#clip-path-2);}.cls-6{fill:#8b3a3a;}.cls-10,.cls-7{stroke:#8b3a3a;}.cls-7,.cls-9{stroke-width:0.71px;}.cls-8{fill:#4682b4;}.cls-11,.cls-9{stroke:#4682b4;}.cls-10,.cls-11{stroke-width:2.13px;}.cls-12{stroke:#000;}.cls-13{fill:#4d4d4d;}.cls-14{stroke:#333;}.cls-15{clip-path:url(#clip-path-3);}.cls-16{clip-path:url(#clip-path-4);}</style><clipPath id="clip-path" transform="translate(0.54 0.54)"><rect class="cls-1" width="180" height="342.75"/></clipPath><clipPath id="clip-path-2" transform="translate(0.54 0.54)"><rect class="cls-1" x="46.16" y="5.48" width="128.36" height="315.72"/></clipPath><clipPath id="clip-path-3" transform="translate(0.54 0.54)"><rect class="cls-1" x="180" width="180" height="342.75"/></clipPath><clipPath id="clip-path-4" transform="translate(0.54 0.54)"><rect class="cls-1" x="219.49" y="5.48" width="135.03" height="315.72"/></clipPath></defs><rect class="cls-2" x="0.54" y="0.54" width="360" height="360"/><g class="cls-3"><rect class="cls-2" x="0.54" y="0.54" width="180" height="342.75"/><rect class="cls-4" x="0.54" y="0.54" width="180" height="342.75"/></g><g class="cls-5"><rect class="cls-2" x="46.69" y="6.02" width="128.36" height="315.72"/><path class="cls-6" d="M134.89,218.44a4.63,4.63,0,1,1,4.62,4.63,4.63,4.63,0,0,1-4.62-4.63" transform="translate(0.54 0.54)"/><path class="cls-7" d="M134.89,218.44a4.63,4.63,0,1,1,4.62,4.63,4.63,4.63,0,0,1-4.62-4.63" transform="translate(0.54 0.54)"/><path class="cls-8" d="M76.55,64.6a4.62,4.62,0,1,1,4.62,4.63,4.63,4.63,0,0,1-4.62-4.63" transform="translate(0.54 0.54)"/><path class="cls-9" d="M76.55,64.6a4.62,4.62,0,1,1,4.62,4.63,4.63,4.63,0,0,1-4.62-4.63" transform="translate(0.54 0.54)"/><line class="cls-10" x1="132.76" y1="201.76" x2="147.34" y2="201.76"/><line class="cls-10" x1="140.04" y1="201.76" x2="140.04" y2="236.2"/><line class="cls-10" x1="132.76" y1="236.2" x2="147.34" y2="236.2"/><line class="cls-11" x1="74.41" y1="44.48" x2="88.99" y2="44.48"/><line class="cls-11" x1="81.7" y1="44.48" x2="81.7" y2="85.8"/><line class="cls-11" x1="74.41" y1="85.8" x2="88.99" y2="85.8"/></g><line class="cls-12" x1="46.69" y1="321.74" x2="46.69" y2="6.02"/><path class="cls-13" d="M25.2,311.15v-2H21.52v-1l3.85-5.33h.89v5.44H27.5v.92H26.26v2Zm0-3v-3.81l-2.69,3.81Z" transform="translate(0.54 0.54)"/><path class="cls-13" d="M33.5,304.1a6.06,6.06,0,0,1,.56,2.84,6.82,6.82,0,0,1-.51,2.83,2.5,2.5,0,0,1-2.42,1.61,2.44,2.44,0,0,1-2.25-1.31,6,6,0,0,1-.61-2.95,7.14,7.14,0,0,1,.37-2.45,2.52,2.52,0,0,1,2.5-1.91A2.49,2.49,0,0,1,33.5,304.1Zm-1.07,5.59a5.2,5.2,0,0,0,.49-2.71,6.81,6.81,0,0,0-.35-2.35,1.35,1.35,0,0,0-1.37-.92,1.42,1.42,0,0,0-1.36.87,6.06,6.06,0,0,0-.43,2.59,6.46,6.46,0,0,0,.27,2.06,1.5,1.5,0,0,0,1.45,1.19A1.48,1.48,0,0,0,32.43,309.69Z" transform="translate(0.54 0.54)"/><path class="cls-13" d="M40.17,304.1a6.06,6.06,0,0,1,.56,2.84,6.82,6.82,0,0,1-.51,2.83,2.49,2.49,0,0,1-2.41,1.61,2.42,2.42,0,0,1-2.25-1.31,6,6,0,0,1-.62-2.95,7.39,7.39,0,0,1,.37-2.45,2.53,2.53,0,0,1,2.5-1.91A2.48,2.48,0,0,1,40.17,304.1Zm-1.06,5.59A5.3,5.3,0,0,0,39.6,307a6.56,6.56,0,0,0-.36-2.35,1.34,1.34,0,0,0-1.36-.92,1.43,1.43,0,0,0-1.37.87,6.06,6.06,0,0,0-.43,2.59,6.16,6.16,0,0,0,.28,2.06,1.5,1.5,0,0,0,2.75.46Z" transform="translate(0.54 0.54)"/><path class="cls-13" d="M25.2,253.75V251.7H21.52v-1l3.85-5.33h.89v5.44H27.5v.92H26.26v2.05Zm0-3V247l-2.69,3.81Z" transform="translate(0.54 0.54)"/><path class="cls-13" d="M29.38,251.61a1.47,1.47,0,0,0,.83,1.25,2,2,0,0,0,.87.18,1.62,1.62,0,0,0,1.39-.6,2.16,2.16,0,0,0,.45-1.33,1.76,1.76,0,0,0-.53-1.36,1.88,1.88,0,0,0-1.29-.48,2,2,0,0,0-.94.21,2,2,0,0,0-.66.59l-.91,0,.63-4.52h4.36v1H30l-.36,2.33a2.35,2.35,0,0,1,.55-.33,2.86,2.86,0,0,1,1.09-.2,2.78,2.78,0,0,1,2,.75,2.46,2.46,0,0,1,.8,1.89,3.22,3.22,0,0,1-.74,2.09A2.82,2.82,0,0,1,31,254a3,3,0,0,1-1.82-.58,2.28,2.28,0,0,1-.88-1.77Z" transform="translate(0.54 0.54)"/><path class="cls-13" d="M40.17,246.7a6.06,6.06,0,0,1,.56,2.84,6.82,6.82,0,0,1-.51,2.83A2.49,2.49,0,0,1,37.81,254a2.42,2.42,0,0,1-2.25-1.31,6,6,0,0,1-.62-2.95,7.39,7.39,0,0,1,.37-2.45,2.53,2.53,0,0,1,2.5-1.91A2.48,2.48,0,0,1,40.17,246.7Zm-1.06,5.59a5.3,5.3,0,0,0,.49-2.71,6.56,6.56,0,0,0-.36-2.35,1.34,1.34,0,0,0-1.36-.92,1.43,1.43,0,0,0-1.37.87,6.06,6.06,0,0,0-.43,2.59,6.16,6.16,0,0,0,.28,2.06,1.5,1.5,0,0,0,2.75.46Z" transform="translate(0.54 0.54)"/><path class="cls-13" d="M22.7,194.21a1.46,1.46,0,0,0,.84,1.25,2,2,0,0,0,.87.17A1.63,1.63,0,0,0,25.8,195a2.16,2.16,0,0,0,.45-1.33,1.73,1.73,0,0,0-.54-1.36,1.85,1.85,0,0,0-1.28-.48,1.83,1.83,0,0,0-1.6.8l-.92,0,.64-4.52h4.36v1H23.34L23,191.45a2.4,2.4,0,0,1,.56-.33,3,3,0,0,1,3,.55,2.42,2.42,0,0,1,.8,1.88,3.22,3.22,0,0,1-.73,2.1,2.83,2.83,0,0,1-2.35.91,2.94,2.94,0,0,1-1.81-.58,2.25,2.25,0,0,1-.88-1.77Z" transform="translate(0.54 0.54)"/><path class="cls-13" d="M33.5,189.3a6.06,6.06,0,0,1,.56,2.84,6.82,6.82,0,0,1-.51,2.83,2.5,2.5,0,0,1-2.42,1.61,2.44,2.44,0,0,1-2.25-1.31,6.05,6.05,0,0,1-.61-3,7.14,7.14,0,0,1,.37-2.45,2.52,2.52,0,0,1,2.5-1.91A2.49,2.49,0,0,1,33.5,189.3Zm-1.07,5.59a5.2,5.2,0,0,0,.49-2.71,6.81,6.81,0,0,0-.35-2.35,1.35,1.35,0,0,0-1.37-.92,1.42,1.42,0,0,0-1.36.87,6.06,6.06,0,0,0-.43,2.59,6.46,6.46,0,0,0,.27,2.06,1.5,1.5,0,0,0,1.45,1.19A1.48,1.48,0,0,0,32.43,194.89Z" transform="translate(0.54 0.54)"/><path class="cls-13" d="M40.17,189.3a6.06,6.06,0,0,1,.56,2.84,6.82,6.82,0,0,1-.51,2.83,2.49,2.49,0,0,1-2.41,1.61,2.42,2.42,0,0,1-2.25-1.31,6,6,0,0,1-.62-3,7.39,7.39,0,0,1,.37-2.45,2.53,2.53,0,0,1,2.5-1.91A2.48,2.48,0,0,1,40.17,189.3Zm-1.06,5.59a5.3,5.3,0,0,0,.49-2.71,6.56,6.56,0,0,0-.36-2.35,1.34,1.34,0,0,0-1.36-.92,1.43,1.43,0,0,0-1.37.87,6.06,6.06,0,0,0-.43,2.59,6.16,6.16,0,0,0,.28,2.06,1.5,1.5,0,0,0,2.75.46Z" transform="translate(0.54 0.54)"/><path class="cls-13" d="M22.7,136.8a1.46,1.46,0,0,0,.84,1.25,2,2,0,0,0,.87.18,1.63,1.63,0,0,0,1.39-.6,2.16,2.16,0,0,0,.45-1.33,1.73,1.73,0,0,0-.54-1.36,1.85,1.85,0,0,0-1.28-.48,1.83,1.83,0,0,0-1.6.8l-.92,0,.64-4.52h4.36v1H23.34L23,134a2.4,2.4,0,0,1,.56-.33,3,3,0,0,1,3,.55,2.43,2.43,0,0,1,.8,1.89,3.21,3.21,0,0,1-.73,2.09,2.83,2.83,0,0,1-2.35.91,2.94,2.94,0,0,1-1.81-.58,2.25,2.25,0,0,1-.88-1.77Z" transform="translate(0.54 0.54)"/><path class="cls-13" d="M29.38,136.8a1.47,1.47,0,0,0,.83,1.25,2,2,0,0,0,.87.18,1.62,1.62,0,0,0,1.39-.6,2.16,2.16,0,0,0,.45-1.33,1.76,1.76,0,0,0-.53-1.36,1.88,1.88,0,0,0-1.29-.48,2,2,0,0,0-.94.21,2,2,0,0,0-.66.59l-.91,0,.63-4.52h4.36v1H30L29.66,134a2.35,2.35,0,0,1,.55-.33,2.86,2.86,0,0,1,1.09-.2,2.78,2.78,0,0,1,2,.75,2.46,2.46,0,0,1,.8,1.89,3.22,3.22,0,0,1-.74,2.09,2.82,2.82,0,0,1-2.34.91,3,3,0,0,1-1.82-.58,2.28,2.28,0,0,1-.88-1.77Z" transform="translate(0.54 0.54)"/><path class="cls-13" d="M40.17,131.89a6.06,6.06,0,0,1,.56,2.84,6.82,6.82,0,0,1-.51,2.83,2.49,2.49,0,0,1-2.41,1.61,2.42,2.42,0,0,1-2.25-1.31,6,6,0,0,1-.62-3,7.39,7.39,0,0,1,.37-2.45,2.53,2.53,0,0,1,2.5-1.91A2.48,2.48,0,0,1,40.17,131.89Zm-1.06,5.59a5.3,5.3,0,0,0,.49-2.71,6.56,6.56,0,0,0-.36-2.35,1.34,1.34,0,0,0-1.36-.92,1.43,1.43,0,0,0-1.37.87,6.06,6.06,0,0,0-.43,2.59,6.16,6.16,0,0,0,.28,2.06,1.5,1.5,0,0,0,2.75.46Z" transform="translate(0.54 0.54)"/><path class="cls-13" d="M26.69,73.84a2.47,2.47,0,0,1,.55,1.51h-1a1.77,1.77,0,0,0-.3-.78A1.33,1.33,0,0,0,24.75,74a1.6,1.6,0,0,0-1.41.82,4.66,4.66,0,0,0-.58,2.34,2.28,2.28,0,0,1,.92-.8,2.7,2.7,0,0,1,1.12-.23,2.73,2.73,0,0,1,1.84.67,2.52,2.52,0,0,1,.79,2,3.06,3.06,0,0,1-.75,2,2.63,2.63,0,0,1-2.12.88,2.7,2.7,0,0,1-2-.9,4.28,4.28,0,0,1-.86-3,8.2,8.2,0,0,1,.38-2.65,2.71,2.71,0,0,1,2.68-2.09A2.33,2.33,0,0,1,26.69,73.84Zm-.79,6.42a2.18,2.18,0,0,0,.41-1.32,2.24,2.24,0,0,0-.37-1.23,1.45,1.45,0,0,0-1.34-.58,1.75,1.75,0,0,0-1.19.45,1.71,1.71,0,0,0-.51,1.36,2,2,0,0,0,.46,1.34,1.61,1.61,0,0,0,1.29.54A1.46,1.46,0,0,0,25.9,80.26Z" transform="translate(0.54 0.54)"/><path class="cls-13" d="M33.5,74.49a6.06,6.06,0,0,1,.56,2.84,6.82,6.82,0,0,1-.51,2.83,2.5,2.5,0,0,1-2.42,1.61,2.44,2.44,0,0,1-2.25-1.31,6,6,0,0,1-.61-2.95,7.14,7.14,0,0,1,.37-2.45,2.52,2.52,0,0,1,2.5-1.91A2.49,2.49,0,0,1,33.5,74.49Zm-1.07,5.59a5.2,5.2,0,0,0,.49-2.71A6.81,6.81,0,0,0,32.57,75a1.35,1.35,0,0,0-1.37-.92,1.42,1.42,0,0,0-1.36.87,6.06,6.06,0,0,0-.43,2.59,6.46,6.46,0,0,0,.27,2.06,1.5,1.5,0,0,0,1.45,1.19A1.48,1.48,0,0,0,32.43,80.08Z" transform="translate(0.54 0.54)"/><path class="cls-13" d="M40.17,74.49a6.06,6.06,0,0,1,.56,2.84,6.82,6.82,0,0,1-.51,2.83,2.49,2.49,0,0,1-2.41,1.61,2.42,2.42,0,0,1-2.25-1.31,6,6,0,0,1-.62-2.95,7.39,7.39,0,0,1,.37-2.45,2.53,2.53,0,0,1,2.5-1.91A2.48,2.48,0,0,1,40.17,74.49Zm-1.06,5.59a5.3,5.3,0,0,0,.49-2.71A6.56,6.56,0,0,0,39.24,75a1.34,1.34,0,0,0-1.36-.92,1.43,1.43,0,0,0-1.37.87,6.06,6.06,0,0,0-.43,2.59,6.16,6.16,0,0,0,.28,2.06,1.5,1.5,0,0,0,2.75.46Z" transform="translate(0.54 0.54)"/><path class="cls-13" d="M26.69,16.44A2.47,2.47,0,0,1,27.24,18h-1a1.77,1.77,0,0,0-.3-.78,1.33,1.33,0,0,0-1.15-.53,1.6,1.6,0,0,0-1.41.82,4.66,4.66,0,0,0-.58,2.34,2.28,2.28,0,0,1,.92-.8,2.7,2.7,0,0,1,1.12-.23,2.73,2.73,0,0,1,1.84.67,2.52,2.52,0,0,1,.79,2,3.06,3.06,0,0,1-.75,2,2.63,2.63,0,0,1-2.12.88,2.7,2.7,0,0,1-2-.9,4.28,4.28,0,0,1-.86-3,8.2,8.2,0,0,1,.38-2.65,2.71,2.71,0,0,1,2.68-2.09A2.33,2.33,0,0,1,26.69,16.44Zm-.79,6.42a2.18,2.18,0,0,0,.41-1.32,2.24,2.24,0,0,0-.37-1.23,1.45,1.45,0,0,0-1.34-.58,1.75,1.75,0,0,0-1.19.45,1.71,1.71,0,0,0-.51,1.36,2,2,0,0,0,.46,1.34,1.61,1.61,0,0,0,1.29.54A1.46,1.46,0,0,0,25.9,22.86Z" transform="translate(0.54 0.54)"/><path class="cls-13" d="M29.38,22a1.47,1.47,0,0,0,.83,1.25,2,2,0,0,0,.87.18,1.62,1.62,0,0,0,1.39-.6,2.16,2.16,0,0,0,.45-1.33,1.76,1.76,0,0,0-.53-1.36,1.88,1.88,0,0,0-1.29-.48,2,2,0,0,0-.94.21,2.07,2.07,0,0,0-.66.59l-.91-.05.63-4.52h4.36v1H30l-.36,2.33a2.35,2.35,0,0,1,.55-.33,2.86,2.86,0,0,1,1.09-.2,2.78,2.78,0,0,1,2,.75,2.46,2.46,0,0,1,.8,1.89,3.22,3.22,0,0,1-.74,2.09,2.82,2.82,0,0,1-2.34.91,3,3,0,0,1-1.82-.58A2.28,2.28,0,0,1,28.28,22Z" transform="translate(0.54 0.54)"/><path class="cls-13" d="M40.17,17.09a6.06,6.06,0,0,1,.56,2.84,6.82,6.82,0,0,1-.51,2.83,2.49,2.49,0,0,1-2.41,1.61,2.42,2.42,0,0,1-2.25-1.31,6,6,0,0,1-.62-2.95,7.39,7.39,0,0,1,.37-2.45,2.53,2.53,0,0,1,2.5-1.91A2.48,2.48,0,0,1,40.17,17.09Zm-1.06,5.59A5.3,5.3,0,0,0,39.6,20a6.56,6.56,0,0,0-.36-2.35,1.34,1.34,0,0,0-1.36-.92,1.43,1.43,0,0,0-1.37.87,6.06,6.06,0,0,0-.43,2.59,6.16,6.16,0,0,0,.28,2.06,1.5,1.5,0,0,0,2.75.46Z" transform="translate(0.54 0.54)"/><line class="cls-14" x1="43.97" y1="307.38" x2="46.69" y2="307.38"/><line class="cls-14" x1="43.97" y1="249.98" x2="46.69" y2="249.98"/><line class="cls-14" x1="43.97" y1="192.57" x2="46.69" y2="192.57"/><line class="cls-14" x1="43.97" y1="135.17" x2="46.69" y2="135.17"/><line class="cls-14" x1="43.97" y1="77.77" x2="46.69" y2="77.77"/><line class="cls-14" x1="43.97" y1="20.36" x2="46.69" y2="20.36"/><line class="cls-12" x1="46.69" y1="321.74" x2="175.06" y2="321.74"/><line class="cls-14" x1="81.7" y1="324.47" x2="81.7" y2="321.74"/><line class="cls-14" x1="140.04" y1="324.47" x2="140.04" y2="321.74"/><path class="cls-13" d="M69.52,332a2.29,2.29,0,0,0,.33,1.19,2.17,2.17,0,0,0,2,.86,3.27,3.27,0,0,0,1.15-.19,1.32,1.32,0,0,0,1-1.3,1.14,1.14,0,0,0-.42-1A4,4,0,0,0,72.2,331l-1.13-.27a5.23,5.23,0,0,1-1.57-.56,1.82,1.82,0,0,1-.79-1.62,2.52,2.52,0,0,1,.78-1.9,3.06,3.06,0,0,1,2.21-.74,3.75,3.75,0,0,1,2.24.65,2.38,2.38,0,0,1,.92,2.09h-1.1a2.07,2.07,0,0,0-.36-1.06,2,2,0,0,0-1.73-.68,2,2,0,0,0-1.42.44,1.38,1.38,0,0,0-.44,1,1,1,0,0,0,.52.92,6.93,6.93,0,0,0,1.51.47L73,330a3.56,3.56,0,0,1,1.31.54,2.06,2.06,0,0,1,.79,1.75,2.21,2.21,0,0,1-1,2.05,4.46,4.46,0,0,1-2.36.61,3.46,3.46,0,0,1-2.45-.82,2.81,2.81,0,0,1-.87-2.21Z" transform="translate(0.54 0.54)"/><path class="cls-13" d="M76.73,326.13H78.4l2.47,7.28,2.46-7.28H85v8.61H83.88v-5.08c0-.18,0-.47,0-.87s0-.84,0-1.31l-2.46,7.26H80.29l-2.48-7.26v.26c0,.22,0,.54,0,1s0,.75,0,1v5.08H76.73Z" transform="translate(0.54 0.54)"/><path class="cls-13" d="M92.84,326.76a3,3,0,0,1,1,2H92.7a2.18,2.18,0,0,0-2.35-1.81,2.53,2.53,0,0,0-2,.9,4.13,4.13,0,0,0-.77,2.74,4,4,0,0,0,.7,2.45,2.39,2.39,0,0,0,2.07.94,2.16,2.16,0,0,0,1.92-1,3.7,3.7,0,0,0,.53-1.37h1.13a3.9,3.9,0,0,1-1,2.28A3.54,3.54,0,0,1,90.18,335a3.59,3.59,0,0,1-2.49-.91,5.67,5.67,0,0,1-.33-6.84,3.63,3.63,0,0,1,3-1.32A3.47,3.47,0,0,1,92.84,326.76Z" transform="translate(0.54 0.54)"/><path class="cls-13" d="M128.23,326.13h3.92a3.86,3.86,0,0,1,1.59.29,2,2,0,0,1,1.19,2,2.24,2.24,0,0,1-.32,1.27,2.29,2.29,0,0,1-.89.79,1.79,1.79,0,0,1,.76.54,1.92,1.92,0,0,1,.28,1.08l0,1.16a2.91,2.91,0,0,0,.09.73.73.73,0,0,0,.37.53v.19h-1.43a.9.9,0,0,1-.09-.29,3.64,3.64,0,0,1-.06-.68l-.07-1.43a1.22,1.22,0,0,0-.61-1.13,2.4,2.4,0,0,0-1-.16H129.4v3.69h-1.17Zm3.79,3.95a2.14,2.14,0,0,0,1.26-.33,1.37,1.37,0,0,0,.47-1.19,1.28,1.28,0,0,0-.65-1.25,2,2,0,0,0-.93-.18H129.4v2.95Z" transform="translate(0.54 0.54)"/><path class="cls-13" d="M136.87,326.13h6v1.06H138v2.61h4.22v1H138v3.91h-1.17Z" transform="translate(0.54 0.54)"/><path class="cls-13" d="M144.23,326.13h3.91a3.88,3.88,0,0,1,1.6.29,2,2,0,0,1,1.19,2,2.32,2.32,0,0,1-.32,1.27,2.29,2.29,0,0,1-.89.79,1.82,1.82,0,0,1,.75.54,1.91,1.91,0,0,1,.29,1.08l0,1.16a3.62,3.62,0,0,0,.08.73.74.74,0,0,0,.38.53v.19h-1.43a1.21,1.21,0,0,1-.1-.29c0-.11,0-.34-.06-.68l-.07-1.43a1.21,1.21,0,0,0-.6-1.13,2.4,2.4,0,0,0-1-.16H145.4v3.69h-1.17Zm3.79,3.95a2.14,2.14,0,0,0,1.26-.33,1.37,1.37,0,0,0,.46-1.19,1.27,1.27,0,0,0-.64-1.25,2.08,2.08,0,0,0-.93-.18H145.4v2.95Z" transform="translate(0.54 0.54)"/><path d="M12.29,214.39a2.93,2.93,0,0,0,1.39-.38,2.56,2.56,0,0,0,1-2.3,4,4,0,0,0-.22-1.34,1.55,1.55,0,0,0-1.52-1.18,1.33,1.33,0,0,0-1.17.5,4.71,4.71,0,0,0-.59,1.58l-.31,1.31a5.65,5.65,0,0,1-.67,1.83,2.1,2.1,0,0,1-1.88.93,2.93,2.93,0,0,1-2.22-.91,3.6,3.6,0,0,1-.87-2.58A4.41,4.41,0,0,1,6,209.23a2.79,2.79,0,0,1,2.43-1.07v1.28a2.44,2.44,0,0,0-1.23.42,2.37,2.37,0,0,0-.79,2,2.26,2.26,0,0,0,.51,1.66,1.59,1.59,0,0,0,1.17.51,1.16,1.16,0,0,0,1.08-.6,8.29,8.29,0,0,0,.55-1.77l.32-1.36a4.21,4.21,0,0,1,.64-1.53,2.42,2.42,0,0,1,2-.92,2.58,2.58,0,0,1,2.39,1.18,5.29,5.29,0,0,1,.71,2.75,4.08,4.08,0,0,1-1,2.86,3.26,3.26,0,0,1-2.58,1Z" transform="translate(0.54 0.54)"/><path d="M8.24,206.21V205h1a3.07,3.07,0,0,1-.77-.81A2.61,2.61,0,0,1,8,202.73a2.76,2.76,0,0,1,1-2.11,3.93,3.93,0,0,1,2.73-.87A4.18,4.18,0,0,1,15.13,201a2.86,2.86,0,0,1,.65,1.85,2.56,2.56,0,0,1-.37,1.4,3.08,3.08,0,0,1-.7.73h3.74v1.23ZM14,201.58a3.44,3.44,0,0,0-2.16-.57,4,4,0,0,0-1.5.25,1.87,1.87,0,0,0,.07,3.52,5,5,0,0,0,1.74.25,3.67,3.67,0,0,0,1.44-.25,1.88,1.88,0,0,0,.41-3.2Z" transform="translate(0.54 0.54)"/><path d="M8.41,193.8a2.81,2.81,0,0,1,.95-1.11,3.33,3.33,0,0,1,1.29-.48,7.86,7.86,0,0,1,1.61-.11v5.32a3.22,3.22,0,0,0,1.8-.52,1.74,1.74,0,0,0,.67-1.51,1.94,1.94,0,0,0-.64-1.53,2.22,2.22,0,0,0-.86-.45V192.2a2.51,2.51,0,0,1,.9.32,3.28,3.28,0,0,1,.81.6,2.81,2.81,0,0,1,.74,1.38,4.22,4.22,0,0,1,.11,1,3.07,3.07,0,0,1-1,2.31,3.91,3.91,0,0,1-2.79.94,4.22,4.22,0,0,1-2.86-1A3.11,3.11,0,0,1,8,195.3,3.39,3.39,0,0,1,8.41,193.8Zm2.87-.44a3.2,3.2,0,0,0-1.27.35,1.75,1.75,0,0,0-.89,1.67,1.84,1.84,0,0,0,.61,1.41,2.31,2.31,0,0,0,1.55.6Z" transform="translate(0.54 0.54)"/><path d="M8.6,185.7a2.85,2.85,0,0,1,2.07-.93V186a2.22,2.22,0,0,0-1.12.5,1.58,1.58,0,0,0-.45,1.25,1.74,1.74,0,0,0,1.14,1.69,4.56,4.56,0,0,0,1.84.32,3.46,3.46,0,0,0,1.85-.46,1.6,1.6,0,0,0,.75-1.46,1.62,1.62,0,0,0-.46-1.22,2.74,2.74,0,0,0-1.28-.62v-1.19a3.21,3.21,0,0,1,2.13,1,3.21,3.21,0,0,1,.67,2.1,2.8,2.8,0,0,1-1.05,2.29,4,4,0,0,1-2.62.86,4.45,4.45,0,0,1-3-.94A3,3,0,0,1,8,187.71,3.2,3.2,0,0,1,8.6,185.7Z" transform="translate(0.54 0.54)"/><path d="M5.49,183.54v-1.25H6.88v1.25Zm2.75,0v-1.25h7.29v1.25Z" transform="translate(0.54 0.54)"/><path d="M8.41,175.91a2.68,2.68,0,0,1,.95-1.11,3.18,3.18,0,0,1,1.29-.49,8.66,8.66,0,0,1,1.61-.11v5.32a3.15,3.15,0,0,0,1.8-.52,1.73,1.73,0,0,0,.67-1.51,1.94,1.94,0,0,0-.64-1.53,2.22,2.22,0,0,0-.86-.45V174.3a2.51,2.51,0,0,1,.9.32,3.28,3.28,0,0,1,.81.6,2.81,2.81,0,0,1,.74,1.38,4.31,4.31,0,0,1,.11,1,3.07,3.07,0,0,1-1,2.3,3.91,3.91,0,0,1-2.79.94,4.17,4.17,0,0,1-2.86-1A3.1,3.1,0,0,1,8,177.41,3.32,3.32,0,0,1,8.41,175.91Zm2.87-.45a3.2,3.2,0,0,0-1.27.35,1.75,1.75,0,0,0-.89,1.67,1.84,1.84,0,0,0,.61,1.41,2.32,2.32,0,0,0,1.55.61Z" transform="translate(0.54 0.54)"/><path d="M13.23,171.91a1.84,1.84,0,0,0,.95-.31,2,2,0,0,0,.59-1.65,2.44,2.44,0,0,0-.3-1.23,1,1,0,0,0-.92-.53.77.77,0,0,0-.71.42,5.22,5.22,0,0,0-.35,1.07l-.25,1a4.8,4.8,0,0,1-.52,1.4,1.54,1.54,0,0,1-1.38.81,2.12,2.12,0,0,1-1.68-.76,3.06,3.06,0,0,1-.64-2,2.85,2.85,0,0,1,1-2.42,2.07,2.07,0,0,1,1.32-.45v1.16a1.53,1.53,0,0,0-.75.3,2,2,0,0,0-.48,1.51,1.91,1.91,0,0,0,.26,1.08.84.84,0,0,0,.7.37.86.86,0,0,0,.77-.49,3.11,3.11,0,0,0,.3-.82l.2-.83a6.43,6.43,0,0,1,.62-1.81,1.64,1.64,0,0,1,1.48-.72,2.22,2.22,0,0,1,1.69.76,3.23,3.23,0,0,1,.71,2.28,3.08,3.08,0,0,1-.74,2.34,2.79,2.79,0,0,1-1.84.74Z" transform="translate(0.54 0.54)"/><path d="M8.21,161.72v-1.17H9.47a3,3,0,0,1-.9-.71A1.82,1.82,0,0,1,8,158.55s0-.06,0-.11,0-.15,0-.28h1.3a.75.75,0,0,0,0,.2c0,.06,0,.13,0,.2a1.75,1.75,0,0,0,.6,1.43,2.11,2.11,0,0,0,1.38.5h4.21v1.23Z" transform="translate(0.54 0.54)"/><path d="M5.49,156.89v-1.25H6.88v1.25Zm2.75,0v-1.25h7.29v1.25Z" transform="translate(0.54 0.54)"/><path d="M8.6,149a2.89,2.89,0,0,1,2.07-.94v1.2a2.14,2.14,0,0,0-1.12.5A1.58,1.58,0,0,0,9.1,151a1.73,1.73,0,0,0,1.14,1.68,4.55,4.55,0,0,0,1.84.33,3.46,3.46,0,0,0,1.85-.47,1.81,1.81,0,0,0,.29-2.67,2.57,2.57,0,0,0-1.28-.62V148a3.22,3.22,0,0,1,2.13,1,3.21,3.21,0,0,1,.67,2.1,2.81,2.81,0,0,1-1.05,2.29,4,4,0,0,1-2.62.85,4.45,4.45,0,0,1-3-.93A3,3,0,0,1,8,151,3.18,3.18,0,0,1,8.6,149Z" transform="translate(0.54 0.54)"/><path d="M5.45,146.78v-1.23H9.2a3.54,3.54,0,0,1-.78-.78A2.66,2.66,0,0,1,8,143.28a2.19,2.19,0,0,1,1.12-2.16,3.83,3.83,0,0,1,1.68-.3h4.7v1.26H10.92a2.55,2.55,0,0,0-1.19.21,1.3,1.3,0,0,0-.6,1.25,2.1,2.1,0,0,0,.53,1.39,2.51,2.51,0,0,0,2,.62h3.88v1.23Z" transform="translate(0.54 0.54)"/><path d="M8.21,139v-1.17h1a3.44,3.44,0,0,1-.93-1.1A3,3,0,0,1,8,135.44a2.14,2.14,0,0,1,1.09-2.11,3.89,3.89,0,0,1,1.7-.3h4.7v1.25H10.92a2.51,2.51,0,0,0-1.08.2,1.2,1.2,0,0,0-.69,1.19,2.43,2.43,0,0,0,.09.72,1.84,1.84,0,0,0,.6.88,1.72,1.72,0,0,0,.75.4,4.51,4.51,0,0,0,1.1.1h3.84V139Z" transform="translate(0.54 0.54)"/><path d="M8.41,126.69a2.68,2.68,0,0,1,.95-1.11,3.34,3.34,0,0,1,1.29-.49,8.66,8.66,0,0,1,1.61-.11v5.33a3.22,3.22,0,0,0,1.8-.52,1.75,1.75,0,0,0,.67-1.52,1.93,1.93,0,0,0-.64-1.52,2.09,2.09,0,0,0-.86-.45v-1.21a2.48,2.48,0,0,1,.9.31,3.07,3.07,0,0,1,.81.61,2.82,2.82,0,0,1,.74,1.37,4.37,4.37,0,0,1,.11,1,3,3,0,0,1-1,2.3,3.91,3.91,0,0,1-2.79.95,4.22,4.22,0,0,1-2.86-.95A3.14,3.14,0,0,1,8,128.19,3.32,3.32,0,0,1,8.41,126.69Zm2.87-.44a3.21,3.21,0,0,0-1.27.34,1.77,1.77,0,0,0-.89,1.68,1.84,1.84,0,0,0,.61,1.41,2.31,2.31,0,0,0,1.55.6Z" transform="translate(0.54 0.54)"/><path d="M13.23,122.69a1.75,1.75,0,0,0,.95-.31,2,2,0,0,0,.59-1.65,2.49,2.49,0,0,0-.3-1.23,1,1,0,0,0-.92-.53.78.78,0,0,0-.71.43,5,5,0,0,0-.35,1.07l-.25,1a4.88,4.88,0,0,1-.52,1.41,1.55,1.55,0,0,1-1.38.8,2.09,2.09,0,0,1-1.68-.76,3,3,0,0,1-.64-2,2.85,2.85,0,0,1,1-2.42,2.13,2.13,0,0,1,1.32-.45v1.17a1.36,1.36,0,0,0-.75.3,2,2,0,0,0-.48,1.5,1.87,1.87,0,0,0,.26,1.08.82.82,0,0,0,.7.37.87.87,0,0,0,.77-.48,3.25,3.25,0,0,0,.3-.82l.2-.83a6.3,6.3,0,0,1,.62-1.81,1.64,1.64,0,0,1,1.48-.72,2.25,2.25,0,0,1,1.69.75,3.24,3.24,0,0,1,.71,2.29,3.11,3.11,0,0,1-.74,2.34,2.85,2.85,0,0,1-1.84.74Z" transform="translate(0.54 0.54)"/><path d="M13.23,115.69a1.75,1.75,0,0,0,.95-.31,2,2,0,0,0,.59-1.65,2.49,2.49,0,0,0-.3-1.23,1,1,0,0,0-.92-.53.78.78,0,0,0-.71.43,5,5,0,0,0-.35,1.07l-.25,1a4.88,4.88,0,0,1-.52,1.41,1.55,1.55,0,0,1-1.38.8,2.09,2.09,0,0,1-1.68-.76,3,3,0,0,1-.64-2,2.85,2.85,0,0,1,1-2.42,2.13,2.13,0,0,1,1.32-.45v1.17a1.36,1.36,0,0,0-.75.3,2,2,0,0,0-.48,1.5,1.87,1.87,0,0,0,.26,1.08.82.82,0,0,0,.7.37.87.87,0,0,0,.77-.48,3.25,3.25,0,0,0,.3-.82l.2-.83a6.3,6.3,0,0,1,.62-1.81,1.64,1.64,0,0,1,1.48-.72,2.25,2.25,0,0,1,1.69.75,3.24,3.24,0,0,1,.71,2.29,3.11,3.11,0,0,1-.74,2.34,2.85,2.85,0,0,1-1.84.74Z" transform="translate(0.54 0.54)"/><path d="M8.77,13H5.05l-.69,2.07H2.16L5.75,5H8.13L11.7,15.08H9.42Zm-.59-1.74-1.26-4-1.3,4Z" transform="translate(0.54 0.54)"/><g class="cls-15"><rect class="cls-2" x="180.54" y="0.54" width="180" height="342.75"/><rect class="cls-4" x="180.54" y="0.54" width="180" height="342.75"/></g><g class="cls-16"><rect class="cls-2" x="220.03" y="6.02" width="135.03" height="315.72"/><path class="cls-6" d="M313.07,184.86a4.63,4.63,0,1,1,4.62,4.63,4.63,4.63,0,0,1-4.62-4.63" transform="translate(0.54 0.54)"/><path class="cls-7" d="M313.07,184.86a4.63,4.63,0,1,1,4.62,4.63,4.63,4.63,0,0,1-4.62-4.63" transform="translate(0.54 0.54)"/><path class="cls-8" d="M251.7,77.23a4.62,4.62,0,1,1,4.62,4.63,4.63,4.63,0,0,1-4.62-4.63" transform="translate(0.54 0.54)"/><path class="cls-9" d="M251.7,77.23a4.62,4.62,0,1,1,4.62,4.63,4.63,4.63,0,0,1-4.62-4.63" transform="translate(0.54 0.54)"/><line class="cls-10" x1="310.55" y1="156.7" x2="325.9" y2="156.7"/><line class="cls-10" x1="318.23" y1="156.7" x2="318.23" y2="214.11"/><line class="cls-10" x1="310.55" y1="214.11" x2="325.9" y2="214.11"/><line class="cls-11" x1="249.18" y1="49.06" x2="264.52" y2="49.06"/><line class="cls-11" x1="256.86" y1="49.06" x2="256.86" y2="106.46"/><line class="cls-11" x1="249.18" y1="106.46" x2="264.52" y2="106.46"/></g><line class="cls-12" x1="220.03" y1="321.74" x2="220.03" y2="6.02"/><path class="cls-13" d="M202.7,309a1.46,1.46,0,0,0,.84,1.25,2,2,0,0,0,.87.18,1.63,1.63,0,0,0,1.39-.6,2.16,2.16,0,0,0,.45-1.33,1.73,1.73,0,0,0-.54-1.36,1.88,1.88,0,0,0-1.29-.48,1.94,1.94,0,0,0-.93.21,2.07,2.07,0,0,0-.66.59l-.92-.05.64-4.52h4.36v1h-3.57l-.36,2.33a2.4,2.4,0,0,1,.56-.33,3,3,0,0,1,3,.55,2.43,2.43,0,0,1,.8,1.89,3.21,3.21,0,0,1-.73,2.09,2.83,2.83,0,0,1-2.35.91,2.94,2.94,0,0,1-1.81-.58,2.25,2.25,0,0,1-.88-1.77Z" transform="translate(0.54 0.54)"/><path class="cls-13" d="M213.5,304.1a6.06,6.06,0,0,1,.56,2.84,6.82,6.82,0,0,1-.51,2.83,2.5,2.5,0,0,1-2.42,1.61,2.44,2.44,0,0,1-2.25-1.31,6,6,0,0,1-.61-2.95,7.14,7.14,0,0,1,.37-2.45,2.52,2.52,0,0,1,2.5-1.91A2.49,2.49,0,0,1,213.5,304.1Zm-1.07,5.59a5.2,5.2,0,0,0,.49-2.71,6.81,6.81,0,0,0-.35-2.35,1.35,1.35,0,0,0-1.37-.92,1.42,1.42,0,0,0-1.36.87,6.06,6.06,0,0,0-.43,2.59,6.46,6.46,0,0,0,.27,2.06,1.5,1.5,0,0,0,2.75.46Z" transform="translate(0.54 0.54)"/><path class="cls-13" d="M206.69,231.7a2.47,2.47,0,0,1,.55,1.51h-1a1.87,1.87,0,0,0-.3-.78,1.33,1.33,0,0,0-1.15-.53,1.6,1.6,0,0,0-1.41.82,4.66,4.66,0,0,0-.58,2.34,2.32,2.32,0,0,1,.91-.8,2.78,2.78,0,0,1,1.13-.23,2.73,2.73,0,0,1,1.84.67,2.51,2.51,0,0,1,.78,2,3,3,0,0,1-.74,2,2.64,2.64,0,0,1-2.12.88,2.7,2.7,0,0,1-2-.9,4.28,4.28,0,0,1-.86-3,8.2,8.2,0,0,1,.38-2.65,2.71,2.71,0,0,1,2.68-2.09A2.33,2.33,0,0,1,206.69,231.7Zm-.79,6.42a2.18,2.18,0,0,0,.41-1.32,2.24,2.24,0,0,0-.37-1.23,1.45,1.45,0,0,0-1.34-.58,1.75,1.75,0,0,0-1.19.45,1.71,1.71,0,0,0-.51,1.36,2,2,0,0,0,.46,1.34,1.61,1.61,0,0,0,1.29.54A1.46,1.46,0,0,0,205.9,238.12Z" transform="translate(0.54 0.54)"/><path class="cls-13" d="M213.5,232.35a6.06,6.06,0,0,1,.56,2.84,6.82,6.82,0,0,1-.51,2.83,2.5,2.5,0,0,1-2.42,1.61,2.44,2.44,0,0,1-2.25-1.31,6,6,0,0,1-.61-2.94,7.16,7.16,0,0,1,.37-2.46,2.52,2.52,0,0,1,2.5-1.91A2.49,2.49,0,0,1,213.5,232.35Zm-1.07,5.59a5.2,5.2,0,0,0,.49-2.71,6.81,6.81,0,0,0-.35-2.35,1.35,1.35,0,0,0-1.37-.92,1.42,1.42,0,0,0-1.36.87,6.06,6.06,0,0,0-.43,2.59,6.46,6.46,0,0,0,.27,2.06,1.5,1.5,0,0,0,2.75.46Z" transform="translate(0.54 0.54)"/><path class="cls-13" d="M207.5,159.4v.92a9.83,9.83,0,0,0-1.08,1.37,13.67,13.67,0,0,0-1.19,2.09,14.88,14.88,0,0,0-.77,2c-.11.39-.26,1-.44,1.87h-1.17a14.56,14.56,0,0,1,1.76-4.78,15.66,15.66,0,0,1,1.69-2.41h-4.64V159.4Z" transform="translate(0.54 0.54)"/><path class="cls-13" d="M213.5,160.6a6.06,6.06,0,0,1,.56,2.84,6.82,6.82,0,0,1-.51,2.83,2.5,2.5,0,0,1-2.42,1.61,2.44,2.44,0,0,1-2.25-1.31,6.05,6.05,0,0,1-.61-2.95,7.14,7.14,0,0,1,.37-2.45,2.52,2.52,0,0,1,2.5-1.91A2.49,2.49,0,0,1,213.5,160.6Zm-1.07,5.59a5.2,5.2,0,0,0,.49-2.71,6.81,6.81,0,0,0-.35-2.35,1.35,1.35,0,0,0-1.37-.92,1.42,1.42,0,0,0-1.36.87,6.06,6.06,0,0,0-.43,2.59,6.46,6.46,0,0,0,.27,2.06,1.5,1.5,0,0,0,2.75.46Z" transform="translate(0.54 0.54)"/><path class="cls-13" d="M202.36,91a1.65,1.65,0,0,1-.46-1.22,2.21,2.21,0,0,1,.68-1.61,2.6,2.6,0,0,1,1.92-.67,2.66,2.66,0,0,1,1.89.63,2,2,0,0,1,.69,1.49,1.93,1.93,0,0,1-.4,1.27,2.58,2.58,0,0,1-.69.54,2.61,2.61,0,0,1,.82.55,2.08,2.08,0,0,1,.56,1.52,2.62,2.62,0,0,1-.74,1.88,2.82,2.82,0,0,1-2.11.77,3.29,3.29,0,0,1-2.07-.66,2.34,2.34,0,0,1-.84-1.94,2.13,2.13,0,0,1,1.44-2.11A2.16,2.16,0,0,1,202.36,91Zm3.4,3.79a1.4,1.4,0,0,0,.49-1.18,1.53,1.53,0,0,0-.5-1.23,1.92,1.92,0,0,0-1.28-.42,1.76,1.76,0,0,0-1.23.43,1.5,1.5,0,0,0-.48,1.19,1.62,1.62,0,0,0,.44,1.13,1.74,1.74,0,0,0,1.35.48A1.8,1.8,0,0,0,205.76,94.77Zm-.19-4.15a1.24,1.24,0,0,0,0-1.79,1.51,1.51,0,0,0-1.14-.39,1.37,1.37,0,0,0-1.1.39,1.34,1.34,0,0,0-.34.92,1.08,1.08,0,0,0,.44.93,1.66,1.66,0,0,0,1,.34A1.45,1.45,0,0,0,205.57,90.62Z" transform="translate(0.54 0.54)"/><path class="cls-13" d="M213.5,88.84a6.06,6.06,0,0,1,.56,2.84,6.82,6.82,0,0,1-.51,2.83,2.5,2.5,0,0,1-2.42,1.61,2.44,2.44,0,0,1-2.25-1.31,6,6,0,0,1-.61-3,7.14,7.14,0,0,1,.37-2.45,2.52,2.52,0,0,1,2.5-1.91A2.49,2.49,0,0,1,213.5,88.84Zm-1.07,5.59a5.2,5.2,0,0,0,.49-2.71,6.81,6.81,0,0,0-.35-2.35,1.35,1.35,0,0,0-1.37-.92,1.42,1.42,0,0,0-1.36.87,6.06,6.06,0,0,0-.43,2.59,6.46,6.46,0,0,0,.27,2.06,1.5,1.5,0,0,0,2.75.46Z" transform="translate(0.54 0.54)"/><path class="cls-13" d="M202.81,22.11a1.32,1.32,0,0,0,.68,1.2,1.43,1.43,0,0,0,.72.18,1.62,1.62,0,0,0,1.29-.63,5.14,5.14,0,0,0,.76-2.56,2,2,0,0,1-.87.78,2.8,2.8,0,0,1-1.12.23,2.51,2.51,0,0,1-1.92-.75,2.76,2.76,0,0,1-.7-1.95,3.14,3.14,0,0,1,.69-2,2.82,2.82,0,0,1,4.59.79,5.74,5.74,0,0,1,.39,2.27,7.44,7.44,0,0,1-.46,2.73,2.69,2.69,0,0,1-2.61,2,2.49,2.49,0,0,1-1.86-.65,2.17,2.17,0,0,1-.64-1.61ZM205.56,20a1.75,1.75,0,0,0,.52-1.44,1.84,1.84,0,0,0-.47-1.38,1.63,1.63,0,0,0-1.19-.45,1.52,1.52,0,0,0-1.22.52,2,2,0,0,0-.46,1.38,2,2,0,0,0,.4,1.3,1.57,1.57,0,0,0,1.27.48A1.78,1.78,0,0,0,205.56,20Z" transform="translate(0.54 0.54)"/><path class="cls-13" d="M213.5,17.09a6.06,6.06,0,0,1,.56,2.84,6.82,6.82,0,0,1-.51,2.83,2.5,2.5,0,0,1-2.42,1.61,2.44,2.44,0,0,1-2.25-1.31,6,6,0,0,1-.61-2.95,7.14,7.14,0,0,1,.37-2.45,2.52,2.52,0,0,1,2.5-1.91A2.49,2.49,0,0,1,213.5,17.09Zm-1.07,5.59a5.2,5.2,0,0,0,.49-2.71,6.81,6.81,0,0,0-.35-2.35,1.35,1.35,0,0,0-1.37-.92,1.42,1.42,0,0,0-1.36.87,6.06,6.06,0,0,0-.43,2.59,6.46,6.46,0,0,0,.27,2.06,1.5,1.5,0,0,0,2.75.46Z" transform="translate(0.54 0.54)"/><line class="cls-14" x1="217.29" y1="307.38" x2="220.03" y2="307.38"/><line class="cls-14" x1="217.29" y1="235.62" x2="220.03" y2="235.62"/><line class="cls-14" x1="217.29" y1="163.87" x2="220.03" y2="163.87"/><line class="cls-14" x1="217.29" y1="92.11" x2="220.03" y2="92.11"/><line class="cls-14" x1="217.29" y1="20.36" x2="220.03" y2="20.36"/><line class="cls-12" x1="220.03" y1="321.74" x2="355.05" y2="321.74"/><line class="cls-14" x1="256.86" y1="324.47" x2="256.86" y2="321.74"/><line class="cls-14" x1="318.23" y1="324.47" x2="318.23" y2="321.74"/><path class="cls-13" d="M244.67,332a2.29,2.29,0,0,0,.33,1.19,2.17,2.17,0,0,0,2,.86,3.27,3.27,0,0,0,1.15-.19,1.32,1.32,0,0,0,1-1.3,1.14,1.14,0,0,0-.42-1,4,4,0,0,0-1.35-.51l-1.13-.27a5.23,5.23,0,0,1-1.57-.56,1.82,1.82,0,0,1-.79-1.62,2.52,2.52,0,0,1,.78-1.9,3.06,3.06,0,0,1,2.21-.74,3.75,3.75,0,0,1,2.24.65,2.38,2.38,0,0,1,.92,2.09h-1.1a2.07,2.07,0,0,0-.36-1.06,2,2,0,0,0-1.73-.68,2,2,0,0,0-1.42.44,1.38,1.38,0,0,0-.44,1,1,1,0,0,0,.52.92,6.93,6.93,0,0,0,1.51.47l1.17.28a3.56,3.56,0,0,1,1.31.54,2.06,2.06,0,0,1,.79,1.75,2.21,2.21,0,0,1-1,2.05,4.46,4.46,0,0,1-2.36.61,3.46,3.46,0,0,1-2.45-.82,2.81,2.81,0,0,1-.87-2.21Z" transform="translate(0.54 0.54)"/><path class="cls-13" d="M251.88,326.13h1.67l2.47,7.28,2.46-7.28h1.66v8.61H259v-5.08c0-.18,0-.47,0-.87s0-.84,0-1.31l-2.46,7.26h-1.15L253,327.48v.26c0,.22,0,.54,0,1s0,.75,0,1v5.08h-1.11Z" transform="translate(0.54 0.54)"/><path class="cls-13" d="M268,326.76a3,3,0,0,1,1,2h-1.13a2.18,2.18,0,0,0-2.35-1.81,2.53,2.53,0,0,0-2,.9,4.13,4.13,0,0,0-.77,2.74,4,4,0,0,0,.7,2.45,2.39,2.39,0,0,0,2.07.94,2.16,2.16,0,0,0,1.92-1,3.7,3.7,0,0,0,.53-1.37h1.13a3.9,3.9,0,0,1-1,2.28,3.54,3.54,0,0,1-2.74,1.11,3.59,3.59,0,0,1-2.49-.91,5.67,5.67,0,0,1-.33-6.84,3.63,3.63,0,0,1,3-1.32A3.47,3.47,0,0,1,268,326.76Z" transform="translate(0.54 0.54)"/><path class="cls-13" d="M306.42,326.13h3.91a3.86,3.86,0,0,1,1.59.29,2,2,0,0,1,1.19,2,2.24,2.24,0,0,1-.32,1.27,2.29,2.29,0,0,1-.89.79,1.79,1.79,0,0,1,.76.54,1.92,1.92,0,0,1,.28,1.08l0,1.16a3.47,3.47,0,0,0,.09.73.73.73,0,0,0,.37.53v.19H312a.9.9,0,0,1-.09-.29,3.64,3.64,0,0,1-.06-.68l-.07-1.43a1.22,1.22,0,0,0-.61-1.13,2.4,2.4,0,0,0-1-.16h-2.58v3.69h-1.16Zm3.78,3.95a2.14,2.14,0,0,0,1.26-.33,1.37,1.37,0,0,0,.47-1.19,1.28,1.28,0,0,0-.65-1.25,2,2,0,0,0-.93-.18h-2.77v2.95Z" transform="translate(0.54 0.54)"/><path class="cls-13" d="M315.05,326.13h6v1.06h-4.8v2.61h4.22v1h-4.22v3.91h-1.17Z" transform="translate(0.54 0.54)"/><path class="cls-13" d="M322.41,326.13h3.91a3.88,3.88,0,0,1,1.6.29,2,2,0,0,1,1.19,2,2.32,2.32,0,0,1-.32,1.27,2.29,2.29,0,0,1-.89.79,1.82,1.82,0,0,1,.75.54,1.91,1.91,0,0,1,.29,1.08l0,1.16a3.62,3.62,0,0,0,.08.73.74.74,0,0,0,.38.53v.19H328a1.21,1.21,0,0,1-.1-.29c0-.11,0-.34-.06-.68l-.07-1.43a1.2,1.2,0,0,0-.61-1.13,2.32,2.32,0,0,0-1-.16h-2.58v3.69h-1.17Zm3.79,3.95a2.14,2.14,0,0,0,1.26-.33,1.37,1.37,0,0,0,.46-1.19,1.27,1.27,0,0,0-.64-1.25,2.08,2.08,0,0,0-.93-.18h-2.77v2.95Z" transform="translate(0.54 0.54)"/><path d="M185.78,200a3.57,3.57,0,0,1,2.75-1.81v1.35a2.42,2.42,0,0,0-1.6,1,3.33,3.33,0,0,0-.51,1.91,3,3,0,0,0,1.05,2.3,4.58,4.58,0,0,0,3.12.93,5.08,5.08,0,0,0,2.91-.77,2.83,2.83,0,0,0,1.13-2.51,3.2,3.2,0,0,0-.79-2.21,3.39,3.39,0,0,0-2.55-.9v3.15h-1.13v-4.41h5.37v.87l-1.29.33a5.47,5.47,0,0,1,1,1.21,4.39,4.39,0,0,1,.51,2.24,4.3,4.3,0,0,1-1.16,3,5.52,5.52,0,0,1-4,1.38,5.78,5.78,0,0,1-4-1.34,4.26,4.26,0,0,1-1.42-3.32A5,5,0,0,1,185.78,200Z" transform="translate(0.54 0.54)"/><path d="M188.21,194.77h4.86a2.07,2.07,0,0,0,.92-.18,1.2,1.2,0,0,0,.65-1.19,1.68,1.68,0,0,0-1.15-1.7,4.53,4.53,0,0,0-1.69-.25h-3.59v-1.23h7.32v1.16h-1.08a2.5,2.5,0,0,1,1.28,2.26,2.14,2.14,0,0,1-1,2.09,3.14,3.14,0,0,1-1.49.31h-5Z" transform="translate(0.54 0.54)"/><path d="M185.49,188.21V187h1.39v1.25Zm2.75,0V187h7.29v1.25Z" transform="translate(0.54 0.54)"/><path d="M185.49,185.07v-1.23h10v1.23Z" transform="translate(0.54 0.54)"/><path d="M188.43,178a3.24,3.24,0,0,1,.72-.74h-3.7V176h10.08v1.11h-1a2.71,2.71,0,0,1,1,1,2.88,2.88,0,0,1,.3,1.34,2.71,2.71,0,0,1-1,2.11,4,4,0,0,1-2.74.89,4.76,4.76,0,0,1-2.77-.81,2.68,2.68,0,0,1-1.17-2.33A2.64,2.64,0,0,1,188.43,178Zm5.49,2.75a1.76,1.76,0,0,0,.8-1.6,1.67,1.67,0,0,0-.74-1.39,3.45,3.45,0,0,0-2.11-.55,3.16,3.16,0,0,0-2.05.56,1.75,1.75,0,0,0-.67,1.4,1.87,1.87,0,0,0,.71,1.5,3.31,3.31,0,0,0,2.1.57A3.61,3.61,0,0,0,193.92,180.72Z" transform="translate(0.54 0.54)"/><path d="M188.21,170.28v-1.17h1.26a2.76,2.76,0,0,1-.89-.7,1.83,1.83,0,0,1-.54-1.29s0-.07,0-.12,0-.15,0-.28h1.3a1.62,1.62,0,0,0,0,.2c0,.06,0,.13,0,.2a1.75,1.75,0,0,0,.6,1.43,2.11,2.11,0,0,0,1.38.5h4.21v1.23Z" transform="translate(0.54 0.54)"/><path d="M185.49,165.46v-1.25h1.39v1.25Zm2.75,0v-1.25h7.29v1.25Z" transform="translate(0.54 0.54)"/><path d="M188.6,157.51a2.85,2.85,0,0,1,2.07-.93v1.19a2.22,2.22,0,0,0-1.12.5,1.58,1.58,0,0,0-.45,1.25,1.73,1.73,0,0,0,1.15,1.69,4.65,4.65,0,0,0,1.83.32,3.46,3.46,0,0,0,1.85-.46,1.82,1.82,0,0,0,.29-2.68,2.61,2.61,0,0,0-1.28-.62v-1.19a2.88,2.88,0,0,1,2.8,3.12,2.8,2.8,0,0,1-1.05,2.29,4,4,0,0,1-2.62.86,4.45,4.45,0,0,1-3-.94,3,3,0,0,1-1.07-2.39A3.2,3.2,0,0,1,188.6,157.51Z" transform="translate(0.54 0.54)"/><path d="M185.45,155.35v-1.23h3.75a3.77,3.77,0,0,1-.78-.79,2.65,2.65,0,0,1-.39-1.48,2.18,2.18,0,0,1,1.12-2.16,3.67,3.67,0,0,1,1.68-.31h4.7v1.26h-4.61a2.55,2.55,0,0,0-1.19.21,1.31,1.31,0,0,0-.6,1.26,2.08,2.08,0,0,0,.53,1.38,2.51,2.51,0,0,0,2,.63h3.88v1.23Z" transform="translate(0.54 0.54)"/><path d="M188.21,147.56v-1.17h1a3.18,3.18,0,0,1-.92-1.1A2.91,2.91,0,0,1,188,144a2.15,2.15,0,0,1,1.09-2.11,3.89,3.89,0,0,1,1.7-.3h4.7v1.25h-4.61a2.51,2.51,0,0,0-1.08.2,1.21,1.21,0,0,0-.69,1.19,2.43,2.43,0,0,0,.09.72,1.86,1.86,0,0,0,.6.89,1.83,1.83,0,0,0,.75.4,5.23,5.23,0,0,0,1.11.09h3.83v1.23Z" transform="translate(0.54 0.54)"/><path d="M188.41,135.25a2.81,2.81,0,0,1,1-1.11,3.33,3.33,0,0,1,1.29-.48,7.86,7.86,0,0,1,1.61-.11v5.32a3.12,3.12,0,0,0,1.8-.52,1.74,1.74,0,0,0,.67-1.51,1.94,1.94,0,0,0-.64-1.53,2.22,2.22,0,0,0-.86-.45v-1.21a2.51,2.51,0,0,1,.9.32,3.28,3.28,0,0,1,.81.6,2.81,2.81,0,0,1,.74,1.38,4.22,4.22,0,0,1,.11,1,3.07,3.07,0,0,1-1,2.31,3.91,3.91,0,0,1-2.79.94,4.22,4.22,0,0,1-2.86-.95,3.11,3.11,0,0,1-1.11-2.49A3.39,3.39,0,0,1,188.41,135.25Zm2.88-.44a3.2,3.2,0,0,0-1.28.35,1.75,1.75,0,0,0-.89,1.67,1.84,1.84,0,0,0,.61,1.41,2.32,2.32,0,0,0,1.56.6Z" transform="translate(0.54 0.54)"/><path d="M193.23,131.26a1.75,1.75,0,0,0,1-.32,2,2,0,0,0,.59-1.64,2.44,2.44,0,0,0-.3-1.23,1,1,0,0,0-.92-.53.77.77,0,0,0-.71.42,5,5,0,0,0-.35,1.07l-.25,1a4.8,4.8,0,0,1-.52,1.4,1.53,1.53,0,0,1-1.38.8,2.11,2.11,0,0,1-1.68-.75,3.06,3.06,0,0,1-.64-2,2.84,2.84,0,0,1,1-2.42,2.07,2.07,0,0,1,1.32-.45v1.16a1.36,1.36,0,0,0-.75.3,2,2,0,0,0-.48,1.51,1.91,1.91,0,0,0,.26,1.08.83.83,0,0,0,.7.36.87.87,0,0,0,.77-.48,3.11,3.11,0,0,0,.3-.82l.2-.83a6.43,6.43,0,0,1,.62-1.81,1.64,1.64,0,0,1,1.48-.72,2.25,2.25,0,0,1,1.69.75,3.24,3.24,0,0,1,.71,2.29,3.11,3.11,0,0,1-.74,2.34,2.79,2.79,0,0,1-1.84.74Z" transform="translate(0.54 0.54)"/><path d="M193.23,124.26a1.75,1.75,0,0,0,1-.32,2,2,0,0,0,.59-1.64,2.44,2.44,0,0,0-.3-1.23,1,1,0,0,0-.92-.53.77.77,0,0,0-.71.42,5,5,0,0,0-.35,1.07l-.25,1a4.8,4.8,0,0,1-.52,1.4,1.53,1.53,0,0,1-1.38.8,2.11,2.11,0,0,1-1.68-.75,3.06,3.06,0,0,1-.64-2,2.84,2.84,0,0,1,1-2.42,2.07,2.07,0,0,1,1.32-.45v1.16a1.36,1.36,0,0,0-.75.3,2,2,0,0,0-.48,1.51,1.91,1.91,0,0,0,.26,1.08.83.83,0,0,0,.7.36.87.87,0,0,0,.77-.48,3.11,3.11,0,0,0,.3-.82l.2-.83a6.43,6.43,0,0,1,.62-1.81,1.64,1.64,0,0,1,1.48-.72,2.25,2.25,0,0,1,1.69.75,3.24,3.24,0,0,1,.71,2.29,3.11,3.11,0,0,1-.74,2.34,2.79,2.79,0,0,1-1.84.74Z" transform="translate(0.54 0.54)"/><path d="M187.47,15.08H182.9V5h4.89a3.11,3.11,0,0,1,2.63,1.08,2.55,2.55,0,0,1,.46,1.54,2.24,2.24,0,0,1-.46,1.48,2.3,2.3,0,0,1-.77.57,2.28,2.28,0,0,1,1.17.89,2.7,2.7,0,0,1,.39,1.48,2.9,2.9,0,0,1-.45,1.6,2.76,2.76,0,0,1-.72.8,2.82,2.82,0,0,1-1.14.5A7.15,7.15,0,0,1,187.47,15.08Zm1-6.36a.93.93,0,0,0,.42-.88.91.91,0,0,0-.55-.93,4.08,4.08,0,0,0-1.21-.16h-2.21V9h2.47A2,2,0,0,0,188.46,8.72Zm-1,1.92h-2.51v2.69h2.47a2.43,2.43,0,0,0,1-.18,1.28,1.28,0,0,0,.67-1.26,1.09,1.09,0,0,0-.65-1.08A2.9,2.9,0,0,0,187.42,10.64Z" transform="translate(0.54 0.54)"/><path d="M133.78,346.36l2.89,8.55,2.85-8.55H141l-3.66,10h-1.44l-3.66-10Z" transform="translate(0.54 0.54)"/><path d="M145.58,349.28a2.71,2.71,0,0,1,1.1,1,3.18,3.18,0,0,1,.49,1.29,7.86,7.86,0,0,1,.11,1.61H142a3.12,3.12,0,0,0,.52,1.8,1.73,1.73,0,0,0,1.51.67,1.94,1.94,0,0,0,1.53-.64,2.22,2.22,0,0,0,.45-.86h1.21a2.51,2.51,0,0,1-.32.9,3.28,3.28,0,0,1-.6.81,2.81,2.81,0,0,1-1.38.74,4.25,4.25,0,0,1-1,.11,3.07,3.07,0,0,1-2.3-1,3.91,3.91,0,0,1-.94-2.79,4.17,4.17,0,0,1,1-2.86,3.1,3.1,0,0,1,2.48-1.1A3.39,3.39,0,0,1,145.58,349.28Zm.44,2.88a3.2,3.2,0,0,0-.35-1.28A1.75,1.75,0,0,0,144,350a1.84,1.84,0,0,0-1.41.61,2.38,2.38,0,0,0-.61,1.56Z" transform="translate(0.54 0.54)"/><path d="M152.91,349.37a3.32,3.32,0,0,1,.71.7v-.92h1.13v6.66a4.82,4.82,0,0,1-.41,2.2,2.92,2.92,0,0,1-2.88,1.49,3.57,3.57,0,0,1-2-.53,2.07,2.07,0,0,1-.9-1.66h1.25a1.39,1.39,0,0,0,.36.76,2.22,2.22,0,0,0,3.14-.59,5.76,5.76,0,0,0,.24-2.1,2.42,2.42,0,0,1-.88.84,3,3,0,0,1-1.37.27,2.92,2.92,0,0,1-2.08-.85,3.72,3.72,0,0,1-.89-2.79,4.24,4.24,0,0,1,.9-2.87,2.76,2.76,0,0,1,2.16-1A2.69,2.69,0,0,1,152.91,349.37Zm.15,1.32a1.89,1.89,0,0,0-3.19.56,4.79,4.79,0,0,0-.25,1.71,3.05,3.05,0,0,0,.5,1.88,1.6,1.6,0,0,0,1.34.64,1.88,1.88,0,0,0,1.86-1.19,3.87,3.87,0,0,0,.3-1.58A3.08,3.08,0,0,0,153.06,350.69Z" transform="translate(0.54 0.54)"/><path d="M161.15,349.28a2.81,2.81,0,0,1,1.11,1,3.5,3.5,0,0,1,.49,1.29,8.87,8.87,0,0,1,.1,1.61h-5.32a3.2,3.2,0,0,0,.52,1.8,1.74,1.74,0,0,0,1.51.67,1.94,1.94,0,0,0,1.53-.64,2.22,2.22,0,0,0,.45-.86h1.21a2.51,2.51,0,0,1-.32.9,3.28,3.28,0,0,1-.6.81,2.81,2.81,0,0,1-1.38.74,4.22,4.22,0,0,1-1,.11,3.07,3.07,0,0,1-2.31-1,3.91,3.91,0,0,1-.94-2.79,4.22,4.22,0,0,1,.95-2.86,3.1,3.1,0,0,1,2.49-1.1A3.38,3.38,0,0,1,161.15,349.28Zm.44,2.88a3.2,3.2,0,0,0-.35-1.28,1.75,1.75,0,0,0-1.67-.89,1.84,1.84,0,0,0-1.41.61,2.32,2.32,0,0,0-.6,1.56Z" transform="translate(0.54 0.54)"/><path d="M164.66,347h1.24v2h1.17v1H165.9v4.78a.53.53,0,0,0,.26.52,1.35,1.35,0,0,0,.48.07h.19l.24,0v1a3.12,3.12,0,0,1-.44.09,3.79,3.79,0,0,1-.49,0,1.33,1.33,0,0,1-1.17-.44,2,2,0,0,1-.31-1.15v-4.85h-1v-1h1Z" transform="translate(0.54 0.54)"/><path d="M172.23,352a.66.66,0,0,0,.56-.35,1.05,1.05,0,0,0,.09-.48,1,1,0,0,0-.45-.91,2.4,2.4,0,0,0-1.28-.29,1.6,1.6,0,0,0-1.36.52,1.71,1.71,0,0,0-.3.86h-1.15a2.16,2.16,0,0,1,.88-1.89,3.64,3.64,0,0,1,2-.53,4,4,0,0,1,2.09.49,1.66,1.66,0,0,1,.8,1.53v4.22a.57.57,0,0,0,.08.31q.07.12.33.12h.19l.22,0v.9l-.44.11-.41,0a1,1,0,0,1-.93-.45,1.76,1.76,0,0,1-.21-.68,3.07,3.07,0,0,1-1.08.85,3.23,3.23,0,0,1-1.55.37,2.3,2.3,0,0,1-1.66-.62,2.06,2.06,0,0,1-.65-1.55,2,2,0,0,1,.64-1.57,2.92,2.92,0,0,1,1.66-.69Zm-2.59,3.32a1.4,1.4,0,0,0,.92.31,2.84,2.84,0,0,0,1.26-.3,1.69,1.69,0,0,0,1-1.63v-1a1.84,1.84,0,0,1-.58.24,6.5,6.5,0,0,1-.69.14l-.75.09a2.81,2.81,0,0,0-1,.28,1.1,1.1,0,0,0-.57,1A1,1,0,0,0,169.64,355.29Z" transform="translate(0.54 0.54)"/><path d="M176.33,347h1.25v2h1.17v1h-1.17v4.78a.53.53,0,0,0,.26.52,1.27,1.27,0,0,0,.48.07h.19l.24,0v1a3.12,3.12,0,0,1-.44.09,4,4,0,0,1-.5,0,1.36,1.36,0,0,1-1.17-.44,2,2,0,0,1-.31-1.15v-4.85h-1v-1h1Z" transform="translate(0.54 0.54)"/><path d="M180,346.36h1.25v1.39H180Zm0,2.75h1.25v7.29H180Z" transform="translate(0.54 0.54)"/><path d="M188.39,349.81a3.68,3.68,0,0,1,1,2.77,4.8,4.8,0,0,1-.85,2.93,3.09,3.09,0,0,1-2.66,1.15,3,3,0,0,1-2.38-1,4,4,0,0,1-.88-2.74,4.39,4.39,0,0,1,.93-2.94,3.1,3.1,0,0,1,2.5-1.09A3.26,3.26,0,0,1,188.39,349.81Zm-.76,4.87a4.68,4.68,0,0,0,.45-2.06,3.65,3.65,0,0,0-.33-1.67,1.82,1.82,0,0,0-1.77-1,1.75,1.75,0,0,0-1.62.86,4,4,0,0,0-.51,2.08,3.46,3.46,0,0,0,.51,1.94,1.78,1.78,0,0,0,1.61.78A1.68,1.68,0,0,0,187.63,354.68Z" transform="translate(0.54 0.54)"/><path d="M190.87,349.08H192v1a3.27,3.27,0,0,1,1.1-.92,2.92,2.92,0,0,1,1.3-.28,2.13,2.13,0,0,1,2.1,1.08,3.89,3.89,0,0,1,.3,1.7v4.7h-1.25v-4.61a2.51,2.51,0,0,0-.2-1.08,1.2,1.2,0,0,0-1.19-.69,2.32,2.32,0,0,0-.71.09,1.82,1.82,0,0,0-.89.6,1.72,1.72,0,0,0-.4.75,5.12,5.12,0,0,0-.1,1.11v3.83h-1.23Z" transform="translate(0.54 0.54)"/><path d="M202.8,347H204v2h1.17v1H204v4.78a.53.53,0,0,0,.26.52,1.31,1.31,0,0,0,.48.07H205l.24,0v1a3.12,3.12,0,0,1-.44.09,3.84,3.84,0,0,1-.5,0,1.36,1.36,0,0,1-1.17-.44,2,2,0,0,1-.3-1.15v-4.85h-1v-1h1Z" transform="translate(0.54 0.54)"/><path d="M211,349.08h1.36c-.18.47-.56,1.54-1.16,3.21-.45,1.26-.82,2.29-1.12,3.08a21,21,0,0,1-1.5,3.42,1.72,1.72,0,0,1-1.51.61l-.39,0-.35-.07v-1.13a3.45,3.45,0,0,0,.46.11,1.23,1.23,0,0,0,.26,0,.8.8,0,0,0,.77-.38l.24-.56c.14-.34.25-.59.31-.75l-2.71-7.54h1.4l2,6Z" transform="translate(0.54 0.54)"/><path d="M213.34,349.11h1.2v1a3.07,3.07,0,0,1,.81-.77,2.61,2.61,0,0,1,1.47-.41,2.74,2.74,0,0,1,2.11,1,3.88,3.88,0,0,1,.87,2.72,4.22,4.22,0,0,1-1.25,3.42,2.86,2.86,0,0,1-1.85.65,2.48,2.48,0,0,1-1.4-.37,3.08,3.08,0,0,1-.73-.7v3.74h-1.23Zm4.63,5.74a3.43,3.43,0,0,0,.57-2.15,4.22,4.22,0,0,0-.25-1.51,1.87,1.87,0,0,0-3.52.07,5,5,0,0,0-.25,1.74,3.67,3.67,0,0,0,.25,1.44,1.75,1.75,0,0,0,1.76,1.13A1.78,1.78,0,0,0,218,354.85Z" transform="translate(0.54 0.54)"/><path d="M225.75,349.28a2.81,2.81,0,0,1,1.11,1,3.33,3.33,0,0,1,.48,1.29,7.86,7.86,0,0,1,.11,1.61h-5.32a3.12,3.12,0,0,0,.52,1.8,1.74,1.74,0,0,0,1.51.67,1.94,1.94,0,0,0,1.53-.64,2.22,2.22,0,0,0,.45-.86h1.21a2.51,2.51,0,0,1-.32.9,3.28,3.28,0,0,1-.6.81,2.81,2.81,0,0,1-1.38.74,4.22,4.22,0,0,1-1,.11,3.07,3.07,0,0,1-2.31-1,3.91,3.91,0,0,1-.94-2.79,4.22,4.22,0,0,1,.95-2.86,3.1,3.1,0,0,1,2.49-1.1A3.38,3.38,0,0,1,225.75,349.28Zm.44,2.88a3.2,3.2,0,0,0-.35-1.28,1.75,1.75,0,0,0-1.67-.89,1.84,1.84,0,0,0-1.41.61,2.32,2.32,0,0,0-.6,1.56Z" transform="translate(0.54 0.54)"/></svg>